G04 #@! TF.GenerationSoftware,KiCad,Pcbnew,(5.0.0)*
G04 #@! TF.CreationDate,2019-01-06T02:19:59+09:00*
G04 #@! TF.ProjectId,M5Stack_WiSUN,4D35537461636B5F576953554E2E6B69,rev?*
G04 #@! TF.SameCoordinates,PX989680PY55d4a80*
G04 #@! TF.FileFunction,Paste,Bot*
G04 #@! TF.FilePolarity,Positive*
%FSLAX46Y46*%
G04 Gerber Fmt 4.6, Leading zero omitted, Abs format (unit mm)*
G04 Created by KiCad (PCBNEW (5.0.0)) date 01/06/19 02:19:59*
%MOMM*%
%LPD*%
G01*
G04 APERTURE LIST*
%ADD10R,0.400000X1.100000*%
%ADD11R,0.300000X1.100000*%
%ADD12C,0.100000*%
%ADD13C,0.590000*%
%ADD14R,1.500000X0.450000*%
%ADD15R,3.150000X1.000000*%
G04 APERTURE END LIST*
D10*
G04 #@! TO.C,U1*
X27193882Y21560664D03*
D11*
X26643882Y21560664D03*
X26143882Y21560664D03*
X25643882Y21560664D03*
X25143882Y21560664D03*
X24643882Y21560664D03*
X24143882Y21560664D03*
X23643882Y21560664D03*
X23143882Y21560664D03*
D10*
X22593882Y21560664D03*
X27193882Y17660664D03*
D11*
X26643882Y17660664D03*
X26143882Y17660664D03*
X25643882Y17660664D03*
X25143882Y17660664D03*
X24643882Y17660664D03*
X24143882Y17660664D03*
X23643882Y17660664D03*
X23143882Y17660664D03*
D10*
X22593882Y17660664D03*
G04 #@! TD*
D12*
G04 #@! TO.C,C1*
G36*
X22776958Y11619290D02*
X22791276Y11617166D01*
X22805317Y11613649D01*
X22818946Y11608772D01*
X22832031Y11602583D01*
X22844447Y11595142D01*
X22856073Y11586519D01*
X22866798Y11576798D01*
X22876519Y11566073D01*
X22885142Y11554447D01*
X22892583Y11542031D01*
X22898772Y11528946D01*
X22903649Y11515317D01*
X22907166Y11501276D01*
X22909290Y11486958D01*
X22910000Y11472500D01*
X22910000Y11127500D01*
X22909290Y11113042D01*
X22907166Y11098724D01*
X22903649Y11084683D01*
X22898772Y11071054D01*
X22892583Y11057969D01*
X22885142Y11045553D01*
X22876519Y11033927D01*
X22866798Y11023202D01*
X22856073Y11013481D01*
X22844447Y11004858D01*
X22832031Y10997417D01*
X22818946Y10991228D01*
X22805317Y10986351D01*
X22791276Y10982834D01*
X22776958Y10980710D01*
X22762500Y10980000D01*
X22467500Y10980000D01*
X22453042Y10980710D01*
X22438724Y10982834D01*
X22424683Y10986351D01*
X22411054Y10991228D01*
X22397969Y10997417D01*
X22385553Y11004858D01*
X22373927Y11013481D01*
X22363202Y11023202D01*
X22353481Y11033927D01*
X22344858Y11045553D01*
X22337417Y11057969D01*
X22331228Y11071054D01*
X22326351Y11084683D01*
X22322834Y11098724D01*
X22320710Y11113042D01*
X22320000Y11127500D01*
X22320000Y11472500D01*
X22320710Y11486958D01*
X22322834Y11501276D01*
X22326351Y11515317D01*
X22331228Y11528946D01*
X22337417Y11542031D01*
X22344858Y11554447D01*
X22353481Y11566073D01*
X22363202Y11576798D01*
X22373927Y11586519D01*
X22385553Y11595142D01*
X22397969Y11602583D01*
X22411054Y11608772D01*
X22424683Y11613649D01*
X22438724Y11617166D01*
X22453042Y11619290D01*
X22467500Y11620000D01*
X22762500Y11620000D01*
X22776958Y11619290D01*
X22776958Y11619290D01*
G37*
D13*
X22615000Y11300000D03*
D12*
G36*
X23746958Y11619290D02*
X23761276Y11617166D01*
X23775317Y11613649D01*
X23788946Y11608772D01*
X23802031Y11602583D01*
X23814447Y11595142D01*
X23826073Y11586519D01*
X23836798Y11576798D01*
X23846519Y11566073D01*
X23855142Y11554447D01*
X23862583Y11542031D01*
X23868772Y11528946D01*
X23873649Y11515317D01*
X23877166Y11501276D01*
X23879290Y11486958D01*
X23880000Y11472500D01*
X23880000Y11127500D01*
X23879290Y11113042D01*
X23877166Y11098724D01*
X23873649Y11084683D01*
X23868772Y11071054D01*
X23862583Y11057969D01*
X23855142Y11045553D01*
X23846519Y11033927D01*
X23836798Y11023202D01*
X23826073Y11013481D01*
X23814447Y11004858D01*
X23802031Y10997417D01*
X23788946Y10991228D01*
X23775317Y10986351D01*
X23761276Y10982834D01*
X23746958Y10980710D01*
X23732500Y10980000D01*
X23437500Y10980000D01*
X23423042Y10980710D01*
X23408724Y10982834D01*
X23394683Y10986351D01*
X23381054Y10991228D01*
X23367969Y10997417D01*
X23355553Y11004858D01*
X23343927Y11013481D01*
X23333202Y11023202D01*
X23323481Y11033927D01*
X23314858Y11045553D01*
X23307417Y11057969D01*
X23301228Y11071054D01*
X23296351Y11084683D01*
X23292834Y11098724D01*
X23290710Y11113042D01*
X23290000Y11127500D01*
X23290000Y11472500D01*
X23290710Y11486958D01*
X23292834Y11501276D01*
X23296351Y11515317D01*
X23301228Y11528946D01*
X23307417Y11542031D01*
X23314858Y11554447D01*
X23323481Y11566073D01*
X23333202Y11576798D01*
X23343927Y11586519D01*
X23355553Y11595142D01*
X23367969Y11602583D01*
X23381054Y11608772D01*
X23394683Y11613649D01*
X23408724Y11617166D01*
X23423042Y11619290D01*
X23437500Y11620000D01*
X23732500Y11620000D01*
X23746958Y11619290D01*
X23746958Y11619290D01*
G37*
D13*
X23585000Y11300000D03*
G04 #@! TD*
D12*
G04 #@! TO.C,R1*
G36*
X30686958Y11809290D02*
X30701276Y11807166D01*
X30715317Y11803649D01*
X30728946Y11798772D01*
X30742031Y11792583D01*
X30754447Y11785142D01*
X30766073Y11776519D01*
X30776798Y11766798D01*
X30786519Y11756073D01*
X30795142Y11744447D01*
X30802583Y11732031D01*
X30808772Y11718946D01*
X30813649Y11705317D01*
X30817166Y11691276D01*
X30819290Y11676958D01*
X30820000Y11662500D01*
X30820000Y11367500D01*
X30819290Y11353042D01*
X30817166Y11338724D01*
X30813649Y11324683D01*
X30808772Y11311054D01*
X30802583Y11297969D01*
X30795142Y11285553D01*
X30786519Y11273927D01*
X30776798Y11263202D01*
X30766073Y11253481D01*
X30754447Y11244858D01*
X30742031Y11237417D01*
X30728946Y11231228D01*
X30715317Y11226351D01*
X30701276Y11222834D01*
X30686958Y11220710D01*
X30672500Y11220000D01*
X30327500Y11220000D01*
X30313042Y11220710D01*
X30298724Y11222834D01*
X30284683Y11226351D01*
X30271054Y11231228D01*
X30257969Y11237417D01*
X30245553Y11244858D01*
X30233927Y11253481D01*
X30223202Y11263202D01*
X30213481Y11273927D01*
X30204858Y11285553D01*
X30197417Y11297969D01*
X30191228Y11311054D01*
X30186351Y11324683D01*
X30182834Y11338724D01*
X30180710Y11353042D01*
X30180000Y11367500D01*
X30180000Y11662500D01*
X30180710Y11676958D01*
X30182834Y11691276D01*
X30186351Y11705317D01*
X30191228Y11718946D01*
X30197417Y11732031D01*
X30204858Y11744447D01*
X30213481Y11756073D01*
X30223202Y11766798D01*
X30233927Y11776519D01*
X30245553Y11785142D01*
X30257969Y11792583D01*
X30271054Y11798772D01*
X30284683Y11803649D01*
X30298724Y11807166D01*
X30313042Y11809290D01*
X30327500Y11810000D01*
X30672500Y11810000D01*
X30686958Y11809290D01*
X30686958Y11809290D01*
G37*
D13*
X30500000Y11515000D03*
D12*
G36*
X30686958Y12779290D02*
X30701276Y12777166D01*
X30715317Y12773649D01*
X30728946Y12768772D01*
X30742031Y12762583D01*
X30754447Y12755142D01*
X30766073Y12746519D01*
X30776798Y12736798D01*
X30786519Y12726073D01*
X30795142Y12714447D01*
X30802583Y12702031D01*
X30808772Y12688946D01*
X30813649Y12675317D01*
X30817166Y12661276D01*
X30819290Y12646958D01*
X30820000Y12632500D01*
X30820000Y12337500D01*
X30819290Y12323042D01*
X30817166Y12308724D01*
X30813649Y12294683D01*
X30808772Y12281054D01*
X30802583Y12267969D01*
X30795142Y12255553D01*
X30786519Y12243927D01*
X30776798Y12233202D01*
X30766073Y12223481D01*
X30754447Y12214858D01*
X30742031Y12207417D01*
X30728946Y12201228D01*
X30715317Y12196351D01*
X30701276Y12192834D01*
X30686958Y12190710D01*
X30672500Y12190000D01*
X30327500Y12190000D01*
X30313042Y12190710D01*
X30298724Y12192834D01*
X30284683Y12196351D01*
X30271054Y12201228D01*
X30257969Y12207417D01*
X30245553Y12214858D01*
X30233927Y12223481D01*
X30223202Y12233202D01*
X30213481Y12243927D01*
X30204858Y12255553D01*
X30197417Y12267969D01*
X30191228Y12281054D01*
X30186351Y12294683D01*
X30182834Y12308724D01*
X30180710Y12323042D01*
X30180000Y12337500D01*
X30180000Y12632500D01*
X30180710Y12646958D01*
X30182834Y12661276D01*
X30186351Y12675317D01*
X30191228Y12688946D01*
X30197417Y12702031D01*
X30204858Y12714447D01*
X30213481Y12726073D01*
X30223202Y12736798D01*
X30233927Y12746519D01*
X30245553Y12755142D01*
X30257969Y12762583D01*
X30271054Y12768772D01*
X30284683Y12773649D01*
X30298724Y12777166D01*
X30313042Y12779290D01*
X30327500Y12780000D01*
X30672500Y12780000D01*
X30686958Y12779290D01*
X30686958Y12779290D01*
G37*
D13*
X30500000Y12485000D03*
G04 #@! TD*
D12*
G04 #@! TO.C,R2*
G36*
X32861958Y8219290D02*
X32876276Y8217166D01*
X32890317Y8213649D01*
X32903946Y8208772D01*
X32917031Y8202583D01*
X32929447Y8195142D01*
X32941073Y8186519D01*
X32951798Y8176798D01*
X32961519Y8166073D01*
X32970142Y8154447D01*
X32977583Y8142031D01*
X32983772Y8128946D01*
X32988649Y8115317D01*
X32992166Y8101276D01*
X32994290Y8086958D01*
X32995000Y8072500D01*
X32995000Y7727500D01*
X32994290Y7713042D01*
X32992166Y7698724D01*
X32988649Y7684683D01*
X32983772Y7671054D01*
X32977583Y7657969D01*
X32970142Y7645553D01*
X32961519Y7633927D01*
X32951798Y7623202D01*
X32941073Y7613481D01*
X32929447Y7604858D01*
X32917031Y7597417D01*
X32903946Y7591228D01*
X32890317Y7586351D01*
X32876276Y7582834D01*
X32861958Y7580710D01*
X32847500Y7580000D01*
X32552500Y7580000D01*
X32538042Y7580710D01*
X32523724Y7582834D01*
X32509683Y7586351D01*
X32496054Y7591228D01*
X32482969Y7597417D01*
X32470553Y7604858D01*
X32458927Y7613481D01*
X32448202Y7623202D01*
X32438481Y7633927D01*
X32429858Y7645553D01*
X32422417Y7657969D01*
X32416228Y7671054D01*
X32411351Y7684683D01*
X32407834Y7698724D01*
X32405710Y7713042D01*
X32405000Y7727500D01*
X32405000Y8072500D01*
X32405710Y8086958D01*
X32407834Y8101276D01*
X32411351Y8115317D01*
X32416228Y8128946D01*
X32422417Y8142031D01*
X32429858Y8154447D01*
X32438481Y8166073D01*
X32448202Y8176798D01*
X32458927Y8186519D01*
X32470553Y8195142D01*
X32482969Y8202583D01*
X32496054Y8208772D01*
X32509683Y8213649D01*
X32523724Y8217166D01*
X32538042Y8219290D01*
X32552500Y8220000D01*
X32847500Y8220000D01*
X32861958Y8219290D01*
X32861958Y8219290D01*
G37*
D13*
X32700000Y7900000D03*
D12*
G36*
X31891958Y8219290D02*
X31906276Y8217166D01*
X31920317Y8213649D01*
X31933946Y8208772D01*
X31947031Y8202583D01*
X31959447Y8195142D01*
X31971073Y8186519D01*
X31981798Y8176798D01*
X31991519Y8166073D01*
X32000142Y8154447D01*
X32007583Y8142031D01*
X32013772Y8128946D01*
X32018649Y8115317D01*
X32022166Y8101276D01*
X32024290Y8086958D01*
X32025000Y8072500D01*
X32025000Y7727500D01*
X32024290Y7713042D01*
X32022166Y7698724D01*
X32018649Y7684683D01*
X32013772Y7671054D01*
X32007583Y7657969D01*
X32000142Y7645553D01*
X31991519Y7633927D01*
X31981798Y7623202D01*
X31971073Y7613481D01*
X31959447Y7604858D01*
X31947031Y7597417D01*
X31933946Y7591228D01*
X31920317Y7586351D01*
X31906276Y7582834D01*
X31891958Y7580710D01*
X31877500Y7580000D01*
X31582500Y7580000D01*
X31568042Y7580710D01*
X31553724Y7582834D01*
X31539683Y7586351D01*
X31526054Y7591228D01*
X31512969Y7597417D01*
X31500553Y7604858D01*
X31488927Y7613481D01*
X31478202Y7623202D01*
X31468481Y7633927D01*
X31459858Y7645553D01*
X31452417Y7657969D01*
X31446228Y7671054D01*
X31441351Y7684683D01*
X31437834Y7698724D01*
X31435710Y7713042D01*
X31435000Y7727500D01*
X31435000Y8072500D01*
X31435710Y8086958D01*
X31437834Y8101276D01*
X31441351Y8115317D01*
X31446228Y8128946D01*
X31452417Y8142031D01*
X31459858Y8154447D01*
X31468481Y8166073D01*
X31478202Y8176798D01*
X31488927Y8186519D01*
X31500553Y8195142D01*
X31512969Y8202583D01*
X31526054Y8208772D01*
X31539683Y8213649D01*
X31553724Y8217166D01*
X31568042Y8219290D01*
X31582500Y8220000D01*
X31877500Y8220000D01*
X31891958Y8219290D01*
X31891958Y8219290D01*
G37*
D13*
X31730000Y7900000D03*
G04 #@! TD*
D12*
G04 #@! TO.C,R3*
G36*
X20476958Y11619290D02*
X20491276Y11617166D01*
X20505317Y11613649D01*
X20518946Y11608772D01*
X20532031Y11602583D01*
X20544447Y11595142D01*
X20556073Y11586519D01*
X20566798Y11576798D01*
X20576519Y11566073D01*
X20585142Y11554447D01*
X20592583Y11542031D01*
X20598772Y11528946D01*
X20603649Y11515317D01*
X20607166Y11501276D01*
X20609290Y11486958D01*
X20610000Y11472500D01*
X20610000Y11127500D01*
X20609290Y11113042D01*
X20607166Y11098724D01*
X20603649Y11084683D01*
X20598772Y11071054D01*
X20592583Y11057969D01*
X20585142Y11045553D01*
X20576519Y11033927D01*
X20566798Y11023202D01*
X20556073Y11013481D01*
X20544447Y11004858D01*
X20532031Y10997417D01*
X20518946Y10991228D01*
X20505317Y10986351D01*
X20491276Y10982834D01*
X20476958Y10980710D01*
X20462500Y10980000D01*
X20167500Y10980000D01*
X20153042Y10980710D01*
X20138724Y10982834D01*
X20124683Y10986351D01*
X20111054Y10991228D01*
X20097969Y10997417D01*
X20085553Y11004858D01*
X20073927Y11013481D01*
X20063202Y11023202D01*
X20053481Y11033927D01*
X20044858Y11045553D01*
X20037417Y11057969D01*
X20031228Y11071054D01*
X20026351Y11084683D01*
X20022834Y11098724D01*
X20020710Y11113042D01*
X20020000Y11127500D01*
X20020000Y11472500D01*
X20020710Y11486958D01*
X20022834Y11501276D01*
X20026351Y11515317D01*
X20031228Y11528946D01*
X20037417Y11542031D01*
X20044858Y11554447D01*
X20053481Y11566073D01*
X20063202Y11576798D01*
X20073927Y11586519D01*
X20085553Y11595142D01*
X20097969Y11602583D01*
X20111054Y11608772D01*
X20124683Y11613649D01*
X20138724Y11617166D01*
X20153042Y11619290D01*
X20167500Y11620000D01*
X20462500Y11620000D01*
X20476958Y11619290D01*
X20476958Y11619290D01*
G37*
D13*
X20315000Y11300000D03*
D12*
G36*
X21446958Y11619290D02*
X21461276Y11617166D01*
X21475317Y11613649D01*
X21488946Y11608772D01*
X21502031Y11602583D01*
X21514447Y11595142D01*
X21526073Y11586519D01*
X21536798Y11576798D01*
X21546519Y11566073D01*
X21555142Y11554447D01*
X21562583Y11542031D01*
X21568772Y11528946D01*
X21573649Y11515317D01*
X21577166Y11501276D01*
X21579290Y11486958D01*
X21580000Y11472500D01*
X21580000Y11127500D01*
X21579290Y11113042D01*
X21577166Y11098724D01*
X21573649Y11084683D01*
X21568772Y11071054D01*
X21562583Y11057969D01*
X21555142Y11045553D01*
X21546519Y11033927D01*
X21536798Y11023202D01*
X21526073Y11013481D01*
X21514447Y11004858D01*
X21502031Y10997417D01*
X21488946Y10991228D01*
X21475317Y10986351D01*
X21461276Y10982834D01*
X21446958Y10980710D01*
X21432500Y10980000D01*
X21137500Y10980000D01*
X21123042Y10980710D01*
X21108724Y10982834D01*
X21094683Y10986351D01*
X21081054Y10991228D01*
X21067969Y10997417D01*
X21055553Y11004858D01*
X21043927Y11013481D01*
X21033202Y11023202D01*
X21023481Y11033927D01*
X21014858Y11045553D01*
X21007417Y11057969D01*
X21001228Y11071054D01*
X20996351Y11084683D01*
X20992834Y11098724D01*
X20990710Y11113042D01*
X20990000Y11127500D01*
X20990000Y11472500D01*
X20990710Y11486958D01*
X20992834Y11501276D01*
X20996351Y11515317D01*
X21001228Y11528946D01*
X21007417Y11542031D01*
X21014858Y11554447D01*
X21023481Y11566073D01*
X21033202Y11576798D01*
X21043927Y11586519D01*
X21055553Y11595142D01*
X21067969Y11602583D01*
X21081054Y11608772D01*
X21094683Y11613649D01*
X21108724Y11617166D01*
X21123042Y11619290D01*
X21137500Y11620000D01*
X21432500Y11620000D01*
X21446958Y11619290D01*
X21446958Y11619290D01*
G37*
D13*
X21285000Y11300000D03*
G04 #@! TD*
D12*
G04 #@! TO.C,R4*
G36*
X30686958Y9109290D02*
X30701276Y9107166D01*
X30715317Y9103649D01*
X30728946Y9098772D01*
X30742031Y9092583D01*
X30754447Y9085142D01*
X30766073Y9076519D01*
X30776798Y9066798D01*
X30786519Y9056073D01*
X30795142Y9044447D01*
X30802583Y9032031D01*
X30808772Y9018946D01*
X30813649Y9005317D01*
X30817166Y8991276D01*
X30819290Y8976958D01*
X30820000Y8962500D01*
X30820000Y8667500D01*
X30819290Y8653042D01*
X30817166Y8638724D01*
X30813649Y8624683D01*
X30808772Y8611054D01*
X30802583Y8597969D01*
X30795142Y8585553D01*
X30786519Y8573927D01*
X30776798Y8563202D01*
X30766073Y8553481D01*
X30754447Y8544858D01*
X30742031Y8537417D01*
X30728946Y8531228D01*
X30715317Y8526351D01*
X30701276Y8522834D01*
X30686958Y8520710D01*
X30672500Y8520000D01*
X30327500Y8520000D01*
X30313042Y8520710D01*
X30298724Y8522834D01*
X30284683Y8526351D01*
X30271054Y8531228D01*
X30257969Y8537417D01*
X30245553Y8544858D01*
X30233927Y8553481D01*
X30223202Y8563202D01*
X30213481Y8573927D01*
X30204858Y8585553D01*
X30197417Y8597969D01*
X30191228Y8611054D01*
X30186351Y8624683D01*
X30182834Y8638724D01*
X30180710Y8653042D01*
X30180000Y8667500D01*
X30180000Y8962500D01*
X30180710Y8976958D01*
X30182834Y8991276D01*
X30186351Y9005317D01*
X30191228Y9018946D01*
X30197417Y9032031D01*
X30204858Y9044447D01*
X30213481Y9056073D01*
X30223202Y9066798D01*
X30233927Y9076519D01*
X30245553Y9085142D01*
X30257969Y9092583D01*
X30271054Y9098772D01*
X30284683Y9103649D01*
X30298724Y9107166D01*
X30313042Y9109290D01*
X30327500Y9110000D01*
X30672500Y9110000D01*
X30686958Y9109290D01*
X30686958Y9109290D01*
G37*
D13*
X30500000Y8815000D03*
D12*
G36*
X30686958Y10079290D02*
X30701276Y10077166D01*
X30715317Y10073649D01*
X30728946Y10068772D01*
X30742031Y10062583D01*
X30754447Y10055142D01*
X30766073Y10046519D01*
X30776798Y10036798D01*
X30786519Y10026073D01*
X30795142Y10014447D01*
X30802583Y10002031D01*
X30808772Y9988946D01*
X30813649Y9975317D01*
X30817166Y9961276D01*
X30819290Y9946958D01*
X30820000Y9932500D01*
X30820000Y9637500D01*
X30819290Y9623042D01*
X30817166Y9608724D01*
X30813649Y9594683D01*
X30808772Y9581054D01*
X30802583Y9567969D01*
X30795142Y9555553D01*
X30786519Y9543927D01*
X30776798Y9533202D01*
X30766073Y9523481D01*
X30754447Y9514858D01*
X30742031Y9507417D01*
X30728946Y9501228D01*
X30715317Y9496351D01*
X30701276Y9492834D01*
X30686958Y9490710D01*
X30672500Y9490000D01*
X30327500Y9490000D01*
X30313042Y9490710D01*
X30298724Y9492834D01*
X30284683Y9496351D01*
X30271054Y9501228D01*
X30257969Y9507417D01*
X30245553Y9514858D01*
X30233927Y9523481D01*
X30223202Y9533202D01*
X30213481Y9543927D01*
X30204858Y9555553D01*
X30197417Y9567969D01*
X30191228Y9581054D01*
X30186351Y9594683D01*
X30182834Y9608724D01*
X30180710Y9623042D01*
X30180000Y9637500D01*
X30180000Y9932500D01*
X30180710Y9946958D01*
X30182834Y9961276D01*
X30186351Y9975317D01*
X30191228Y9988946D01*
X30197417Y10002031D01*
X30204858Y10014447D01*
X30213481Y10026073D01*
X30223202Y10036798D01*
X30233927Y10046519D01*
X30245553Y10055142D01*
X30257969Y10062583D01*
X30271054Y10068772D01*
X30284683Y10073649D01*
X30298724Y10077166D01*
X30313042Y10079290D01*
X30327500Y10080000D01*
X30672500Y10080000D01*
X30686958Y10079290D01*
X30686958Y10079290D01*
G37*
D13*
X30500000Y9785000D03*
G04 #@! TD*
D12*
G04 #@! TO.C,R5*
G36*
X16476958Y10819290D02*
X16491276Y10817166D01*
X16505317Y10813649D01*
X16518946Y10808772D01*
X16532031Y10802583D01*
X16544447Y10795142D01*
X16556073Y10786519D01*
X16566798Y10776798D01*
X16576519Y10766073D01*
X16585142Y10754447D01*
X16592583Y10742031D01*
X16598772Y10728946D01*
X16603649Y10715317D01*
X16607166Y10701276D01*
X16609290Y10686958D01*
X16610000Y10672500D01*
X16610000Y10327500D01*
X16609290Y10313042D01*
X16607166Y10298724D01*
X16603649Y10284683D01*
X16598772Y10271054D01*
X16592583Y10257969D01*
X16585142Y10245553D01*
X16576519Y10233927D01*
X16566798Y10223202D01*
X16556073Y10213481D01*
X16544447Y10204858D01*
X16532031Y10197417D01*
X16518946Y10191228D01*
X16505317Y10186351D01*
X16491276Y10182834D01*
X16476958Y10180710D01*
X16462500Y10180000D01*
X16167500Y10180000D01*
X16153042Y10180710D01*
X16138724Y10182834D01*
X16124683Y10186351D01*
X16111054Y10191228D01*
X16097969Y10197417D01*
X16085553Y10204858D01*
X16073927Y10213481D01*
X16063202Y10223202D01*
X16053481Y10233927D01*
X16044858Y10245553D01*
X16037417Y10257969D01*
X16031228Y10271054D01*
X16026351Y10284683D01*
X16022834Y10298724D01*
X16020710Y10313042D01*
X16020000Y10327500D01*
X16020000Y10672500D01*
X16020710Y10686958D01*
X16022834Y10701276D01*
X16026351Y10715317D01*
X16031228Y10728946D01*
X16037417Y10742031D01*
X16044858Y10754447D01*
X16053481Y10766073D01*
X16063202Y10776798D01*
X16073927Y10786519D01*
X16085553Y10795142D01*
X16097969Y10802583D01*
X16111054Y10808772D01*
X16124683Y10813649D01*
X16138724Y10817166D01*
X16153042Y10819290D01*
X16167500Y10820000D01*
X16462500Y10820000D01*
X16476958Y10819290D01*
X16476958Y10819290D01*
G37*
D13*
X16315000Y10500000D03*
D12*
G36*
X17446958Y10819290D02*
X17461276Y10817166D01*
X17475317Y10813649D01*
X17488946Y10808772D01*
X17502031Y10802583D01*
X17514447Y10795142D01*
X17526073Y10786519D01*
X17536798Y10776798D01*
X17546519Y10766073D01*
X17555142Y10754447D01*
X17562583Y10742031D01*
X17568772Y10728946D01*
X17573649Y10715317D01*
X17577166Y10701276D01*
X17579290Y10686958D01*
X17580000Y10672500D01*
X17580000Y10327500D01*
X17579290Y10313042D01*
X17577166Y10298724D01*
X17573649Y10284683D01*
X17568772Y10271054D01*
X17562583Y10257969D01*
X17555142Y10245553D01*
X17546519Y10233927D01*
X17536798Y10223202D01*
X17526073Y10213481D01*
X17514447Y10204858D01*
X17502031Y10197417D01*
X17488946Y10191228D01*
X17475317Y10186351D01*
X17461276Y10182834D01*
X17446958Y10180710D01*
X17432500Y10180000D01*
X17137500Y10180000D01*
X17123042Y10180710D01*
X17108724Y10182834D01*
X17094683Y10186351D01*
X17081054Y10191228D01*
X17067969Y10197417D01*
X17055553Y10204858D01*
X17043927Y10213481D01*
X17033202Y10223202D01*
X17023481Y10233927D01*
X17014858Y10245553D01*
X17007417Y10257969D01*
X17001228Y10271054D01*
X16996351Y10284683D01*
X16992834Y10298724D01*
X16990710Y10313042D01*
X16990000Y10327500D01*
X16990000Y10672500D01*
X16990710Y10686958D01*
X16992834Y10701276D01*
X16996351Y10715317D01*
X17001228Y10728946D01*
X17007417Y10742031D01*
X17014858Y10754447D01*
X17023481Y10766073D01*
X17033202Y10776798D01*
X17043927Y10786519D01*
X17055553Y10795142D01*
X17067969Y10802583D01*
X17081054Y10808772D01*
X17094683Y10813649D01*
X17108724Y10817166D01*
X17123042Y10819290D01*
X17137500Y10820000D01*
X17432500Y10820000D01*
X17446958Y10819290D01*
X17446958Y10819290D01*
G37*
D13*
X17285000Y10500000D03*
G04 #@! TD*
D12*
G04 #@! TO.C,R6*
G36*
X17446958Y9619290D02*
X17461276Y9617166D01*
X17475317Y9613649D01*
X17488946Y9608772D01*
X17502031Y9602583D01*
X17514447Y9595142D01*
X17526073Y9586519D01*
X17536798Y9576798D01*
X17546519Y9566073D01*
X17555142Y9554447D01*
X17562583Y9542031D01*
X17568772Y9528946D01*
X17573649Y9515317D01*
X17577166Y9501276D01*
X17579290Y9486958D01*
X17580000Y9472500D01*
X17580000Y9127500D01*
X17579290Y9113042D01*
X17577166Y9098724D01*
X17573649Y9084683D01*
X17568772Y9071054D01*
X17562583Y9057969D01*
X17555142Y9045553D01*
X17546519Y9033927D01*
X17536798Y9023202D01*
X17526073Y9013481D01*
X17514447Y9004858D01*
X17502031Y8997417D01*
X17488946Y8991228D01*
X17475317Y8986351D01*
X17461276Y8982834D01*
X17446958Y8980710D01*
X17432500Y8980000D01*
X17137500Y8980000D01*
X17123042Y8980710D01*
X17108724Y8982834D01*
X17094683Y8986351D01*
X17081054Y8991228D01*
X17067969Y8997417D01*
X17055553Y9004858D01*
X17043927Y9013481D01*
X17033202Y9023202D01*
X17023481Y9033927D01*
X17014858Y9045553D01*
X17007417Y9057969D01*
X17001228Y9071054D01*
X16996351Y9084683D01*
X16992834Y9098724D01*
X16990710Y9113042D01*
X16990000Y9127500D01*
X16990000Y9472500D01*
X16990710Y9486958D01*
X16992834Y9501276D01*
X16996351Y9515317D01*
X17001228Y9528946D01*
X17007417Y9542031D01*
X17014858Y9554447D01*
X17023481Y9566073D01*
X17033202Y9576798D01*
X17043927Y9586519D01*
X17055553Y9595142D01*
X17067969Y9602583D01*
X17081054Y9608772D01*
X17094683Y9613649D01*
X17108724Y9617166D01*
X17123042Y9619290D01*
X17137500Y9620000D01*
X17432500Y9620000D01*
X17446958Y9619290D01*
X17446958Y9619290D01*
G37*
D13*
X17285000Y9300000D03*
D12*
G36*
X16476958Y9619290D02*
X16491276Y9617166D01*
X16505317Y9613649D01*
X16518946Y9608772D01*
X16532031Y9602583D01*
X16544447Y9595142D01*
X16556073Y9586519D01*
X16566798Y9576798D01*
X16576519Y9566073D01*
X16585142Y9554447D01*
X16592583Y9542031D01*
X16598772Y9528946D01*
X16603649Y9515317D01*
X16607166Y9501276D01*
X16609290Y9486958D01*
X16610000Y9472500D01*
X16610000Y9127500D01*
X16609290Y9113042D01*
X16607166Y9098724D01*
X16603649Y9084683D01*
X16598772Y9071054D01*
X16592583Y9057969D01*
X16585142Y9045553D01*
X16576519Y9033927D01*
X16566798Y9023202D01*
X16556073Y9013481D01*
X16544447Y9004858D01*
X16532031Y8997417D01*
X16518946Y8991228D01*
X16505317Y8986351D01*
X16491276Y8982834D01*
X16476958Y8980710D01*
X16462500Y8980000D01*
X16167500Y8980000D01*
X16153042Y8980710D01*
X16138724Y8982834D01*
X16124683Y8986351D01*
X16111054Y8991228D01*
X16097969Y8997417D01*
X16085553Y9004858D01*
X16073927Y9013481D01*
X16063202Y9023202D01*
X16053481Y9033927D01*
X16044858Y9045553D01*
X16037417Y9057969D01*
X16031228Y9071054D01*
X16026351Y9084683D01*
X16022834Y9098724D01*
X16020710Y9113042D01*
X16020000Y9127500D01*
X16020000Y9472500D01*
X16020710Y9486958D01*
X16022834Y9501276D01*
X16026351Y9515317D01*
X16031228Y9528946D01*
X16037417Y9542031D01*
X16044858Y9554447D01*
X16053481Y9566073D01*
X16063202Y9576798D01*
X16073927Y9586519D01*
X16085553Y9595142D01*
X16097969Y9602583D01*
X16111054Y9608772D01*
X16124683Y9613649D01*
X16138724Y9617166D01*
X16153042Y9619290D01*
X16167500Y9620000D01*
X16462500Y9620000D01*
X16476958Y9619290D01*
X16476958Y9619290D01*
G37*
D13*
X16315000Y9300000D03*
G04 #@! TD*
D12*
G04 #@! TO.C,R7*
G36*
X17446958Y8419290D02*
X17461276Y8417166D01*
X17475317Y8413649D01*
X17488946Y8408772D01*
X17502031Y8402583D01*
X17514447Y8395142D01*
X17526073Y8386519D01*
X17536798Y8376798D01*
X17546519Y8366073D01*
X17555142Y8354447D01*
X17562583Y8342031D01*
X17568772Y8328946D01*
X17573649Y8315317D01*
X17577166Y8301276D01*
X17579290Y8286958D01*
X17580000Y8272500D01*
X17580000Y7927500D01*
X17579290Y7913042D01*
X17577166Y7898724D01*
X17573649Y7884683D01*
X17568772Y7871054D01*
X17562583Y7857969D01*
X17555142Y7845553D01*
X17546519Y7833927D01*
X17536798Y7823202D01*
X17526073Y7813481D01*
X17514447Y7804858D01*
X17502031Y7797417D01*
X17488946Y7791228D01*
X17475317Y7786351D01*
X17461276Y7782834D01*
X17446958Y7780710D01*
X17432500Y7780000D01*
X17137500Y7780000D01*
X17123042Y7780710D01*
X17108724Y7782834D01*
X17094683Y7786351D01*
X17081054Y7791228D01*
X17067969Y7797417D01*
X17055553Y7804858D01*
X17043927Y7813481D01*
X17033202Y7823202D01*
X17023481Y7833927D01*
X17014858Y7845553D01*
X17007417Y7857969D01*
X17001228Y7871054D01*
X16996351Y7884683D01*
X16992834Y7898724D01*
X16990710Y7913042D01*
X16990000Y7927500D01*
X16990000Y8272500D01*
X16990710Y8286958D01*
X16992834Y8301276D01*
X16996351Y8315317D01*
X17001228Y8328946D01*
X17007417Y8342031D01*
X17014858Y8354447D01*
X17023481Y8366073D01*
X17033202Y8376798D01*
X17043927Y8386519D01*
X17055553Y8395142D01*
X17067969Y8402583D01*
X17081054Y8408772D01*
X17094683Y8413649D01*
X17108724Y8417166D01*
X17123042Y8419290D01*
X17137500Y8420000D01*
X17432500Y8420000D01*
X17446958Y8419290D01*
X17446958Y8419290D01*
G37*
D13*
X17285000Y8100000D03*
D12*
G36*
X16476958Y8419290D02*
X16491276Y8417166D01*
X16505317Y8413649D01*
X16518946Y8408772D01*
X16532031Y8402583D01*
X16544447Y8395142D01*
X16556073Y8386519D01*
X16566798Y8376798D01*
X16576519Y8366073D01*
X16585142Y8354447D01*
X16592583Y8342031D01*
X16598772Y8328946D01*
X16603649Y8315317D01*
X16607166Y8301276D01*
X16609290Y8286958D01*
X16610000Y8272500D01*
X16610000Y7927500D01*
X16609290Y7913042D01*
X16607166Y7898724D01*
X16603649Y7884683D01*
X16598772Y7871054D01*
X16592583Y7857969D01*
X16585142Y7845553D01*
X16576519Y7833927D01*
X16566798Y7823202D01*
X16556073Y7813481D01*
X16544447Y7804858D01*
X16532031Y7797417D01*
X16518946Y7791228D01*
X16505317Y7786351D01*
X16491276Y7782834D01*
X16476958Y7780710D01*
X16462500Y7780000D01*
X16167500Y7780000D01*
X16153042Y7780710D01*
X16138724Y7782834D01*
X16124683Y7786351D01*
X16111054Y7791228D01*
X16097969Y7797417D01*
X16085553Y7804858D01*
X16073927Y7813481D01*
X16063202Y7823202D01*
X16053481Y7833927D01*
X16044858Y7845553D01*
X16037417Y7857969D01*
X16031228Y7871054D01*
X16026351Y7884683D01*
X16022834Y7898724D01*
X16020710Y7913042D01*
X16020000Y7927500D01*
X16020000Y8272500D01*
X16020710Y8286958D01*
X16022834Y8301276D01*
X16026351Y8315317D01*
X16031228Y8328946D01*
X16037417Y8342031D01*
X16044858Y8354447D01*
X16053481Y8366073D01*
X16063202Y8376798D01*
X16073927Y8386519D01*
X16085553Y8395142D01*
X16097969Y8402583D01*
X16111054Y8408772D01*
X16124683Y8413649D01*
X16138724Y8417166D01*
X16153042Y8419290D01*
X16167500Y8420000D01*
X16462500Y8420000D01*
X16476958Y8419290D01*
X16476958Y8419290D01*
G37*
D13*
X16315000Y8100000D03*
G04 #@! TD*
D12*
G04 #@! TO.C,R8*
G36*
X16476958Y7219290D02*
X16491276Y7217166D01*
X16505317Y7213649D01*
X16518946Y7208772D01*
X16532031Y7202583D01*
X16544447Y7195142D01*
X16556073Y7186519D01*
X16566798Y7176798D01*
X16576519Y7166073D01*
X16585142Y7154447D01*
X16592583Y7142031D01*
X16598772Y7128946D01*
X16603649Y7115317D01*
X16607166Y7101276D01*
X16609290Y7086958D01*
X16610000Y7072500D01*
X16610000Y6727500D01*
X16609290Y6713042D01*
X16607166Y6698724D01*
X16603649Y6684683D01*
X16598772Y6671054D01*
X16592583Y6657969D01*
X16585142Y6645553D01*
X16576519Y6633927D01*
X16566798Y6623202D01*
X16556073Y6613481D01*
X16544447Y6604858D01*
X16532031Y6597417D01*
X16518946Y6591228D01*
X16505317Y6586351D01*
X16491276Y6582834D01*
X16476958Y6580710D01*
X16462500Y6580000D01*
X16167500Y6580000D01*
X16153042Y6580710D01*
X16138724Y6582834D01*
X16124683Y6586351D01*
X16111054Y6591228D01*
X16097969Y6597417D01*
X16085553Y6604858D01*
X16073927Y6613481D01*
X16063202Y6623202D01*
X16053481Y6633927D01*
X16044858Y6645553D01*
X16037417Y6657969D01*
X16031228Y6671054D01*
X16026351Y6684683D01*
X16022834Y6698724D01*
X16020710Y6713042D01*
X16020000Y6727500D01*
X16020000Y7072500D01*
X16020710Y7086958D01*
X16022834Y7101276D01*
X16026351Y7115317D01*
X16031228Y7128946D01*
X16037417Y7142031D01*
X16044858Y7154447D01*
X16053481Y7166073D01*
X16063202Y7176798D01*
X16073927Y7186519D01*
X16085553Y7195142D01*
X16097969Y7202583D01*
X16111054Y7208772D01*
X16124683Y7213649D01*
X16138724Y7217166D01*
X16153042Y7219290D01*
X16167500Y7220000D01*
X16462500Y7220000D01*
X16476958Y7219290D01*
X16476958Y7219290D01*
G37*
D13*
X16315000Y6900000D03*
D12*
G36*
X17446958Y7219290D02*
X17461276Y7217166D01*
X17475317Y7213649D01*
X17488946Y7208772D01*
X17502031Y7202583D01*
X17514447Y7195142D01*
X17526073Y7186519D01*
X17536798Y7176798D01*
X17546519Y7166073D01*
X17555142Y7154447D01*
X17562583Y7142031D01*
X17568772Y7128946D01*
X17573649Y7115317D01*
X17577166Y7101276D01*
X17579290Y7086958D01*
X17580000Y7072500D01*
X17580000Y6727500D01*
X17579290Y6713042D01*
X17577166Y6698724D01*
X17573649Y6684683D01*
X17568772Y6671054D01*
X17562583Y6657969D01*
X17555142Y6645553D01*
X17546519Y6633927D01*
X17536798Y6623202D01*
X17526073Y6613481D01*
X17514447Y6604858D01*
X17502031Y6597417D01*
X17488946Y6591228D01*
X17475317Y6586351D01*
X17461276Y6582834D01*
X17446958Y6580710D01*
X17432500Y6580000D01*
X17137500Y6580000D01*
X17123042Y6580710D01*
X17108724Y6582834D01*
X17094683Y6586351D01*
X17081054Y6591228D01*
X17067969Y6597417D01*
X17055553Y6604858D01*
X17043927Y6613481D01*
X17033202Y6623202D01*
X17023481Y6633927D01*
X17014858Y6645553D01*
X17007417Y6657969D01*
X17001228Y6671054D01*
X16996351Y6684683D01*
X16992834Y6698724D01*
X16990710Y6713042D01*
X16990000Y6727500D01*
X16990000Y7072500D01*
X16990710Y7086958D01*
X16992834Y7101276D01*
X16996351Y7115317D01*
X17001228Y7128946D01*
X17007417Y7142031D01*
X17014858Y7154447D01*
X17023481Y7166073D01*
X17033202Y7176798D01*
X17043927Y7186519D01*
X17055553Y7195142D01*
X17067969Y7202583D01*
X17081054Y7208772D01*
X17094683Y7213649D01*
X17108724Y7217166D01*
X17123042Y7219290D01*
X17137500Y7220000D01*
X17432500Y7220000D01*
X17446958Y7219290D01*
X17446958Y7219290D01*
G37*
D13*
X17285000Y6900000D03*
G04 #@! TD*
D12*
G04 #@! TO.C,R9*
G36*
X17446958Y6019290D02*
X17461276Y6017166D01*
X17475317Y6013649D01*
X17488946Y6008772D01*
X17502031Y6002583D01*
X17514447Y5995142D01*
X17526073Y5986519D01*
X17536798Y5976798D01*
X17546519Y5966073D01*
X17555142Y5954447D01*
X17562583Y5942031D01*
X17568772Y5928946D01*
X17573649Y5915317D01*
X17577166Y5901276D01*
X17579290Y5886958D01*
X17580000Y5872500D01*
X17580000Y5527500D01*
X17579290Y5513042D01*
X17577166Y5498724D01*
X17573649Y5484683D01*
X17568772Y5471054D01*
X17562583Y5457969D01*
X17555142Y5445553D01*
X17546519Y5433927D01*
X17536798Y5423202D01*
X17526073Y5413481D01*
X17514447Y5404858D01*
X17502031Y5397417D01*
X17488946Y5391228D01*
X17475317Y5386351D01*
X17461276Y5382834D01*
X17446958Y5380710D01*
X17432500Y5380000D01*
X17137500Y5380000D01*
X17123042Y5380710D01*
X17108724Y5382834D01*
X17094683Y5386351D01*
X17081054Y5391228D01*
X17067969Y5397417D01*
X17055553Y5404858D01*
X17043927Y5413481D01*
X17033202Y5423202D01*
X17023481Y5433927D01*
X17014858Y5445553D01*
X17007417Y5457969D01*
X17001228Y5471054D01*
X16996351Y5484683D01*
X16992834Y5498724D01*
X16990710Y5513042D01*
X16990000Y5527500D01*
X16990000Y5872500D01*
X16990710Y5886958D01*
X16992834Y5901276D01*
X16996351Y5915317D01*
X17001228Y5928946D01*
X17007417Y5942031D01*
X17014858Y5954447D01*
X17023481Y5966073D01*
X17033202Y5976798D01*
X17043927Y5986519D01*
X17055553Y5995142D01*
X17067969Y6002583D01*
X17081054Y6008772D01*
X17094683Y6013649D01*
X17108724Y6017166D01*
X17123042Y6019290D01*
X17137500Y6020000D01*
X17432500Y6020000D01*
X17446958Y6019290D01*
X17446958Y6019290D01*
G37*
D13*
X17285000Y5700000D03*
D12*
G36*
X16476958Y6019290D02*
X16491276Y6017166D01*
X16505317Y6013649D01*
X16518946Y6008772D01*
X16532031Y6002583D01*
X16544447Y5995142D01*
X16556073Y5986519D01*
X16566798Y5976798D01*
X16576519Y5966073D01*
X16585142Y5954447D01*
X16592583Y5942031D01*
X16598772Y5928946D01*
X16603649Y5915317D01*
X16607166Y5901276D01*
X16609290Y5886958D01*
X16610000Y5872500D01*
X16610000Y5527500D01*
X16609290Y5513042D01*
X16607166Y5498724D01*
X16603649Y5484683D01*
X16598772Y5471054D01*
X16592583Y5457969D01*
X16585142Y5445553D01*
X16576519Y5433927D01*
X16566798Y5423202D01*
X16556073Y5413481D01*
X16544447Y5404858D01*
X16532031Y5397417D01*
X16518946Y5391228D01*
X16505317Y5386351D01*
X16491276Y5382834D01*
X16476958Y5380710D01*
X16462500Y5380000D01*
X16167500Y5380000D01*
X16153042Y5380710D01*
X16138724Y5382834D01*
X16124683Y5386351D01*
X16111054Y5391228D01*
X16097969Y5397417D01*
X16085553Y5404858D01*
X16073927Y5413481D01*
X16063202Y5423202D01*
X16053481Y5433927D01*
X16044858Y5445553D01*
X16037417Y5457969D01*
X16031228Y5471054D01*
X16026351Y5484683D01*
X16022834Y5498724D01*
X16020710Y5513042D01*
X16020000Y5527500D01*
X16020000Y5872500D01*
X16020710Y5886958D01*
X16022834Y5901276D01*
X16026351Y5915317D01*
X16031228Y5928946D01*
X16037417Y5942031D01*
X16044858Y5954447D01*
X16053481Y5966073D01*
X16063202Y5976798D01*
X16073927Y5986519D01*
X16085553Y5995142D01*
X16097969Y6002583D01*
X16111054Y6008772D01*
X16124683Y6013649D01*
X16138724Y6017166D01*
X16153042Y6019290D01*
X16167500Y6020000D01*
X16462500Y6020000D01*
X16476958Y6019290D01*
X16476958Y6019290D01*
G37*
D13*
X16315000Y5700000D03*
G04 #@! TD*
D12*
G04 #@! TO.C,R10*
G36*
X16476958Y4719290D02*
X16491276Y4717166D01*
X16505317Y4713649D01*
X16518946Y4708772D01*
X16532031Y4702583D01*
X16544447Y4695142D01*
X16556073Y4686519D01*
X16566798Y4676798D01*
X16576519Y4666073D01*
X16585142Y4654447D01*
X16592583Y4642031D01*
X16598772Y4628946D01*
X16603649Y4615317D01*
X16607166Y4601276D01*
X16609290Y4586958D01*
X16610000Y4572500D01*
X16610000Y4227500D01*
X16609290Y4213042D01*
X16607166Y4198724D01*
X16603649Y4184683D01*
X16598772Y4171054D01*
X16592583Y4157969D01*
X16585142Y4145553D01*
X16576519Y4133927D01*
X16566798Y4123202D01*
X16556073Y4113481D01*
X16544447Y4104858D01*
X16532031Y4097417D01*
X16518946Y4091228D01*
X16505317Y4086351D01*
X16491276Y4082834D01*
X16476958Y4080710D01*
X16462500Y4080000D01*
X16167500Y4080000D01*
X16153042Y4080710D01*
X16138724Y4082834D01*
X16124683Y4086351D01*
X16111054Y4091228D01*
X16097969Y4097417D01*
X16085553Y4104858D01*
X16073927Y4113481D01*
X16063202Y4123202D01*
X16053481Y4133927D01*
X16044858Y4145553D01*
X16037417Y4157969D01*
X16031228Y4171054D01*
X16026351Y4184683D01*
X16022834Y4198724D01*
X16020710Y4213042D01*
X16020000Y4227500D01*
X16020000Y4572500D01*
X16020710Y4586958D01*
X16022834Y4601276D01*
X16026351Y4615317D01*
X16031228Y4628946D01*
X16037417Y4642031D01*
X16044858Y4654447D01*
X16053481Y4666073D01*
X16063202Y4676798D01*
X16073927Y4686519D01*
X16085553Y4695142D01*
X16097969Y4702583D01*
X16111054Y4708772D01*
X16124683Y4713649D01*
X16138724Y4717166D01*
X16153042Y4719290D01*
X16167500Y4720000D01*
X16462500Y4720000D01*
X16476958Y4719290D01*
X16476958Y4719290D01*
G37*
D13*
X16315000Y4400000D03*
D12*
G36*
X17446958Y4719290D02*
X17461276Y4717166D01*
X17475317Y4713649D01*
X17488946Y4708772D01*
X17502031Y4702583D01*
X17514447Y4695142D01*
X17526073Y4686519D01*
X17536798Y4676798D01*
X17546519Y4666073D01*
X17555142Y4654447D01*
X17562583Y4642031D01*
X17568772Y4628946D01*
X17573649Y4615317D01*
X17577166Y4601276D01*
X17579290Y4586958D01*
X17580000Y4572500D01*
X17580000Y4227500D01*
X17579290Y4213042D01*
X17577166Y4198724D01*
X17573649Y4184683D01*
X17568772Y4171054D01*
X17562583Y4157969D01*
X17555142Y4145553D01*
X17546519Y4133927D01*
X17536798Y4123202D01*
X17526073Y4113481D01*
X17514447Y4104858D01*
X17502031Y4097417D01*
X17488946Y4091228D01*
X17475317Y4086351D01*
X17461276Y4082834D01*
X17446958Y4080710D01*
X17432500Y4080000D01*
X17137500Y4080000D01*
X17123042Y4080710D01*
X17108724Y4082834D01*
X17094683Y4086351D01*
X17081054Y4091228D01*
X17067969Y4097417D01*
X17055553Y4104858D01*
X17043927Y4113481D01*
X17033202Y4123202D01*
X17023481Y4133927D01*
X17014858Y4145553D01*
X17007417Y4157969D01*
X17001228Y4171054D01*
X16996351Y4184683D01*
X16992834Y4198724D01*
X16990710Y4213042D01*
X16990000Y4227500D01*
X16990000Y4572500D01*
X16990710Y4586958D01*
X16992834Y4601276D01*
X16996351Y4615317D01*
X17001228Y4628946D01*
X17007417Y4642031D01*
X17014858Y4654447D01*
X17023481Y4666073D01*
X17033202Y4676798D01*
X17043927Y4686519D01*
X17055553Y4695142D01*
X17067969Y4702583D01*
X17081054Y4708772D01*
X17094683Y4713649D01*
X17108724Y4717166D01*
X17123042Y4719290D01*
X17137500Y4720000D01*
X17432500Y4720000D01*
X17446958Y4719290D01*
X17446958Y4719290D01*
G37*
D13*
X17285000Y4400000D03*
G04 #@! TD*
D12*
G04 #@! TO.C,R11*
G36*
X30976958Y3419290D02*
X30991276Y3417166D01*
X31005317Y3413649D01*
X31018946Y3408772D01*
X31032031Y3402583D01*
X31044447Y3395142D01*
X31056073Y3386519D01*
X31066798Y3376798D01*
X31076519Y3366073D01*
X31085142Y3354447D01*
X31092583Y3342031D01*
X31098772Y3328946D01*
X31103649Y3315317D01*
X31107166Y3301276D01*
X31109290Y3286958D01*
X31110000Y3272500D01*
X31110000Y2927500D01*
X31109290Y2913042D01*
X31107166Y2898724D01*
X31103649Y2884683D01*
X31098772Y2871054D01*
X31092583Y2857969D01*
X31085142Y2845553D01*
X31076519Y2833927D01*
X31066798Y2823202D01*
X31056073Y2813481D01*
X31044447Y2804858D01*
X31032031Y2797417D01*
X31018946Y2791228D01*
X31005317Y2786351D01*
X30991276Y2782834D01*
X30976958Y2780710D01*
X30962500Y2780000D01*
X30667500Y2780000D01*
X30653042Y2780710D01*
X30638724Y2782834D01*
X30624683Y2786351D01*
X30611054Y2791228D01*
X30597969Y2797417D01*
X30585553Y2804858D01*
X30573927Y2813481D01*
X30563202Y2823202D01*
X30553481Y2833927D01*
X30544858Y2845553D01*
X30537417Y2857969D01*
X30531228Y2871054D01*
X30526351Y2884683D01*
X30522834Y2898724D01*
X30520710Y2913042D01*
X30520000Y2927500D01*
X30520000Y3272500D01*
X30520710Y3286958D01*
X30522834Y3301276D01*
X30526351Y3315317D01*
X30531228Y3328946D01*
X30537417Y3342031D01*
X30544858Y3354447D01*
X30553481Y3366073D01*
X30563202Y3376798D01*
X30573927Y3386519D01*
X30585553Y3395142D01*
X30597969Y3402583D01*
X30611054Y3408772D01*
X30624683Y3413649D01*
X30638724Y3417166D01*
X30653042Y3419290D01*
X30667500Y3420000D01*
X30962500Y3420000D01*
X30976958Y3419290D01*
X30976958Y3419290D01*
G37*
D13*
X30815000Y3100000D03*
D12*
G36*
X31946958Y3419290D02*
X31961276Y3417166D01*
X31975317Y3413649D01*
X31988946Y3408772D01*
X32002031Y3402583D01*
X32014447Y3395142D01*
X32026073Y3386519D01*
X32036798Y3376798D01*
X32046519Y3366073D01*
X32055142Y3354447D01*
X32062583Y3342031D01*
X32068772Y3328946D01*
X32073649Y3315317D01*
X32077166Y3301276D01*
X32079290Y3286958D01*
X32080000Y3272500D01*
X32080000Y2927500D01*
X32079290Y2913042D01*
X32077166Y2898724D01*
X32073649Y2884683D01*
X32068772Y2871054D01*
X32062583Y2857969D01*
X32055142Y2845553D01*
X32046519Y2833927D01*
X32036798Y2823202D01*
X32026073Y2813481D01*
X32014447Y2804858D01*
X32002031Y2797417D01*
X31988946Y2791228D01*
X31975317Y2786351D01*
X31961276Y2782834D01*
X31946958Y2780710D01*
X31932500Y2780000D01*
X31637500Y2780000D01*
X31623042Y2780710D01*
X31608724Y2782834D01*
X31594683Y2786351D01*
X31581054Y2791228D01*
X31567969Y2797417D01*
X31555553Y2804858D01*
X31543927Y2813481D01*
X31533202Y2823202D01*
X31523481Y2833927D01*
X31514858Y2845553D01*
X31507417Y2857969D01*
X31501228Y2871054D01*
X31496351Y2884683D01*
X31492834Y2898724D01*
X31490710Y2913042D01*
X31490000Y2927500D01*
X31490000Y3272500D01*
X31490710Y3286958D01*
X31492834Y3301276D01*
X31496351Y3315317D01*
X31501228Y3328946D01*
X31507417Y3342031D01*
X31514858Y3354447D01*
X31523481Y3366073D01*
X31533202Y3376798D01*
X31543927Y3386519D01*
X31555553Y3395142D01*
X31567969Y3402583D01*
X31581054Y3408772D01*
X31594683Y3413649D01*
X31608724Y3417166D01*
X31623042Y3419290D01*
X31637500Y3420000D01*
X31932500Y3420000D01*
X31946958Y3419290D01*
X31946958Y3419290D01*
G37*
D13*
X31785000Y3100000D03*
G04 #@! TD*
D12*
G04 #@! TO.C,R12*
G36*
X31946958Y4719290D02*
X31961276Y4717166D01*
X31975317Y4713649D01*
X31988946Y4708772D01*
X32002031Y4702583D01*
X32014447Y4695142D01*
X32026073Y4686519D01*
X32036798Y4676798D01*
X32046519Y4666073D01*
X32055142Y4654447D01*
X32062583Y4642031D01*
X32068772Y4628946D01*
X32073649Y4615317D01*
X32077166Y4601276D01*
X32079290Y4586958D01*
X32080000Y4572500D01*
X32080000Y4227500D01*
X32079290Y4213042D01*
X32077166Y4198724D01*
X32073649Y4184683D01*
X32068772Y4171054D01*
X32062583Y4157969D01*
X32055142Y4145553D01*
X32046519Y4133927D01*
X32036798Y4123202D01*
X32026073Y4113481D01*
X32014447Y4104858D01*
X32002031Y4097417D01*
X31988946Y4091228D01*
X31975317Y4086351D01*
X31961276Y4082834D01*
X31946958Y4080710D01*
X31932500Y4080000D01*
X31637500Y4080000D01*
X31623042Y4080710D01*
X31608724Y4082834D01*
X31594683Y4086351D01*
X31581054Y4091228D01*
X31567969Y4097417D01*
X31555553Y4104858D01*
X31543927Y4113481D01*
X31533202Y4123202D01*
X31523481Y4133927D01*
X31514858Y4145553D01*
X31507417Y4157969D01*
X31501228Y4171054D01*
X31496351Y4184683D01*
X31492834Y4198724D01*
X31490710Y4213042D01*
X31490000Y4227500D01*
X31490000Y4572500D01*
X31490710Y4586958D01*
X31492834Y4601276D01*
X31496351Y4615317D01*
X31501228Y4628946D01*
X31507417Y4642031D01*
X31514858Y4654447D01*
X31523481Y4666073D01*
X31533202Y4676798D01*
X31543927Y4686519D01*
X31555553Y4695142D01*
X31567969Y4702583D01*
X31581054Y4708772D01*
X31594683Y4713649D01*
X31608724Y4717166D01*
X31623042Y4719290D01*
X31637500Y4720000D01*
X31932500Y4720000D01*
X31946958Y4719290D01*
X31946958Y4719290D01*
G37*
D13*
X31785000Y4400000D03*
D12*
G36*
X30976958Y4719290D02*
X30991276Y4717166D01*
X31005317Y4713649D01*
X31018946Y4708772D01*
X31032031Y4702583D01*
X31044447Y4695142D01*
X31056073Y4686519D01*
X31066798Y4676798D01*
X31076519Y4666073D01*
X31085142Y4654447D01*
X31092583Y4642031D01*
X31098772Y4628946D01*
X31103649Y4615317D01*
X31107166Y4601276D01*
X31109290Y4586958D01*
X31110000Y4572500D01*
X31110000Y4227500D01*
X31109290Y4213042D01*
X31107166Y4198724D01*
X31103649Y4184683D01*
X31098772Y4171054D01*
X31092583Y4157969D01*
X31085142Y4145553D01*
X31076519Y4133927D01*
X31066798Y4123202D01*
X31056073Y4113481D01*
X31044447Y4104858D01*
X31032031Y4097417D01*
X31018946Y4091228D01*
X31005317Y4086351D01*
X30991276Y4082834D01*
X30976958Y4080710D01*
X30962500Y4080000D01*
X30667500Y4080000D01*
X30653042Y4080710D01*
X30638724Y4082834D01*
X30624683Y4086351D01*
X30611054Y4091228D01*
X30597969Y4097417D01*
X30585553Y4104858D01*
X30573927Y4113481D01*
X30563202Y4123202D01*
X30553481Y4133927D01*
X30544858Y4145553D01*
X30537417Y4157969D01*
X30531228Y4171054D01*
X30526351Y4184683D01*
X30522834Y4198724D01*
X30520710Y4213042D01*
X30520000Y4227500D01*
X30520000Y4572500D01*
X30520710Y4586958D01*
X30522834Y4601276D01*
X30526351Y4615317D01*
X30531228Y4628946D01*
X30537417Y4642031D01*
X30544858Y4654447D01*
X30553481Y4666073D01*
X30563202Y4676798D01*
X30573927Y4686519D01*
X30585553Y4695142D01*
X30597969Y4702583D01*
X30611054Y4708772D01*
X30624683Y4713649D01*
X30638724Y4717166D01*
X30653042Y4719290D01*
X30667500Y4720000D01*
X30962500Y4720000D01*
X30976958Y4719290D01*
X30976958Y4719290D01*
G37*
D13*
X30815000Y4400000D03*
G04 #@! TD*
D14*
G04 #@! TO.C,U2*
X27950000Y9775000D03*
X27950000Y9125000D03*
X27950000Y8475000D03*
X27950000Y7825000D03*
X27950000Y7175000D03*
X27950000Y6525000D03*
X27950000Y5875000D03*
X27950000Y5225000D03*
X22050000Y5225000D03*
X22050000Y5875000D03*
X22050000Y6525000D03*
X22050000Y7175000D03*
X22050000Y7825000D03*
X22050000Y8475000D03*
X22050000Y9125000D03*
X22050000Y9775000D03*
G04 #@! TD*
D15*
G04 #@! TO.C,J1*
X41525000Y7220000D03*
X46575000Y7220000D03*
X41525000Y9760000D03*
X46575000Y9760000D03*
X41525000Y12300000D03*
X46575000Y12300000D03*
X41525000Y14840000D03*
X46575000Y14840000D03*
X41525000Y17380000D03*
X46575000Y17380000D03*
X41525000Y19920000D03*
X46575000Y19920000D03*
X41525000Y22460000D03*
X46575000Y22460000D03*
X41525000Y25000000D03*
X46575000Y25000000D03*
X41525000Y27540000D03*
X46575000Y27540000D03*
X41525000Y30080000D03*
X46575000Y30080000D03*
X41525000Y32620000D03*
X46575000Y32620000D03*
X41525000Y35160000D03*
X46575000Y35160000D03*
X41525000Y37700000D03*
X46575000Y37700000D03*
X41525000Y40240000D03*
X46575000Y40240000D03*
X41525000Y42780000D03*
X46575000Y42780000D03*
G04 #@! TD*
M02*
