M48
;DRILL file {KiCad (5.0.0)} date 09/04/18 03:52:09
;FORMAT={-:-/ absolute / inch / decimal}
FMAT,2
INCH,TZ
T1C0.0157
T2C0.0394
%
G90
G05
M72
T1
X0.0394Y1.6929
X0.0394Y1.6142
X0.0394Y1.5354
X0.0394Y1.4567
X0.0394Y1.378
X0.0394Y1.2992
X0.0394Y1.2205
X0.0394Y0.3976
X0.0394Y0.3189
X0.0394Y0.2441
X0.1024Y0.5
X0.1181Y1.6929
X0.1181Y1.4567
X0.1181Y0.3189
X0.1969Y1.6929
X0.2008Y0.4921
X0.2047Y1.2362
X0.2047Y1.1339
X0.2047Y1.0354
X0.2047Y0.9331
X0.2126Y0.8307
X0.2244Y1.4213
X0.2244Y0.6378
X0.2244Y0.5276
X0.2559Y1.3898
X0.2598Y0.6378
X0.2756Y1.9291
X0.2756Y1.8504
X0.2756Y1.7717
X0.2756Y1.6929
X0.2756Y1.4567
X0.2756Y1.2992
X0.2756Y1.2244
X0.2756Y1.1417
X0.2756Y1.0591
X0.2953Y0.3976
X0.3189Y0.9173
X0.3346Y0.6969
X0.3543Y1.9291
X0.3543Y0.9843
X0.3543Y0.5394
X0.3583Y0.8543
X0.374Y0.2205
X0.3937Y1.811
X0.3937Y1.5748
X0.3937Y1.3386
X0.3937Y1.1024
X0.4016Y0.815
X0.4094Y0.2835
X0.4134Y0.3976
X0.4213Y0.1732
X0.4331Y1.9291
X0.4331Y0.9055
X0.4449Y0.6969
X0.4921Y0.3976
X0.5118Y1.9291
X0.5118Y1.8504
X0.5118Y1.7717
X0.5118Y1.6929
X0.5118Y1.6142
X0.5118Y1.5354
X0.5118Y1.4567
X0.5118Y1.2205
X0.5118Y0.9055
X0.5118Y0.8268
X0.5748Y0.7598
X0.5906Y1.4173
X0.5906Y1.063
X0.626Y0.3898
X0.6578Y0.103
X0.6693Y1.4173
X0.6693Y1.2205
X0.6693Y0.9055
X0.6929Y0.4449
X0.6929Y0.3543
X0.748Y1.4173
X0.748Y1.063
X0.75Y0.2205
X0.7638Y0.1457
X0.7835Y0.4665
X0.815Y0.5433
X0.8268Y1.4173
X0.8268Y1.2205
X0.8642Y0.3514
X0.8701Y0.6713
X0.8819Y0.9606
X0.8819Y0.8681
X0.8865Y0.4098
X0.9055Y1.4173
X0.9055Y1.063
X0.9055Y0.185
X0.9154Y0.626
X0.9173Y0.5236
X0.9252Y0.8681
X0.9252Y0.4173
X0.9646Y0.4173
X0.9646Y0.1732
X0.9685Y0.5197
X0.9843Y1.4173
X0.9843Y1.2205
X0.9921Y0.5591
X0.9965Y0.0837
X1.Y0.315
X1.0039Y0.4173
X1.0039Y0.1732
X1.0236Y0.626
X1.0315Y0.5197
X1.0433Y0.4173
X1.0472Y0.5866
X1.0512Y0.2638
X1.063Y1.4173
X1.063Y1.063
X1.063Y0.8681
X1.063Y0.626
X1.0906Y0.2638
X1.0945Y0.3701
X1.0984Y0.063
X1.1024Y0.5906
X1.1417Y1.4173
X1.1417Y1.2205
X1.1417Y0.9055
X1.1417Y0.5512
X1.1811Y0.5118
X1.1811Y0.0394
X1.2205Y1.4173
X1.2205Y1.063
X1.2244Y0.5722
X1.2283Y0.315
X1.2638Y0.2165
X1.2795Y0.3189
X1.2835Y0.6102
X1.2992Y1.4173
X1.2992Y1.2205
X1.2992Y0.9055
X1.2992Y0.0394
X1.3071Y0.5433
X1.3071Y0.4567
X1.315Y0.3858
X1.3543Y0.5433
X1.3543Y0.4606
X1.378Y1.4173
X1.3819Y1.063
X1.4016Y0.3189
X1.4134Y0.3819
X1.4213Y0.2165
X1.4567Y1.9291
X1.4567Y1.8504
X1.4567Y1.7717
X1.4567Y1.6929
X1.4567Y1.6142
X1.4567Y1.5354
X1.4567Y1.4567
X1.4567Y1.2205
X1.4567Y0.9055
X1.4567Y0.0394
X1.4803Y0.4252
X1.4843Y0.7362
X1.4921Y0.2598
X1.5039Y0.622
X1.5343Y1.6843
X1.5343Y1.5843
X1.5343Y1.4843
X1.5343Y1.3843
X1.5343Y1.2843
X1.5343Y1.0843
X1.5343Y0.9843
X1.5343Y0.8843
X1.5343Y0.7843
X1.5343Y0.6843
X1.5343Y0.2843
X1.5354Y1.9291
X1.5354Y1.8504
X1.5354Y1.7717
X1.5433Y1.1831
X1.5748Y0.0394
X1.5787Y0.2323
X1.6339Y0.6232
X1.6343Y0.4343
X1.6348Y0.3348
X1.6535Y1.9291
X1.6535Y1.8504
X1.6535Y1.7717
X1.7126Y0.2402
X1.7323Y1.9291
X1.7323Y1.8504
X1.7323Y1.7717
X1.7343Y1.6843
X1.7343Y1.5843
X1.7343Y1.4843
X1.7343Y1.3843
X1.7343Y1.2843
X1.7343Y1.1843
X1.7343Y1.0843
X1.7343Y0.9843
X1.7343Y0.8843
X1.7343Y0.4843
X1.7343Y0.3843
X1.7343Y0.2843
X1.8343Y0.5343
X1.8346Y0.7362
X1.8346Y0.6339
X1.9134Y0.2402
X1.9331Y1.685
X1.9331Y1.5827
X1.9331Y1.4843
T2
X0.1575Y1.3843
X0.1575Y1.2843
X0.1575Y1.1843
X0.1575Y1.0843
X0.1575Y0.9843
X0.1575Y0.8843
X0.1575Y0.7843
X0.1575Y0.6843
X0.1575Y0.5843
X0.4744Y0.3366
X0.4744Y0.2366
X0.4744Y0.1366
X0.5744Y0.3366
X0.5744Y0.2366
X0.5744Y0.1366
T0
M30
