G04 #@! TF.GenerationSoftware,KiCad,Pcbnew,(5.0.0)*
G04 #@! TF.CreationDate,2018-09-04T03:51:54+09:00*
G04 #@! TF.ProjectId,M5Stack_WiSUN,4D35537461636B5F576953554E2E6B69,rev?*
G04 #@! TF.SameCoordinates,PX989680PY55d4a80*
G04 #@! TF.FileFunction,Legend,Top*
G04 #@! TF.FilePolarity,Positive*
%FSLAX46Y46*%
G04 Gerber Fmt 4.6, Leading zero omitted, Abs format (unit mm)*
G04 Created by KiCad (PCBNEW (5.0.0)) date 09/04/18 03:51:54*
%MOMM*%
%LPD*%
G01*
G04 APERTURE LIST*
%ADD10C,0.300000*%
%ADD11C,0.200000*%
%ADD12C,0.150000*%
%ADD13C,0.120000*%
G04 APERTURE END LIST*
D10*
X6828571Y32542858D02*
X8328571Y32900000D01*
X7257142Y33185715D01*
X8328571Y33471429D01*
X6828571Y33828572D01*
X8328571Y34400000D02*
X7328571Y34400000D01*
X6828571Y34400000D02*
X6900000Y34328572D01*
X6971428Y34400000D01*
X6900000Y34471429D01*
X6828571Y34400000D01*
X6971428Y34400000D01*
X7757142Y35114286D02*
X7757142Y36257143D01*
X8257142Y36900000D02*
X8328571Y37114286D01*
X8328571Y37471429D01*
X8257142Y37614286D01*
X8185714Y37685715D01*
X8042857Y37757143D01*
X7900000Y37757143D01*
X7757142Y37685715D01*
X7685714Y37614286D01*
X7614285Y37471429D01*
X7542857Y37185715D01*
X7471428Y37042858D01*
X7400000Y36971429D01*
X7257142Y36900000D01*
X7114285Y36900000D01*
X6971428Y36971429D01*
X6900000Y37042858D01*
X6828571Y37185715D01*
X6828571Y37542858D01*
X6900000Y37757143D01*
X6828571Y38400000D02*
X8042857Y38400000D01*
X8185714Y38471429D01*
X8257142Y38542858D01*
X8328571Y38685715D01*
X8328571Y38971429D01*
X8257142Y39114286D01*
X8185714Y39185715D01*
X8042857Y39257143D01*
X6828571Y39257143D01*
X8328571Y39971429D02*
X6828571Y39971429D01*
X8328571Y40828572D01*
X6828571Y40828572D01*
X8257142Y42614286D02*
X8328571Y42828572D01*
X8328571Y43185715D01*
X8257142Y43328572D01*
X8185714Y43400000D01*
X8042857Y43471429D01*
X7900000Y43471429D01*
X7757142Y43400000D01*
X7685714Y43328572D01*
X7614285Y43185715D01*
X7542857Y42900000D01*
X7471428Y42757143D01*
X7400000Y42685715D01*
X7257142Y42614286D01*
X7114285Y42614286D01*
X6971428Y42685715D01*
X6900000Y42757143D01*
X6828571Y42900000D01*
X6828571Y43257143D01*
X6900000Y43471429D01*
X7328571Y43900000D02*
X7328571Y44471429D01*
X6828571Y44114286D02*
X8114285Y44114286D01*
X8257142Y44185715D01*
X8328571Y44328572D01*
X8328571Y44471429D01*
X8328571Y45614286D02*
X7542857Y45614286D01*
X7400000Y45542858D01*
X7328571Y45400000D01*
X7328571Y45114286D01*
X7400000Y44971429D01*
X8257142Y45614286D02*
X8328571Y45471429D01*
X8328571Y45114286D01*
X8257142Y44971429D01*
X8114285Y44900000D01*
X7971428Y44900000D01*
X7828571Y44971429D01*
X7757142Y45114286D01*
X7757142Y45471429D01*
X7685714Y45614286D01*
X8257142Y46971429D02*
X8328571Y46828572D01*
X8328571Y46542858D01*
X8257142Y46400000D01*
X8185714Y46328572D01*
X8042857Y46257143D01*
X7614285Y46257143D01*
X7471428Y46328572D01*
X7400000Y46400000D01*
X7328571Y46542858D01*
X7328571Y46828572D01*
X7400000Y46971429D01*
X8328571Y47614286D02*
X6828571Y47614286D01*
X7757142Y47757143D02*
X8328571Y48185715D01*
X7328571Y48185715D02*
X7900000Y47614286D01*
X9878571Y33757143D02*
X9878571Y34328572D01*
X10878571Y33971429D02*
X9592857Y33971429D01*
X9450000Y34042858D01*
X9378571Y34185715D01*
X9378571Y34328572D01*
X10878571Y35042858D02*
X10807142Y34900000D01*
X10735714Y34828572D01*
X10592857Y34757143D01*
X10164285Y34757143D01*
X10021428Y34828572D01*
X9950000Y34900000D01*
X9878571Y35042858D01*
X9878571Y35257143D01*
X9950000Y35400000D01*
X10021428Y35471429D01*
X10164285Y35542858D01*
X10592857Y35542858D01*
X10735714Y35471429D01*
X10807142Y35400000D01*
X10878571Y35257143D01*
X10878571Y35042858D01*
X10878571Y36185715D02*
X9878571Y36185715D01*
X10164285Y36185715D02*
X10021428Y36257143D01*
X9950000Y36328572D01*
X9878571Y36471429D01*
X9878571Y36614286D01*
X10878571Y38257143D02*
X9378571Y38257143D01*
X10450000Y38757143D01*
X9378571Y39257143D01*
X10878571Y39257143D01*
X9378571Y40685715D02*
X9378571Y39971429D01*
X10092857Y39900000D01*
X10021428Y39971429D01*
X9950000Y40114286D01*
X9950000Y40471429D01*
X10021428Y40614286D01*
X10092857Y40685715D01*
X10235714Y40757143D01*
X10592857Y40757143D01*
X10735714Y40685715D01*
X10807142Y40614286D01*
X10878571Y40471429D01*
X10878571Y40114286D01*
X10807142Y39971429D01*
X10735714Y39900000D01*
X10807142Y41328572D02*
X10878571Y41542858D01*
X10878571Y41900000D01*
X10807142Y42042858D01*
X10735714Y42114286D01*
X10592857Y42185715D01*
X10450000Y42185715D01*
X10307142Y42114286D01*
X10235714Y42042858D01*
X10164285Y41900000D01*
X10092857Y41614286D01*
X10021428Y41471429D01*
X9950000Y41400000D01*
X9807142Y41328572D01*
X9664285Y41328572D01*
X9521428Y41400000D01*
X9450000Y41471429D01*
X9378571Y41614286D01*
X9378571Y41971429D01*
X9450000Y42185715D01*
X9878571Y42614286D02*
X9878571Y43185715D01*
X9378571Y42828572D02*
X10664285Y42828572D01*
X10807142Y42900000D01*
X10878571Y43042858D01*
X10878571Y43185715D01*
X10878571Y44328572D02*
X10092857Y44328572D01*
X9950000Y44257143D01*
X9878571Y44114286D01*
X9878571Y43828572D01*
X9950000Y43685715D01*
X10807142Y44328572D02*
X10878571Y44185715D01*
X10878571Y43828572D01*
X10807142Y43685715D01*
X10664285Y43614286D01*
X10521428Y43614286D01*
X10378571Y43685715D01*
X10307142Y43828572D01*
X10307142Y44185715D01*
X10235714Y44328572D01*
X10807142Y45685715D02*
X10878571Y45542858D01*
X10878571Y45257143D01*
X10807142Y45114286D01*
X10735714Y45042858D01*
X10592857Y44971429D01*
X10164285Y44971429D01*
X10021428Y45042858D01*
X9950000Y45114286D01*
X9878571Y45257143D01*
X9878571Y45542858D01*
X9950000Y45685715D01*
X10878571Y46328572D02*
X9378571Y46328572D01*
X10307142Y46471429D02*
X10878571Y46900000D01*
X9878571Y46900000D02*
X10450000Y46328572D01*
X13428571Y38650000D02*
X12714285Y38150000D01*
X13428571Y37792858D02*
X11928571Y37792858D01*
X11928571Y38364286D01*
X12000000Y38507143D01*
X12071428Y38578572D01*
X12214285Y38650000D01*
X12428571Y38650000D01*
X12571428Y38578572D01*
X12642857Y38507143D01*
X12714285Y38364286D01*
X12714285Y37792858D01*
X13357142Y39864286D02*
X13428571Y39721429D01*
X13428571Y39435715D01*
X13357142Y39292858D01*
X13214285Y39221429D01*
X12642857Y39221429D01*
X12500000Y39292858D01*
X12428571Y39435715D01*
X12428571Y39721429D01*
X12500000Y39864286D01*
X12642857Y39935715D01*
X12785714Y39935715D01*
X12928571Y39221429D01*
X12428571Y40435715D02*
X13428571Y40792858D01*
X12428571Y41150000D01*
X13285714Y41721429D02*
X13357142Y41792858D01*
X13428571Y41721429D01*
X13357142Y41650000D01*
X13285714Y41721429D01*
X13428571Y41721429D01*
X13000000Y42364286D02*
X13000000Y43078572D01*
X13428571Y42221429D02*
X11928571Y42721429D01*
X13428571Y43221429D01*
D11*
G04 #@! TO.C,U1*
X22850000Y16000000D02*
G75*
G03X22850000Y16000000I-100000J0D01*
G01*
D12*
X21550000Y20700000D02*
X21550000Y17300000D01*
X28450000Y20700000D02*
X28450000Y17300000D01*
G04 #@! TO.C,U2*
X28625000Y11225000D02*
X28400000Y11225000D01*
X28625000Y3975000D02*
X28325000Y3975000D01*
X21375000Y3975000D02*
X21675000Y3975000D01*
X21375000Y11225000D02*
X21675000Y11225000D01*
X28625000Y11225000D02*
X28625000Y10925000D01*
X21375000Y11225000D02*
X21375000Y10925000D01*
X21375000Y3975000D02*
X21375000Y4275000D01*
X28625000Y3975000D02*
X28625000Y4275000D01*
X28400000Y11225000D02*
X28400000Y12450000D01*
D13*
G04 #@! TO.C,J1*
X41450000Y44110000D02*
X46650000Y44110000D01*
X41450000Y5890000D02*
X46650000Y5890000D01*
X40010000Y43540000D02*
X41450000Y43540000D01*
X41450000Y44110000D02*
X41450000Y43540000D01*
X46650000Y44110000D02*
X46650000Y43540000D01*
X41450000Y6460000D02*
X41450000Y5890000D01*
X46650000Y6460000D02*
X46650000Y5890000D01*
X41450000Y42020000D02*
X41450000Y41000000D01*
X46650000Y42020000D02*
X46650000Y41000000D01*
X41450000Y39480000D02*
X41450000Y38460000D01*
X46650000Y39480000D02*
X46650000Y38460000D01*
X41450000Y36940000D02*
X41450000Y35920000D01*
X46650000Y36940000D02*
X46650000Y35920000D01*
X41450000Y34400000D02*
X41450000Y33380000D01*
X46650000Y34400000D02*
X46650000Y33380000D01*
X41450000Y31860000D02*
X41450000Y30840000D01*
X46650000Y31860000D02*
X46650000Y30840000D01*
X41450000Y29320000D02*
X41450000Y28300000D01*
X46650000Y29320000D02*
X46650000Y28300000D01*
X41450000Y26780000D02*
X41450000Y25760000D01*
X46650000Y26780000D02*
X46650000Y25760000D01*
X41450000Y24240000D02*
X41450000Y23220000D01*
X46650000Y24240000D02*
X46650000Y23220000D01*
X41450000Y21700000D02*
X41450000Y20680000D01*
X46650000Y21700000D02*
X46650000Y20680000D01*
X41450000Y19160000D02*
X41450000Y18140000D01*
X46650000Y19160000D02*
X46650000Y18140000D01*
X41450000Y16620000D02*
X41450000Y15600000D01*
X46650000Y16620000D02*
X46650000Y15600000D01*
X41450000Y14080000D02*
X41450000Y13060000D01*
X46650000Y14080000D02*
X46650000Y13060000D01*
X41450000Y11540000D02*
X41450000Y10520000D01*
X46650000Y11540000D02*
X46650000Y10520000D01*
X41450000Y9000000D02*
X41450000Y7980000D01*
X46650000Y9000000D02*
X46650000Y7980000D01*
G04 #@! TO.C,J3*
X2670000Y13510000D02*
X5330000Y13510000D01*
X2670000Y33890000D02*
X2670000Y13510000D01*
X5330000Y33890000D02*
X5330000Y13510000D01*
X2670000Y33890000D02*
X5330000Y33890000D01*
X2670000Y35160000D02*
X2670000Y36490000D01*
X2670000Y36490000D02*
X4000000Y36490000D01*
G04 #@! TO.C,J4*
X10720000Y2140000D02*
X15920000Y2140000D01*
X10720000Y7280000D02*
X10720000Y2140000D01*
X15920000Y9880000D02*
X15920000Y2140000D01*
X10720000Y7280000D02*
X13320000Y7280000D01*
X13320000Y7280000D02*
X13320000Y9880000D01*
X13320000Y9880000D02*
X15920000Y9880000D01*
X10720000Y8550000D02*
X10720000Y9880000D01*
X10720000Y9880000D02*
X12050000Y9880000D01*
G04 #@! TO.C,U1*
D12*
X24238095Y16047620D02*
X24238095Y15238096D01*
X24285714Y15142858D01*
X24333333Y15095239D01*
X24428571Y15047620D01*
X24619047Y15047620D01*
X24714285Y15095239D01*
X24761904Y15142858D01*
X24809523Y15238096D01*
X24809523Y16047620D01*
X25809523Y15047620D02*
X25238095Y15047620D01*
X25523809Y15047620D02*
X25523809Y16047620D01*
X25428571Y15904762D01*
X25333333Y15809524D01*
X25238095Y15761905D01*
G04 #@! TO.C,U2*
X30302380Y2638096D02*
X31111904Y2638096D01*
X31207142Y2685715D01*
X31254761Y2733334D01*
X31302380Y2828572D01*
X31302380Y3019048D01*
X31254761Y3114286D01*
X31207142Y3161905D01*
X31111904Y3209524D01*
X30302380Y3209524D01*
X30397619Y3638096D02*
X30350000Y3685715D01*
X30302380Y3780953D01*
X30302380Y4019048D01*
X30350000Y4114286D01*
X30397619Y4161905D01*
X30492857Y4209524D01*
X30588095Y4209524D01*
X30730952Y4161905D01*
X31302380Y3590477D01*
X31302380Y4209524D01*
G04 #@! TO.C,J1*
X43716666Y45657620D02*
X43716666Y44943334D01*
X43669047Y44800477D01*
X43573809Y44705239D01*
X43430952Y44657620D01*
X43335714Y44657620D01*
X44716666Y44657620D02*
X44145238Y44657620D01*
X44430952Y44657620D02*
X44430952Y45657620D01*
X44335714Y45514762D01*
X44240476Y45419524D01*
X44145238Y45371905D01*
G04 #@! TO.C,J3*
X3666666Y38037620D02*
X3666666Y37323334D01*
X3619047Y37180477D01*
X3523809Y37085239D01*
X3380952Y37037620D01*
X3285714Y37037620D01*
X4047619Y38037620D02*
X4666666Y38037620D01*
X4333333Y37656667D01*
X4476190Y37656667D01*
X4571428Y37609048D01*
X4619047Y37561429D01*
X4666666Y37466191D01*
X4666666Y37228096D01*
X4619047Y37132858D01*
X4571428Y37085239D01*
X4476190Y37037620D01*
X4190476Y37037620D01*
X4095238Y37085239D01*
X4047619Y37132858D01*
G04 #@! TO.C,R1*
X33718333Y11547620D02*
X33385000Y12023810D01*
X33146904Y11547620D02*
X33146904Y12547620D01*
X33527857Y12547620D01*
X33623095Y12500000D01*
X33670714Y12452381D01*
X33718333Y12357143D01*
X33718333Y12214286D01*
X33670714Y12119048D01*
X33623095Y12071429D01*
X33527857Y12023810D01*
X33146904Y12023810D01*
X34670714Y11547620D02*
X34099285Y11547620D01*
X34385000Y11547620D02*
X34385000Y12547620D01*
X34289761Y12404762D01*
X34194523Y12309524D01*
X34099285Y12261905D01*
G04 #@! TO.C,R2*
X33733333Y10347620D02*
X33400000Y10823810D01*
X33161904Y10347620D02*
X33161904Y11347620D01*
X33542857Y11347620D01*
X33638095Y11300000D01*
X33685714Y11252381D01*
X33733333Y11157143D01*
X33733333Y11014286D01*
X33685714Y10919048D01*
X33638095Y10871429D01*
X33542857Y10823810D01*
X33161904Y10823810D01*
X34114285Y11252381D02*
X34161904Y11300000D01*
X34257142Y11347620D01*
X34495238Y11347620D01*
X34590476Y11300000D01*
X34638095Y11252381D01*
X34685714Y11157143D01*
X34685714Y11061905D01*
X34638095Y10919048D01*
X34066666Y10347620D01*
X34685714Y10347620D01*
G04 #@! TO.C,R3*
X32852380Y8033334D02*
X32376190Y7700000D01*
X32852380Y7461905D02*
X31852380Y7461905D01*
X31852380Y7842858D01*
X31900000Y7938096D01*
X31947619Y7985715D01*
X32042857Y8033334D01*
X32185714Y8033334D01*
X32280952Y7985715D01*
X32328571Y7938096D01*
X32376190Y7842858D01*
X32376190Y7461905D01*
X31852380Y8366667D02*
X31852380Y8985715D01*
X32233333Y8652381D01*
X32233333Y8795239D01*
X32280952Y8890477D01*
X32328571Y8938096D01*
X32423809Y8985715D01*
X32661904Y8985715D01*
X32757142Y8938096D01*
X32804761Y8890477D01*
X32852380Y8795239D01*
X32852380Y8509524D01*
X32804761Y8414286D01*
X32757142Y8366667D01*
G04 #@! TO.C,R4*
X37733333Y14147620D02*
X37400000Y14623810D01*
X37161904Y14147620D02*
X37161904Y15147620D01*
X37542857Y15147620D01*
X37638095Y15100000D01*
X37685714Y15052381D01*
X37733333Y14957143D01*
X37733333Y14814286D01*
X37685714Y14719048D01*
X37638095Y14671429D01*
X37542857Y14623810D01*
X37161904Y14623810D01*
X38590476Y14814286D02*
X38590476Y14147620D01*
X38352380Y15195239D02*
X38114285Y14480953D01*
X38733333Y14480953D01*
G04 #@! TO.C,R5*
X37733333Y12947620D02*
X37400000Y13423810D01*
X37161904Y12947620D02*
X37161904Y13947620D01*
X37542857Y13947620D01*
X37638095Y13900000D01*
X37685714Y13852381D01*
X37733333Y13757143D01*
X37733333Y13614286D01*
X37685714Y13519048D01*
X37638095Y13471429D01*
X37542857Y13423810D01*
X37161904Y13423810D01*
X38638095Y13947620D02*
X38161904Y13947620D01*
X38114285Y13471429D01*
X38161904Y13519048D01*
X38257142Y13566667D01*
X38495238Y13566667D01*
X38590476Y13519048D01*
X38638095Y13471429D01*
X38685714Y13376191D01*
X38685714Y13138096D01*
X38638095Y13042858D01*
X38590476Y12995239D01*
X38495238Y12947620D01*
X38257142Y12947620D01*
X38161904Y12995239D01*
X38114285Y13042858D01*
G04 #@! TO.C,R6*
X31552380Y8018334D02*
X31076190Y7685000D01*
X31552380Y7446905D02*
X30552380Y7446905D01*
X30552380Y7827858D01*
X30600000Y7923096D01*
X30647619Y7970715D01*
X30742857Y8018334D01*
X30885714Y8018334D01*
X30980952Y7970715D01*
X31028571Y7923096D01*
X31076190Y7827858D01*
X31076190Y7446905D01*
X30552380Y8875477D02*
X30552380Y8685000D01*
X30600000Y8589762D01*
X30647619Y8542143D01*
X30790476Y8446905D01*
X30980952Y8399286D01*
X31361904Y8399286D01*
X31457142Y8446905D01*
X31504761Y8494524D01*
X31552380Y8589762D01*
X31552380Y8780239D01*
X31504761Y8875477D01*
X31457142Y8923096D01*
X31361904Y8970715D01*
X31123809Y8970715D01*
X31028571Y8923096D01*
X30980952Y8875477D01*
X30933333Y8780239D01*
X30933333Y8589762D01*
X30980952Y8494524D01*
X31028571Y8446905D01*
X31123809Y8399286D01*
G04 #@! TO.C,J4*
X12986666Y11427620D02*
X12986666Y10713334D01*
X12939047Y10570477D01*
X12843809Y10475239D01*
X12700952Y10427620D01*
X12605714Y10427620D01*
X13891428Y11094286D02*
X13891428Y10427620D01*
X13653333Y11475239D02*
X13415238Y10760953D01*
X14034285Y10760953D01*
G04 #@! TD*
M02*
