G04 #@! TF.GenerationSoftware,KiCad,Pcbnew,(5.0.0)*
G04 #@! TF.CreationDate,2018-09-04T03:51:54+09:00*
G04 #@! TF.ProjectId,M5Stack_WiSUN,4D35537461636B5F576953554E2E6B69,rev?*
G04 #@! TF.SameCoordinates,PX989680PY55d4a80*
G04 #@! TF.FileFunction,Legend,Bot*
G04 #@! TF.FilePolarity,Positive*
%FSLAX46Y46*%
G04 Gerber Fmt 4.6, Leading zero omitted, Abs format (unit mm)*
G04 Created by KiCad (PCBNEW (5.0.0)) date 09/04/18 03:51:54*
%MOMM*%
%LPD*%
G01*
G04 APERTURE LIST*
%ADD10C,0.120000*%
%ADD11C,0.150000*%
G04 APERTURE END LIST*
D10*
G04 #@! TO.C,J2*
X46650000Y44110000D02*
X41450000Y44110000D01*
X46650000Y5890000D02*
X41450000Y5890000D01*
X48090000Y43540000D02*
X46650000Y43540000D01*
X46650000Y44110000D02*
X46650000Y43540000D01*
X41450000Y44110000D02*
X41450000Y43540000D01*
X46650000Y6460000D02*
X46650000Y5890000D01*
X41450000Y6460000D02*
X41450000Y5890000D01*
X46650000Y42020000D02*
X46650000Y41000000D01*
X41450000Y42020000D02*
X41450000Y41000000D01*
X46650000Y39480000D02*
X46650000Y38460000D01*
X41450000Y39480000D02*
X41450000Y38460000D01*
X46650000Y36940000D02*
X46650000Y35920000D01*
X41450000Y36940000D02*
X41450000Y35920000D01*
X46650000Y34400000D02*
X46650000Y33380000D01*
X41450000Y34400000D02*
X41450000Y33380000D01*
X46650000Y31860000D02*
X46650000Y30840000D01*
X41450000Y31860000D02*
X41450000Y30840000D01*
X46650000Y29320000D02*
X46650000Y28300000D01*
X41450000Y29320000D02*
X41450000Y28300000D01*
X46650000Y26780000D02*
X46650000Y25760000D01*
X41450000Y26780000D02*
X41450000Y25760000D01*
X46650000Y24240000D02*
X46650000Y23220000D01*
X41450000Y24240000D02*
X41450000Y23220000D01*
X46650000Y21700000D02*
X46650000Y20680000D01*
X41450000Y21700000D02*
X41450000Y20680000D01*
X46650000Y19160000D02*
X46650000Y18140000D01*
X41450000Y19160000D02*
X41450000Y18140000D01*
X46650000Y16620000D02*
X46650000Y15600000D01*
X41450000Y16620000D02*
X41450000Y15600000D01*
X46650000Y14080000D02*
X46650000Y13060000D01*
X41450000Y14080000D02*
X41450000Y13060000D01*
X46650000Y11540000D02*
X46650000Y10520000D01*
X41450000Y11540000D02*
X41450000Y10520000D01*
X46650000Y9000000D02*
X46650000Y7980000D01*
X41450000Y9000000D02*
X41450000Y7980000D01*
G04 #@! TO.C,L1*
X23210000Y6737221D02*
X23210000Y7062779D01*
X22190000Y6737221D02*
X22190000Y7062779D01*
G04 #@! TO.C,J2*
D11*
X44383333Y45657620D02*
X44383333Y44943334D01*
X44430952Y44800477D01*
X44526190Y44705239D01*
X44669047Y44657620D01*
X44764285Y44657620D01*
X43954761Y45562381D02*
X43907142Y45610000D01*
X43811904Y45657620D01*
X43573809Y45657620D01*
X43478571Y45610000D01*
X43430952Y45562381D01*
X43383333Y45467143D01*
X43383333Y45371905D01*
X43430952Y45229048D01*
X44002380Y44657620D01*
X43383333Y44657620D01*
G04 #@! TO.C,C1*
X25166666Y3872858D02*
X25214285Y3825239D01*
X25357142Y3777620D01*
X25452380Y3777620D01*
X25595238Y3825239D01*
X25690476Y3920477D01*
X25738095Y4015715D01*
X25785714Y4206191D01*
X25785714Y4349048D01*
X25738095Y4539524D01*
X25690476Y4634762D01*
X25595238Y4730000D01*
X25452380Y4777620D01*
X25357142Y4777620D01*
X25214285Y4730000D01*
X25166666Y4682381D01*
X24214285Y3777620D02*
X24785714Y3777620D01*
X24500000Y3777620D02*
X24500000Y4777620D01*
X24595238Y4634762D01*
X24690476Y4539524D01*
X24785714Y4491905D01*
G04 #@! TO.C,C2*
X24666666Y4972858D02*
X24714285Y4925239D01*
X24857142Y4877620D01*
X24952380Y4877620D01*
X25095238Y4925239D01*
X25190476Y5020477D01*
X25238095Y5115715D01*
X25285714Y5306191D01*
X25285714Y5449048D01*
X25238095Y5639524D01*
X25190476Y5734762D01*
X25095238Y5830000D01*
X24952380Y5877620D01*
X24857142Y5877620D01*
X24714285Y5830000D01*
X24666666Y5782381D01*
X24285714Y5782381D02*
X24238095Y5830000D01*
X24142857Y5877620D01*
X23904761Y5877620D01*
X23809523Y5830000D01*
X23761904Y5782381D01*
X23714285Y5687143D01*
X23714285Y5591905D01*
X23761904Y5449048D01*
X24333333Y4877620D01*
X23714285Y4877620D01*
G04 #@! TO.C,C3*
X24166666Y7972858D02*
X24214285Y7925239D01*
X24357142Y7877620D01*
X24452380Y7877620D01*
X24595238Y7925239D01*
X24690476Y8020477D01*
X24738095Y8115715D01*
X24785714Y8306191D01*
X24785714Y8449048D01*
X24738095Y8639524D01*
X24690476Y8734762D01*
X24595238Y8830000D01*
X24452380Y8877620D01*
X24357142Y8877620D01*
X24214285Y8830000D01*
X24166666Y8782381D01*
X23833333Y8877620D02*
X23214285Y8877620D01*
X23547619Y8496667D01*
X23404761Y8496667D01*
X23309523Y8449048D01*
X23261904Y8401429D01*
X23214285Y8306191D01*
X23214285Y8068096D01*
X23261904Y7972858D01*
X23309523Y7925239D01*
X23404761Y7877620D01*
X23690476Y7877620D01*
X23785714Y7925239D01*
X23833333Y7972858D01*
G04 #@! TO.C,C4*
X26166666Y7972858D02*
X26214285Y7925239D01*
X26357142Y7877620D01*
X26452380Y7877620D01*
X26595238Y7925239D01*
X26690476Y8020477D01*
X26738095Y8115715D01*
X26785714Y8306191D01*
X26785714Y8449048D01*
X26738095Y8639524D01*
X26690476Y8734762D01*
X26595238Y8830000D01*
X26452380Y8877620D01*
X26357142Y8877620D01*
X26214285Y8830000D01*
X26166666Y8782381D01*
X25309523Y8544286D02*
X25309523Y7877620D01*
X25547619Y8925239D02*
X25785714Y8210953D01*
X25166666Y8210953D01*
G04 #@! TO.C,L1*
X24582380Y7066667D02*
X24582380Y7542858D01*
X23582380Y7542858D01*
X24582380Y6209524D02*
X24582380Y6780953D01*
X24582380Y6495239D02*
X23582380Y6495239D01*
X23725238Y6590477D01*
X23820476Y6685715D01*
X23868095Y6780953D01*
G04 #@! TD*
M02*
