G04 #@! TF.GenerationSoftware,KiCad,Pcbnew,(5.0.0)*
G04 #@! TF.CreationDate,2019-01-06T02:19:59+09:00*
G04 #@! TF.ProjectId,M5Stack_WiSUN,4D35537461636B5F576953554E2E6B69,rev?*
G04 #@! TF.SameCoordinates,PX989680PY55d4a80*
G04 #@! TF.FileFunction,Legend,Bot*
G04 #@! TF.FilePolarity,Positive*
%FSLAX46Y46*%
G04 Gerber Fmt 4.6, Leading zero omitted, Abs format (unit mm)*
G04 Created by KiCad (PCBNEW (5.0.0)) date 01/06/19 02:19:59*
%MOMM*%
%LPD*%
G01*
G04 APERTURE LIST*
%ADD10C,0.200000*%
%ADD11C,0.150000*%
%ADD12C,0.120000*%
G04 APERTURE END LIST*
D10*
X38649523Y42613334D02*
X38173333Y42613334D01*
X38744761Y42327620D02*
X38411428Y43327620D01*
X38078095Y42327620D01*
X37744761Y42327620D02*
X37744761Y43327620D01*
X37506666Y43327620D01*
X37363809Y43280000D01*
X37268571Y43184762D01*
X37220952Y43089524D01*
X37173333Y42899048D01*
X37173333Y42756191D01*
X37220952Y42565715D01*
X37268571Y42470477D01*
X37363809Y42375239D01*
X37506666Y42327620D01*
X37744761Y42327620D01*
X36173333Y42422858D02*
X36220952Y42375239D01*
X36363809Y42327620D01*
X36459047Y42327620D01*
X36601904Y42375239D01*
X36697142Y42470477D01*
X36744761Y42565715D01*
X36792380Y42756191D01*
X36792380Y42899048D01*
X36744761Y43089524D01*
X36697142Y43184762D01*
X36601904Y43280000D01*
X36459047Y43327620D01*
X36363809Y43327620D01*
X36220952Y43280000D01*
X36173333Y43232381D01*
X35982857Y42232381D02*
X35220952Y42232381D01*
X34459047Y43280000D02*
X34554285Y43327620D01*
X34697142Y43327620D01*
X34840000Y43280000D01*
X34935238Y43184762D01*
X34982857Y43089524D01*
X35030476Y42899048D01*
X35030476Y42756191D01*
X34982857Y42565715D01*
X34935238Y42470477D01*
X34840000Y42375239D01*
X34697142Y42327620D01*
X34601904Y42327620D01*
X34459047Y42375239D01*
X34411428Y42422858D01*
X34411428Y42756191D01*
X34601904Y42756191D01*
X34078095Y43327620D02*
X33459047Y43327620D01*
X33792380Y42946667D01*
X33649523Y42946667D01*
X33554285Y42899048D01*
X33506666Y42851429D01*
X33459047Y42756191D01*
X33459047Y42518096D01*
X33506666Y42422858D01*
X33554285Y42375239D01*
X33649523Y42327620D01*
X33935238Y42327620D01*
X34030476Y42375239D01*
X34078095Y42422858D01*
X32554285Y43327620D02*
X33030476Y43327620D01*
X33078095Y42851429D01*
X33030476Y42899048D01*
X32935238Y42946667D01*
X32697142Y42946667D01*
X32601904Y42899048D01*
X32554285Y42851429D01*
X32506666Y42756191D01*
X32506666Y42518096D01*
X32554285Y42422858D01*
X32601904Y42375239D01*
X32697142Y42327620D01*
X32935238Y42327620D01*
X33030476Y42375239D01*
X33078095Y42422858D01*
X6328095Y19150000D02*
X6423333Y19197620D01*
X6566190Y19197620D01*
X6709047Y19150000D01*
X6804285Y19054762D01*
X6851904Y18959524D01*
X6899523Y18769048D01*
X6899523Y18626191D01*
X6851904Y18435715D01*
X6804285Y18340477D01*
X6709047Y18245239D01*
X6566190Y18197620D01*
X6470952Y18197620D01*
X6328095Y18245239D01*
X6280476Y18292858D01*
X6280476Y18626191D01*
X6470952Y18626191D01*
X5851904Y18197620D02*
X5851904Y19197620D01*
X5280476Y18197620D01*
X5280476Y19197620D01*
X4804285Y18197620D02*
X4804285Y19197620D01*
X4566190Y19197620D01*
X4423333Y19150000D01*
X4328095Y19054762D01*
X4280476Y18959524D01*
X4232857Y18769048D01*
X4232857Y18626191D01*
X4280476Y18435715D01*
X4328095Y18340477D01*
X4423333Y18245239D01*
X4566190Y18197620D01*
X4804285Y18197620D01*
X6947142Y21737620D02*
X6328095Y21737620D01*
X6661428Y21356667D01*
X6518571Y21356667D01*
X6423333Y21309048D01*
X6375714Y21261429D01*
X6328095Y21166191D01*
X6328095Y20928096D01*
X6375714Y20832858D01*
X6423333Y20785239D01*
X6518571Y20737620D01*
X6804285Y20737620D01*
X6899523Y20785239D01*
X6947142Y20832858D01*
X5899523Y20832858D02*
X5851904Y20785239D01*
X5899523Y20737620D01*
X5947142Y20785239D01*
X5899523Y20832858D01*
X5899523Y20737620D01*
X5518571Y21737620D02*
X4899523Y21737620D01*
X5232857Y21356667D01*
X5090000Y21356667D01*
X4994761Y21309048D01*
X4947142Y21261429D01*
X4899523Y21166191D01*
X4899523Y20928096D01*
X4947142Y20832858D01*
X4994761Y20785239D01*
X5090000Y20737620D01*
X5375714Y20737620D01*
X5470952Y20785239D01*
X5518571Y20832858D01*
X4613809Y21737620D02*
X4280476Y20737620D01*
X3947142Y21737620D01*
X6851904Y23801429D02*
X6518571Y23801429D01*
X6375714Y23277620D02*
X6851904Y23277620D01*
X6851904Y24277620D01*
X6375714Y24277620D01*
X6042380Y24277620D02*
X5375714Y23277620D01*
X5375714Y24277620D02*
X6042380Y23277620D01*
X5137619Y24277620D02*
X4566190Y24277620D01*
X4851904Y23277620D02*
X4851904Y24277620D01*
X4042380Y24277620D02*
X3947142Y24277620D01*
X3851904Y24230000D01*
X3804285Y24182381D01*
X3756666Y24087143D01*
X3709047Y23896667D01*
X3709047Y23658572D01*
X3756666Y23468096D01*
X3804285Y23372858D01*
X3851904Y23325239D01*
X3947142Y23277620D01*
X4042380Y23277620D01*
X4137619Y23325239D01*
X4185238Y23372858D01*
X4232857Y23468096D01*
X4280476Y23658572D01*
X4280476Y23896667D01*
X4232857Y24087143D01*
X4185238Y24182381D01*
X4137619Y24230000D01*
X4042380Y24277620D01*
X6851904Y26341429D02*
X6518571Y26341429D01*
X6375714Y25817620D02*
X6851904Y25817620D01*
X6851904Y26817620D01*
X6375714Y26817620D01*
X6042380Y26817620D02*
X5375714Y25817620D01*
X5375714Y26817620D02*
X6042380Y25817620D01*
X5137619Y26817620D02*
X4566190Y26817620D01*
X4851904Y25817620D02*
X4851904Y26817620D01*
X3709047Y25817620D02*
X4280476Y25817620D01*
X3994761Y25817620D02*
X3994761Y26817620D01*
X4090000Y26674762D01*
X4185238Y26579524D01*
X4280476Y26531905D01*
X6851904Y28881429D02*
X6518571Y28881429D01*
X6375714Y28357620D02*
X6851904Y28357620D01*
X6851904Y29357620D01*
X6375714Y29357620D01*
X6042380Y29357620D02*
X5375714Y28357620D01*
X5375714Y29357620D02*
X6042380Y28357620D01*
X5137619Y29357620D02*
X4566190Y29357620D01*
X4851904Y28357620D02*
X4851904Y29357620D01*
X4280476Y29262381D02*
X4232857Y29310000D01*
X4137619Y29357620D01*
X3899523Y29357620D01*
X3804285Y29310000D01*
X3756666Y29262381D01*
X3709047Y29167143D01*
X3709047Y29071905D01*
X3756666Y28929048D01*
X4328095Y28357620D01*
X3709047Y28357620D01*
X6851904Y31421429D02*
X6518571Y31421429D01*
X6375714Y30897620D02*
X6851904Y30897620D01*
X6851904Y31897620D01*
X6375714Y31897620D01*
X6042380Y31897620D02*
X5375714Y30897620D01*
X5375714Y31897620D02*
X6042380Y30897620D01*
X5137619Y31897620D02*
X4566190Y31897620D01*
X4851904Y30897620D02*
X4851904Y31897620D01*
X4328095Y31897620D02*
X3709047Y31897620D01*
X4042380Y31516667D01*
X3899523Y31516667D01*
X3804285Y31469048D01*
X3756666Y31421429D01*
X3709047Y31326191D01*
X3709047Y31088096D01*
X3756666Y30992858D01*
X3804285Y30945239D01*
X3899523Y30897620D01*
X4185238Y30897620D01*
X4280476Y30945239D01*
X4328095Y30992858D01*
G04 #@! TO.C,U1*
X27243882Y16610664D02*
G75*
G03X27243882Y16610664I-100000J0D01*
G01*
D11*
X28343882Y21310664D02*
X28343882Y17910664D01*
X21443882Y21310664D02*
X21443882Y17910664D01*
G04 #@! TO.C,U2*
X27200000Y4775000D02*
X22800000Y4775000D01*
X28775000Y10300000D02*
X22800000Y10300000D01*
D12*
G04 #@! TO.C,J1*
X41450000Y9000000D02*
X41450000Y7980000D01*
X46650000Y9000000D02*
X46650000Y7980000D01*
X41450000Y11540000D02*
X41450000Y10520000D01*
X46650000Y11540000D02*
X46650000Y10520000D01*
X41450000Y14080000D02*
X41450000Y13060000D01*
X46650000Y14080000D02*
X46650000Y13060000D01*
X41450000Y16620000D02*
X41450000Y15600000D01*
X46650000Y16620000D02*
X46650000Y15600000D01*
X41450000Y19160000D02*
X41450000Y18140000D01*
X46650000Y19160000D02*
X46650000Y18140000D01*
X41450000Y21700000D02*
X41450000Y20680000D01*
X46650000Y21700000D02*
X46650000Y20680000D01*
X41450000Y24240000D02*
X41450000Y23220000D01*
X46650000Y24240000D02*
X46650000Y23220000D01*
X41450000Y26780000D02*
X41450000Y25760000D01*
X46650000Y26780000D02*
X46650000Y25760000D01*
X41450000Y29320000D02*
X41450000Y28300000D01*
X46650000Y29320000D02*
X46650000Y28300000D01*
X41450000Y31860000D02*
X41450000Y30840000D01*
X46650000Y31860000D02*
X46650000Y30840000D01*
X41450000Y34400000D02*
X41450000Y33380000D01*
X46650000Y34400000D02*
X46650000Y33380000D01*
X41450000Y36940000D02*
X41450000Y35920000D01*
X46650000Y36940000D02*
X46650000Y35920000D01*
X41450000Y39480000D02*
X41450000Y38460000D01*
X46650000Y39480000D02*
X46650000Y38460000D01*
X41450000Y42020000D02*
X41450000Y41000000D01*
X46650000Y42020000D02*
X46650000Y41000000D01*
X41450000Y6460000D02*
X41450000Y5890000D01*
X46650000Y6460000D02*
X46650000Y5890000D01*
X41450000Y44110000D02*
X41450000Y43540000D01*
X46650000Y44110000D02*
X46650000Y43540000D01*
X48090000Y43540000D02*
X46650000Y43540000D01*
X46650000Y5890000D02*
X41450000Y5890000D01*
X46650000Y44110000D02*
X41450000Y44110000D01*
G04 #@! TO.C,U1*
D11*
X25561904Y16347620D02*
X25561904Y15538096D01*
X25514285Y15442858D01*
X25466666Y15395239D01*
X25371428Y15347620D01*
X25180952Y15347620D01*
X25085714Y15395239D01*
X25038095Y15442858D01*
X24990476Y15538096D01*
X24990476Y16347620D01*
X23990476Y15347620D02*
X24561904Y15347620D01*
X24276190Y15347620D02*
X24276190Y16347620D01*
X24371428Y16204762D01*
X24466666Y16109524D01*
X24561904Y16061905D01*
G04 #@! TO.C,C1*
X23266666Y12142858D02*
X23314285Y12095239D01*
X23457142Y12047620D01*
X23552380Y12047620D01*
X23695238Y12095239D01*
X23790476Y12190477D01*
X23838095Y12285715D01*
X23885714Y12476191D01*
X23885714Y12619048D01*
X23838095Y12809524D01*
X23790476Y12904762D01*
X23695238Y13000000D01*
X23552380Y13047620D01*
X23457142Y13047620D01*
X23314285Y13000000D01*
X23266666Y12952381D01*
X22314285Y12047620D02*
X22885714Y12047620D01*
X22600000Y12047620D02*
X22600000Y13047620D01*
X22695238Y12904762D01*
X22790476Y12809524D01*
X22885714Y12761905D01*
G04 #@! TO.C,R1*
X30952380Y13966667D02*
X30476190Y14300000D01*
X30952380Y14538096D02*
X29952380Y14538096D01*
X29952380Y14157143D01*
X30000000Y14061905D01*
X30047619Y14014286D01*
X30142857Y13966667D01*
X30285714Y13966667D01*
X30380952Y14014286D01*
X30428571Y14061905D01*
X30476190Y14157143D01*
X30476190Y14538096D01*
X30952380Y13014286D02*
X30952380Y13585715D01*
X30952380Y13300000D02*
X29952380Y13300000D01*
X30095238Y13395239D01*
X30190476Y13490477D01*
X30238095Y13585715D01*
G04 #@! TO.C,R2*
X34466666Y7447620D02*
X34800000Y7923810D01*
X35038095Y7447620D02*
X35038095Y8447620D01*
X34657142Y8447620D01*
X34561904Y8400000D01*
X34514285Y8352381D01*
X34466666Y8257143D01*
X34466666Y8114286D01*
X34514285Y8019048D01*
X34561904Y7971429D01*
X34657142Y7923810D01*
X35038095Y7923810D01*
X34085714Y8352381D02*
X34038095Y8400000D01*
X33942857Y8447620D01*
X33704761Y8447620D01*
X33609523Y8400000D01*
X33561904Y8352381D01*
X33514285Y8257143D01*
X33514285Y8161905D01*
X33561904Y8019048D01*
X34133333Y7447620D01*
X33514285Y7447620D01*
G04 #@! TO.C,R3*
X20966666Y12047620D02*
X21300000Y12523810D01*
X21538095Y12047620D02*
X21538095Y13047620D01*
X21157142Y13047620D01*
X21061904Y13000000D01*
X21014285Y12952381D01*
X20966666Y12857143D01*
X20966666Y12714286D01*
X21014285Y12619048D01*
X21061904Y12571429D01*
X21157142Y12523810D01*
X21538095Y12523810D01*
X20633333Y13047620D02*
X20014285Y13047620D01*
X20347619Y12666667D01*
X20204761Y12666667D01*
X20109523Y12619048D01*
X20061904Y12571429D01*
X20014285Y12476191D01*
X20014285Y12238096D01*
X20061904Y12142858D01*
X20109523Y12095239D01*
X20204761Y12047620D01*
X20490476Y12047620D01*
X20585714Y12095239D01*
X20633333Y12142858D01*
G04 #@! TO.C,R4*
X30952380Y7266667D02*
X30476190Y7600000D01*
X30952380Y7838096D02*
X29952380Y7838096D01*
X29952380Y7457143D01*
X30000000Y7361905D01*
X30047619Y7314286D01*
X30142857Y7266667D01*
X30285714Y7266667D01*
X30380952Y7314286D01*
X30428571Y7361905D01*
X30476190Y7457143D01*
X30476190Y7838096D01*
X30285714Y6409524D02*
X30952380Y6409524D01*
X29904761Y6647620D02*
X30619047Y6885715D01*
X30619047Y6266667D01*
G04 #@! TO.C,R5*
X14866666Y10047620D02*
X15200000Y10523810D01*
X15438095Y10047620D02*
X15438095Y11047620D01*
X15057142Y11047620D01*
X14961904Y11000000D01*
X14914285Y10952381D01*
X14866666Y10857143D01*
X14866666Y10714286D01*
X14914285Y10619048D01*
X14961904Y10571429D01*
X15057142Y10523810D01*
X15438095Y10523810D01*
X13961904Y11047620D02*
X14438095Y11047620D01*
X14485714Y10571429D01*
X14438095Y10619048D01*
X14342857Y10666667D01*
X14104761Y10666667D01*
X14009523Y10619048D01*
X13961904Y10571429D01*
X13914285Y10476191D01*
X13914285Y10238096D01*
X13961904Y10142858D01*
X14009523Y10095239D01*
X14104761Y10047620D01*
X14342857Y10047620D01*
X14438095Y10095239D01*
X14485714Y10142858D01*
G04 #@! TO.C,R6*
X14866666Y8847620D02*
X15200000Y9323810D01*
X15438095Y8847620D02*
X15438095Y9847620D01*
X15057142Y9847620D01*
X14961904Y9800000D01*
X14914285Y9752381D01*
X14866666Y9657143D01*
X14866666Y9514286D01*
X14914285Y9419048D01*
X14961904Y9371429D01*
X15057142Y9323810D01*
X15438095Y9323810D01*
X14009523Y9847620D02*
X14200000Y9847620D01*
X14295238Y9800000D01*
X14342857Y9752381D01*
X14438095Y9609524D01*
X14485714Y9419048D01*
X14485714Y9038096D01*
X14438095Y8942858D01*
X14390476Y8895239D01*
X14295238Y8847620D01*
X14104761Y8847620D01*
X14009523Y8895239D01*
X13961904Y8942858D01*
X13914285Y9038096D01*
X13914285Y9276191D01*
X13961904Y9371429D01*
X14009523Y9419048D01*
X14104761Y9466667D01*
X14295238Y9466667D01*
X14390476Y9419048D01*
X14438095Y9371429D01*
X14485714Y9276191D01*
G04 #@! TO.C,R7*
X14866666Y7647620D02*
X15200000Y8123810D01*
X15438095Y7647620D02*
X15438095Y8647620D01*
X15057142Y8647620D01*
X14961904Y8600000D01*
X14914285Y8552381D01*
X14866666Y8457143D01*
X14866666Y8314286D01*
X14914285Y8219048D01*
X14961904Y8171429D01*
X15057142Y8123810D01*
X15438095Y8123810D01*
X14533333Y8647620D02*
X13866666Y8647620D01*
X14295238Y7647620D01*
G04 #@! TO.C,R8*
X14866666Y6447620D02*
X15200000Y6923810D01*
X15438095Y6447620D02*
X15438095Y7447620D01*
X15057142Y7447620D01*
X14961904Y7400000D01*
X14914285Y7352381D01*
X14866666Y7257143D01*
X14866666Y7114286D01*
X14914285Y7019048D01*
X14961904Y6971429D01*
X15057142Y6923810D01*
X15438095Y6923810D01*
X14295238Y7019048D02*
X14390476Y7066667D01*
X14438095Y7114286D01*
X14485714Y7209524D01*
X14485714Y7257143D01*
X14438095Y7352381D01*
X14390476Y7400000D01*
X14295238Y7447620D01*
X14104761Y7447620D01*
X14009523Y7400000D01*
X13961904Y7352381D01*
X13914285Y7257143D01*
X13914285Y7209524D01*
X13961904Y7114286D01*
X14009523Y7066667D01*
X14104761Y7019048D01*
X14295238Y7019048D01*
X14390476Y6971429D01*
X14438095Y6923810D01*
X14485714Y6828572D01*
X14485714Y6638096D01*
X14438095Y6542858D01*
X14390476Y6495239D01*
X14295238Y6447620D01*
X14104761Y6447620D01*
X14009523Y6495239D01*
X13961904Y6542858D01*
X13914285Y6638096D01*
X13914285Y6828572D01*
X13961904Y6923810D01*
X14009523Y6971429D01*
X14104761Y7019048D01*
G04 #@! TO.C,R9*
X14866666Y5247620D02*
X15200000Y5723810D01*
X15438095Y5247620D02*
X15438095Y6247620D01*
X15057142Y6247620D01*
X14961904Y6200000D01*
X14914285Y6152381D01*
X14866666Y6057143D01*
X14866666Y5914286D01*
X14914285Y5819048D01*
X14961904Y5771429D01*
X15057142Y5723810D01*
X15438095Y5723810D01*
X14390476Y5247620D02*
X14200000Y5247620D01*
X14104761Y5295239D01*
X14057142Y5342858D01*
X13961904Y5485715D01*
X13914285Y5676191D01*
X13914285Y6057143D01*
X13961904Y6152381D01*
X14009523Y6200000D01*
X14104761Y6247620D01*
X14295238Y6247620D01*
X14390476Y6200000D01*
X14438095Y6152381D01*
X14485714Y6057143D01*
X14485714Y5819048D01*
X14438095Y5723810D01*
X14390476Y5676191D01*
X14295238Y5628572D01*
X14104761Y5628572D01*
X14009523Y5676191D01*
X13961904Y5723810D01*
X13914285Y5819048D01*
G04 #@! TO.C,R10*
X14842857Y3947620D02*
X15176190Y4423810D01*
X15414285Y3947620D02*
X15414285Y4947620D01*
X15033333Y4947620D01*
X14938095Y4900000D01*
X14890476Y4852381D01*
X14842857Y4757143D01*
X14842857Y4614286D01*
X14890476Y4519048D01*
X14938095Y4471429D01*
X15033333Y4423810D01*
X15414285Y4423810D01*
X13890476Y3947620D02*
X14461904Y3947620D01*
X14176190Y3947620D02*
X14176190Y4947620D01*
X14271428Y4804762D01*
X14366666Y4709524D01*
X14461904Y4661905D01*
X13271428Y4947620D02*
X13176190Y4947620D01*
X13080952Y4900000D01*
X13033333Y4852381D01*
X12985714Y4757143D01*
X12938095Y4566667D01*
X12938095Y4328572D01*
X12985714Y4138096D01*
X13033333Y4042858D01*
X13080952Y3995239D01*
X13176190Y3947620D01*
X13271428Y3947620D01*
X13366666Y3995239D01*
X13414285Y4042858D01*
X13461904Y4138096D01*
X13509523Y4328572D01*
X13509523Y4566667D01*
X13461904Y4757143D01*
X13414285Y4852381D01*
X13366666Y4900000D01*
X13271428Y4947620D01*
G04 #@! TO.C,R11*
X34442857Y2647620D02*
X34776190Y3123810D01*
X35014285Y2647620D02*
X35014285Y3647620D01*
X34633333Y3647620D01*
X34538095Y3600000D01*
X34490476Y3552381D01*
X34442857Y3457143D01*
X34442857Y3314286D01*
X34490476Y3219048D01*
X34538095Y3171429D01*
X34633333Y3123810D01*
X35014285Y3123810D01*
X33490476Y2647620D02*
X34061904Y2647620D01*
X33776190Y2647620D02*
X33776190Y3647620D01*
X33871428Y3504762D01*
X33966666Y3409524D01*
X34061904Y3361905D01*
X32538095Y2647620D02*
X33109523Y2647620D01*
X32823809Y2647620D02*
X32823809Y3647620D01*
X32919047Y3504762D01*
X33014285Y3409524D01*
X33109523Y3361905D01*
G04 #@! TO.C,R12*
X34442857Y3947620D02*
X34776190Y4423810D01*
X35014285Y3947620D02*
X35014285Y4947620D01*
X34633333Y4947620D01*
X34538095Y4900000D01*
X34490476Y4852381D01*
X34442857Y4757143D01*
X34442857Y4614286D01*
X34490476Y4519048D01*
X34538095Y4471429D01*
X34633333Y4423810D01*
X35014285Y4423810D01*
X33490476Y3947620D02*
X34061904Y3947620D01*
X33776190Y3947620D02*
X33776190Y4947620D01*
X33871428Y4804762D01*
X33966666Y4709524D01*
X34061904Y4661905D01*
X33109523Y4852381D02*
X33061904Y4900000D01*
X32966666Y4947620D01*
X32728571Y4947620D01*
X32633333Y4900000D01*
X32585714Y4852381D01*
X32538095Y4757143D01*
X32538095Y4661905D01*
X32585714Y4519048D01*
X33157142Y3947620D01*
X32538095Y3947620D01*
G04 #@! TO.C,U2*
X28661904Y11747620D02*
X28661904Y10938096D01*
X28614285Y10842858D01*
X28566666Y10795239D01*
X28471428Y10747620D01*
X28280952Y10747620D01*
X28185714Y10795239D01*
X28138095Y10842858D01*
X28090476Y10938096D01*
X28090476Y11747620D01*
X27661904Y11652381D02*
X27614285Y11700000D01*
X27519047Y11747620D01*
X27280952Y11747620D01*
X27185714Y11700000D01*
X27138095Y11652381D01*
X27090476Y11557143D01*
X27090476Y11461905D01*
X27138095Y11319048D01*
X27709523Y10747620D01*
X27090476Y10747620D01*
G04 #@! TO.C,J1*
X39333333Y45747620D02*
X39333333Y45033334D01*
X39380952Y44890477D01*
X39476190Y44795239D01*
X39619047Y44747620D01*
X39714285Y44747620D01*
X38333333Y44747620D02*
X38904761Y44747620D01*
X38619047Y44747620D02*
X38619047Y45747620D01*
X38714285Y45604762D01*
X38809523Y45509524D01*
X38904761Y45461905D01*
G04 #@! TD*
M02*
