M48
;DRILL file {KiCad (5.0.0)} date 10/17/18 05:03:24
;FORMAT={3:3/ absolute / metric / suppress leading zeros}
FMAT,2
METRIC,TZ
T1C0.400
T2C2.500
%
G90
G05
M71
T1
X2500Y42500
X2500Y37500
X2500Y32500
X2500Y27500
X2500Y7500
X5000Y40000
X5000Y35000
X5000Y30000
X5000Y25000
X7500Y7500
X10000Y45000
X10000Y40000
X10000Y35000
X10000Y30000
X10000Y25000
X10000Y20000
X10000Y15000
X10000Y10000
X10000Y5000
X12500Y47500
X12500Y42500
X12500Y37500
X12500Y2500
X13570Y4045
X14840Y4680
X15000Y35000
X15000Y30000
X15000Y25000
X16110Y7220
X18650Y3930
X19920Y5430
X20000Y35000
X20000Y30000
X20000Y25000
X21190Y6180
X22714Y22968
X23250Y18350
X23500Y22150
X23500Y19750
X23730Y2140
X25000Y35000
X25000Y30000
X25000Y25000
X25000Y4680
X25750Y18350
X26270Y3930
X27540Y5430
X30000Y35000
X30000Y30000
X30000Y25000
X30080Y1378
X31350Y2140
X32620Y3180
X33890Y3930
X35000Y35000
X35000Y30000
X35000Y25000
X37500Y47500
X37500Y42500
X37500Y37500
X37500Y32500
X38970Y30080
X38970Y25000
X38970Y19920
X38970Y17380
X38970Y14840
X44050Y42780
X44050Y40240
X44050Y37700
X44050Y36430
X44050Y35160
X44050Y33890
X44050Y32620
X44050Y30080
X44050Y28810
X44050Y27540
X44050Y25000
X44050Y23730
X44050Y22460
X44050Y18695
X44050Y16110
X44050Y12300
X44050Y9760
X44050Y7220
X46590Y41510
X46590Y38970
X46590Y13570
X46590Y11030
X46590Y8490
X49130Y44050
X49130Y38970
X49130Y33890
X49130Y28810
X49130Y23730
X49130Y18650
X49130Y13570
X49130Y8490
T2
X43000Y3000
X7000Y3000
X43000Y47000
X7000Y47000
T0
M30
