M48
;DRILL file {KiCad (5.0.0)} date 01/06/19 02:20:37
;FORMAT={-:-/ absolute / metric / decimal}
FMAT,2
METRIC,TZ
T1C0.400
T2C0.700
T3C2.200
%
G90
G05
M71
T1
X2.Y43.
X2.Y40.
X2.Y35.
X2.Y30.
X2.Y25.
X2.Y20.
X2.Y15.
X2.Y10.
X2.Y7.
X4.9Y20.1
X4.9Y17.6
X5.Y43.
X5.Y40.
X5.Y35.
X5.Y30.
X5.Y25.
X5.Y15.
X5.Y10.
X5.Y7.
X5.5Y16.5
X7.2Y32.6
X7.2Y30.1
X7.2Y27.6
X7.2Y25.
X7.2Y22.5
X9.Y13.7
X9.8Y32.6
X10.Y48.
X10.Y43.
X10.Y40.
X10.Y35.
X10.Y7.
X10.Y2.
X11.Y10.6
X13.2Y8.4
X14.Y17.4
X15.Y35.
X15.Y30.
X15.Y25.
X15.Y5.
X15.Y2.
X15.3Y6.4
X15.9Y15.6
X17.7Y13.8
X19.Y10.5
X19.Y9.3
X19.Y8.1
X19.Y6.9
X19.5Y4.3
X20.Y35.
X20.Y30.
X20.Y25.
X20.Y2.
X20.9Y21.
X20.9Y18.2
X20.9Y15.6
X21.5Y4.3
X22.6Y23.7
X22.6Y13.8
X22.6Y12.5
X23.6Y8.5
X23.6Y6.7
X23.6Y4.3
X23.8Y15.6
X24.Y10.
X24.3Y13.8
X24.9Y11.3
X25.Y35.
X25.Y30.
X25.Y25.
X25.Y2.
X26.394Y22.761
X26.394Y20.361
X26.5Y5.2
X26.644Y18.961
X27.3Y13.7
X27.7Y11.3
X28.5Y23.7
X28.8Y3.9
X28.994Y16.806
X29.Y12.5
X30.Y35.
X30.Y30.
X30.Y25.
X30.2Y16.9
X30.7Y7.9
X30.9Y14.1
X31.6Y23.1
X31.6Y8.9
X31.7Y16.2
X32.1Y14.1
X32.7Y9.1
X32.9Y3.1
X34.1Y22.8
X35.Y35.
X35.Y25.
X35.3Y30.7
X35.3Y12.4
X35.5Y20.8
X35.8Y9.2
X35.8Y6.2
X35.8Y3.2
X37.Y31.4
X37.1Y3.2
X37.2Y28.6
X37.7Y14.7
X37.7Y12.8
X38.5Y16.5
X38.97Y30.08
X38.97Y25.
X39.Y43.
X39.Y40.
X39.Y35.
X39.22Y17.38
X40.Y48.
X40.5Y4.8
X40.5Y1.2
X42.78Y5.95
X43.96Y14.84
X44.05Y42.78
X44.05Y40.24
X44.05Y37.7
X44.05Y36.43
X44.05Y35.16
X44.05Y33.89
X44.05Y32.62
X44.05Y30.08
X44.05Y28.81
X44.05Y27.54
X44.05Y25.
X44.05Y23.73
X44.05Y22.46
X44.05Y12.3
X44.05Y9.76
X44.05Y7.22
X44.2Y13.7
X46.575Y16.275
X48.9Y12.3
X48.92Y7.22
X48.94Y9.76
X49.13Y44.05
X49.13Y38.97
X49.13Y33.89
X49.13Y28.81
X49.13Y23.73
X49.13Y18.65
T2
X8.49Y23.73
X8.49Y26.27
X8.49Y18.65
X8.49Y28.81
X8.49Y31.35
X8.49Y21.19
T3
X43.Y47.
X7.Y47.
X43.Y3.
X7.Y3.
T0
M30
