G04 #@! TF.GenerationSoftware,KiCad,Pcbnew,(5.0.0)*
G04 #@! TF.CreationDate,2019-01-06T02:19:59+09:00*
G04 #@! TF.ProjectId,M5Stack_WiSUN,4D35537461636B5F576953554E2E6B69,rev?*
G04 #@! TF.SameCoordinates,PX989680PY55d4a80*
G04 #@! TF.FileFunction,Legend,Top*
G04 #@! TF.FilePolarity,Positive*
%FSLAX46Y46*%
G04 Gerber Fmt 4.6, Leading zero omitted, Abs format (unit mm)*
G04 Created by KiCad (PCBNEW (5.0.0)) date 01/06/19 02:19:59*
%MOMM*%
%LPD*%
G01*
G04 APERTURE LIST*
%ADD10C,0.200000*%
%ADD11C,0.300000*%
%ADD12C,0.120000*%
%ADD13C,0.150000*%
G04 APERTURE END LIST*
D10*
X32506666Y42613334D02*
X32982857Y42613334D01*
X32411428Y42327620D02*
X32744761Y43327620D01*
X33078095Y42327620D01*
X33411428Y42327620D02*
X33411428Y43327620D01*
X33649523Y43327620D01*
X33792380Y43280000D01*
X33887619Y43184762D01*
X33935238Y43089524D01*
X33982857Y42899048D01*
X33982857Y42756191D01*
X33935238Y42565715D01*
X33887619Y42470477D01*
X33792380Y42375239D01*
X33649523Y42327620D01*
X33411428Y42327620D01*
X34982857Y42422858D02*
X34935238Y42375239D01*
X34792380Y42327620D01*
X34697142Y42327620D01*
X34554285Y42375239D01*
X34459047Y42470477D01*
X34411428Y42565715D01*
X34363809Y42756191D01*
X34363809Y42899048D01*
X34411428Y43089524D01*
X34459047Y43184762D01*
X34554285Y43280000D01*
X34697142Y43327620D01*
X34792380Y43327620D01*
X34935238Y43280000D01*
X34982857Y43232381D01*
X35173333Y42232381D02*
X35935238Y42232381D01*
X36697142Y43280000D02*
X36601904Y43327620D01*
X36459047Y43327620D01*
X36316190Y43280000D01*
X36220952Y43184762D01*
X36173333Y43089524D01*
X36125714Y42899048D01*
X36125714Y42756191D01*
X36173333Y42565715D01*
X36220952Y42470477D01*
X36316190Y42375239D01*
X36459047Y42327620D01*
X36554285Y42327620D01*
X36697142Y42375239D01*
X36744761Y42422858D01*
X36744761Y42756191D01*
X36554285Y42756191D01*
X37078095Y43327620D02*
X37697142Y43327620D01*
X37363809Y42946667D01*
X37506666Y42946667D01*
X37601904Y42899048D01*
X37649523Y42851429D01*
X37697142Y42756191D01*
X37697142Y42518096D01*
X37649523Y42422858D01*
X37601904Y42375239D01*
X37506666Y42327620D01*
X37220952Y42327620D01*
X37125714Y42375239D01*
X37078095Y42422858D01*
X38601904Y43327620D02*
X38125714Y43327620D01*
X38078095Y42851429D01*
X38125714Y42899048D01*
X38220952Y42946667D01*
X38459047Y42946667D01*
X38554285Y42899048D01*
X38601904Y42851429D01*
X38649523Y42756191D01*
X38649523Y42518096D01*
X38601904Y42422858D01*
X38554285Y42375239D01*
X38459047Y42327620D01*
X38220952Y42327620D01*
X38125714Y42375239D01*
X38078095Y42422858D01*
X4804285Y19150000D02*
X4709047Y19197620D01*
X4566190Y19197620D01*
X4423333Y19150000D01*
X4328095Y19054762D01*
X4280476Y18959524D01*
X4232857Y18769048D01*
X4232857Y18626191D01*
X4280476Y18435715D01*
X4328095Y18340477D01*
X4423333Y18245239D01*
X4566190Y18197620D01*
X4661428Y18197620D01*
X4804285Y18245239D01*
X4851904Y18292858D01*
X4851904Y18626191D01*
X4661428Y18626191D01*
X5280476Y18197620D02*
X5280476Y19197620D01*
X5851904Y18197620D01*
X5851904Y19197620D01*
X6328095Y18197620D02*
X6328095Y19197620D01*
X6566190Y19197620D01*
X6709047Y19150000D01*
X6804285Y19054762D01*
X6851904Y18959524D01*
X6899523Y18769048D01*
X6899523Y18626191D01*
X6851904Y18435715D01*
X6804285Y18340477D01*
X6709047Y18245239D01*
X6566190Y18197620D01*
X6328095Y18197620D01*
X3994761Y21737620D02*
X4613809Y21737620D01*
X4280476Y21356667D01*
X4423333Y21356667D01*
X4518571Y21309048D01*
X4566190Y21261429D01*
X4613809Y21166191D01*
X4613809Y20928096D01*
X4566190Y20832858D01*
X4518571Y20785239D01*
X4423333Y20737620D01*
X4137619Y20737620D01*
X4042380Y20785239D01*
X3994761Y20832858D01*
X5042380Y20832858D02*
X5090000Y20785239D01*
X5042380Y20737620D01*
X4994761Y20785239D01*
X5042380Y20832858D01*
X5042380Y20737620D01*
X5423333Y21737620D02*
X6042380Y21737620D01*
X5709047Y21356667D01*
X5851904Y21356667D01*
X5947142Y21309048D01*
X5994761Y21261429D01*
X6042380Y21166191D01*
X6042380Y20928096D01*
X5994761Y20832858D01*
X5947142Y20785239D01*
X5851904Y20737620D01*
X5566190Y20737620D01*
X5470952Y20785239D01*
X5423333Y20832858D01*
X6328095Y21737620D02*
X6661428Y20737620D01*
X6994761Y21737620D01*
X3756666Y23801429D02*
X4090000Y23801429D01*
X4232857Y23277620D02*
X3756666Y23277620D01*
X3756666Y24277620D01*
X4232857Y24277620D01*
X4566190Y24277620D02*
X5232857Y23277620D01*
X5232857Y24277620D02*
X4566190Y23277620D01*
X5470952Y24277620D02*
X6042380Y24277620D01*
X5756666Y23277620D02*
X5756666Y24277620D01*
X6566190Y24277620D02*
X6661428Y24277620D01*
X6756666Y24230000D01*
X6804285Y24182381D01*
X6851904Y24087143D01*
X6899523Y23896667D01*
X6899523Y23658572D01*
X6851904Y23468096D01*
X6804285Y23372858D01*
X6756666Y23325239D01*
X6661428Y23277620D01*
X6566190Y23277620D01*
X6470952Y23325239D01*
X6423333Y23372858D01*
X6375714Y23468096D01*
X6328095Y23658572D01*
X6328095Y23896667D01*
X6375714Y24087143D01*
X6423333Y24182381D01*
X6470952Y24230000D01*
X6566190Y24277620D01*
X3756666Y26341429D02*
X4090000Y26341429D01*
X4232857Y25817620D02*
X3756666Y25817620D01*
X3756666Y26817620D01*
X4232857Y26817620D01*
X4566190Y26817620D02*
X5232857Y25817620D01*
X5232857Y26817620D02*
X4566190Y25817620D01*
X5470952Y26817620D02*
X6042380Y26817620D01*
X5756666Y25817620D02*
X5756666Y26817620D01*
X6899523Y25817620D02*
X6328095Y25817620D01*
X6613809Y25817620D02*
X6613809Y26817620D01*
X6518571Y26674762D01*
X6423333Y26579524D01*
X6328095Y26531905D01*
X3756666Y28881429D02*
X4090000Y28881429D01*
X4232857Y28357620D02*
X3756666Y28357620D01*
X3756666Y29357620D01*
X4232857Y29357620D01*
X4566190Y29357620D02*
X5232857Y28357620D01*
X5232857Y29357620D02*
X4566190Y28357620D01*
X5470952Y29357620D02*
X6042380Y29357620D01*
X5756666Y28357620D02*
X5756666Y29357620D01*
X6328095Y29262381D02*
X6375714Y29310000D01*
X6470952Y29357620D01*
X6709047Y29357620D01*
X6804285Y29310000D01*
X6851904Y29262381D01*
X6899523Y29167143D01*
X6899523Y29071905D01*
X6851904Y28929048D01*
X6280476Y28357620D01*
X6899523Y28357620D01*
X3756666Y31421429D02*
X4090000Y31421429D01*
X4232857Y30897620D02*
X3756666Y30897620D01*
X3756666Y31897620D01*
X4232857Y31897620D01*
X4566190Y31897620D02*
X5232857Y30897620D01*
X5232857Y31897620D02*
X4566190Y30897620D01*
X5470952Y31897620D02*
X6042380Y31897620D01*
X5756666Y30897620D02*
X5756666Y31897620D01*
X6280476Y31897620D02*
X6899523Y31897620D01*
X6566190Y31516667D01*
X6709047Y31516667D01*
X6804285Y31469048D01*
X6851904Y31421429D01*
X6899523Y31326191D01*
X6899523Y31088096D01*
X6851904Y30992858D01*
X6804285Y30945239D01*
X6709047Y30897620D01*
X6423333Y30897620D01*
X6328095Y30945239D01*
X6280476Y30992858D01*
D11*
X2549285Y15671429D02*
X2906428Y14171429D01*
X3192142Y15242858D01*
X3477857Y14171429D01*
X3835000Y15671429D01*
X4406428Y14171429D02*
X4406428Y15171429D01*
X4406428Y15671429D02*
X4335000Y15600000D01*
X4406428Y15528572D01*
X4477857Y15600000D01*
X4406428Y15671429D01*
X4406428Y15528572D01*
X5120714Y14742858D02*
X6263571Y14742858D01*
X6906428Y14242858D02*
X7120714Y14171429D01*
X7477857Y14171429D01*
X7620714Y14242858D01*
X7692142Y14314286D01*
X7763571Y14457143D01*
X7763571Y14600000D01*
X7692142Y14742858D01*
X7620714Y14814286D01*
X7477857Y14885715D01*
X7192142Y14957143D01*
X7049285Y15028572D01*
X6977857Y15100000D01*
X6906428Y15242858D01*
X6906428Y15385715D01*
X6977857Y15528572D01*
X7049285Y15600000D01*
X7192142Y15671429D01*
X7549285Y15671429D01*
X7763571Y15600000D01*
X8406428Y15671429D02*
X8406428Y14457143D01*
X8477857Y14314286D01*
X8549285Y14242858D01*
X8692142Y14171429D01*
X8977857Y14171429D01*
X9120714Y14242858D01*
X9192142Y14314286D01*
X9263571Y14457143D01*
X9263571Y15671429D01*
X9977857Y14171429D02*
X9977857Y15671429D01*
X10835000Y14171429D01*
X10835000Y15671429D01*
X12620714Y14242858D02*
X12835000Y14171429D01*
X13192142Y14171429D01*
X13335000Y14242858D01*
X13406428Y14314286D01*
X13477857Y14457143D01*
X13477857Y14600000D01*
X13406428Y14742858D01*
X13335000Y14814286D01*
X13192142Y14885715D01*
X12906428Y14957143D01*
X12763571Y15028572D01*
X12692142Y15100000D01*
X12620714Y15242858D01*
X12620714Y15385715D01*
X12692142Y15528572D01*
X12763571Y15600000D01*
X12906428Y15671429D01*
X13263571Y15671429D01*
X13477857Y15600000D01*
X13906428Y15171429D02*
X14477857Y15171429D01*
X14120714Y15671429D02*
X14120714Y14385715D01*
X14192142Y14242858D01*
X14335000Y14171429D01*
X14477857Y14171429D01*
X15620714Y14171429D02*
X15620714Y14957143D01*
X15549285Y15100000D01*
X15406428Y15171429D01*
X15120714Y15171429D01*
X14977857Y15100000D01*
X15620714Y14242858D02*
X15477857Y14171429D01*
X15120714Y14171429D01*
X14977857Y14242858D01*
X14906428Y14385715D01*
X14906428Y14528572D01*
X14977857Y14671429D01*
X15120714Y14742858D01*
X15477857Y14742858D01*
X15620714Y14814286D01*
X16977857Y14242858D02*
X16835000Y14171429D01*
X16549285Y14171429D01*
X16406428Y14242858D01*
X16335000Y14314286D01*
X16263571Y14457143D01*
X16263571Y14885715D01*
X16335000Y15028572D01*
X16406428Y15100000D01*
X16549285Y15171429D01*
X16835000Y15171429D01*
X16977857Y15100000D01*
X17620714Y14171429D02*
X17620714Y15671429D01*
X17763571Y14742858D02*
X18192142Y14171429D01*
X18192142Y15171429D02*
X17620714Y14600000D01*
X2477857Y12621429D02*
X3049285Y12621429D01*
X2692142Y11621429D02*
X2692142Y12907143D01*
X2763571Y13050000D01*
X2906428Y13121429D01*
X3049285Y13121429D01*
X3763571Y11621429D02*
X3620714Y11692858D01*
X3549285Y11764286D01*
X3477857Y11907143D01*
X3477857Y12335715D01*
X3549285Y12478572D01*
X3620714Y12550000D01*
X3763571Y12621429D01*
X3977857Y12621429D01*
X4120714Y12550000D01*
X4192142Y12478572D01*
X4263571Y12335715D01*
X4263571Y11907143D01*
X4192142Y11764286D01*
X4120714Y11692858D01*
X3977857Y11621429D01*
X3763571Y11621429D01*
X4906428Y11621429D02*
X4906428Y12621429D01*
X4906428Y12335715D02*
X4977857Y12478572D01*
X5049285Y12550000D01*
X5192142Y12621429D01*
X5335000Y12621429D01*
X6977857Y11621429D02*
X6977857Y13121429D01*
X7477857Y12050000D01*
X7977857Y13121429D01*
X7977857Y11621429D01*
X9406428Y13121429D02*
X8692142Y13121429D01*
X8620714Y12407143D01*
X8692142Y12478572D01*
X8835000Y12550000D01*
X9192142Y12550000D01*
X9335000Y12478572D01*
X9406428Y12407143D01*
X9477857Y12264286D01*
X9477857Y11907143D01*
X9406428Y11764286D01*
X9335000Y11692858D01*
X9192142Y11621429D01*
X8835000Y11621429D01*
X8692142Y11692858D01*
X8620714Y11764286D01*
X10049285Y11692858D02*
X10263571Y11621429D01*
X10620714Y11621429D01*
X10763571Y11692858D01*
X10835000Y11764286D01*
X10906428Y11907143D01*
X10906428Y12050000D01*
X10835000Y12192858D01*
X10763571Y12264286D01*
X10620714Y12335715D01*
X10335000Y12407143D01*
X10192142Y12478572D01*
X10120714Y12550000D01*
X10049285Y12692858D01*
X10049285Y12835715D01*
X10120714Y12978572D01*
X10192142Y13050000D01*
X10335000Y13121429D01*
X10692142Y13121429D01*
X10906428Y13050000D01*
X11335000Y12621429D02*
X11906428Y12621429D01*
X11549285Y13121429D02*
X11549285Y11835715D01*
X11620714Y11692858D01*
X11763571Y11621429D01*
X11906428Y11621429D01*
X13049285Y11621429D02*
X13049285Y12407143D01*
X12977857Y12550000D01*
X12835000Y12621429D01*
X12549285Y12621429D01*
X12406428Y12550000D01*
X13049285Y11692858D02*
X12906428Y11621429D01*
X12549285Y11621429D01*
X12406428Y11692858D01*
X12335000Y11835715D01*
X12335000Y11978572D01*
X12406428Y12121429D01*
X12549285Y12192858D01*
X12906428Y12192858D01*
X13049285Y12264286D01*
X14406428Y11692858D02*
X14263571Y11621429D01*
X13977857Y11621429D01*
X13835000Y11692858D01*
X13763571Y11764286D01*
X13692142Y11907143D01*
X13692142Y12335715D01*
X13763571Y12478572D01*
X13835000Y12550000D01*
X13977857Y12621429D01*
X14263571Y12621429D01*
X14406428Y12550000D01*
X15049285Y11621429D02*
X15049285Y13121429D01*
X15192142Y12192858D02*
X15620714Y11621429D01*
X15620714Y12621429D02*
X15049285Y12050000D01*
X3549285Y9071429D02*
X3049285Y9785715D01*
X2692142Y9071429D02*
X2692142Y10571429D01*
X3263571Y10571429D01*
X3406428Y10500000D01*
X3477857Y10428572D01*
X3549285Y10285715D01*
X3549285Y10071429D01*
X3477857Y9928572D01*
X3406428Y9857143D01*
X3263571Y9785715D01*
X2692142Y9785715D01*
X4763571Y9142858D02*
X4620714Y9071429D01*
X4335000Y9071429D01*
X4192142Y9142858D01*
X4120714Y9285715D01*
X4120714Y9857143D01*
X4192142Y10000000D01*
X4335000Y10071429D01*
X4620714Y10071429D01*
X4763571Y10000000D01*
X4835000Y9857143D01*
X4835000Y9714286D01*
X4120714Y9571429D01*
X5335000Y10071429D02*
X5692142Y9071429D01*
X6049285Y10071429D01*
X6620714Y9214286D02*
X6692142Y9142858D01*
X6620714Y9071429D01*
X6549285Y9142858D01*
X6620714Y9214286D01*
X6620714Y9071429D01*
X8192142Y9214286D02*
X8120714Y9142858D01*
X7906428Y9071429D01*
X7763571Y9071429D01*
X7549285Y9142858D01*
X7406428Y9285715D01*
X7335000Y9428572D01*
X7263571Y9714286D01*
X7263571Y9928572D01*
X7335000Y10214286D01*
X7406428Y10357143D01*
X7549285Y10500000D01*
X7763571Y10571429D01*
X7906428Y10571429D01*
X8120714Y10500000D01*
X8192142Y10428572D01*
D12*
G04 #@! TO.C,JP1*
X37100000Y11900000D02*
X36800000Y12200000D01*
X37400000Y12200000D02*
X36800000Y12200000D01*
X37100000Y11900000D02*
X37400000Y12200000D01*
X37850000Y11700000D02*
X37850000Y9700000D01*
X33750000Y11700000D02*
X37850000Y11700000D01*
X33750000Y9700000D02*
X33750000Y11700000D01*
X37850000Y9700000D02*
X33750000Y9700000D01*
G04 #@! TO.C,JP2*
X37850000Y6700000D02*
X33750000Y6700000D01*
X33750000Y6700000D02*
X33750000Y8700000D01*
X33750000Y8700000D02*
X37850000Y8700000D01*
X37850000Y8700000D02*
X37850000Y6700000D01*
X37100000Y8900000D02*
X37400000Y9200000D01*
X37400000Y9200000D02*
X36800000Y9200000D01*
X37100000Y8900000D02*
X36800000Y9200000D01*
G04 #@! TO.C,JP3*
X37100000Y5900000D02*
X36800000Y6200000D01*
X37400000Y6200000D02*
X36800000Y6200000D01*
X37100000Y5900000D02*
X37400000Y6200000D01*
X37850000Y5700000D02*
X37850000Y3700000D01*
X33750000Y5700000D02*
X37850000Y5700000D01*
X33750000Y3700000D02*
X33750000Y5700000D01*
X37850000Y3700000D02*
X33750000Y3700000D01*
G04 #@! TO.C,TP1*
X9440000Y31350000D02*
G75*
G03X9440000Y31350000I-950000J0D01*
G01*
G04 #@! TO.C,TP2*
X9440000Y28810000D02*
G75*
G03X9440000Y28810000I-950000J0D01*
G01*
G04 #@! TO.C,TP3*
X9440000Y26270000D02*
G75*
G03X9440000Y26270000I-950000J0D01*
G01*
G04 #@! TO.C,TP4*
X9440000Y23730000D02*
G75*
G03X9440000Y23730000I-950000J0D01*
G01*
G04 #@! TO.C,TP5*
X9440000Y21190000D02*
G75*
G03X9440000Y21190000I-950000J0D01*
G01*
G04 #@! TO.C,TP6*
X9440000Y18650000D02*
G75*
G03X9440000Y18650000I-950000J0D01*
G01*
G04 #@! TO.C,J2*
X41450000Y44110000D02*
X46650000Y44110000D01*
X41450000Y5890000D02*
X46650000Y5890000D01*
X40010000Y43540000D02*
X41450000Y43540000D01*
X41450000Y44110000D02*
X41450000Y43540000D01*
X46650000Y44110000D02*
X46650000Y43540000D01*
X41450000Y6460000D02*
X41450000Y5890000D01*
X46650000Y6460000D02*
X46650000Y5890000D01*
X41450000Y42020000D02*
X41450000Y41000000D01*
X46650000Y42020000D02*
X46650000Y41000000D01*
X41450000Y39480000D02*
X41450000Y38460000D01*
X46650000Y39480000D02*
X46650000Y38460000D01*
X41450000Y36940000D02*
X41450000Y35920000D01*
X46650000Y36940000D02*
X46650000Y35920000D01*
X41450000Y34400000D02*
X41450000Y33380000D01*
X46650000Y34400000D02*
X46650000Y33380000D01*
X41450000Y31860000D02*
X41450000Y30840000D01*
X46650000Y31860000D02*
X46650000Y30840000D01*
X41450000Y29320000D02*
X41450000Y28300000D01*
X46650000Y29320000D02*
X46650000Y28300000D01*
X41450000Y26780000D02*
X41450000Y25760000D01*
X46650000Y26780000D02*
X46650000Y25760000D01*
X41450000Y24240000D02*
X41450000Y23220000D01*
X46650000Y24240000D02*
X46650000Y23220000D01*
X41450000Y21700000D02*
X41450000Y20680000D01*
X46650000Y21700000D02*
X46650000Y20680000D01*
X41450000Y19160000D02*
X41450000Y18140000D01*
X46650000Y19160000D02*
X46650000Y18140000D01*
X41450000Y16620000D02*
X41450000Y15600000D01*
X46650000Y16620000D02*
X46650000Y15600000D01*
X41450000Y14080000D02*
X41450000Y13060000D01*
X46650000Y14080000D02*
X46650000Y13060000D01*
X41450000Y11540000D02*
X41450000Y10520000D01*
X46650000Y11540000D02*
X46650000Y10520000D01*
X41450000Y9000000D02*
X41450000Y7980000D01*
X46650000Y9000000D02*
X46650000Y7980000D01*
G04 #@! TO.C,JP1*
D13*
X38352380Y9866667D02*
X39066666Y9866667D01*
X39209523Y9819048D01*
X39304761Y9723810D01*
X39352380Y9580953D01*
X39352380Y9485715D01*
X39352380Y10342858D02*
X38352380Y10342858D01*
X38352380Y10723810D01*
X38400000Y10819048D01*
X38447619Y10866667D01*
X38542857Y10914286D01*
X38685714Y10914286D01*
X38780952Y10866667D01*
X38828571Y10819048D01*
X38876190Y10723810D01*
X38876190Y10342858D01*
X39352380Y11866667D02*
X39352380Y11295239D01*
X39352380Y11580953D02*
X38352380Y11580953D01*
X38495238Y11485715D01*
X38590476Y11390477D01*
X38638095Y11295239D01*
G04 #@! TO.C,JP2*
X38352380Y6866667D02*
X39066666Y6866667D01*
X39209523Y6819048D01*
X39304761Y6723810D01*
X39352380Y6580953D01*
X39352380Y6485715D01*
X39352380Y7342858D02*
X38352380Y7342858D01*
X38352380Y7723810D01*
X38400000Y7819048D01*
X38447619Y7866667D01*
X38542857Y7914286D01*
X38685714Y7914286D01*
X38780952Y7866667D01*
X38828571Y7819048D01*
X38876190Y7723810D01*
X38876190Y7342858D01*
X38447619Y8295239D02*
X38400000Y8342858D01*
X38352380Y8438096D01*
X38352380Y8676191D01*
X38400000Y8771429D01*
X38447619Y8819048D01*
X38542857Y8866667D01*
X38638095Y8866667D01*
X38780952Y8819048D01*
X39352380Y8247620D01*
X39352380Y8866667D01*
G04 #@! TO.C,JP3*
X38352380Y3866667D02*
X39066666Y3866667D01*
X39209523Y3819048D01*
X39304761Y3723810D01*
X39352380Y3580953D01*
X39352380Y3485715D01*
X39352380Y4342858D02*
X38352380Y4342858D01*
X38352380Y4723810D01*
X38400000Y4819048D01*
X38447619Y4866667D01*
X38542857Y4914286D01*
X38685714Y4914286D01*
X38780952Y4866667D01*
X38828571Y4819048D01*
X38876190Y4723810D01*
X38876190Y4342858D01*
X38352380Y5247620D02*
X38352380Y5866667D01*
X38733333Y5533334D01*
X38733333Y5676191D01*
X38780952Y5771429D01*
X38828571Y5819048D01*
X38923809Y5866667D01*
X39161904Y5866667D01*
X39257142Y5819048D01*
X39304761Y5771429D01*
X39352380Y5676191D01*
X39352380Y5390477D01*
X39304761Y5295239D01*
X39257142Y5247620D01*
G04 #@! TO.C,MH2*
X45666666Y6747620D02*
X45666666Y7747620D01*
X46000000Y7033334D01*
X46333333Y7747620D01*
X46333333Y6747620D01*
X46809523Y6747620D02*
X46809523Y7747620D01*
X46809523Y7271429D02*
X47380952Y7271429D01*
X47380952Y6747620D02*
X47380952Y7747620D01*
X47809523Y7652381D02*
X47857142Y7700000D01*
X47952380Y7747620D01*
X48190476Y7747620D01*
X48285714Y7700000D01*
X48333333Y7652381D01*
X48380952Y7557143D01*
X48380952Y7461905D01*
X48333333Y7319048D01*
X47761904Y6747620D01*
X48380952Y6747620D01*
G04 #@! TO.C,TP1*
X9768095Y31897620D02*
X10339523Y31897620D01*
X10053809Y30897620D02*
X10053809Y31897620D01*
X10672857Y30897620D02*
X10672857Y31897620D01*
X11053809Y31897620D01*
X11149047Y31850000D01*
X11196666Y31802381D01*
X11244285Y31707143D01*
X11244285Y31564286D01*
X11196666Y31469048D01*
X11149047Y31421429D01*
X11053809Y31373810D01*
X10672857Y31373810D01*
X12196666Y30897620D02*
X11625238Y30897620D01*
X11910952Y30897620D02*
X11910952Y31897620D01*
X11815714Y31754762D01*
X11720476Y31659524D01*
X11625238Y31611905D01*
G04 #@! TO.C,TP2*
X9768095Y29357620D02*
X10339523Y29357620D01*
X10053809Y28357620D02*
X10053809Y29357620D01*
X10672857Y28357620D02*
X10672857Y29357620D01*
X11053809Y29357620D01*
X11149047Y29310000D01*
X11196666Y29262381D01*
X11244285Y29167143D01*
X11244285Y29024286D01*
X11196666Y28929048D01*
X11149047Y28881429D01*
X11053809Y28833810D01*
X10672857Y28833810D01*
X11625238Y29262381D02*
X11672857Y29310000D01*
X11768095Y29357620D01*
X12006190Y29357620D01*
X12101428Y29310000D01*
X12149047Y29262381D01*
X12196666Y29167143D01*
X12196666Y29071905D01*
X12149047Y28929048D01*
X11577619Y28357620D01*
X12196666Y28357620D01*
G04 #@! TO.C,TP3*
X9768095Y26817620D02*
X10339523Y26817620D01*
X10053809Y25817620D02*
X10053809Y26817620D01*
X10672857Y25817620D02*
X10672857Y26817620D01*
X11053809Y26817620D01*
X11149047Y26770000D01*
X11196666Y26722381D01*
X11244285Y26627143D01*
X11244285Y26484286D01*
X11196666Y26389048D01*
X11149047Y26341429D01*
X11053809Y26293810D01*
X10672857Y26293810D01*
X11577619Y26817620D02*
X12196666Y26817620D01*
X11863333Y26436667D01*
X12006190Y26436667D01*
X12101428Y26389048D01*
X12149047Y26341429D01*
X12196666Y26246191D01*
X12196666Y26008096D01*
X12149047Y25912858D01*
X12101428Y25865239D01*
X12006190Y25817620D01*
X11720476Y25817620D01*
X11625238Y25865239D01*
X11577619Y25912858D01*
G04 #@! TO.C,TP4*
X9768095Y24277620D02*
X10339523Y24277620D01*
X10053809Y23277620D02*
X10053809Y24277620D01*
X10672857Y23277620D02*
X10672857Y24277620D01*
X11053809Y24277620D01*
X11149047Y24230000D01*
X11196666Y24182381D01*
X11244285Y24087143D01*
X11244285Y23944286D01*
X11196666Y23849048D01*
X11149047Y23801429D01*
X11053809Y23753810D01*
X10672857Y23753810D01*
X12101428Y23944286D02*
X12101428Y23277620D01*
X11863333Y24325239D02*
X11625238Y23610953D01*
X12244285Y23610953D01*
G04 #@! TO.C,TP5*
X9768095Y21737620D02*
X10339523Y21737620D01*
X10053809Y20737620D02*
X10053809Y21737620D01*
X10672857Y20737620D02*
X10672857Y21737620D01*
X11053809Y21737620D01*
X11149047Y21690000D01*
X11196666Y21642381D01*
X11244285Y21547143D01*
X11244285Y21404286D01*
X11196666Y21309048D01*
X11149047Y21261429D01*
X11053809Y21213810D01*
X10672857Y21213810D01*
X12149047Y21737620D02*
X11672857Y21737620D01*
X11625238Y21261429D01*
X11672857Y21309048D01*
X11768095Y21356667D01*
X12006190Y21356667D01*
X12101428Y21309048D01*
X12149047Y21261429D01*
X12196666Y21166191D01*
X12196666Y20928096D01*
X12149047Y20832858D01*
X12101428Y20785239D01*
X12006190Y20737620D01*
X11768095Y20737620D01*
X11672857Y20785239D01*
X11625238Y20832858D01*
G04 #@! TO.C,TP6*
X9768095Y19197620D02*
X10339523Y19197620D01*
X10053809Y18197620D02*
X10053809Y19197620D01*
X10672857Y18197620D02*
X10672857Y19197620D01*
X11053809Y19197620D01*
X11149047Y19150000D01*
X11196666Y19102381D01*
X11244285Y19007143D01*
X11244285Y18864286D01*
X11196666Y18769048D01*
X11149047Y18721429D01*
X11053809Y18673810D01*
X10672857Y18673810D01*
X12101428Y19197620D02*
X11910952Y19197620D01*
X11815714Y19150000D01*
X11768095Y19102381D01*
X11672857Y18959524D01*
X11625238Y18769048D01*
X11625238Y18388096D01*
X11672857Y18292858D01*
X11720476Y18245239D01*
X11815714Y18197620D01*
X12006190Y18197620D01*
X12101428Y18245239D01*
X12149047Y18292858D01*
X12196666Y18388096D01*
X12196666Y18626191D01*
X12149047Y18721429D01*
X12101428Y18769048D01*
X12006190Y18816667D01*
X11815714Y18816667D01*
X11720476Y18769048D01*
X11672857Y18721429D01*
X11625238Y18626191D01*
G04 #@! TO.C,J2*
X38666666Y45747620D02*
X38666666Y45033334D01*
X38619047Y44890477D01*
X38523809Y44795239D01*
X38380952Y44747620D01*
X38285714Y44747620D01*
X39095238Y45652381D02*
X39142857Y45700000D01*
X39238095Y45747620D01*
X39476190Y45747620D01*
X39571428Y45700000D01*
X39619047Y45652381D01*
X39666666Y45557143D01*
X39666666Y45461905D01*
X39619047Y45319048D01*
X39047619Y44747620D01*
X39666666Y44747620D01*
G04 #@! TD*
M02*
