G04 #@! TF.GenerationSoftware,KiCad,Pcbnew,(5.0.0)*
G04 #@! TF.CreationDate,2018-09-04T03:51:54+09:00*
G04 #@! TF.ProjectId,M5Stack_WiSUN,4D35537461636B5F576953554E2E6B69,rev?*
G04 #@! TF.SameCoordinates,PX989680PY55d4a80*
G04 #@! TF.FileFunction,Paste,Bot*
G04 #@! TF.FilePolarity,Positive*
%FSLAX46Y46*%
G04 Gerber Fmt 4.6, Leading zero omitted, Abs format (unit mm)*
G04 Created by KiCad (PCBNEW (5.0.0)) date 09/04/18 03:51:54*
%MOMM*%
%LPD*%
G01*
G04 APERTURE LIST*
%ADD10C,0.100000*%
%ADD11C,0.590000*%
%ADD12C,0.875000*%
G04 APERTURE END LIST*
D10*
G04 #@! TO.C,C1*
G36*
X25646958Y5719290D02*
X25661276Y5717166D01*
X25675317Y5713649D01*
X25688946Y5708772D01*
X25702031Y5702583D01*
X25714447Y5695142D01*
X25726073Y5686519D01*
X25736798Y5676798D01*
X25746519Y5666073D01*
X25755142Y5654447D01*
X25762583Y5642031D01*
X25768772Y5628946D01*
X25773649Y5615317D01*
X25777166Y5601276D01*
X25779290Y5586958D01*
X25780000Y5572500D01*
X25780000Y5227500D01*
X25779290Y5213042D01*
X25777166Y5198724D01*
X25773649Y5184683D01*
X25768772Y5171054D01*
X25762583Y5157969D01*
X25755142Y5145553D01*
X25746519Y5133927D01*
X25736798Y5123202D01*
X25726073Y5113481D01*
X25714447Y5104858D01*
X25702031Y5097417D01*
X25688946Y5091228D01*
X25675317Y5086351D01*
X25661276Y5082834D01*
X25646958Y5080710D01*
X25632500Y5080000D01*
X25337500Y5080000D01*
X25323042Y5080710D01*
X25308724Y5082834D01*
X25294683Y5086351D01*
X25281054Y5091228D01*
X25267969Y5097417D01*
X25255553Y5104858D01*
X25243927Y5113481D01*
X25233202Y5123202D01*
X25223481Y5133927D01*
X25214858Y5145553D01*
X25207417Y5157969D01*
X25201228Y5171054D01*
X25196351Y5184683D01*
X25192834Y5198724D01*
X25190710Y5213042D01*
X25190000Y5227500D01*
X25190000Y5572500D01*
X25190710Y5586958D01*
X25192834Y5601276D01*
X25196351Y5615317D01*
X25201228Y5628946D01*
X25207417Y5642031D01*
X25214858Y5654447D01*
X25223481Y5666073D01*
X25233202Y5676798D01*
X25243927Y5686519D01*
X25255553Y5695142D01*
X25267969Y5702583D01*
X25281054Y5708772D01*
X25294683Y5713649D01*
X25308724Y5717166D01*
X25323042Y5719290D01*
X25337500Y5720000D01*
X25632500Y5720000D01*
X25646958Y5719290D01*
X25646958Y5719290D01*
G37*
D11*
X25485000Y5400000D03*
D10*
G36*
X24676958Y5719290D02*
X24691276Y5717166D01*
X24705317Y5713649D01*
X24718946Y5708772D01*
X24732031Y5702583D01*
X24744447Y5695142D01*
X24756073Y5686519D01*
X24766798Y5676798D01*
X24776519Y5666073D01*
X24785142Y5654447D01*
X24792583Y5642031D01*
X24798772Y5628946D01*
X24803649Y5615317D01*
X24807166Y5601276D01*
X24809290Y5586958D01*
X24810000Y5572500D01*
X24810000Y5227500D01*
X24809290Y5213042D01*
X24807166Y5198724D01*
X24803649Y5184683D01*
X24798772Y5171054D01*
X24792583Y5157969D01*
X24785142Y5145553D01*
X24776519Y5133927D01*
X24766798Y5123202D01*
X24756073Y5113481D01*
X24744447Y5104858D01*
X24732031Y5097417D01*
X24718946Y5091228D01*
X24705317Y5086351D01*
X24691276Y5082834D01*
X24676958Y5080710D01*
X24662500Y5080000D01*
X24367500Y5080000D01*
X24353042Y5080710D01*
X24338724Y5082834D01*
X24324683Y5086351D01*
X24311054Y5091228D01*
X24297969Y5097417D01*
X24285553Y5104858D01*
X24273927Y5113481D01*
X24263202Y5123202D01*
X24253481Y5133927D01*
X24244858Y5145553D01*
X24237417Y5157969D01*
X24231228Y5171054D01*
X24226351Y5184683D01*
X24222834Y5198724D01*
X24220710Y5213042D01*
X24220000Y5227500D01*
X24220000Y5572500D01*
X24220710Y5586958D01*
X24222834Y5601276D01*
X24226351Y5615317D01*
X24231228Y5628946D01*
X24237417Y5642031D01*
X24244858Y5654447D01*
X24253481Y5666073D01*
X24263202Y5676798D01*
X24273927Y5686519D01*
X24285553Y5695142D01*
X24297969Y5702583D01*
X24311054Y5708772D01*
X24324683Y5713649D01*
X24338724Y5717166D01*
X24353042Y5719290D01*
X24367500Y5720000D01*
X24662500Y5720000D01*
X24676958Y5719290D01*
X24676958Y5719290D01*
G37*
D11*
X24515000Y5400000D03*
G04 #@! TD*
D10*
G04 #@! TO.C,C2*
G36*
X24176958Y6819290D02*
X24191276Y6817166D01*
X24205317Y6813649D01*
X24218946Y6808772D01*
X24232031Y6802583D01*
X24244447Y6795142D01*
X24256073Y6786519D01*
X24266798Y6776798D01*
X24276519Y6766073D01*
X24285142Y6754447D01*
X24292583Y6742031D01*
X24298772Y6728946D01*
X24303649Y6715317D01*
X24307166Y6701276D01*
X24309290Y6686958D01*
X24310000Y6672500D01*
X24310000Y6327500D01*
X24309290Y6313042D01*
X24307166Y6298724D01*
X24303649Y6284683D01*
X24298772Y6271054D01*
X24292583Y6257969D01*
X24285142Y6245553D01*
X24276519Y6233927D01*
X24266798Y6223202D01*
X24256073Y6213481D01*
X24244447Y6204858D01*
X24232031Y6197417D01*
X24218946Y6191228D01*
X24205317Y6186351D01*
X24191276Y6182834D01*
X24176958Y6180710D01*
X24162500Y6180000D01*
X23867500Y6180000D01*
X23853042Y6180710D01*
X23838724Y6182834D01*
X23824683Y6186351D01*
X23811054Y6191228D01*
X23797969Y6197417D01*
X23785553Y6204858D01*
X23773927Y6213481D01*
X23763202Y6223202D01*
X23753481Y6233927D01*
X23744858Y6245553D01*
X23737417Y6257969D01*
X23731228Y6271054D01*
X23726351Y6284683D01*
X23722834Y6298724D01*
X23720710Y6313042D01*
X23720000Y6327500D01*
X23720000Y6672500D01*
X23720710Y6686958D01*
X23722834Y6701276D01*
X23726351Y6715317D01*
X23731228Y6728946D01*
X23737417Y6742031D01*
X23744858Y6754447D01*
X23753481Y6766073D01*
X23763202Y6776798D01*
X23773927Y6786519D01*
X23785553Y6795142D01*
X23797969Y6802583D01*
X23811054Y6808772D01*
X23824683Y6813649D01*
X23838724Y6817166D01*
X23853042Y6819290D01*
X23867500Y6820000D01*
X24162500Y6820000D01*
X24176958Y6819290D01*
X24176958Y6819290D01*
G37*
D11*
X24015000Y6500000D03*
D10*
G36*
X25146958Y6819290D02*
X25161276Y6817166D01*
X25175317Y6813649D01*
X25188946Y6808772D01*
X25202031Y6802583D01*
X25214447Y6795142D01*
X25226073Y6786519D01*
X25236798Y6776798D01*
X25246519Y6766073D01*
X25255142Y6754447D01*
X25262583Y6742031D01*
X25268772Y6728946D01*
X25273649Y6715317D01*
X25277166Y6701276D01*
X25279290Y6686958D01*
X25280000Y6672500D01*
X25280000Y6327500D01*
X25279290Y6313042D01*
X25277166Y6298724D01*
X25273649Y6284683D01*
X25268772Y6271054D01*
X25262583Y6257969D01*
X25255142Y6245553D01*
X25246519Y6233927D01*
X25236798Y6223202D01*
X25226073Y6213481D01*
X25214447Y6204858D01*
X25202031Y6197417D01*
X25188946Y6191228D01*
X25175317Y6186351D01*
X25161276Y6182834D01*
X25146958Y6180710D01*
X25132500Y6180000D01*
X24837500Y6180000D01*
X24823042Y6180710D01*
X24808724Y6182834D01*
X24794683Y6186351D01*
X24781054Y6191228D01*
X24767969Y6197417D01*
X24755553Y6204858D01*
X24743927Y6213481D01*
X24733202Y6223202D01*
X24723481Y6233927D01*
X24714858Y6245553D01*
X24707417Y6257969D01*
X24701228Y6271054D01*
X24696351Y6284683D01*
X24692834Y6298724D01*
X24690710Y6313042D01*
X24690000Y6327500D01*
X24690000Y6672500D01*
X24690710Y6686958D01*
X24692834Y6701276D01*
X24696351Y6715317D01*
X24701228Y6728946D01*
X24707417Y6742031D01*
X24714858Y6754447D01*
X24723481Y6766073D01*
X24733202Y6776798D01*
X24743927Y6786519D01*
X24755553Y6795142D01*
X24767969Y6802583D01*
X24781054Y6808772D01*
X24794683Y6813649D01*
X24808724Y6817166D01*
X24823042Y6819290D01*
X24837500Y6820000D01*
X25132500Y6820000D01*
X25146958Y6819290D01*
X25146958Y6819290D01*
G37*
D11*
X24985000Y6500000D03*
G04 #@! TD*
D10*
G04 #@! TO.C,C3*
G36*
X24646958Y9819290D02*
X24661276Y9817166D01*
X24675317Y9813649D01*
X24688946Y9808772D01*
X24702031Y9802583D01*
X24714447Y9795142D01*
X24726073Y9786519D01*
X24736798Y9776798D01*
X24746519Y9766073D01*
X24755142Y9754447D01*
X24762583Y9742031D01*
X24768772Y9728946D01*
X24773649Y9715317D01*
X24777166Y9701276D01*
X24779290Y9686958D01*
X24780000Y9672500D01*
X24780000Y9327500D01*
X24779290Y9313042D01*
X24777166Y9298724D01*
X24773649Y9284683D01*
X24768772Y9271054D01*
X24762583Y9257969D01*
X24755142Y9245553D01*
X24746519Y9233927D01*
X24736798Y9223202D01*
X24726073Y9213481D01*
X24714447Y9204858D01*
X24702031Y9197417D01*
X24688946Y9191228D01*
X24675317Y9186351D01*
X24661276Y9182834D01*
X24646958Y9180710D01*
X24632500Y9180000D01*
X24337500Y9180000D01*
X24323042Y9180710D01*
X24308724Y9182834D01*
X24294683Y9186351D01*
X24281054Y9191228D01*
X24267969Y9197417D01*
X24255553Y9204858D01*
X24243927Y9213481D01*
X24233202Y9223202D01*
X24223481Y9233927D01*
X24214858Y9245553D01*
X24207417Y9257969D01*
X24201228Y9271054D01*
X24196351Y9284683D01*
X24192834Y9298724D01*
X24190710Y9313042D01*
X24190000Y9327500D01*
X24190000Y9672500D01*
X24190710Y9686958D01*
X24192834Y9701276D01*
X24196351Y9715317D01*
X24201228Y9728946D01*
X24207417Y9742031D01*
X24214858Y9754447D01*
X24223481Y9766073D01*
X24233202Y9776798D01*
X24243927Y9786519D01*
X24255553Y9795142D01*
X24267969Y9802583D01*
X24281054Y9808772D01*
X24294683Y9813649D01*
X24308724Y9817166D01*
X24323042Y9819290D01*
X24337500Y9820000D01*
X24632500Y9820000D01*
X24646958Y9819290D01*
X24646958Y9819290D01*
G37*
D11*
X24485000Y9500000D03*
D10*
G36*
X23676958Y9819290D02*
X23691276Y9817166D01*
X23705317Y9813649D01*
X23718946Y9808772D01*
X23732031Y9802583D01*
X23744447Y9795142D01*
X23756073Y9786519D01*
X23766798Y9776798D01*
X23776519Y9766073D01*
X23785142Y9754447D01*
X23792583Y9742031D01*
X23798772Y9728946D01*
X23803649Y9715317D01*
X23807166Y9701276D01*
X23809290Y9686958D01*
X23810000Y9672500D01*
X23810000Y9327500D01*
X23809290Y9313042D01*
X23807166Y9298724D01*
X23803649Y9284683D01*
X23798772Y9271054D01*
X23792583Y9257969D01*
X23785142Y9245553D01*
X23776519Y9233927D01*
X23766798Y9223202D01*
X23756073Y9213481D01*
X23744447Y9204858D01*
X23732031Y9197417D01*
X23718946Y9191228D01*
X23705317Y9186351D01*
X23691276Y9182834D01*
X23676958Y9180710D01*
X23662500Y9180000D01*
X23367500Y9180000D01*
X23353042Y9180710D01*
X23338724Y9182834D01*
X23324683Y9186351D01*
X23311054Y9191228D01*
X23297969Y9197417D01*
X23285553Y9204858D01*
X23273927Y9213481D01*
X23263202Y9223202D01*
X23253481Y9233927D01*
X23244858Y9245553D01*
X23237417Y9257969D01*
X23231228Y9271054D01*
X23226351Y9284683D01*
X23222834Y9298724D01*
X23220710Y9313042D01*
X23220000Y9327500D01*
X23220000Y9672500D01*
X23220710Y9686958D01*
X23222834Y9701276D01*
X23226351Y9715317D01*
X23231228Y9728946D01*
X23237417Y9742031D01*
X23244858Y9754447D01*
X23253481Y9766073D01*
X23263202Y9776798D01*
X23273927Y9786519D01*
X23285553Y9795142D01*
X23297969Y9802583D01*
X23311054Y9808772D01*
X23324683Y9813649D01*
X23338724Y9817166D01*
X23353042Y9819290D01*
X23367500Y9820000D01*
X23662500Y9820000D01*
X23676958Y9819290D01*
X23676958Y9819290D01*
G37*
D11*
X23515000Y9500000D03*
G04 #@! TD*
D10*
G04 #@! TO.C,C4*
G36*
X25676958Y9819290D02*
X25691276Y9817166D01*
X25705317Y9813649D01*
X25718946Y9808772D01*
X25732031Y9802583D01*
X25744447Y9795142D01*
X25756073Y9786519D01*
X25766798Y9776798D01*
X25776519Y9766073D01*
X25785142Y9754447D01*
X25792583Y9742031D01*
X25798772Y9728946D01*
X25803649Y9715317D01*
X25807166Y9701276D01*
X25809290Y9686958D01*
X25810000Y9672500D01*
X25810000Y9327500D01*
X25809290Y9313042D01*
X25807166Y9298724D01*
X25803649Y9284683D01*
X25798772Y9271054D01*
X25792583Y9257969D01*
X25785142Y9245553D01*
X25776519Y9233927D01*
X25766798Y9223202D01*
X25756073Y9213481D01*
X25744447Y9204858D01*
X25732031Y9197417D01*
X25718946Y9191228D01*
X25705317Y9186351D01*
X25691276Y9182834D01*
X25676958Y9180710D01*
X25662500Y9180000D01*
X25367500Y9180000D01*
X25353042Y9180710D01*
X25338724Y9182834D01*
X25324683Y9186351D01*
X25311054Y9191228D01*
X25297969Y9197417D01*
X25285553Y9204858D01*
X25273927Y9213481D01*
X25263202Y9223202D01*
X25253481Y9233927D01*
X25244858Y9245553D01*
X25237417Y9257969D01*
X25231228Y9271054D01*
X25226351Y9284683D01*
X25222834Y9298724D01*
X25220710Y9313042D01*
X25220000Y9327500D01*
X25220000Y9672500D01*
X25220710Y9686958D01*
X25222834Y9701276D01*
X25226351Y9715317D01*
X25231228Y9728946D01*
X25237417Y9742031D01*
X25244858Y9754447D01*
X25253481Y9766073D01*
X25263202Y9776798D01*
X25273927Y9786519D01*
X25285553Y9795142D01*
X25297969Y9802583D01*
X25311054Y9808772D01*
X25324683Y9813649D01*
X25338724Y9817166D01*
X25353042Y9819290D01*
X25367500Y9820000D01*
X25662500Y9820000D01*
X25676958Y9819290D01*
X25676958Y9819290D01*
G37*
D11*
X25515000Y9500000D03*
D10*
G36*
X26646958Y9819290D02*
X26661276Y9817166D01*
X26675317Y9813649D01*
X26688946Y9808772D01*
X26702031Y9802583D01*
X26714447Y9795142D01*
X26726073Y9786519D01*
X26736798Y9776798D01*
X26746519Y9766073D01*
X26755142Y9754447D01*
X26762583Y9742031D01*
X26768772Y9728946D01*
X26773649Y9715317D01*
X26777166Y9701276D01*
X26779290Y9686958D01*
X26780000Y9672500D01*
X26780000Y9327500D01*
X26779290Y9313042D01*
X26777166Y9298724D01*
X26773649Y9284683D01*
X26768772Y9271054D01*
X26762583Y9257969D01*
X26755142Y9245553D01*
X26746519Y9233927D01*
X26736798Y9223202D01*
X26726073Y9213481D01*
X26714447Y9204858D01*
X26702031Y9197417D01*
X26688946Y9191228D01*
X26675317Y9186351D01*
X26661276Y9182834D01*
X26646958Y9180710D01*
X26632500Y9180000D01*
X26337500Y9180000D01*
X26323042Y9180710D01*
X26308724Y9182834D01*
X26294683Y9186351D01*
X26281054Y9191228D01*
X26267969Y9197417D01*
X26255553Y9204858D01*
X26243927Y9213481D01*
X26233202Y9223202D01*
X26223481Y9233927D01*
X26214858Y9245553D01*
X26207417Y9257969D01*
X26201228Y9271054D01*
X26196351Y9284683D01*
X26192834Y9298724D01*
X26190710Y9313042D01*
X26190000Y9327500D01*
X26190000Y9672500D01*
X26190710Y9686958D01*
X26192834Y9701276D01*
X26196351Y9715317D01*
X26201228Y9728946D01*
X26207417Y9742031D01*
X26214858Y9754447D01*
X26223481Y9766073D01*
X26233202Y9776798D01*
X26243927Y9786519D01*
X26255553Y9795142D01*
X26267969Y9802583D01*
X26281054Y9808772D01*
X26294683Y9813649D01*
X26308724Y9817166D01*
X26323042Y9819290D01*
X26337500Y9820000D01*
X26632500Y9820000D01*
X26646958Y9819290D01*
X26646958Y9819290D01*
G37*
D11*
X26485000Y9500000D03*
G04 #@! TD*
D10*
G04 #@! TO.C,L1*
G36*
X22977691Y6548947D02*
X22998926Y6545797D01*
X23019750Y6540581D01*
X23039962Y6533349D01*
X23059368Y6524170D01*
X23077781Y6513134D01*
X23095024Y6500346D01*
X23110930Y6485930D01*
X23125346Y6470024D01*
X23138134Y6452781D01*
X23149170Y6434368D01*
X23158349Y6414962D01*
X23165581Y6394750D01*
X23170797Y6373926D01*
X23173947Y6352691D01*
X23175000Y6331250D01*
X23175000Y5893750D01*
X23173947Y5872309D01*
X23170797Y5851074D01*
X23165581Y5830250D01*
X23158349Y5810038D01*
X23149170Y5790632D01*
X23138134Y5772219D01*
X23125346Y5754976D01*
X23110930Y5739070D01*
X23095024Y5724654D01*
X23077781Y5711866D01*
X23059368Y5700830D01*
X23039962Y5691651D01*
X23019750Y5684419D01*
X22998926Y5679203D01*
X22977691Y5676053D01*
X22956250Y5675000D01*
X22443750Y5675000D01*
X22422309Y5676053D01*
X22401074Y5679203D01*
X22380250Y5684419D01*
X22360038Y5691651D01*
X22340632Y5700830D01*
X22322219Y5711866D01*
X22304976Y5724654D01*
X22289070Y5739070D01*
X22274654Y5754976D01*
X22261866Y5772219D01*
X22250830Y5790632D01*
X22241651Y5810038D01*
X22234419Y5830250D01*
X22229203Y5851074D01*
X22226053Y5872309D01*
X22225000Y5893750D01*
X22225000Y6331250D01*
X22226053Y6352691D01*
X22229203Y6373926D01*
X22234419Y6394750D01*
X22241651Y6414962D01*
X22250830Y6434368D01*
X22261866Y6452781D01*
X22274654Y6470024D01*
X22289070Y6485930D01*
X22304976Y6500346D01*
X22322219Y6513134D01*
X22340632Y6524170D01*
X22360038Y6533349D01*
X22380250Y6540581D01*
X22401074Y6545797D01*
X22422309Y6548947D01*
X22443750Y6550000D01*
X22956250Y6550000D01*
X22977691Y6548947D01*
X22977691Y6548947D01*
G37*
D12*
X22700000Y6112500D03*
D10*
G36*
X22977691Y8123947D02*
X22998926Y8120797D01*
X23019750Y8115581D01*
X23039962Y8108349D01*
X23059368Y8099170D01*
X23077781Y8088134D01*
X23095024Y8075346D01*
X23110930Y8060930D01*
X23125346Y8045024D01*
X23138134Y8027781D01*
X23149170Y8009368D01*
X23158349Y7989962D01*
X23165581Y7969750D01*
X23170797Y7948926D01*
X23173947Y7927691D01*
X23175000Y7906250D01*
X23175000Y7468750D01*
X23173947Y7447309D01*
X23170797Y7426074D01*
X23165581Y7405250D01*
X23158349Y7385038D01*
X23149170Y7365632D01*
X23138134Y7347219D01*
X23125346Y7329976D01*
X23110930Y7314070D01*
X23095024Y7299654D01*
X23077781Y7286866D01*
X23059368Y7275830D01*
X23039962Y7266651D01*
X23019750Y7259419D01*
X22998926Y7254203D01*
X22977691Y7251053D01*
X22956250Y7250000D01*
X22443750Y7250000D01*
X22422309Y7251053D01*
X22401074Y7254203D01*
X22380250Y7259419D01*
X22360038Y7266651D01*
X22340632Y7275830D01*
X22322219Y7286866D01*
X22304976Y7299654D01*
X22289070Y7314070D01*
X22274654Y7329976D01*
X22261866Y7347219D01*
X22250830Y7365632D01*
X22241651Y7385038D01*
X22234419Y7405250D01*
X22229203Y7426074D01*
X22226053Y7447309D01*
X22225000Y7468750D01*
X22225000Y7906250D01*
X22226053Y7927691D01*
X22229203Y7948926D01*
X22234419Y7969750D01*
X22241651Y7989962D01*
X22250830Y8009368D01*
X22261866Y8027781D01*
X22274654Y8045024D01*
X22289070Y8060930D01*
X22304976Y8075346D01*
X22322219Y8088134D01*
X22340632Y8099170D01*
X22360038Y8108349D01*
X22380250Y8115581D01*
X22401074Y8120797D01*
X22422309Y8123947D01*
X22443750Y8125000D01*
X22956250Y8125000D01*
X22977691Y8123947D01*
X22977691Y8123947D01*
G37*
D12*
X22700000Y7687500D03*
G04 #@! TD*
M02*
