G04 #@! TF.GenerationSoftware,KiCad,Pcbnew,(5.0.0)*
G04 #@! TF.CreationDate,2018-09-04T03:51:54+09:00*
G04 #@! TF.ProjectId,M5Stack_WiSUN,4D35537461636B5F576953554E2E6B69,rev?*
G04 #@! TF.SameCoordinates,PX989680PY55d4a80*
G04 #@! TF.FileFunction,Paste,Top*
G04 #@! TF.FilePolarity,Positive*
%FSLAX46Y46*%
G04 Gerber Fmt 4.6, Leading zero omitted, Abs format (unit mm)*
G04 Created by KiCad (PCBNEW (5.0.0)) date 09/04/18 03:51:54*
%MOMM*%
%LPD*%
G01*
G04 APERTURE LIST*
%ADD10R,0.400000X1.100000*%
%ADD11R,0.300000X1.100000*%
%ADD12R,0.600000X1.200000*%
%ADD13R,1.200000X0.600000*%
%ADD14C,0.100000*%
%ADD15C,0.590000*%
G04 APERTURE END LIST*
D10*
G04 #@! TO.C,U1*
X22700000Y20950000D03*
D11*
X23250000Y20950000D03*
X23750000Y20950000D03*
X24250000Y20950000D03*
X24750000Y20950000D03*
X25250000Y20950000D03*
X25750000Y20950000D03*
X26250000Y20950000D03*
X26750000Y20950000D03*
D10*
X27300000Y20950000D03*
X22700000Y17050000D03*
D11*
X23250000Y17050000D03*
X23750000Y17050000D03*
X24250000Y17050000D03*
X24750000Y17050000D03*
X25250000Y17050000D03*
X25750000Y17050000D03*
X26250000Y17050000D03*
X26750000Y17050000D03*
D10*
X27300000Y17050000D03*
G04 #@! TD*
D12*
G04 #@! TO.C,U2*
X27800000Y11850000D03*
X27000000Y11850000D03*
X26200000Y11850000D03*
X25400000Y11850000D03*
X24600000Y11850000D03*
X23800000Y11850000D03*
X23000000Y11850000D03*
X22200000Y11850000D03*
D13*
X20750000Y10400000D03*
X20750000Y9600000D03*
X20750000Y8800000D03*
X20750000Y8000000D03*
X20750000Y7200000D03*
X20750000Y6400000D03*
X20750000Y5600000D03*
X20750000Y4800000D03*
D12*
X22200000Y3350000D03*
X23000000Y3350000D03*
X23800000Y3350000D03*
X24600000Y3350000D03*
X25400000Y3350000D03*
X26200000Y3350000D03*
X27000000Y3350000D03*
X27800000Y3350000D03*
D13*
X29250000Y4800000D03*
X29250000Y5600000D03*
X29250000Y6400000D03*
X29250000Y7200000D03*
X29250000Y8000000D03*
X29250000Y8800000D03*
X29250000Y9600000D03*
X29250000Y10400000D03*
G04 #@! TD*
D14*
G04 #@! TO.C,R1*
G36*
X35576958Y12319290D02*
X35591276Y12317166D01*
X35605317Y12313649D01*
X35618946Y12308772D01*
X35632031Y12302583D01*
X35644447Y12295142D01*
X35656073Y12286519D01*
X35666798Y12276798D01*
X35676519Y12266073D01*
X35685142Y12254447D01*
X35692583Y12242031D01*
X35698772Y12228946D01*
X35703649Y12215317D01*
X35707166Y12201276D01*
X35709290Y12186958D01*
X35710000Y12172500D01*
X35710000Y11827500D01*
X35709290Y11813042D01*
X35707166Y11798724D01*
X35703649Y11784683D01*
X35698772Y11771054D01*
X35692583Y11757969D01*
X35685142Y11745553D01*
X35676519Y11733927D01*
X35666798Y11723202D01*
X35656073Y11713481D01*
X35644447Y11704858D01*
X35632031Y11697417D01*
X35618946Y11691228D01*
X35605317Y11686351D01*
X35591276Y11682834D01*
X35576958Y11680710D01*
X35562500Y11680000D01*
X35267500Y11680000D01*
X35253042Y11680710D01*
X35238724Y11682834D01*
X35224683Y11686351D01*
X35211054Y11691228D01*
X35197969Y11697417D01*
X35185553Y11704858D01*
X35173927Y11713481D01*
X35163202Y11723202D01*
X35153481Y11733927D01*
X35144858Y11745553D01*
X35137417Y11757969D01*
X35131228Y11771054D01*
X35126351Y11784683D01*
X35122834Y11798724D01*
X35120710Y11813042D01*
X35120000Y11827500D01*
X35120000Y12172500D01*
X35120710Y12186958D01*
X35122834Y12201276D01*
X35126351Y12215317D01*
X35131228Y12228946D01*
X35137417Y12242031D01*
X35144858Y12254447D01*
X35153481Y12266073D01*
X35163202Y12276798D01*
X35173927Y12286519D01*
X35185553Y12295142D01*
X35197969Y12302583D01*
X35211054Y12308772D01*
X35224683Y12313649D01*
X35238724Y12317166D01*
X35253042Y12319290D01*
X35267500Y12320000D01*
X35562500Y12320000D01*
X35576958Y12319290D01*
X35576958Y12319290D01*
G37*
D15*
X35415000Y12000000D03*
D14*
G36*
X36546958Y12319290D02*
X36561276Y12317166D01*
X36575317Y12313649D01*
X36588946Y12308772D01*
X36602031Y12302583D01*
X36614447Y12295142D01*
X36626073Y12286519D01*
X36636798Y12276798D01*
X36646519Y12266073D01*
X36655142Y12254447D01*
X36662583Y12242031D01*
X36668772Y12228946D01*
X36673649Y12215317D01*
X36677166Y12201276D01*
X36679290Y12186958D01*
X36680000Y12172500D01*
X36680000Y11827500D01*
X36679290Y11813042D01*
X36677166Y11798724D01*
X36673649Y11784683D01*
X36668772Y11771054D01*
X36662583Y11757969D01*
X36655142Y11745553D01*
X36646519Y11733927D01*
X36636798Y11723202D01*
X36626073Y11713481D01*
X36614447Y11704858D01*
X36602031Y11697417D01*
X36588946Y11691228D01*
X36575317Y11686351D01*
X36561276Y11682834D01*
X36546958Y11680710D01*
X36532500Y11680000D01*
X36237500Y11680000D01*
X36223042Y11680710D01*
X36208724Y11682834D01*
X36194683Y11686351D01*
X36181054Y11691228D01*
X36167969Y11697417D01*
X36155553Y11704858D01*
X36143927Y11713481D01*
X36133202Y11723202D01*
X36123481Y11733927D01*
X36114858Y11745553D01*
X36107417Y11757969D01*
X36101228Y11771054D01*
X36096351Y11784683D01*
X36092834Y11798724D01*
X36090710Y11813042D01*
X36090000Y11827500D01*
X36090000Y12172500D01*
X36090710Y12186958D01*
X36092834Y12201276D01*
X36096351Y12215317D01*
X36101228Y12228946D01*
X36107417Y12242031D01*
X36114858Y12254447D01*
X36123481Y12266073D01*
X36133202Y12276798D01*
X36143927Y12286519D01*
X36155553Y12295142D01*
X36167969Y12302583D01*
X36181054Y12308772D01*
X36194683Y12313649D01*
X36208724Y12317166D01*
X36223042Y12319290D01*
X36237500Y12320000D01*
X36532500Y12320000D01*
X36546958Y12319290D01*
X36546958Y12319290D01*
G37*
D15*
X36385000Y12000000D03*
G04 #@! TD*
D14*
G04 #@! TO.C,R2*
G36*
X35576958Y11119290D02*
X35591276Y11117166D01*
X35605317Y11113649D01*
X35618946Y11108772D01*
X35632031Y11102583D01*
X35644447Y11095142D01*
X35656073Y11086519D01*
X35666798Y11076798D01*
X35676519Y11066073D01*
X35685142Y11054447D01*
X35692583Y11042031D01*
X35698772Y11028946D01*
X35703649Y11015317D01*
X35707166Y11001276D01*
X35709290Y10986958D01*
X35710000Y10972500D01*
X35710000Y10627500D01*
X35709290Y10613042D01*
X35707166Y10598724D01*
X35703649Y10584683D01*
X35698772Y10571054D01*
X35692583Y10557969D01*
X35685142Y10545553D01*
X35676519Y10533927D01*
X35666798Y10523202D01*
X35656073Y10513481D01*
X35644447Y10504858D01*
X35632031Y10497417D01*
X35618946Y10491228D01*
X35605317Y10486351D01*
X35591276Y10482834D01*
X35576958Y10480710D01*
X35562500Y10480000D01*
X35267500Y10480000D01*
X35253042Y10480710D01*
X35238724Y10482834D01*
X35224683Y10486351D01*
X35211054Y10491228D01*
X35197969Y10497417D01*
X35185553Y10504858D01*
X35173927Y10513481D01*
X35163202Y10523202D01*
X35153481Y10533927D01*
X35144858Y10545553D01*
X35137417Y10557969D01*
X35131228Y10571054D01*
X35126351Y10584683D01*
X35122834Y10598724D01*
X35120710Y10613042D01*
X35120000Y10627500D01*
X35120000Y10972500D01*
X35120710Y10986958D01*
X35122834Y11001276D01*
X35126351Y11015317D01*
X35131228Y11028946D01*
X35137417Y11042031D01*
X35144858Y11054447D01*
X35153481Y11066073D01*
X35163202Y11076798D01*
X35173927Y11086519D01*
X35185553Y11095142D01*
X35197969Y11102583D01*
X35211054Y11108772D01*
X35224683Y11113649D01*
X35238724Y11117166D01*
X35253042Y11119290D01*
X35267500Y11120000D01*
X35562500Y11120000D01*
X35576958Y11119290D01*
X35576958Y11119290D01*
G37*
D15*
X35415000Y10800000D03*
D14*
G36*
X36546958Y11119290D02*
X36561276Y11117166D01*
X36575317Y11113649D01*
X36588946Y11108772D01*
X36602031Y11102583D01*
X36614447Y11095142D01*
X36626073Y11086519D01*
X36636798Y11076798D01*
X36646519Y11066073D01*
X36655142Y11054447D01*
X36662583Y11042031D01*
X36668772Y11028946D01*
X36673649Y11015317D01*
X36677166Y11001276D01*
X36679290Y10986958D01*
X36680000Y10972500D01*
X36680000Y10627500D01*
X36679290Y10613042D01*
X36677166Y10598724D01*
X36673649Y10584683D01*
X36668772Y10571054D01*
X36662583Y10557969D01*
X36655142Y10545553D01*
X36646519Y10533927D01*
X36636798Y10523202D01*
X36626073Y10513481D01*
X36614447Y10504858D01*
X36602031Y10497417D01*
X36588946Y10491228D01*
X36575317Y10486351D01*
X36561276Y10482834D01*
X36546958Y10480710D01*
X36532500Y10480000D01*
X36237500Y10480000D01*
X36223042Y10480710D01*
X36208724Y10482834D01*
X36194683Y10486351D01*
X36181054Y10491228D01*
X36167969Y10497417D01*
X36155553Y10504858D01*
X36143927Y10513481D01*
X36133202Y10523202D01*
X36123481Y10533927D01*
X36114858Y10545553D01*
X36107417Y10557969D01*
X36101228Y10571054D01*
X36096351Y10584683D01*
X36092834Y10598724D01*
X36090710Y10613042D01*
X36090000Y10627500D01*
X36090000Y10972500D01*
X36090710Y10986958D01*
X36092834Y11001276D01*
X36096351Y11015317D01*
X36101228Y11028946D01*
X36107417Y11042031D01*
X36114858Y11054447D01*
X36123481Y11066073D01*
X36133202Y11076798D01*
X36143927Y11086519D01*
X36155553Y11095142D01*
X36167969Y11102583D01*
X36181054Y11108772D01*
X36194683Y11113649D01*
X36208724Y11117166D01*
X36223042Y11119290D01*
X36237500Y11120000D01*
X36532500Y11120000D01*
X36546958Y11119290D01*
X36546958Y11119290D01*
G37*
D15*
X36385000Y10800000D03*
G04 #@! TD*
D14*
G04 #@! TO.C,R3*
G36*
X32486958Y9994290D02*
X32501276Y9992166D01*
X32515317Y9988649D01*
X32528946Y9983772D01*
X32542031Y9977583D01*
X32554447Y9970142D01*
X32566073Y9961519D01*
X32576798Y9951798D01*
X32586519Y9941073D01*
X32595142Y9929447D01*
X32602583Y9917031D01*
X32608772Y9903946D01*
X32613649Y9890317D01*
X32617166Y9876276D01*
X32619290Y9861958D01*
X32620000Y9847500D01*
X32620000Y9552500D01*
X32619290Y9538042D01*
X32617166Y9523724D01*
X32613649Y9509683D01*
X32608772Y9496054D01*
X32602583Y9482969D01*
X32595142Y9470553D01*
X32586519Y9458927D01*
X32576798Y9448202D01*
X32566073Y9438481D01*
X32554447Y9429858D01*
X32542031Y9422417D01*
X32528946Y9416228D01*
X32515317Y9411351D01*
X32501276Y9407834D01*
X32486958Y9405710D01*
X32472500Y9405000D01*
X32127500Y9405000D01*
X32113042Y9405710D01*
X32098724Y9407834D01*
X32084683Y9411351D01*
X32071054Y9416228D01*
X32057969Y9422417D01*
X32045553Y9429858D01*
X32033927Y9438481D01*
X32023202Y9448202D01*
X32013481Y9458927D01*
X32004858Y9470553D01*
X31997417Y9482969D01*
X31991228Y9496054D01*
X31986351Y9509683D01*
X31982834Y9523724D01*
X31980710Y9538042D01*
X31980000Y9552500D01*
X31980000Y9847500D01*
X31980710Y9861958D01*
X31982834Y9876276D01*
X31986351Y9890317D01*
X31991228Y9903946D01*
X31997417Y9917031D01*
X32004858Y9929447D01*
X32013481Y9941073D01*
X32023202Y9951798D01*
X32033927Y9961519D01*
X32045553Y9970142D01*
X32057969Y9977583D01*
X32071054Y9983772D01*
X32084683Y9988649D01*
X32098724Y9992166D01*
X32113042Y9994290D01*
X32127500Y9995000D01*
X32472500Y9995000D01*
X32486958Y9994290D01*
X32486958Y9994290D01*
G37*
D15*
X32300000Y9700000D03*
D14*
G36*
X32486958Y10964290D02*
X32501276Y10962166D01*
X32515317Y10958649D01*
X32528946Y10953772D01*
X32542031Y10947583D01*
X32554447Y10940142D01*
X32566073Y10931519D01*
X32576798Y10921798D01*
X32586519Y10911073D01*
X32595142Y10899447D01*
X32602583Y10887031D01*
X32608772Y10873946D01*
X32613649Y10860317D01*
X32617166Y10846276D01*
X32619290Y10831958D01*
X32620000Y10817500D01*
X32620000Y10522500D01*
X32619290Y10508042D01*
X32617166Y10493724D01*
X32613649Y10479683D01*
X32608772Y10466054D01*
X32602583Y10452969D01*
X32595142Y10440553D01*
X32586519Y10428927D01*
X32576798Y10418202D01*
X32566073Y10408481D01*
X32554447Y10399858D01*
X32542031Y10392417D01*
X32528946Y10386228D01*
X32515317Y10381351D01*
X32501276Y10377834D01*
X32486958Y10375710D01*
X32472500Y10375000D01*
X32127500Y10375000D01*
X32113042Y10375710D01*
X32098724Y10377834D01*
X32084683Y10381351D01*
X32071054Y10386228D01*
X32057969Y10392417D01*
X32045553Y10399858D01*
X32033927Y10408481D01*
X32023202Y10418202D01*
X32013481Y10428927D01*
X32004858Y10440553D01*
X31997417Y10452969D01*
X31991228Y10466054D01*
X31986351Y10479683D01*
X31982834Y10493724D01*
X31980710Y10508042D01*
X31980000Y10522500D01*
X31980000Y10817500D01*
X31980710Y10831958D01*
X31982834Y10846276D01*
X31986351Y10860317D01*
X31991228Y10873946D01*
X31997417Y10887031D01*
X32004858Y10899447D01*
X32013481Y10911073D01*
X32023202Y10921798D01*
X32033927Y10931519D01*
X32045553Y10940142D01*
X32057969Y10947583D01*
X32071054Y10953772D01*
X32084683Y10958649D01*
X32098724Y10962166D01*
X32113042Y10964290D01*
X32127500Y10965000D01*
X32472500Y10965000D01*
X32486958Y10964290D01*
X32486958Y10964290D01*
G37*
D15*
X32300000Y10670000D03*
G04 #@! TD*
D14*
G04 #@! TO.C,R4*
G36*
X35576958Y14919290D02*
X35591276Y14917166D01*
X35605317Y14913649D01*
X35618946Y14908772D01*
X35632031Y14902583D01*
X35644447Y14895142D01*
X35656073Y14886519D01*
X35666798Y14876798D01*
X35676519Y14866073D01*
X35685142Y14854447D01*
X35692583Y14842031D01*
X35698772Y14828946D01*
X35703649Y14815317D01*
X35707166Y14801276D01*
X35709290Y14786958D01*
X35710000Y14772500D01*
X35710000Y14427500D01*
X35709290Y14413042D01*
X35707166Y14398724D01*
X35703649Y14384683D01*
X35698772Y14371054D01*
X35692583Y14357969D01*
X35685142Y14345553D01*
X35676519Y14333927D01*
X35666798Y14323202D01*
X35656073Y14313481D01*
X35644447Y14304858D01*
X35632031Y14297417D01*
X35618946Y14291228D01*
X35605317Y14286351D01*
X35591276Y14282834D01*
X35576958Y14280710D01*
X35562500Y14280000D01*
X35267500Y14280000D01*
X35253042Y14280710D01*
X35238724Y14282834D01*
X35224683Y14286351D01*
X35211054Y14291228D01*
X35197969Y14297417D01*
X35185553Y14304858D01*
X35173927Y14313481D01*
X35163202Y14323202D01*
X35153481Y14333927D01*
X35144858Y14345553D01*
X35137417Y14357969D01*
X35131228Y14371054D01*
X35126351Y14384683D01*
X35122834Y14398724D01*
X35120710Y14413042D01*
X35120000Y14427500D01*
X35120000Y14772500D01*
X35120710Y14786958D01*
X35122834Y14801276D01*
X35126351Y14815317D01*
X35131228Y14828946D01*
X35137417Y14842031D01*
X35144858Y14854447D01*
X35153481Y14866073D01*
X35163202Y14876798D01*
X35173927Y14886519D01*
X35185553Y14895142D01*
X35197969Y14902583D01*
X35211054Y14908772D01*
X35224683Y14913649D01*
X35238724Y14917166D01*
X35253042Y14919290D01*
X35267500Y14920000D01*
X35562500Y14920000D01*
X35576958Y14919290D01*
X35576958Y14919290D01*
G37*
D15*
X35415000Y14600000D03*
D14*
G36*
X36546958Y14919290D02*
X36561276Y14917166D01*
X36575317Y14913649D01*
X36588946Y14908772D01*
X36602031Y14902583D01*
X36614447Y14895142D01*
X36626073Y14886519D01*
X36636798Y14876798D01*
X36646519Y14866073D01*
X36655142Y14854447D01*
X36662583Y14842031D01*
X36668772Y14828946D01*
X36673649Y14815317D01*
X36677166Y14801276D01*
X36679290Y14786958D01*
X36680000Y14772500D01*
X36680000Y14427500D01*
X36679290Y14413042D01*
X36677166Y14398724D01*
X36673649Y14384683D01*
X36668772Y14371054D01*
X36662583Y14357969D01*
X36655142Y14345553D01*
X36646519Y14333927D01*
X36636798Y14323202D01*
X36626073Y14313481D01*
X36614447Y14304858D01*
X36602031Y14297417D01*
X36588946Y14291228D01*
X36575317Y14286351D01*
X36561276Y14282834D01*
X36546958Y14280710D01*
X36532500Y14280000D01*
X36237500Y14280000D01*
X36223042Y14280710D01*
X36208724Y14282834D01*
X36194683Y14286351D01*
X36181054Y14291228D01*
X36167969Y14297417D01*
X36155553Y14304858D01*
X36143927Y14313481D01*
X36133202Y14323202D01*
X36123481Y14333927D01*
X36114858Y14345553D01*
X36107417Y14357969D01*
X36101228Y14371054D01*
X36096351Y14384683D01*
X36092834Y14398724D01*
X36090710Y14413042D01*
X36090000Y14427500D01*
X36090000Y14772500D01*
X36090710Y14786958D01*
X36092834Y14801276D01*
X36096351Y14815317D01*
X36101228Y14828946D01*
X36107417Y14842031D01*
X36114858Y14854447D01*
X36123481Y14866073D01*
X36133202Y14876798D01*
X36143927Y14886519D01*
X36155553Y14895142D01*
X36167969Y14902583D01*
X36181054Y14908772D01*
X36194683Y14913649D01*
X36208724Y14917166D01*
X36223042Y14919290D01*
X36237500Y14920000D01*
X36532500Y14920000D01*
X36546958Y14919290D01*
X36546958Y14919290D01*
G37*
D15*
X36385000Y14600000D03*
G04 #@! TD*
D14*
G04 #@! TO.C,R5*
G36*
X36546958Y13719290D02*
X36561276Y13717166D01*
X36575317Y13713649D01*
X36588946Y13708772D01*
X36602031Y13702583D01*
X36614447Y13695142D01*
X36626073Y13686519D01*
X36636798Y13676798D01*
X36646519Y13666073D01*
X36655142Y13654447D01*
X36662583Y13642031D01*
X36668772Y13628946D01*
X36673649Y13615317D01*
X36677166Y13601276D01*
X36679290Y13586958D01*
X36680000Y13572500D01*
X36680000Y13227500D01*
X36679290Y13213042D01*
X36677166Y13198724D01*
X36673649Y13184683D01*
X36668772Y13171054D01*
X36662583Y13157969D01*
X36655142Y13145553D01*
X36646519Y13133927D01*
X36636798Y13123202D01*
X36626073Y13113481D01*
X36614447Y13104858D01*
X36602031Y13097417D01*
X36588946Y13091228D01*
X36575317Y13086351D01*
X36561276Y13082834D01*
X36546958Y13080710D01*
X36532500Y13080000D01*
X36237500Y13080000D01*
X36223042Y13080710D01*
X36208724Y13082834D01*
X36194683Y13086351D01*
X36181054Y13091228D01*
X36167969Y13097417D01*
X36155553Y13104858D01*
X36143927Y13113481D01*
X36133202Y13123202D01*
X36123481Y13133927D01*
X36114858Y13145553D01*
X36107417Y13157969D01*
X36101228Y13171054D01*
X36096351Y13184683D01*
X36092834Y13198724D01*
X36090710Y13213042D01*
X36090000Y13227500D01*
X36090000Y13572500D01*
X36090710Y13586958D01*
X36092834Y13601276D01*
X36096351Y13615317D01*
X36101228Y13628946D01*
X36107417Y13642031D01*
X36114858Y13654447D01*
X36123481Y13666073D01*
X36133202Y13676798D01*
X36143927Y13686519D01*
X36155553Y13695142D01*
X36167969Y13702583D01*
X36181054Y13708772D01*
X36194683Y13713649D01*
X36208724Y13717166D01*
X36223042Y13719290D01*
X36237500Y13720000D01*
X36532500Y13720000D01*
X36546958Y13719290D01*
X36546958Y13719290D01*
G37*
D15*
X36385000Y13400000D03*
D14*
G36*
X35576958Y13719290D02*
X35591276Y13717166D01*
X35605317Y13713649D01*
X35618946Y13708772D01*
X35632031Y13702583D01*
X35644447Y13695142D01*
X35656073Y13686519D01*
X35666798Y13676798D01*
X35676519Y13666073D01*
X35685142Y13654447D01*
X35692583Y13642031D01*
X35698772Y13628946D01*
X35703649Y13615317D01*
X35707166Y13601276D01*
X35709290Y13586958D01*
X35710000Y13572500D01*
X35710000Y13227500D01*
X35709290Y13213042D01*
X35707166Y13198724D01*
X35703649Y13184683D01*
X35698772Y13171054D01*
X35692583Y13157969D01*
X35685142Y13145553D01*
X35676519Y13133927D01*
X35666798Y13123202D01*
X35656073Y13113481D01*
X35644447Y13104858D01*
X35632031Y13097417D01*
X35618946Y13091228D01*
X35605317Y13086351D01*
X35591276Y13082834D01*
X35576958Y13080710D01*
X35562500Y13080000D01*
X35267500Y13080000D01*
X35253042Y13080710D01*
X35238724Y13082834D01*
X35224683Y13086351D01*
X35211054Y13091228D01*
X35197969Y13097417D01*
X35185553Y13104858D01*
X35173927Y13113481D01*
X35163202Y13123202D01*
X35153481Y13133927D01*
X35144858Y13145553D01*
X35137417Y13157969D01*
X35131228Y13171054D01*
X35126351Y13184683D01*
X35122834Y13198724D01*
X35120710Y13213042D01*
X35120000Y13227500D01*
X35120000Y13572500D01*
X35120710Y13586958D01*
X35122834Y13601276D01*
X35126351Y13615317D01*
X35131228Y13628946D01*
X35137417Y13642031D01*
X35144858Y13654447D01*
X35153481Y13666073D01*
X35163202Y13676798D01*
X35173927Y13686519D01*
X35185553Y13695142D01*
X35197969Y13702583D01*
X35211054Y13708772D01*
X35224683Y13713649D01*
X35238724Y13717166D01*
X35253042Y13719290D01*
X35267500Y13720000D01*
X35562500Y13720000D01*
X35576958Y13719290D01*
X35576958Y13719290D01*
G37*
D15*
X35415000Y13400000D03*
G04 #@! TD*
D14*
G04 #@! TO.C,R6*
G36*
X31286958Y9994290D02*
X31301276Y9992166D01*
X31315317Y9988649D01*
X31328946Y9983772D01*
X31342031Y9977583D01*
X31354447Y9970142D01*
X31366073Y9961519D01*
X31376798Y9951798D01*
X31386519Y9941073D01*
X31395142Y9929447D01*
X31402583Y9917031D01*
X31408772Y9903946D01*
X31413649Y9890317D01*
X31417166Y9876276D01*
X31419290Y9861958D01*
X31420000Y9847500D01*
X31420000Y9552500D01*
X31419290Y9538042D01*
X31417166Y9523724D01*
X31413649Y9509683D01*
X31408772Y9496054D01*
X31402583Y9482969D01*
X31395142Y9470553D01*
X31386519Y9458927D01*
X31376798Y9448202D01*
X31366073Y9438481D01*
X31354447Y9429858D01*
X31342031Y9422417D01*
X31328946Y9416228D01*
X31315317Y9411351D01*
X31301276Y9407834D01*
X31286958Y9405710D01*
X31272500Y9405000D01*
X30927500Y9405000D01*
X30913042Y9405710D01*
X30898724Y9407834D01*
X30884683Y9411351D01*
X30871054Y9416228D01*
X30857969Y9422417D01*
X30845553Y9429858D01*
X30833927Y9438481D01*
X30823202Y9448202D01*
X30813481Y9458927D01*
X30804858Y9470553D01*
X30797417Y9482969D01*
X30791228Y9496054D01*
X30786351Y9509683D01*
X30782834Y9523724D01*
X30780710Y9538042D01*
X30780000Y9552500D01*
X30780000Y9847500D01*
X30780710Y9861958D01*
X30782834Y9876276D01*
X30786351Y9890317D01*
X30791228Y9903946D01*
X30797417Y9917031D01*
X30804858Y9929447D01*
X30813481Y9941073D01*
X30823202Y9951798D01*
X30833927Y9961519D01*
X30845553Y9970142D01*
X30857969Y9977583D01*
X30871054Y9983772D01*
X30884683Y9988649D01*
X30898724Y9992166D01*
X30913042Y9994290D01*
X30927500Y9995000D01*
X31272500Y9995000D01*
X31286958Y9994290D01*
X31286958Y9994290D01*
G37*
D15*
X31100000Y9700000D03*
D14*
G36*
X31286958Y10964290D02*
X31301276Y10962166D01*
X31315317Y10958649D01*
X31328946Y10953772D01*
X31342031Y10947583D01*
X31354447Y10940142D01*
X31366073Y10931519D01*
X31376798Y10921798D01*
X31386519Y10911073D01*
X31395142Y10899447D01*
X31402583Y10887031D01*
X31408772Y10873946D01*
X31413649Y10860317D01*
X31417166Y10846276D01*
X31419290Y10831958D01*
X31420000Y10817500D01*
X31420000Y10522500D01*
X31419290Y10508042D01*
X31417166Y10493724D01*
X31413649Y10479683D01*
X31408772Y10466054D01*
X31402583Y10452969D01*
X31395142Y10440553D01*
X31386519Y10428927D01*
X31376798Y10418202D01*
X31366073Y10408481D01*
X31354447Y10399858D01*
X31342031Y10392417D01*
X31328946Y10386228D01*
X31315317Y10381351D01*
X31301276Y10377834D01*
X31286958Y10375710D01*
X31272500Y10375000D01*
X30927500Y10375000D01*
X30913042Y10375710D01*
X30898724Y10377834D01*
X30884683Y10381351D01*
X30871054Y10386228D01*
X30857969Y10392417D01*
X30845553Y10399858D01*
X30833927Y10408481D01*
X30823202Y10418202D01*
X30813481Y10428927D01*
X30804858Y10440553D01*
X30797417Y10452969D01*
X30791228Y10466054D01*
X30786351Y10479683D01*
X30782834Y10493724D01*
X30780710Y10508042D01*
X30780000Y10522500D01*
X30780000Y10817500D01*
X30780710Y10831958D01*
X30782834Y10846276D01*
X30786351Y10860317D01*
X30791228Y10873946D01*
X30797417Y10887031D01*
X30804858Y10899447D01*
X30813481Y10911073D01*
X30823202Y10921798D01*
X30833927Y10931519D01*
X30845553Y10940142D01*
X30857969Y10947583D01*
X30871054Y10953772D01*
X30884683Y10958649D01*
X30898724Y10962166D01*
X30913042Y10964290D01*
X30927500Y10965000D01*
X31272500Y10965000D01*
X31286958Y10964290D01*
X31286958Y10964290D01*
G37*
D15*
X31100000Y10670000D03*
G04 #@! TD*
M02*
