G04 #@! TF.GenerationSoftware,KiCad,Pcbnew,(5.0.0)*
G04 #@! TF.CreationDate,2018-09-04T03:51:54+09:00*
G04 #@! TF.ProjectId,M5Stack_WiSUN,4D35537461636B5F576953554E2E6B69,rev?*
G04 #@! TF.SameCoordinates,PX989680PY55d4a80*
G04 #@! TF.FileFunction,Copper,L1,Top,Signal*
G04 #@! TF.FilePolarity,Positive*
%FSLAX46Y46*%
G04 Gerber Fmt 4.6, Leading zero omitted, Abs format (unit mm)*
G04 Created by KiCad (PCBNEW (5.0.0)) date 09/04/18 03:51:54*
%MOMM*%
%LPD*%
G01*
G04 APERTURE LIST*
G04 #@! TA.AperFunction,WasherPad*
%ADD10C,5.000000*%
G04 #@! TD*
G04 #@! TA.AperFunction,SMDPad,CuDef*
%ADD11R,0.400000X1.100000*%
G04 #@! TD*
G04 #@! TA.AperFunction,SMDPad,CuDef*
%ADD12R,0.300000X1.100000*%
G04 #@! TD*
G04 #@! TA.AperFunction,SMDPad,CuDef*
%ADD13R,0.600000X1.200000*%
G04 #@! TD*
G04 #@! TA.AperFunction,SMDPad,CuDef*
%ADD14R,1.200000X0.600000*%
G04 #@! TD*
G04 #@! TA.AperFunction,SMDPad,CuDef*
%ADD15R,3.150000X1.000000*%
G04 #@! TD*
G04 #@! TA.AperFunction,ComponentPad*
%ADD16R,1.700000X1.700000*%
G04 #@! TD*
G04 #@! TA.AperFunction,ComponentPad*
%ADD17O,1.700000X1.700000*%
G04 #@! TD*
G04 #@! TA.AperFunction,Conductor*
%ADD18C,0.100000*%
G04 #@! TD*
G04 #@! TA.AperFunction,SMDPad,CuDef*
%ADD19C,0.590000*%
G04 #@! TD*
G04 #@! TA.AperFunction,ViaPad*
%ADD20C,0.800000*%
G04 #@! TD*
G04 #@! TA.AperFunction,Conductor*
%ADD21C,0.250000*%
G04 #@! TD*
G04 #@! TA.AperFunction,Conductor*
%ADD22C,0.400000*%
G04 #@! TD*
G04 #@! TA.AperFunction,Conductor*
%ADD23C,0.200000*%
G04 #@! TD*
G04 #@! TA.AperFunction,Conductor*
%ADD24C,0.800000*%
G04 #@! TD*
G04 #@! TA.AperFunction,Conductor*
%ADD25C,0.600000*%
G04 #@! TD*
G04 APERTURE END LIST*
D10*
G04 #@! TO.P,U1,*
G04 #@! TO.N,*
X17800000Y19000000D03*
X32200000Y19000000D03*
D11*
G04 #@! TO.P,U1,11*
G04 #@! TO.N,+3V3*
X22700000Y20950000D03*
D12*
G04 #@! TO.P,U1,12*
G04 #@! TO.N,GND*
X23250000Y20950000D03*
G04 #@! TO.P,U1,13*
X23750000Y20950000D03*
G04 #@! TO.P,U1,14*
G04 #@! TO.N,/BP35_CTS*
X24250000Y20950000D03*
G04 #@! TO.P,U1,15*
G04 #@! TO.N,/BP35_RTS*
X24750000Y20950000D03*
G04 #@! TO.P,U1,16*
G04 #@! TO.N,N/C*
X25250000Y20950000D03*
G04 #@! TO.P,U1,17*
X25750000Y20950000D03*
G04 #@! TO.P,U1,18*
X26250000Y20950000D03*
G04 #@! TO.P,U1,19*
G04 #@! TO.N,GND*
X26750000Y20950000D03*
D11*
G04 #@! TO.P,U1,20*
X27300000Y20950000D03*
G04 #@! TO.P,U1,1*
G04 #@! TO.N,+3V3*
X22700000Y17050000D03*
D12*
G04 #@! TO.P,U1,2*
G04 #@! TO.N,GND*
X23250000Y17050000D03*
G04 #@! TO.P,U1,3*
G04 #@! TO.N,/BP35_TXD*
X23750000Y17050000D03*
G04 #@! TO.P,U1,4*
G04 #@! TO.N,/BP35_RXD*
X24250000Y17050000D03*
G04 #@! TO.P,U1,5*
G04 #@! TO.N,/BP35_WKUP*
X24750000Y17050000D03*
G04 #@! TO.P,U1,6*
G04 #@! TO.N,/BP35_RESET*
X25250000Y17050000D03*
G04 #@! TO.P,U1,7*
G04 #@! TO.N,GND*
X25750000Y17050000D03*
G04 #@! TO.P,U1,8*
X26250000Y17050000D03*
G04 #@! TO.P,U1,9*
X26750000Y17050000D03*
D11*
G04 #@! TO.P,U1,10*
X27300000Y17050000D03*
G04 #@! TD*
D13*
G04 #@! TO.P,U2,1*
G04 #@! TO.N,/BP35_RESET*
X27800000Y11850000D03*
G04 #@! TO.P,U2,2*
G04 #@! TO.N,/AVR_PD4*
X27000000Y11850000D03*
G04 #@! TO.P,U2,3*
G04 #@! TO.N,GND*
X26200000Y11850000D03*
G04 #@! TO.P,U2,4*
G04 #@! TO.N,+3V3*
X25400000Y11850000D03*
G04 #@! TO.P,U2,5*
G04 #@! TO.N,GND*
X24600000Y11850000D03*
G04 #@! TO.P,U2,6*
G04 #@! TO.N,+3V3*
X23800000Y11850000D03*
G04 #@! TO.P,U2,7*
G04 #@! TO.N,N/C*
X23000000Y11850000D03*
G04 #@! TO.P,U2,8*
X22200000Y11850000D03*
D14*
G04 #@! TO.P,U2,9*
G04 #@! TO.N,/AVR_PD5*
X20750000Y10400000D03*
G04 #@! TO.P,U2,10*
G04 #@! TO.N,/BP35_CTS*
X20750000Y9600000D03*
G04 #@! TO.P,U2,11*
G04 #@! TO.N,/BP35_RTS*
X20750000Y8800000D03*
G04 #@! TO.P,U2,12*
G04 #@! TO.N,N/C*
X20750000Y8000000D03*
G04 #@! TO.P,U2,13*
G04 #@! TO.N,/AVR_PB1*
X20750000Y7200000D03*
G04 #@! TO.P,U2,14*
G04 #@! TO.N,N/C*
X20750000Y6400000D03*
G04 #@! TO.P,U2,15*
G04 #@! TO.N,/AVR_MOSI*
X20750000Y5600000D03*
G04 #@! TO.P,U2,16*
G04 #@! TO.N,/AVR_MISO*
X20750000Y4800000D03*
D13*
G04 #@! TO.P,U2,17*
G04 #@! TO.N,/AVR_SCK*
X22200000Y3350000D03*
G04 #@! TO.P,U2,18*
G04 #@! TO.N,Net-(C2-Pad1)*
X23000000Y3350000D03*
G04 #@! TO.P,U2,19*
G04 #@! TO.N,N/C*
X23800000Y3350000D03*
G04 #@! TO.P,U2,20*
G04 #@! TO.N,Net-(C1-Pad1)*
X24600000Y3350000D03*
G04 #@! TO.P,U2,21*
G04 #@! TO.N,GND*
X25400000Y3350000D03*
G04 #@! TO.P,U2,22*
G04 #@! TO.N,N/C*
X26200000Y3350000D03*
G04 #@! TO.P,U2,23*
G04 #@! TO.N,/AVR_ADC0*
X27000000Y3350000D03*
G04 #@! TO.P,U2,24*
G04 #@! TO.N,/AVR_ADC1*
X27800000Y3350000D03*
D14*
G04 #@! TO.P,U2,25*
G04 #@! TO.N,/AVR_ADC2*
X29250000Y4800000D03*
G04 #@! TO.P,U2,26*
G04 #@! TO.N,/AVR_ADC3*
X29250000Y5600000D03*
G04 #@! TO.P,U2,27*
G04 #@! TO.N,/SDA*
X29250000Y6400000D03*
G04 #@! TO.P,U2,28*
G04 #@! TO.N,/SCL*
X29250000Y7200000D03*
G04 #@! TO.P,U2,29*
G04 #@! TO.N,/AVR_RESET*
X29250000Y8000000D03*
G04 #@! TO.P,U2,30*
G04 #@! TO.N,/AVR_RXD0*
X29250000Y8800000D03*
G04 #@! TO.P,U2,31*
G04 #@! TO.N,/AVR_TXD0*
X29250000Y9600000D03*
G04 #@! TO.P,U2,32*
G04 #@! TO.N,/BP35_WKUP*
X29250000Y10400000D03*
G04 #@! TD*
D15*
G04 #@! TO.P,J1,1*
G04 #@! TO.N,/ADC_G35*
X41525000Y42780000D03*
G04 #@! TO.P,J1,2*
G04 #@! TO.N,GND*
X46575000Y42780000D03*
G04 #@! TO.P,J1,3*
G04 #@! TO.N,/ADC_G36*
X41525000Y40240000D03*
G04 #@! TO.P,J1,4*
G04 #@! TO.N,GND*
X46575000Y40240000D03*
G04 #@! TO.P,J1,5*
G04 #@! TO.N,/RST*
X41525000Y37700000D03*
G04 #@! TO.P,J1,6*
G04 #@! TO.N,GND*
X46575000Y37700000D03*
G04 #@! TO.P,J1,7*
G04 #@! TO.N,/DAC_SPK*
X41525000Y35160000D03*
G04 #@! TO.P,J1,8*
G04 #@! TO.N,/MOSI*
X46575000Y35160000D03*
G04 #@! TO.P,J1,9*
G04 #@! TO.N,/DAC*
X41525000Y32620000D03*
G04 #@! TO.P,J1,10*
G04 #@! TO.N,/MISO*
X46575000Y32620000D03*
G04 #@! TO.P,J1,11*
G04 #@! TO.N,+3V3*
X41525000Y30080000D03*
G04 #@! TO.P,J1,12*
G04 #@! TO.N,/SCK*
X46575000Y30080000D03*
G04 #@! TO.P,J1,13*
G04 #@! TO.N,/TXD0*
X41525000Y27540000D03*
G04 #@! TO.P,J1,14*
G04 #@! TO.N,/RXD0*
X46575000Y27540000D03*
G04 #@! TO.P,J1,15*
G04 #@! TO.N,/TXD2*
X41525000Y25000000D03*
G04 #@! TO.P,J1,16*
G04 #@! TO.N,/RXD2*
X46575000Y25000000D03*
G04 #@! TO.P,J1,17*
G04 #@! TO.N,/SCL*
X41525000Y22460000D03*
G04 #@! TO.P,J1,18*
G04 #@! TO.N,/SDA*
X46575000Y22460000D03*
G04 #@! TO.P,J1,19*
G04 #@! TO.N,/GPIO_G5*
X41525000Y19920000D03*
G04 #@! TO.P,J1,20*
G04 #@! TO.N,/GPIO_G2*
X46575000Y19920000D03*
G04 #@! TO.P,J1,21*
G04 #@! TO.N,/IIS_WS*
X41525000Y17380000D03*
G04 #@! TO.P,J1,22*
G04 #@! TO.N,/IIS_SK*
X46575000Y17380000D03*
G04 #@! TO.P,J1,23*
G04 #@! TO.N,/IIS_MK*
X41525000Y14840000D03*
G04 #@! TO.P,J1,24*
G04 #@! TO.N,/IIS_OUT*
X46575000Y14840000D03*
G04 #@! TO.P,J1,25*
G04 #@! TO.N,/IIS_IN*
X41525000Y12300000D03*
G04 #@! TO.P,J1,26*
G04 #@! TO.N,/HPWR*
X46575000Y12300000D03*
G04 #@! TO.P,J1,27*
G04 #@! TO.N,+5V*
X41525000Y9760000D03*
G04 #@! TO.P,J1,28*
G04 #@! TO.N,/HPWR*
X46575000Y9760000D03*
G04 #@! TO.P,J1,29*
G04 #@! TO.N,/BATTERY*
X41525000Y7220000D03*
G04 #@! TO.P,J1,30*
G04 #@! TO.N,/HPWR*
X46575000Y7220000D03*
G04 #@! TD*
D16*
G04 #@! TO.P,J3,1*
G04 #@! TO.N,/AVR_ADC3*
X4000000Y35160000D03*
D17*
G04 #@! TO.P,J3,2*
G04 #@! TO.N,/AVR_ADC2*
X4000000Y32620000D03*
G04 #@! TO.P,J3,3*
G04 #@! TO.N,/AVR_ADC1*
X4000000Y30080000D03*
G04 #@! TO.P,J3,4*
G04 #@! TO.N,/AVR_ADC0*
X4000000Y27540000D03*
G04 #@! TO.P,J3,5*
G04 #@! TO.N,/AVR_PB1*
X4000000Y25000000D03*
G04 #@! TO.P,J3,6*
G04 #@! TO.N,/AVR_PD4*
X4000000Y22460000D03*
G04 #@! TO.P,J3,7*
G04 #@! TO.N,/AVR_PD5*
X4000000Y19920000D03*
G04 #@! TO.P,J3,8*
G04 #@! TO.N,+3V3*
X4000000Y17380000D03*
G04 #@! TO.P,J3,9*
G04 #@! TO.N,GND*
X4000000Y14840000D03*
G04 #@! TD*
D18*
G04 #@! TO.N,/BP35_TXD*
G04 #@! TO.C,R1*
G36*
X35576958Y12319290D02*
X35591276Y12317166D01*
X35605317Y12313649D01*
X35618946Y12308772D01*
X35632031Y12302583D01*
X35644447Y12295142D01*
X35656073Y12286519D01*
X35666798Y12276798D01*
X35676519Y12266073D01*
X35685142Y12254447D01*
X35692583Y12242031D01*
X35698772Y12228946D01*
X35703649Y12215317D01*
X35707166Y12201276D01*
X35709290Y12186958D01*
X35710000Y12172500D01*
X35710000Y11827500D01*
X35709290Y11813042D01*
X35707166Y11798724D01*
X35703649Y11784683D01*
X35698772Y11771054D01*
X35692583Y11757969D01*
X35685142Y11745553D01*
X35676519Y11733927D01*
X35666798Y11723202D01*
X35656073Y11713481D01*
X35644447Y11704858D01*
X35632031Y11697417D01*
X35618946Y11691228D01*
X35605317Y11686351D01*
X35591276Y11682834D01*
X35576958Y11680710D01*
X35562500Y11680000D01*
X35267500Y11680000D01*
X35253042Y11680710D01*
X35238724Y11682834D01*
X35224683Y11686351D01*
X35211054Y11691228D01*
X35197969Y11697417D01*
X35185553Y11704858D01*
X35173927Y11713481D01*
X35163202Y11723202D01*
X35153481Y11733927D01*
X35144858Y11745553D01*
X35137417Y11757969D01*
X35131228Y11771054D01*
X35126351Y11784683D01*
X35122834Y11798724D01*
X35120710Y11813042D01*
X35120000Y11827500D01*
X35120000Y12172500D01*
X35120710Y12186958D01*
X35122834Y12201276D01*
X35126351Y12215317D01*
X35131228Y12228946D01*
X35137417Y12242031D01*
X35144858Y12254447D01*
X35153481Y12266073D01*
X35163202Y12276798D01*
X35173927Y12286519D01*
X35185553Y12295142D01*
X35197969Y12302583D01*
X35211054Y12308772D01*
X35224683Y12313649D01*
X35238724Y12317166D01*
X35253042Y12319290D01*
X35267500Y12320000D01*
X35562500Y12320000D01*
X35576958Y12319290D01*
X35576958Y12319290D01*
G37*
D19*
G04 #@! TD*
G04 #@! TO.P,R1,2*
G04 #@! TO.N,/BP35_TXD*
X35415000Y12000000D03*
D18*
G04 #@! TO.N,/GPIO_G5*
G04 #@! TO.C,R1*
G36*
X36546958Y12319290D02*
X36561276Y12317166D01*
X36575317Y12313649D01*
X36588946Y12308772D01*
X36602031Y12302583D01*
X36614447Y12295142D01*
X36626073Y12286519D01*
X36636798Y12276798D01*
X36646519Y12266073D01*
X36655142Y12254447D01*
X36662583Y12242031D01*
X36668772Y12228946D01*
X36673649Y12215317D01*
X36677166Y12201276D01*
X36679290Y12186958D01*
X36680000Y12172500D01*
X36680000Y11827500D01*
X36679290Y11813042D01*
X36677166Y11798724D01*
X36673649Y11784683D01*
X36668772Y11771054D01*
X36662583Y11757969D01*
X36655142Y11745553D01*
X36646519Y11733927D01*
X36636798Y11723202D01*
X36626073Y11713481D01*
X36614447Y11704858D01*
X36602031Y11697417D01*
X36588946Y11691228D01*
X36575317Y11686351D01*
X36561276Y11682834D01*
X36546958Y11680710D01*
X36532500Y11680000D01*
X36237500Y11680000D01*
X36223042Y11680710D01*
X36208724Y11682834D01*
X36194683Y11686351D01*
X36181054Y11691228D01*
X36167969Y11697417D01*
X36155553Y11704858D01*
X36143927Y11713481D01*
X36133202Y11723202D01*
X36123481Y11733927D01*
X36114858Y11745553D01*
X36107417Y11757969D01*
X36101228Y11771054D01*
X36096351Y11784683D01*
X36092834Y11798724D01*
X36090710Y11813042D01*
X36090000Y11827500D01*
X36090000Y12172500D01*
X36090710Y12186958D01*
X36092834Y12201276D01*
X36096351Y12215317D01*
X36101228Y12228946D01*
X36107417Y12242031D01*
X36114858Y12254447D01*
X36123481Y12266073D01*
X36133202Y12276798D01*
X36143927Y12286519D01*
X36155553Y12295142D01*
X36167969Y12302583D01*
X36181054Y12308772D01*
X36194683Y12313649D01*
X36208724Y12317166D01*
X36223042Y12319290D01*
X36237500Y12320000D01*
X36532500Y12320000D01*
X36546958Y12319290D01*
X36546958Y12319290D01*
G37*
D19*
G04 #@! TD*
G04 #@! TO.P,R1,1*
G04 #@! TO.N,/GPIO_G5*
X36385000Y12000000D03*
D18*
G04 #@! TO.N,/BP35_TXD*
G04 #@! TO.C,R2*
G36*
X35576958Y11119290D02*
X35591276Y11117166D01*
X35605317Y11113649D01*
X35618946Y11108772D01*
X35632031Y11102583D01*
X35644447Y11095142D01*
X35656073Y11086519D01*
X35666798Y11076798D01*
X35676519Y11066073D01*
X35685142Y11054447D01*
X35692583Y11042031D01*
X35698772Y11028946D01*
X35703649Y11015317D01*
X35707166Y11001276D01*
X35709290Y10986958D01*
X35710000Y10972500D01*
X35710000Y10627500D01*
X35709290Y10613042D01*
X35707166Y10598724D01*
X35703649Y10584683D01*
X35698772Y10571054D01*
X35692583Y10557969D01*
X35685142Y10545553D01*
X35676519Y10533927D01*
X35666798Y10523202D01*
X35656073Y10513481D01*
X35644447Y10504858D01*
X35632031Y10497417D01*
X35618946Y10491228D01*
X35605317Y10486351D01*
X35591276Y10482834D01*
X35576958Y10480710D01*
X35562500Y10480000D01*
X35267500Y10480000D01*
X35253042Y10480710D01*
X35238724Y10482834D01*
X35224683Y10486351D01*
X35211054Y10491228D01*
X35197969Y10497417D01*
X35185553Y10504858D01*
X35173927Y10513481D01*
X35163202Y10523202D01*
X35153481Y10533927D01*
X35144858Y10545553D01*
X35137417Y10557969D01*
X35131228Y10571054D01*
X35126351Y10584683D01*
X35122834Y10598724D01*
X35120710Y10613042D01*
X35120000Y10627500D01*
X35120000Y10972500D01*
X35120710Y10986958D01*
X35122834Y11001276D01*
X35126351Y11015317D01*
X35131228Y11028946D01*
X35137417Y11042031D01*
X35144858Y11054447D01*
X35153481Y11066073D01*
X35163202Y11076798D01*
X35173927Y11086519D01*
X35185553Y11095142D01*
X35197969Y11102583D01*
X35211054Y11108772D01*
X35224683Y11113649D01*
X35238724Y11117166D01*
X35253042Y11119290D01*
X35267500Y11120000D01*
X35562500Y11120000D01*
X35576958Y11119290D01*
X35576958Y11119290D01*
G37*
D19*
G04 #@! TD*
G04 #@! TO.P,R2,2*
G04 #@! TO.N,/BP35_TXD*
X35415000Y10800000D03*
D18*
G04 #@! TO.N,/IIS_WS*
G04 #@! TO.C,R2*
G36*
X36546958Y11119290D02*
X36561276Y11117166D01*
X36575317Y11113649D01*
X36588946Y11108772D01*
X36602031Y11102583D01*
X36614447Y11095142D01*
X36626073Y11086519D01*
X36636798Y11076798D01*
X36646519Y11066073D01*
X36655142Y11054447D01*
X36662583Y11042031D01*
X36668772Y11028946D01*
X36673649Y11015317D01*
X36677166Y11001276D01*
X36679290Y10986958D01*
X36680000Y10972500D01*
X36680000Y10627500D01*
X36679290Y10613042D01*
X36677166Y10598724D01*
X36673649Y10584683D01*
X36668772Y10571054D01*
X36662583Y10557969D01*
X36655142Y10545553D01*
X36646519Y10533927D01*
X36636798Y10523202D01*
X36626073Y10513481D01*
X36614447Y10504858D01*
X36602031Y10497417D01*
X36588946Y10491228D01*
X36575317Y10486351D01*
X36561276Y10482834D01*
X36546958Y10480710D01*
X36532500Y10480000D01*
X36237500Y10480000D01*
X36223042Y10480710D01*
X36208724Y10482834D01*
X36194683Y10486351D01*
X36181054Y10491228D01*
X36167969Y10497417D01*
X36155553Y10504858D01*
X36143927Y10513481D01*
X36133202Y10523202D01*
X36123481Y10533927D01*
X36114858Y10545553D01*
X36107417Y10557969D01*
X36101228Y10571054D01*
X36096351Y10584683D01*
X36092834Y10598724D01*
X36090710Y10613042D01*
X36090000Y10627500D01*
X36090000Y10972500D01*
X36090710Y10986958D01*
X36092834Y11001276D01*
X36096351Y11015317D01*
X36101228Y11028946D01*
X36107417Y11042031D01*
X36114858Y11054447D01*
X36123481Y11066073D01*
X36133202Y11076798D01*
X36143927Y11086519D01*
X36155553Y11095142D01*
X36167969Y11102583D01*
X36181054Y11108772D01*
X36194683Y11113649D01*
X36208724Y11117166D01*
X36223042Y11119290D01*
X36237500Y11120000D01*
X36532500Y11120000D01*
X36546958Y11119290D01*
X36546958Y11119290D01*
G37*
D19*
G04 #@! TD*
G04 #@! TO.P,R2,1*
G04 #@! TO.N,/IIS_WS*
X36385000Y10800000D03*
D18*
G04 #@! TO.N,/AVR_RXD0*
G04 #@! TO.C,R3*
G36*
X32486958Y9994290D02*
X32501276Y9992166D01*
X32515317Y9988649D01*
X32528946Y9983772D01*
X32542031Y9977583D01*
X32554447Y9970142D01*
X32566073Y9961519D01*
X32576798Y9951798D01*
X32586519Y9941073D01*
X32595142Y9929447D01*
X32602583Y9917031D01*
X32608772Y9903946D01*
X32613649Y9890317D01*
X32617166Y9876276D01*
X32619290Y9861958D01*
X32620000Y9847500D01*
X32620000Y9552500D01*
X32619290Y9538042D01*
X32617166Y9523724D01*
X32613649Y9509683D01*
X32608772Y9496054D01*
X32602583Y9482969D01*
X32595142Y9470553D01*
X32586519Y9458927D01*
X32576798Y9448202D01*
X32566073Y9438481D01*
X32554447Y9429858D01*
X32542031Y9422417D01*
X32528946Y9416228D01*
X32515317Y9411351D01*
X32501276Y9407834D01*
X32486958Y9405710D01*
X32472500Y9405000D01*
X32127500Y9405000D01*
X32113042Y9405710D01*
X32098724Y9407834D01*
X32084683Y9411351D01*
X32071054Y9416228D01*
X32057969Y9422417D01*
X32045553Y9429858D01*
X32033927Y9438481D01*
X32023202Y9448202D01*
X32013481Y9458927D01*
X32004858Y9470553D01*
X31997417Y9482969D01*
X31991228Y9496054D01*
X31986351Y9509683D01*
X31982834Y9523724D01*
X31980710Y9538042D01*
X31980000Y9552500D01*
X31980000Y9847500D01*
X31980710Y9861958D01*
X31982834Y9876276D01*
X31986351Y9890317D01*
X31991228Y9903946D01*
X31997417Y9917031D01*
X32004858Y9929447D01*
X32013481Y9941073D01*
X32023202Y9951798D01*
X32033927Y9961519D01*
X32045553Y9970142D01*
X32057969Y9977583D01*
X32071054Y9983772D01*
X32084683Y9988649D01*
X32098724Y9992166D01*
X32113042Y9994290D01*
X32127500Y9995000D01*
X32472500Y9995000D01*
X32486958Y9994290D01*
X32486958Y9994290D01*
G37*
D19*
G04 #@! TD*
G04 #@! TO.P,R3,1*
G04 #@! TO.N,/AVR_RXD0*
X32300000Y9700000D03*
D18*
G04 #@! TO.N,/BP35_TXD*
G04 #@! TO.C,R3*
G36*
X32486958Y10964290D02*
X32501276Y10962166D01*
X32515317Y10958649D01*
X32528946Y10953772D01*
X32542031Y10947583D01*
X32554447Y10940142D01*
X32566073Y10931519D01*
X32576798Y10921798D01*
X32586519Y10911073D01*
X32595142Y10899447D01*
X32602583Y10887031D01*
X32608772Y10873946D01*
X32613649Y10860317D01*
X32617166Y10846276D01*
X32619290Y10831958D01*
X32620000Y10817500D01*
X32620000Y10522500D01*
X32619290Y10508042D01*
X32617166Y10493724D01*
X32613649Y10479683D01*
X32608772Y10466054D01*
X32602583Y10452969D01*
X32595142Y10440553D01*
X32586519Y10428927D01*
X32576798Y10418202D01*
X32566073Y10408481D01*
X32554447Y10399858D01*
X32542031Y10392417D01*
X32528946Y10386228D01*
X32515317Y10381351D01*
X32501276Y10377834D01*
X32486958Y10375710D01*
X32472500Y10375000D01*
X32127500Y10375000D01*
X32113042Y10375710D01*
X32098724Y10377834D01*
X32084683Y10381351D01*
X32071054Y10386228D01*
X32057969Y10392417D01*
X32045553Y10399858D01*
X32033927Y10408481D01*
X32023202Y10418202D01*
X32013481Y10428927D01*
X32004858Y10440553D01*
X31997417Y10452969D01*
X31991228Y10466054D01*
X31986351Y10479683D01*
X31982834Y10493724D01*
X31980710Y10508042D01*
X31980000Y10522500D01*
X31980000Y10817500D01*
X31980710Y10831958D01*
X31982834Y10846276D01*
X31986351Y10860317D01*
X31991228Y10873946D01*
X31997417Y10887031D01*
X32004858Y10899447D01*
X32013481Y10911073D01*
X32023202Y10921798D01*
X32033927Y10931519D01*
X32045553Y10940142D01*
X32057969Y10947583D01*
X32071054Y10953772D01*
X32084683Y10958649D01*
X32098724Y10962166D01*
X32113042Y10964290D01*
X32127500Y10965000D01*
X32472500Y10965000D01*
X32486958Y10964290D01*
X32486958Y10964290D01*
G37*
D19*
G04 #@! TD*
G04 #@! TO.P,R3,2*
G04 #@! TO.N,/BP35_TXD*
X32300000Y10670000D03*
D18*
G04 #@! TO.N,/BP35_RXD*
G04 #@! TO.C,R4*
G36*
X35576958Y14919290D02*
X35591276Y14917166D01*
X35605317Y14913649D01*
X35618946Y14908772D01*
X35632031Y14902583D01*
X35644447Y14895142D01*
X35656073Y14886519D01*
X35666798Y14876798D01*
X35676519Y14866073D01*
X35685142Y14854447D01*
X35692583Y14842031D01*
X35698772Y14828946D01*
X35703649Y14815317D01*
X35707166Y14801276D01*
X35709290Y14786958D01*
X35710000Y14772500D01*
X35710000Y14427500D01*
X35709290Y14413042D01*
X35707166Y14398724D01*
X35703649Y14384683D01*
X35698772Y14371054D01*
X35692583Y14357969D01*
X35685142Y14345553D01*
X35676519Y14333927D01*
X35666798Y14323202D01*
X35656073Y14313481D01*
X35644447Y14304858D01*
X35632031Y14297417D01*
X35618946Y14291228D01*
X35605317Y14286351D01*
X35591276Y14282834D01*
X35576958Y14280710D01*
X35562500Y14280000D01*
X35267500Y14280000D01*
X35253042Y14280710D01*
X35238724Y14282834D01*
X35224683Y14286351D01*
X35211054Y14291228D01*
X35197969Y14297417D01*
X35185553Y14304858D01*
X35173927Y14313481D01*
X35163202Y14323202D01*
X35153481Y14333927D01*
X35144858Y14345553D01*
X35137417Y14357969D01*
X35131228Y14371054D01*
X35126351Y14384683D01*
X35122834Y14398724D01*
X35120710Y14413042D01*
X35120000Y14427500D01*
X35120000Y14772500D01*
X35120710Y14786958D01*
X35122834Y14801276D01*
X35126351Y14815317D01*
X35131228Y14828946D01*
X35137417Y14842031D01*
X35144858Y14854447D01*
X35153481Y14866073D01*
X35163202Y14876798D01*
X35173927Y14886519D01*
X35185553Y14895142D01*
X35197969Y14902583D01*
X35211054Y14908772D01*
X35224683Y14913649D01*
X35238724Y14917166D01*
X35253042Y14919290D01*
X35267500Y14920000D01*
X35562500Y14920000D01*
X35576958Y14919290D01*
X35576958Y14919290D01*
G37*
D19*
G04 #@! TD*
G04 #@! TO.P,R4,2*
G04 #@! TO.N,/BP35_RXD*
X35415000Y14600000D03*
D18*
G04 #@! TO.N,/GPIO_G2*
G04 #@! TO.C,R4*
G36*
X36546958Y14919290D02*
X36561276Y14917166D01*
X36575317Y14913649D01*
X36588946Y14908772D01*
X36602031Y14902583D01*
X36614447Y14895142D01*
X36626073Y14886519D01*
X36636798Y14876798D01*
X36646519Y14866073D01*
X36655142Y14854447D01*
X36662583Y14842031D01*
X36668772Y14828946D01*
X36673649Y14815317D01*
X36677166Y14801276D01*
X36679290Y14786958D01*
X36680000Y14772500D01*
X36680000Y14427500D01*
X36679290Y14413042D01*
X36677166Y14398724D01*
X36673649Y14384683D01*
X36668772Y14371054D01*
X36662583Y14357969D01*
X36655142Y14345553D01*
X36646519Y14333927D01*
X36636798Y14323202D01*
X36626073Y14313481D01*
X36614447Y14304858D01*
X36602031Y14297417D01*
X36588946Y14291228D01*
X36575317Y14286351D01*
X36561276Y14282834D01*
X36546958Y14280710D01*
X36532500Y14280000D01*
X36237500Y14280000D01*
X36223042Y14280710D01*
X36208724Y14282834D01*
X36194683Y14286351D01*
X36181054Y14291228D01*
X36167969Y14297417D01*
X36155553Y14304858D01*
X36143927Y14313481D01*
X36133202Y14323202D01*
X36123481Y14333927D01*
X36114858Y14345553D01*
X36107417Y14357969D01*
X36101228Y14371054D01*
X36096351Y14384683D01*
X36092834Y14398724D01*
X36090710Y14413042D01*
X36090000Y14427500D01*
X36090000Y14772500D01*
X36090710Y14786958D01*
X36092834Y14801276D01*
X36096351Y14815317D01*
X36101228Y14828946D01*
X36107417Y14842031D01*
X36114858Y14854447D01*
X36123481Y14866073D01*
X36133202Y14876798D01*
X36143927Y14886519D01*
X36155553Y14895142D01*
X36167969Y14902583D01*
X36181054Y14908772D01*
X36194683Y14913649D01*
X36208724Y14917166D01*
X36223042Y14919290D01*
X36237500Y14920000D01*
X36532500Y14920000D01*
X36546958Y14919290D01*
X36546958Y14919290D01*
G37*
D19*
G04 #@! TD*
G04 #@! TO.P,R4,1*
G04 #@! TO.N,/GPIO_G2*
X36385000Y14600000D03*
D18*
G04 #@! TO.N,/IIS_SK*
G04 #@! TO.C,R5*
G36*
X36546958Y13719290D02*
X36561276Y13717166D01*
X36575317Y13713649D01*
X36588946Y13708772D01*
X36602031Y13702583D01*
X36614447Y13695142D01*
X36626073Y13686519D01*
X36636798Y13676798D01*
X36646519Y13666073D01*
X36655142Y13654447D01*
X36662583Y13642031D01*
X36668772Y13628946D01*
X36673649Y13615317D01*
X36677166Y13601276D01*
X36679290Y13586958D01*
X36680000Y13572500D01*
X36680000Y13227500D01*
X36679290Y13213042D01*
X36677166Y13198724D01*
X36673649Y13184683D01*
X36668772Y13171054D01*
X36662583Y13157969D01*
X36655142Y13145553D01*
X36646519Y13133927D01*
X36636798Y13123202D01*
X36626073Y13113481D01*
X36614447Y13104858D01*
X36602031Y13097417D01*
X36588946Y13091228D01*
X36575317Y13086351D01*
X36561276Y13082834D01*
X36546958Y13080710D01*
X36532500Y13080000D01*
X36237500Y13080000D01*
X36223042Y13080710D01*
X36208724Y13082834D01*
X36194683Y13086351D01*
X36181054Y13091228D01*
X36167969Y13097417D01*
X36155553Y13104858D01*
X36143927Y13113481D01*
X36133202Y13123202D01*
X36123481Y13133927D01*
X36114858Y13145553D01*
X36107417Y13157969D01*
X36101228Y13171054D01*
X36096351Y13184683D01*
X36092834Y13198724D01*
X36090710Y13213042D01*
X36090000Y13227500D01*
X36090000Y13572500D01*
X36090710Y13586958D01*
X36092834Y13601276D01*
X36096351Y13615317D01*
X36101228Y13628946D01*
X36107417Y13642031D01*
X36114858Y13654447D01*
X36123481Y13666073D01*
X36133202Y13676798D01*
X36143927Y13686519D01*
X36155553Y13695142D01*
X36167969Y13702583D01*
X36181054Y13708772D01*
X36194683Y13713649D01*
X36208724Y13717166D01*
X36223042Y13719290D01*
X36237500Y13720000D01*
X36532500Y13720000D01*
X36546958Y13719290D01*
X36546958Y13719290D01*
G37*
D19*
G04 #@! TD*
G04 #@! TO.P,R5,1*
G04 #@! TO.N,/IIS_SK*
X36385000Y13400000D03*
D18*
G04 #@! TO.N,/BP35_RXD*
G04 #@! TO.C,R5*
G36*
X35576958Y13719290D02*
X35591276Y13717166D01*
X35605317Y13713649D01*
X35618946Y13708772D01*
X35632031Y13702583D01*
X35644447Y13695142D01*
X35656073Y13686519D01*
X35666798Y13676798D01*
X35676519Y13666073D01*
X35685142Y13654447D01*
X35692583Y13642031D01*
X35698772Y13628946D01*
X35703649Y13615317D01*
X35707166Y13601276D01*
X35709290Y13586958D01*
X35710000Y13572500D01*
X35710000Y13227500D01*
X35709290Y13213042D01*
X35707166Y13198724D01*
X35703649Y13184683D01*
X35698772Y13171054D01*
X35692583Y13157969D01*
X35685142Y13145553D01*
X35676519Y13133927D01*
X35666798Y13123202D01*
X35656073Y13113481D01*
X35644447Y13104858D01*
X35632031Y13097417D01*
X35618946Y13091228D01*
X35605317Y13086351D01*
X35591276Y13082834D01*
X35576958Y13080710D01*
X35562500Y13080000D01*
X35267500Y13080000D01*
X35253042Y13080710D01*
X35238724Y13082834D01*
X35224683Y13086351D01*
X35211054Y13091228D01*
X35197969Y13097417D01*
X35185553Y13104858D01*
X35173927Y13113481D01*
X35163202Y13123202D01*
X35153481Y13133927D01*
X35144858Y13145553D01*
X35137417Y13157969D01*
X35131228Y13171054D01*
X35126351Y13184683D01*
X35122834Y13198724D01*
X35120710Y13213042D01*
X35120000Y13227500D01*
X35120000Y13572500D01*
X35120710Y13586958D01*
X35122834Y13601276D01*
X35126351Y13615317D01*
X35131228Y13628946D01*
X35137417Y13642031D01*
X35144858Y13654447D01*
X35153481Y13666073D01*
X35163202Y13676798D01*
X35173927Y13686519D01*
X35185553Y13695142D01*
X35197969Y13702583D01*
X35211054Y13708772D01*
X35224683Y13713649D01*
X35238724Y13717166D01*
X35253042Y13719290D01*
X35267500Y13720000D01*
X35562500Y13720000D01*
X35576958Y13719290D01*
X35576958Y13719290D01*
G37*
D19*
G04 #@! TD*
G04 #@! TO.P,R5,2*
G04 #@! TO.N,/BP35_RXD*
X35415000Y13400000D03*
D18*
G04 #@! TO.N,/AVR_TXD0*
G04 #@! TO.C,R6*
G36*
X31286958Y9994290D02*
X31301276Y9992166D01*
X31315317Y9988649D01*
X31328946Y9983772D01*
X31342031Y9977583D01*
X31354447Y9970142D01*
X31366073Y9961519D01*
X31376798Y9951798D01*
X31386519Y9941073D01*
X31395142Y9929447D01*
X31402583Y9917031D01*
X31408772Y9903946D01*
X31413649Y9890317D01*
X31417166Y9876276D01*
X31419290Y9861958D01*
X31420000Y9847500D01*
X31420000Y9552500D01*
X31419290Y9538042D01*
X31417166Y9523724D01*
X31413649Y9509683D01*
X31408772Y9496054D01*
X31402583Y9482969D01*
X31395142Y9470553D01*
X31386519Y9458927D01*
X31376798Y9448202D01*
X31366073Y9438481D01*
X31354447Y9429858D01*
X31342031Y9422417D01*
X31328946Y9416228D01*
X31315317Y9411351D01*
X31301276Y9407834D01*
X31286958Y9405710D01*
X31272500Y9405000D01*
X30927500Y9405000D01*
X30913042Y9405710D01*
X30898724Y9407834D01*
X30884683Y9411351D01*
X30871054Y9416228D01*
X30857969Y9422417D01*
X30845553Y9429858D01*
X30833927Y9438481D01*
X30823202Y9448202D01*
X30813481Y9458927D01*
X30804858Y9470553D01*
X30797417Y9482969D01*
X30791228Y9496054D01*
X30786351Y9509683D01*
X30782834Y9523724D01*
X30780710Y9538042D01*
X30780000Y9552500D01*
X30780000Y9847500D01*
X30780710Y9861958D01*
X30782834Y9876276D01*
X30786351Y9890317D01*
X30791228Y9903946D01*
X30797417Y9917031D01*
X30804858Y9929447D01*
X30813481Y9941073D01*
X30823202Y9951798D01*
X30833927Y9961519D01*
X30845553Y9970142D01*
X30857969Y9977583D01*
X30871054Y9983772D01*
X30884683Y9988649D01*
X30898724Y9992166D01*
X30913042Y9994290D01*
X30927500Y9995000D01*
X31272500Y9995000D01*
X31286958Y9994290D01*
X31286958Y9994290D01*
G37*
D19*
G04 #@! TD*
G04 #@! TO.P,R6,1*
G04 #@! TO.N,/AVR_TXD0*
X31100000Y9700000D03*
D18*
G04 #@! TO.N,/BP35_RXD*
G04 #@! TO.C,R6*
G36*
X31286958Y10964290D02*
X31301276Y10962166D01*
X31315317Y10958649D01*
X31328946Y10953772D01*
X31342031Y10947583D01*
X31354447Y10940142D01*
X31366073Y10931519D01*
X31376798Y10921798D01*
X31386519Y10911073D01*
X31395142Y10899447D01*
X31402583Y10887031D01*
X31408772Y10873946D01*
X31413649Y10860317D01*
X31417166Y10846276D01*
X31419290Y10831958D01*
X31420000Y10817500D01*
X31420000Y10522500D01*
X31419290Y10508042D01*
X31417166Y10493724D01*
X31413649Y10479683D01*
X31408772Y10466054D01*
X31402583Y10452969D01*
X31395142Y10440553D01*
X31386519Y10428927D01*
X31376798Y10418202D01*
X31366073Y10408481D01*
X31354447Y10399858D01*
X31342031Y10392417D01*
X31328946Y10386228D01*
X31315317Y10381351D01*
X31301276Y10377834D01*
X31286958Y10375710D01*
X31272500Y10375000D01*
X30927500Y10375000D01*
X30913042Y10375710D01*
X30898724Y10377834D01*
X30884683Y10381351D01*
X30871054Y10386228D01*
X30857969Y10392417D01*
X30845553Y10399858D01*
X30833927Y10408481D01*
X30823202Y10418202D01*
X30813481Y10428927D01*
X30804858Y10440553D01*
X30797417Y10452969D01*
X30791228Y10466054D01*
X30786351Y10479683D01*
X30782834Y10493724D01*
X30780710Y10508042D01*
X30780000Y10522500D01*
X30780000Y10817500D01*
X30780710Y10831958D01*
X30782834Y10846276D01*
X30786351Y10860317D01*
X30791228Y10873946D01*
X30797417Y10887031D01*
X30804858Y10899447D01*
X30813481Y10911073D01*
X30823202Y10921798D01*
X30833927Y10931519D01*
X30845553Y10940142D01*
X30857969Y10947583D01*
X30871054Y10953772D01*
X30884683Y10958649D01*
X30898724Y10962166D01*
X30913042Y10964290D01*
X30927500Y10965000D01*
X31272500Y10965000D01*
X31286958Y10964290D01*
X31286958Y10964290D01*
G37*
D19*
G04 #@! TD*
G04 #@! TO.P,R6,2*
G04 #@! TO.N,/BP35_RXD*
X31100000Y10670000D03*
D16*
G04 #@! TO.P,J4,1*
G04 #@! TO.N,/AVR_MISO*
X12050000Y8550000D03*
D17*
G04 #@! TO.P,J4,2*
G04 #@! TO.N,+3V3*
X14590000Y8550000D03*
G04 #@! TO.P,J4,3*
G04 #@! TO.N,/AVR_SCK*
X12050000Y6010000D03*
G04 #@! TO.P,J4,4*
G04 #@! TO.N,/AVR_MOSI*
X14590000Y6010000D03*
G04 #@! TO.P,J4,5*
G04 #@! TO.N,/AVR_RESET*
X12050000Y3470000D03*
G04 #@! TO.P,J4,6*
G04 #@! TO.N,GND*
X14590000Y3470000D03*
G04 #@! TD*
D20*
G04 #@! TO.N,Net-(C1-Pad1)*
X24500000Y4400000D03*
G04 #@! TO.N,GND*
X44050000Y42780000D03*
X44050000Y40240000D03*
X44050000Y37700000D03*
X23500000Y22050000D03*
X27000000Y22050000D03*
X23250000Y15900000D03*
X25500000Y4400000D03*
X26500000Y10600000D03*
X24500000Y10600000D03*
X24600000Y13200000D03*
X26200000Y13200000D03*
X27000000Y15900000D03*
X26000000Y15900000D03*
X8500000Y17700000D03*
X5700000Y16200000D03*
X6600000Y16200000D03*
X5700000Y13400000D03*
X5100000Y12500000D03*
X10400000Y7200000D03*
X10500000Y10100000D03*
X12500000Y10100000D03*
X15900000Y9900000D03*
X17600000Y9000000D03*
X17600000Y11300000D03*
X11300000Y17700000D03*
X7500000Y10100000D03*
X2600000Y12700000D03*
X10700000Y4400000D03*
X9500000Y5600000D03*
X1000000Y10100000D03*
X1000000Y6200000D03*
X1000000Y8100000D03*
X3000000Y8100000D03*
X5200000Y23700000D03*
X8100000Y23300000D03*
X5200000Y26300000D03*
X5200000Y28800000D03*
X5200000Y31400000D03*
X5700000Y36100000D03*
X6500000Y35300000D03*
X7000000Y31100000D03*
X7000000Y26900000D03*
X14600000Y19300000D03*
X13000000Y49000000D03*
X13000000Y47000000D03*
X13000000Y45000000D03*
X13000000Y43000000D03*
X13000000Y41000000D03*
X13000000Y39000000D03*
X13000000Y37000000D03*
X37000000Y49000000D03*
X37000000Y47000000D03*
X37000000Y45000000D03*
X37000000Y43000000D03*
X37000000Y41000000D03*
X37000000Y39000000D03*
X37000000Y37000000D03*
X15000000Y36000000D03*
X17000000Y36000000D03*
X19000000Y36000000D03*
X21000000Y36000000D03*
X23000000Y36000000D03*
X25000000Y36000000D03*
X27000000Y36000000D03*
X29000000Y36000000D03*
X31000000Y36000000D03*
X33000000Y36000000D03*
X35000000Y36000000D03*
X7000000Y49000000D03*
X7000000Y47000000D03*
X7000000Y45000000D03*
X7000000Y43000000D03*
X1000000Y43000000D03*
X3000000Y43000000D03*
X5000000Y43000000D03*
X44000000Y49000000D03*
X44000000Y47000000D03*
X44000000Y45000000D03*
X39000000Y45000000D03*
X39000000Y47000000D03*
X39000000Y49000000D03*
X42000000Y49000000D03*
X42000000Y47000000D03*
X42000000Y45000000D03*
X1000000Y41000000D03*
X1000000Y39000000D03*
X1000000Y37000000D03*
X1000000Y35000000D03*
X1000000Y33000000D03*
X1000000Y31000000D03*
X7000000Y33000000D03*
X7000000Y29000000D03*
X13000000Y21000000D03*
X11000000Y23000000D03*
X9000000Y25000000D03*
X7000000Y37000000D03*
X9000000Y49000000D03*
X11000000Y49000000D03*
X3000000Y37000000D03*
X10000000Y40000000D03*
X10000000Y46000000D03*
X10000000Y34000000D03*
X10000000Y28000000D03*
X13000000Y31000000D03*
X17000000Y31000000D03*
X21000000Y31000000D03*
X25000000Y31000000D03*
X29000000Y31000000D03*
X33000000Y31000000D03*
X37000000Y31000000D03*
X15000000Y27000000D03*
X19000000Y27000000D03*
X23000000Y27000000D03*
X27000000Y27000000D03*
X31000000Y27000000D03*
X13000000Y23000000D03*
X17000000Y23000000D03*
X29000000Y23000000D03*
X33000000Y23000000D03*
X37000000Y23000000D03*
X30000000Y1000000D03*
X33000000Y1000000D03*
X37000000Y1000000D03*
X40000000Y1000000D03*
X43500000Y6100000D03*
X37900000Y6600000D03*
X32100000Y5500000D03*
X32500000Y8100000D03*
X35600000Y8100000D03*
X33200000Y11600000D03*
X33200000Y13800000D03*
X34400000Y13800000D03*
X34400000Y11700000D03*
X28000000Y15000000D03*
X29000000Y14000000D03*
X30000000Y13000000D03*
X23300000Y13300000D03*
X33400000Y9800000D03*
X37600000Y10800000D03*
X35900000Y9700000D03*
X48600000Y6100000D03*
X40100000Y5900000D03*
X36100000Y5500000D03*
X9000000Y13700000D03*
X5400000Y21100000D03*
X9100000Y21700000D03*
X10200000Y20700000D03*
X25400000Y8000000D03*
X27800000Y9400000D03*
X26700000Y6700000D03*
X27700000Y6700000D03*
X19400000Y3700000D03*
X49100000Y42800000D03*
X49100000Y40200000D03*
X49100000Y37700000D03*
G04 #@! TO.N,Net-(C2-Pad1)*
X23000000Y4700000D03*
G04 #@! TO.N,+3V3*
X39200000Y30050000D03*
X22400000Y24400000D03*
X22100000Y17050000D03*
X22400000Y22050000D03*
X25500000Y10600000D03*
X23500000Y10600000D03*
X35100000Y27000000D03*
G04 #@! TO.N,/HPWR*
X44050000Y12300000D03*
X44050000Y9760000D03*
X44050000Y7220000D03*
G04 #@! TO.N,/BATTERY*
X38970000Y7220000D03*
G04 #@! TO.N,+5V*
X41525000Y8505000D03*
G04 #@! TO.N,/IIS_IN*
X41510000Y11030000D03*
G04 #@! TO.N,/IIS_OUT*
X46590000Y13570000D03*
G04 #@! TO.N,/IIS_MK*
X41500000Y15830000D03*
G04 #@! TO.N,/IIS_SK*
X46600000Y16100000D03*
X38200000Y15800000D03*
G04 #@! TO.N,/IIS_WS*
X38970000Y17380000D03*
G04 #@! TO.N,/GPIO_G2*
X46600000Y18700000D03*
X37700000Y18700000D03*
G04 #@! TO.N,/GPIO_G5*
X38970000Y19920000D03*
G04 #@! TO.N,/SDA*
X44050000Y22460000D03*
G04 #@! TO.N,/SCL*
X38970000Y22460000D03*
G04 #@! TO.N,/RXD2*
X44050000Y25000000D03*
G04 #@! TO.N,/TXD2*
X38970000Y25000000D03*
G04 #@! TO.N,/RXD0*
X44050000Y27540000D03*
G04 #@! TO.N,/TXD0*
X38970000Y27540000D03*
G04 #@! TO.N,/SCK*
X44050000Y30080000D03*
G04 #@! TO.N,/MISO*
X44050000Y32620000D03*
G04 #@! TO.N,/DAC*
X38970000Y32620000D03*
G04 #@! TO.N,/MOSI*
X44050000Y35160000D03*
G04 #@! TO.N,/DAC_SPK*
X38970000Y35160000D03*
G04 #@! TO.N,/RST*
X38970000Y37700000D03*
G04 #@! TO.N,/ADC_G36*
X38970000Y40240000D03*
G04 #@! TO.N,/ADC_G35*
X38970000Y42780000D03*
G04 #@! TO.N,/AVR_RESET*
X31200000Y8000000D03*
X27900000Y1600000D03*
G04 #@! TO.N,/AVR_MOSI*
X19050000Y5600000D03*
G04 #@! TO.N,/AVR_ADC3*
X20700000Y13800000D03*
G04 #@! TO.N,/AVR_ADC1*
X16707600Y2616800D03*
G04 #@! TO.N,/AVR_ADC0*
X25311600Y2125010D03*
G04 #@! TO.N,/AVR_PB1*
X21950012Y8924682D03*
G04 #@! TO.N,/AVR_PD4*
X22515960Y10409360D03*
G04 #@! TO.N,/BP35_RXD*
X32600000Y15500000D03*
X31100000Y14535000D03*
G04 #@! TO.N,/BP35_WKUP*
X26600000Y14900000D03*
X25200000Y14200000D03*
G04 #@! TO.N,/AVR_PD5*
X19900000Y11850000D03*
G04 #@! TD*
D21*
G04 #@! TO.N,Net-(C1-Pad1)*
X24600000Y3350000D02*
X24600000Y4300000D01*
X24600000Y4300000D02*
X24500000Y4400000D01*
D22*
G04 #@! TO.N,GND*
X46575000Y42780000D02*
X44050000Y42780000D01*
X44050000Y40240000D02*
X46575000Y40240000D01*
X46575000Y37700000D02*
X44050000Y37700000D01*
D23*
X23250000Y20950000D02*
X23250000Y21800000D01*
X23250000Y21800000D02*
X23500000Y22050000D01*
X23750000Y20950000D02*
X23750000Y21800000D01*
X23750000Y21800000D02*
X23500000Y22050000D01*
X26750000Y20950000D02*
X26750000Y21800000D01*
X26750000Y21800000D02*
X27000000Y22050000D01*
X27250000Y20950000D02*
X27250000Y21800000D01*
X27250000Y21800000D02*
X27000000Y22050000D01*
X23250000Y17050000D02*
X23250000Y15900000D01*
D21*
X25400000Y3350000D02*
X25400000Y4300000D01*
X25400000Y4300000D02*
X25500000Y4400000D01*
X26200000Y11850000D02*
X26200000Y10900000D01*
X26200000Y10900000D02*
X26500000Y10600000D01*
X24600000Y11850000D02*
X24600000Y10700000D01*
X24600000Y10700000D02*
X24500000Y10600000D01*
X24600000Y11850000D02*
X24600000Y13200000D01*
X26200000Y11850000D02*
X26200000Y13200000D01*
D23*
X27250000Y17050000D02*
X27250000Y16150000D01*
X27250000Y16150000D02*
X27000000Y15900000D01*
X26750000Y17050000D02*
X26750000Y16150000D01*
X26750000Y16150000D02*
X27000000Y15900000D01*
X26250000Y17050000D02*
X26250000Y16150000D01*
X26250000Y16150000D02*
X26000000Y15900000D01*
X25750000Y17050000D02*
X25750000Y16150000D01*
X25750000Y16150000D02*
X26000000Y15900000D01*
D21*
G04 #@! TO.N,Net-(C2-Pad1)*
X23000000Y3350000D02*
X23000000Y4700000D01*
D24*
G04 #@! TO.N,+3V3*
X39200000Y30050000D02*
X41495000Y30050000D01*
X41495000Y30050000D02*
X41525000Y30080000D01*
X22400000Y24400000D02*
X22800000Y24800000D01*
X22800000Y24800000D02*
X32900000Y24800000D01*
X32900000Y24800000D02*
X35100000Y27000000D01*
X38150000Y30050000D02*
X39200000Y30050000D01*
X14590000Y8550000D02*
X14590000Y9752100D01*
X14590000Y9752100D02*
X6962100Y17380000D01*
X6962100Y17380000D02*
X4000000Y17380000D01*
D23*
X22750000Y17050000D02*
X22100000Y17050000D01*
X22750000Y20950000D02*
X22750000Y21700000D01*
X22750000Y21700000D02*
X22400000Y22050000D01*
D21*
X25400000Y11850000D02*
X25400000Y10700000D01*
X25400000Y10700000D02*
X25500000Y10600000D01*
X23800000Y11850000D02*
X23800000Y10900000D01*
X23800000Y10900000D02*
X23500000Y10600000D01*
D24*
X35100000Y27000000D02*
X38150000Y30050000D01*
D25*
G04 #@! TO.N,/HPWR*
X46575000Y9760000D02*
X46575000Y7220000D01*
X46575000Y9760000D02*
X46575000Y12300000D01*
D22*
X44050000Y12300000D02*
X46575000Y12300000D01*
X46575000Y9760000D02*
X44050000Y9760000D01*
X44050000Y7220000D02*
X46575000Y7220000D01*
G04 #@! TO.N,/BATTERY*
X41525000Y7220000D02*
X38970000Y7220000D01*
G04 #@! TO.N,+5V*
X41525000Y8505000D02*
X41525000Y9760000D01*
G04 #@! TO.N,/IIS_IN*
X41525000Y12300000D02*
X41525000Y11045000D01*
X41525000Y11045000D02*
X41510000Y11030000D01*
G04 #@! TO.N,/IIS_OUT*
X46575000Y14840000D02*
X46575000Y13585000D01*
X46575000Y13585000D02*
X46590000Y13570000D01*
D21*
G04 #@! TO.N,/IIS_MK*
X41525000Y14840000D02*
X41525000Y15805000D01*
X41525000Y15805000D02*
X41500000Y15830000D01*
G04 #@! TO.N,/IIS_SK*
X46600000Y16100000D02*
X46600000Y17355000D01*
X46600000Y17355000D02*
X46575000Y17380000D01*
X36385000Y13400000D02*
X38200000Y15215000D01*
X38200000Y15215000D02*
X38200000Y15800000D01*
G04 #@! TO.N,/IIS_WS*
X40450000Y17380000D02*
X41525000Y17380000D01*
X38970000Y17380000D02*
X40450000Y17380000D01*
X36385000Y10800000D02*
X38050000Y12465000D01*
X38050000Y12465000D02*
X38050000Y13086400D01*
X38050000Y13086400D02*
X39625000Y14661400D01*
X39625000Y14661400D02*
X39625000Y16555000D01*
X39625000Y16555000D02*
X40450000Y17380000D01*
X40450000Y17380000D02*
X41525000Y17380000D01*
G04 #@! TO.N,/GPIO_G2*
X36385000Y14600000D02*
X36385000Y16893300D01*
X46600000Y18700000D02*
X46600000Y19895000D01*
X46600000Y19895000D02*
X46575000Y19920000D01*
X36385000Y17950685D02*
X36385000Y16893300D01*
X37134315Y18700000D02*
X36385000Y17950685D01*
X37700000Y18700000D02*
X37134315Y18700000D01*
G04 #@! TO.N,/GPIO_G5*
X40450000Y19920000D02*
X38970000Y19920000D01*
X41525000Y19920000D02*
X40450000Y19920000D01*
X36385000Y12000000D02*
X36719200Y12334200D01*
X36719200Y12334200D02*
X36719200Y12392000D01*
X36719200Y12392000D02*
X38970000Y14642800D01*
X38970000Y14642800D02*
X38970000Y16307000D01*
X38970000Y16307000D02*
X38245000Y17032000D01*
X38245000Y17032000D02*
X38245000Y17728000D01*
X38245000Y17728000D02*
X38970000Y18453000D01*
X38970000Y18453000D02*
X38970000Y19920000D01*
X40450000Y19920000D02*
X41525000Y19920000D01*
D22*
G04 #@! TO.N,/SDA*
X44050000Y22460000D02*
X46575000Y22460000D01*
X46590000Y22445000D02*
X46575000Y22460000D01*
D21*
X46575000Y22460000D02*
X45500000Y22460000D01*
X45500000Y22460000D02*
X44500000Y21460000D01*
X44500000Y21460000D02*
X44500000Y14518600D01*
X44500000Y14518600D02*
X43106400Y13125000D01*
X43106400Y13125000D02*
X39761400Y13125000D01*
X39761400Y13125000D02*
X39150000Y12513600D01*
X39150000Y12513600D02*
X39150000Y9150000D01*
X39150000Y9150000D02*
X36400000Y6400000D01*
X36400000Y6400000D02*
X29250000Y6400000D01*
D22*
G04 #@! TO.N,/SCL*
X41525000Y22460000D02*
X38970000Y22460000D01*
D21*
X29250000Y7200000D02*
X35900000Y7200000D01*
X35900000Y7200000D02*
X38500000Y9800000D01*
X38500000Y9800000D02*
X38500000Y12500000D01*
X38500000Y12500000D02*
X40015000Y14015000D01*
X40015000Y14015000D02*
X43360000Y14015000D01*
X43360000Y14015000D02*
X43900000Y14555000D01*
X43900000Y14555000D02*
X43900000Y21160000D01*
X43900000Y21160000D02*
X42600000Y22460000D01*
X42600000Y22460000D02*
X41525000Y22460000D01*
D22*
G04 #@! TO.N,/RXD2*
X46575000Y25000000D02*
X44050000Y25000000D01*
G04 #@! TO.N,/TXD2*
X38970000Y25000000D02*
X41525000Y25000000D01*
X41510000Y24985000D02*
X41525000Y25000000D01*
G04 #@! TO.N,/RXD0*
X46575000Y27540000D02*
X44050000Y27540000D01*
G04 #@! TO.N,/TXD0*
X38970000Y27540000D02*
X41525000Y27540000D01*
X41510000Y27525000D02*
X41525000Y27540000D01*
G04 #@! TO.N,/SCK*
X44050000Y30080000D02*
X46575000Y30080000D01*
G04 #@! TO.N,/MISO*
X46575000Y32620000D02*
X44050000Y32620000D01*
G04 #@! TO.N,/DAC*
X38970000Y32620000D02*
X41525000Y32620000D01*
G04 #@! TO.N,/MOSI*
X46575000Y35160000D02*
X44050000Y35160000D01*
G04 #@! TO.N,/DAC_SPK*
X38970000Y35160000D02*
X41525000Y35160000D01*
X41510000Y35145000D02*
X41525000Y35160000D01*
G04 #@! TO.N,/RST*
X41525000Y37700000D02*
X38970000Y37700000D01*
G04 #@! TO.N,/ADC_G36*
X38970000Y40240000D02*
X41525000Y40240000D01*
G04 #@! TO.N,/ADC_G35*
X41525000Y42780000D02*
X38970000Y42780000D01*
D21*
G04 #@! TO.N,/AVR_RESET*
X29250000Y8000000D02*
X31200000Y8000000D01*
X12050000Y2267919D02*
X12050000Y3470000D01*
X13067929Y1249990D02*
X12050000Y2267919D01*
X26984305Y1249990D02*
X13067929Y1249990D01*
X27334315Y1600000D02*
X26984305Y1249990D01*
X27900000Y1600000D02*
X27334315Y1600000D01*
G04 #@! TO.N,/AVR_MOSI*
X20750000Y5600000D02*
X19050000Y5600000D01*
G04 #@! TO.N,/AVR_SCK*
X22200000Y3350000D02*
X22200000Y2500000D01*
X22200000Y2500000D02*
X21400000Y1700000D01*
X21400000Y1700000D02*
X14100000Y1700000D01*
X14100000Y1700000D02*
X13225000Y2575000D01*
X13225000Y2575000D02*
X13225000Y4835000D01*
X13225000Y4835000D02*
X12050000Y6010000D01*
G04 #@! TO.N,/AVR_MISO*
X20750000Y4800000D02*
X17539000Y4800000D01*
X17539000Y4800000D02*
X15154000Y7185000D01*
X15154000Y7185000D02*
X12315000Y7185000D01*
X12315000Y7185000D02*
X12050000Y7450000D01*
X12050000Y7450000D02*
X12050000Y8550000D01*
G04 #@! TO.N,/AVR_ADC3*
X29250000Y5600000D02*
X26300000Y5600000D01*
X21675001Y10960001D02*
X20700000Y11935002D01*
X21675001Y10224999D02*
X21675001Y10960001D01*
X20700000Y11935002D02*
X20700000Y13800000D01*
X26300000Y5600000D02*
X21675001Y10224999D01*
G04 #@! TO.N,/AVR_ADC2*
X1300000Y29920000D02*
X4000000Y32620000D01*
X1300000Y11031002D02*
X1300000Y29920000D01*
X11631002Y700000D02*
X1300000Y11031002D01*
X28073002Y700000D02*
X11631002Y700000D01*
X29250000Y4800000D02*
X29250000Y1876998D01*
X29250000Y1876998D02*
X28073002Y700000D01*
G04 #@! TO.N,/AVR_ADC1*
X26850011Y5149989D02*
X27800000Y4200000D01*
X27800000Y4200000D02*
X27800000Y3350000D01*
X21815700Y4449900D02*
X21815700Y4571800D01*
X25838090Y5425500D02*
X26113600Y5149989D01*
X26113600Y5149989D02*
X26850011Y5149989D01*
X22669400Y5425500D02*
X25838090Y5425500D01*
X16707600Y2616800D02*
X19982600Y2616800D01*
X21815700Y4571800D02*
X22669400Y5425500D01*
X19982600Y2616800D02*
X21815700Y4449900D01*
G04 #@! TO.N,/AVR_ADC0*
X25877285Y2125010D02*
X25311600Y2125010D01*
X26625010Y2125010D02*
X25877285Y2125010D01*
X27000000Y3350000D02*
X27000000Y2500000D01*
X27000000Y2500000D02*
X26625010Y2125010D01*
G04 #@! TO.N,/AVR_PB1*
X20750000Y7200000D02*
X21600000Y7200000D01*
X21600000Y7200000D02*
X21950012Y7550012D01*
X21950012Y8358997D02*
X21950012Y8924682D01*
X21950012Y7550012D02*
X21950012Y8358997D01*
G04 #@! TO.N,/AVR_PD4*
X27234800Y10269300D02*
X26787900Y9822400D01*
X23102920Y9822400D02*
X22915959Y10009361D01*
X27000000Y11178500D02*
X27234800Y10943700D01*
X26787900Y9822400D02*
X23102920Y9822400D01*
X27000000Y11850000D02*
X27000000Y11178500D01*
X27234800Y10943700D02*
X27234800Y10269300D01*
X22915959Y10009361D02*
X22515960Y10409360D01*
G04 #@! TO.N,/BP35_TXD*
X35415000Y10800000D02*
X34000000Y10800000D01*
X34000000Y10800000D02*
X33870000Y10670000D01*
X33870000Y10670000D02*
X32300000Y10670000D01*
X32300000Y10670000D02*
X32300000Y14719000D01*
X32300000Y14719000D02*
X28644000Y18375000D01*
X28644000Y18375000D02*
X27461400Y18375000D01*
X27461400Y18375000D02*
X27336400Y18500000D01*
X27336400Y18500000D02*
X24200000Y18500000D01*
D23*
X23750000Y17050000D02*
X23750000Y18050000D01*
X23750000Y18050000D02*
X24200000Y18500000D01*
D21*
X35415000Y10800000D02*
X35415000Y12000000D01*
G04 #@! TO.N,/AVR_RXD0*
X29250000Y8800000D02*
X32000000Y8800000D01*
X32000000Y8800000D02*
X32300000Y9100000D01*
X32300000Y9100000D02*
X32300000Y9700000D01*
G04 #@! TO.N,/BP35_RXD*
X35415000Y14600000D02*
X33500000Y14600000D01*
X33500000Y14600000D02*
X32600000Y15500000D01*
X24500000Y18050000D02*
X27150000Y18050000D01*
X27150000Y18050000D02*
X27275000Y17925000D01*
X27275000Y17925000D02*
X27710000Y17925000D01*
X27710000Y17925000D02*
X31100000Y14535000D01*
X31100000Y14535000D02*
X31100000Y10670000D01*
D23*
X24250000Y17050000D02*
X24250000Y17800000D01*
X24250000Y17800000D02*
X24500000Y18050000D01*
D21*
X35415000Y13400000D02*
X35415000Y14600000D01*
G04 #@! TO.N,/AVR_TXD0*
X29250000Y9600000D02*
X30300000Y9600000D01*
X30300000Y9600000D02*
X30400000Y9700000D01*
X30400000Y9700000D02*
X31100000Y9700000D01*
G04 #@! TO.N,/BP35_RESET*
X27800000Y11850000D02*
X27800000Y12627000D01*
X27800000Y12627000D02*
X25300000Y15127000D01*
X25300000Y15127000D02*
X25300000Y15200000D01*
D23*
X25250000Y17050000D02*
X25250000Y15250000D01*
X25250000Y15250000D02*
X25300000Y15200000D01*
D21*
G04 #@! TO.N,/BP35_WKUP*
X26600000Y14900000D02*
X29250000Y12250000D01*
X29250000Y12250000D02*
X29250000Y10400000D01*
D23*
X24750000Y17050000D02*
X24750000Y14650000D01*
X24750000Y14650000D02*
X25200000Y14200000D01*
G04 #@! TO.N,/BP35_RTS*
X24600000Y23150000D02*
X24750000Y23000000D01*
X24750000Y23000000D02*
X24750000Y20950000D01*
D21*
X20750000Y8800000D02*
X19900000Y8800000D01*
X19900000Y8800000D02*
X18650000Y10050000D01*
X18650000Y10050000D02*
X18650000Y14500000D01*
X18650000Y14500000D02*
X20625000Y16475000D01*
X20625000Y16475000D02*
X20625000Y22375000D01*
X20625000Y22375000D02*
X21850000Y23600000D01*
X21850000Y23600000D02*
X24150000Y23600000D01*
X24150000Y23600000D02*
X24600000Y23150000D01*
D23*
G04 #@! TO.N,/BP35_CTS*
X23950000Y23050000D02*
X24250000Y22750000D01*
X24250000Y22750000D02*
X24250000Y20950000D01*
D21*
X20750000Y9600000D02*
X19900000Y9600000D01*
X19900000Y9600000D02*
X19100000Y10400000D01*
X19100000Y10400000D02*
X19100000Y14100000D01*
X19100000Y14100000D02*
X21350000Y16350000D01*
X21350000Y16350000D02*
X21350000Y22300000D01*
X21350000Y22300000D02*
X22100000Y23050000D01*
X22100000Y23050000D02*
X23950000Y23050000D01*
D23*
G04 #@! TO.N,/AVR_PD5*
X20750000Y10400000D02*
X20750000Y11000000D01*
X20750000Y11000000D02*
X19900000Y11850000D01*
G04 #@! TD*
G04 #@! TO.N,GND*
G36*
X13900000Y37500000D02*
X13907612Y37461732D01*
X13929289Y37429289D01*
X13961732Y37407612D01*
X14000000Y37400000D01*
X36000000Y37400000D01*
X36038268Y37407612D01*
X36070711Y37429289D01*
X36092388Y37461732D01*
X36100000Y37500000D01*
X36100000Y37839239D01*
X38270000Y37839239D01*
X38270000Y37560761D01*
X38376568Y37303482D01*
X38573482Y37106568D01*
X38830761Y37000000D01*
X39109239Y37000000D01*
X39366518Y37106568D01*
X39459950Y37200000D01*
X39644123Y37200000D01*
X39667407Y37082946D01*
X39733712Y36983712D01*
X39832946Y36917407D01*
X39950000Y36894123D01*
X43100000Y36894123D01*
X43217054Y36917407D01*
X43316288Y36983712D01*
X43382593Y37082946D01*
X43405877Y37200000D01*
X43405877Y37550000D01*
X44600000Y37550000D01*
X44600000Y37120435D01*
X44660896Y36973418D01*
X44773418Y36860896D01*
X44920435Y36800000D01*
X46425000Y36800000D01*
X46525000Y36900000D01*
X46525000Y37650000D01*
X46625000Y37650000D01*
X46625000Y36900000D01*
X46725000Y36800000D01*
X48229565Y36800000D01*
X48376582Y36860896D01*
X48489104Y36973418D01*
X48550000Y37120435D01*
X48550000Y37550000D01*
X48450000Y37650000D01*
X46625000Y37650000D01*
X46525000Y37650000D01*
X44700000Y37650000D01*
X44600000Y37550000D01*
X43405877Y37550000D01*
X43405877Y38200000D01*
X43382593Y38317054D01*
X43316288Y38416288D01*
X43217054Y38482593D01*
X43100000Y38505877D01*
X39950000Y38505877D01*
X39832946Y38482593D01*
X39733712Y38416288D01*
X39667407Y38317054D01*
X39644123Y38200000D01*
X39459950Y38200000D01*
X39366518Y38293432D01*
X39109239Y38400000D01*
X38830761Y38400000D01*
X38573482Y38293432D01*
X38376568Y38096518D01*
X38270000Y37839239D01*
X36100000Y37839239D01*
X36100000Y39109239D01*
X43350000Y39109239D01*
X43350000Y38830761D01*
X43456568Y38573482D01*
X43653482Y38376568D01*
X43910761Y38270000D01*
X44189239Y38270000D01*
X44212331Y38279565D01*
X44600000Y38279565D01*
X44600000Y37850000D01*
X44700000Y37750000D01*
X46525000Y37750000D01*
X46525000Y38500000D01*
X46625000Y38500000D01*
X46625000Y37750000D01*
X48450000Y37750000D01*
X48550000Y37850000D01*
X48550000Y38279565D01*
X48489104Y38426582D01*
X48376582Y38539104D01*
X48229565Y38600000D01*
X46725000Y38600000D01*
X46625000Y38500000D01*
X46525000Y38500000D01*
X46425000Y38600000D01*
X44920435Y38600000D01*
X44773418Y38539104D01*
X44660896Y38426582D01*
X44600000Y38279565D01*
X44212331Y38279565D01*
X44446518Y38376568D01*
X44643432Y38573482D01*
X44750000Y38830761D01*
X44750000Y39109239D01*
X44643432Y39366518D01*
X44446518Y39563432D01*
X44189239Y39670000D01*
X43910761Y39670000D01*
X43653482Y39563432D01*
X43456568Y39366518D01*
X43350000Y39109239D01*
X36100000Y39109239D01*
X36100000Y40379239D01*
X38270000Y40379239D01*
X38270000Y40100761D01*
X38376568Y39843482D01*
X38573482Y39646568D01*
X38830761Y39540000D01*
X39109239Y39540000D01*
X39366518Y39646568D01*
X39459950Y39740000D01*
X39644123Y39740000D01*
X39667407Y39622946D01*
X39733712Y39523712D01*
X39832946Y39457407D01*
X39950000Y39434123D01*
X43100000Y39434123D01*
X43217054Y39457407D01*
X43316288Y39523712D01*
X43382593Y39622946D01*
X43405877Y39740000D01*
X43405877Y40090000D01*
X44600000Y40090000D01*
X44600000Y39660435D01*
X44660896Y39513418D01*
X44773418Y39400896D01*
X44920435Y39340000D01*
X46425000Y39340000D01*
X46525000Y39440000D01*
X46525000Y40190000D01*
X46625000Y40190000D01*
X46625000Y39440000D01*
X46725000Y39340000D01*
X48229565Y39340000D01*
X48376582Y39400896D01*
X48489104Y39513418D01*
X48550000Y39660435D01*
X48550000Y40090000D01*
X48450000Y40190000D01*
X46625000Y40190000D01*
X46525000Y40190000D01*
X44700000Y40190000D01*
X44600000Y40090000D01*
X43405877Y40090000D01*
X43405877Y40740000D01*
X43382593Y40857054D01*
X43316288Y40956288D01*
X43217054Y41022593D01*
X43100000Y41045877D01*
X39950000Y41045877D01*
X39832946Y41022593D01*
X39733712Y40956288D01*
X39667407Y40857054D01*
X39644123Y40740000D01*
X39459950Y40740000D01*
X39366518Y40833432D01*
X39109239Y40940000D01*
X38830761Y40940000D01*
X38573482Y40833432D01*
X38376568Y40636518D01*
X38270000Y40379239D01*
X36100000Y40379239D01*
X36100000Y41669130D01*
X43250000Y41669130D01*
X43250000Y41350870D01*
X43371793Y41056836D01*
X43596836Y40831793D01*
X43890870Y40710000D01*
X44209130Y40710000D01*
X44473643Y40819565D01*
X44600000Y40819565D01*
X44600000Y40390000D01*
X44700000Y40290000D01*
X46525000Y40290000D01*
X46525000Y41040000D01*
X46625000Y41040000D01*
X46625000Y40290000D01*
X48450000Y40290000D01*
X48550000Y40390000D01*
X48550000Y40819565D01*
X48489104Y40966582D01*
X48376582Y41079104D01*
X48229565Y41140000D01*
X46725000Y41140000D01*
X46625000Y41040000D01*
X46525000Y41040000D01*
X46425000Y41140000D01*
X44920435Y41140000D01*
X44773418Y41079104D01*
X44660896Y40966582D01*
X44600000Y40819565D01*
X44473643Y40819565D01*
X44503164Y40831793D01*
X44728207Y41056836D01*
X44850000Y41350870D01*
X44850000Y41669130D01*
X44728207Y41963164D01*
X44503164Y42188207D01*
X44209130Y42310000D01*
X43890870Y42310000D01*
X43596836Y42188207D01*
X43371793Y41963164D01*
X43250000Y41669130D01*
X36100000Y41669130D01*
X36100000Y42919239D01*
X38270000Y42919239D01*
X38270000Y42640761D01*
X38376568Y42383482D01*
X38573482Y42186568D01*
X38830761Y42080000D01*
X39109239Y42080000D01*
X39366518Y42186568D01*
X39459950Y42280000D01*
X39644123Y42280000D01*
X39667407Y42162946D01*
X39733712Y42063712D01*
X39832946Y41997407D01*
X39950000Y41974123D01*
X43100000Y41974123D01*
X43217054Y41997407D01*
X43316288Y42063712D01*
X43382593Y42162946D01*
X43405877Y42280000D01*
X43405877Y42630000D01*
X44600000Y42630000D01*
X44600000Y42200435D01*
X44660896Y42053418D01*
X44773418Y41940896D01*
X44920435Y41880000D01*
X46425000Y41880000D01*
X46525000Y41980000D01*
X46525000Y42730000D01*
X46625000Y42730000D01*
X46625000Y41980000D01*
X46725000Y41880000D01*
X48229565Y41880000D01*
X48376582Y41940896D01*
X48489104Y42053418D01*
X48550000Y42200435D01*
X48550000Y42630000D01*
X48450000Y42730000D01*
X46625000Y42730000D01*
X46525000Y42730000D01*
X44700000Y42730000D01*
X44600000Y42630000D01*
X43405877Y42630000D01*
X43405877Y43280000D01*
X43390051Y43359565D01*
X44600000Y43359565D01*
X44600000Y42930000D01*
X44700000Y42830000D01*
X46525000Y42830000D01*
X46525000Y43580000D01*
X46625000Y43580000D01*
X46625000Y42830000D01*
X48450000Y42830000D01*
X48550000Y42930000D01*
X48550000Y43359565D01*
X48489104Y43506582D01*
X48376582Y43619104D01*
X48229565Y43680000D01*
X46725000Y43680000D01*
X46625000Y43580000D01*
X46525000Y43580000D01*
X46425000Y43680000D01*
X44920435Y43680000D01*
X44773418Y43619104D01*
X44660896Y43506582D01*
X44600000Y43359565D01*
X43390051Y43359565D01*
X43382593Y43397054D01*
X43316288Y43496288D01*
X43217054Y43562593D01*
X43100000Y43585877D01*
X39950000Y43585877D01*
X39832946Y43562593D01*
X39733712Y43496288D01*
X39667407Y43397054D01*
X39644123Y43280000D01*
X39459950Y43280000D01*
X39366518Y43373432D01*
X39109239Y43480000D01*
X38830761Y43480000D01*
X38573482Y43373432D01*
X38376568Y43176518D01*
X38270000Y42919239D01*
X36100000Y42919239D01*
X36100000Y47358042D01*
X45200000Y47358042D01*
X45200000Y46641958D01*
X45474034Y45980382D01*
X45980382Y45474034D01*
X46641958Y45200000D01*
X47358042Y45200000D01*
X48019618Y45474034D01*
X48525966Y45980382D01*
X48800000Y46641958D01*
X48800000Y47358042D01*
X48525966Y48019618D01*
X48019618Y48525966D01*
X47358042Y48800000D01*
X46641958Y48800000D01*
X45980382Y48525966D01*
X45474034Y48019618D01*
X45200000Y47358042D01*
X36100000Y47358042D01*
X36100000Y49625000D01*
X46978214Y49625000D01*
X47603294Y49552123D01*
X47854548Y49460922D01*
X48455684Y49160355D01*
X48682176Y49011860D01*
X49099885Y48570916D01*
X49120389Y48535617D01*
X49465808Y47844776D01*
X49582502Y47459483D01*
X49625001Y46983292D01*
X49625000Y3021787D01*
X49552123Y2396702D01*
X49460925Y2145458D01*
X49160355Y1544316D01*
X49011860Y1317824D01*
X48570918Y900116D01*
X48535618Y879612D01*
X47844776Y534192D01*
X47459483Y417498D01*
X46983304Y375000D01*
X28351585Y375000D01*
X28379410Y393592D01*
X28403123Y429081D01*
X29520919Y1546877D01*
X29556408Y1570590D01*
X29650341Y1711171D01*
X29675000Y1835140D01*
X29683326Y1876998D01*
X29675000Y1918855D01*
X29675000Y3308314D01*
X41450000Y3308314D01*
X41450000Y2691686D01*
X41685974Y2121996D01*
X42121996Y1685974D01*
X42691686Y1450000D01*
X43308314Y1450000D01*
X43878004Y1685974D01*
X44314026Y2121996D01*
X44550000Y2691686D01*
X44550000Y3308314D01*
X44529402Y3358042D01*
X45200000Y3358042D01*
X45200000Y2641958D01*
X45474034Y1980382D01*
X45980382Y1474034D01*
X46641958Y1200000D01*
X47358042Y1200000D01*
X48019618Y1474034D01*
X48525966Y1980382D01*
X48800000Y2641958D01*
X48800000Y3358042D01*
X48525966Y4019618D01*
X48019618Y4525966D01*
X47358042Y4800000D01*
X46641958Y4800000D01*
X45980382Y4525966D01*
X45474034Y4019618D01*
X45200000Y3358042D01*
X44529402Y3358042D01*
X44314026Y3878004D01*
X43878004Y4314026D01*
X43308314Y4550000D01*
X42691686Y4550000D01*
X42121996Y4314026D01*
X41685974Y3878004D01*
X41450000Y3308314D01*
X29675000Y3308314D01*
X29675000Y4194123D01*
X29850000Y4194123D01*
X29967054Y4217407D01*
X30066288Y4283712D01*
X30132593Y4382946D01*
X30155877Y4500000D01*
X30155877Y5100000D01*
X30135985Y5200000D01*
X30155877Y5300000D01*
X30155877Y5900000D01*
X30140958Y5975000D01*
X36358143Y5975000D01*
X36400000Y5966674D01*
X36441857Y5975000D01*
X36441858Y5975000D01*
X36565827Y5999659D01*
X36706408Y6093592D01*
X36730121Y6129081D01*
X39420922Y8819881D01*
X39456408Y8843592D01*
X39550341Y8984173D01*
X39566204Y9063921D01*
X39583326Y9149999D01*
X39575000Y9191857D01*
X39575000Y12337560D01*
X39644123Y12406683D01*
X39644123Y11800000D01*
X39667407Y11682946D01*
X39733712Y11583712D01*
X39832946Y11517407D01*
X39950000Y11494123D01*
X40984173Y11494123D01*
X40916568Y11426518D01*
X40810000Y11169239D01*
X40810000Y10890761D01*
X40916568Y10633482D01*
X40984173Y10565877D01*
X39950000Y10565877D01*
X39832946Y10542593D01*
X39733712Y10476288D01*
X39667407Y10377054D01*
X39644123Y10260000D01*
X39644123Y9260000D01*
X39667407Y9142946D01*
X39733712Y9043712D01*
X39832946Y8977407D01*
X39950000Y8954123D01*
X40984173Y8954123D01*
X40931568Y8901518D01*
X40825000Y8644239D01*
X40825000Y8365761D01*
X40931568Y8108482D01*
X41014173Y8025877D01*
X39950000Y8025877D01*
X39832946Y8002593D01*
X39733712Y7936288D01*
X39667407Y7837054D01*
X39644123Y7720000D01*
X39459950Y7720000D01*
X39366518Y7813432D01*
X39109239Y7920000D01*
X38830761Y7920000D01*
X38573482Y7813432D01*
X38376568Y7616518D01*
X38270000Y7359239D01*
X38270000Y7080761D01*
X38376568Y6823482D01*
X38573482Y6626568D01*
X38830761Y6520000D01*
X39109239Y6520000D01*
X39366518Y6626568D01*
X39459950Y6720000D01*
X39644123Y6720000D01*
X39667407Y6602946D01*
X39733712Y6503712D01*
X39832946Y6437407D01*
X39950000Y6414123D01*
X43100000Y6414123D01*
X43217054Y6437407D01*
X43316288Y6503712D01*
X43382593Y6602946D01*
X43405877Y6720000D01*
X43405877Y6945861D01*
X43456568Y6823482D01*
X43653482Y6626568D01*
X43910761Y6520000D01*
X44189239Y6520000D01*
X44446518Y6626568D01*
X44539950Y6720000D01*
X44694123Y6720000D01*
X44717407Y6602946D01*
X44783712Y6503712D01*
X44882946Y6437407D01*
X45000000Y6414123D01*
X48150000Y6414123D01*
X48267054Y6437407D01*
X48366288Y6503712D01*
X48432593Y6602946D01*
X48455877Y6720000D01*
X48455877Y7720000D01*
X48432593Y7837054D01*
X48366288Y7936288D01*
X48267054Y8002593D01*
X48150000Y8025877D01*
X47175000Y8025877D01*
X47175000Y8954123D01*
X48150000Y8954123D01*
X48267054Y8977407D01*
X48366288Y9043712D01*
X48432593Y9142946D01*
X48455877Y9260000D01*
X48455877Y10260000D01*
X48432593Y10377054D01*
X48366288Y10476288D01*
X48267054Y10542593D01*
X48150000Y10565877D01*
X47175000Y10565877D01*
X47175000Y11494123D01*
X48150000Y11494123D01*
X48267054Y11517407D01*
X48366288Y11583712D01*
X48432593Y11682946D01*
X48455877Y11800000D01*
X48455877Y12800000D01*
X48432593Y12917054D01*
X48366288Y13016288D01*
X48267054Y13082593D01*
X48150000Y13105877D01*
X47115827Y13105877D01*
X47183432Y13173482D01*
X47290000Y13430761D01*
X47290000Y13709239D01*
X47183432Y13966518D01*
X47115827Y14034123D01*
X48150000Y14034123D01*
X48267054Y14057407D01*
X48366288Y14123712D01*
X48432593Y14222946D01*
X48455877Y14340000D01*
X48455877Y15340000D01*
X48432593Y15457054D01*
X48366288Y15556288D01*
X48267054Y15622593D01*
X48150000Y15645877D01*
X47135827Y15645877D01*
X47193432Y15703482D01*
X47300000Y15960761D01*
X47300000Y16239239D01*
X47193432Y16496518D01*
X47115827Y16574123D01*
X48150000Y16574123D01*
X48267054Y16597407D01*
X48366288Y16663712D01*
X48432593Y16762946D01*
X48455877Y16880000D01*
X48455877Y17880000D01*
X48432593Y17997054D01*
X48366288Y18096288D01*
X48267054Y18162593D01*
X48150000Y18185877D01*
X47075827Y18185877D01*
X47193432Y18303482D01*
X47300000Y18560761D01*
X47300000Y18839239D01*
X47193432Y19096518D01*
X47175827Y19114123D01*
X48150000Y19114123D01*
X48267054Y19137407D01*
X48366288Y19203712D01*
X48432593Y19302946D01*
X48455877Y19420000D01*
X48455877Y20420000D01*
X48432593Y20537054D01*
X48366288Y20636288D01*
X48267054Y20702593D01*
X48150000Y20725877D01*
X45000000Y20725877D01*
X44925000Y20710958D01*
X44925000Y21283960D01*
X45295163Y21654123D01*
X48150000Y21654123D01*
X48267054Y21677407D01*
X48366288Y21743712D01*
X48432593Y21842946D01*
X48455877Y21960000D01*
X48455877Y22960000D01*
X48432593Y23077054D01*
X48366288Y23176288D01*
X48267054Y23242593D01*
X48150000Y23265877D01*
X45000000Y23265877D01*
X44882946Y23242593D01*
X44783712Y23176288D01*
X44717407Y23077054D01*
X44694123Y22960000D01*
X44539950Y22960000D01*
X44446518Y23053432D01*
X44189239Y23160000D01*
X43910761Y23160000D01*
X43653482Y23053432D01*
X43456568Y22856518D01*
X43405877Y22734139D01*
X43405877Y22960000D01*
X43382593Y23077054D01*
X43316288Y23176288D01*
X43217054Y23242593D01*
X43100000Y23265877D01*
X39950000Y23265877D01*
X39832946Y23242593D01*
X39733712Y23176288D01*
X39667407Y23077054D01*
X39644123Y22960000D01*
X39459950Y22960000D01*
X39366518Y23053432D01*
X39109239Y23160000D01*
X38830761Y23160000D01*
X38573482Y23053432D01*
X38376568Y22856518D01*
X38270000Y22599239D01*
X38270000Y22320761D01*
X38376568Y22063482D01*
X38573482Y21866568D01*
X38830761Y21760000D01*
X39109239Y21760000D01*
X39366518Y21866568D01*
X39459950Y21960000D01*
X39644123Y21960000D01*
X39667407Y21842946D01*
X39733712Y21743712D01*
X39832946Y21677407D01*
X39950000Y21654123D01*
X42804837Y21654123D01*
X43475001Y20983958D01*
X43475000Y14731041D01*
X43405877Y14661918D01*
X43405877Y15340000D01*
X43382593Y15457054D01*
X43316288Y15556288D01*
X43217054Y15622593D01*
X43100000Y15645877D01*
X42181409Y15645877D01*
X42200000Y15690761D01*
X42200000Y15969239D01*
X42093432Y16226518D01*
X41896518Y16423432D01*
X41639239Y16530000D01*
X41360761Y16530000D01*
X41103482Y16423432D01*
X40906568Y16226518D01*
X40800000Y15969239D01*
X40800000Y15690761D01*
X40818591Y15645877D01*
X40050000Y15645877D01*
X40050000Y16378960D01*
X40245163Y16574123D01*
X43100000Y16574123D01*
X43217054Y16597407D01*
X43316288Y16663712D01*
X43382593Y16762946D01*
X43405877Y16880000D01*
X43405877Y17880000D01*
X43382593Y17997054D01*
X43316288Y18096288D01*
X43217054Y18162593D01*
X43100000Y18185877D01*
X39950000Y18185877D01*
X39832946Y18162593D01*
X39733712Y18096288D01*
X39667407Y17997054D01*
X39644123Y17880000D01*
X39644123Y17805000D01*
X39534950Y17805000D01*
X39366518Y17973432D01*
X39172031Y18053991D01*
X39240922Y18122882D01*
X39276408Y18146592D01*
X39370341Y18287173D01*
X39395000Y18411142D01*
X39395000Y18411143D01*
X39403326Y18453000D01*
X39395000Y18494857D01*
X39395000Y19355050D01*
X39534950Y19495000D01*
X39644123Y19495000D01*
X39644123Y19420000D01*
X39667407Y19302946D01*
X39733712Y19203712D01*
X39832946Y19137407D01*
X39950000Y19114123D01*
X43100000Y19114123D01*
X43217054Y19137407D01*
X43316288Y19203712D01*
X43382593Y19302946D01*
X43405877Y19420000D01*
X43405877Y20420000D01*
X43382593Y20537054D01*
X43316288Y20636288D01*
X43217054Y20702593D01*
X43100000Y20725877D01*
X39950000Y20725877D01*
X39832946Y20702593D01*
X39733712Y20636288D01*
X39667407Y20537054D01*
X39644123Y20420000D01*
X39644123Y20345000D01*
X39534950Y20345000D01*
X39366518Y20513432D01*
X39109239Y20620000D01*
X38830761Y20620000D01*
X38573482Y20513432D01*
X38376568Y20316518D01*
X38270000Y20059239D01*
X38270000Y19780761D01*
X38376568Y19523482D01*
X38545001Y19355049D01*
X38545000Y18629041D01*
X38345751Y18429791D01*
X38400000Y18560761D01*
X38400000Y18839239D01*
X38293432Y19096518D01*
X38096518Y19293432D01*
X37839239Y19400000D01*
X37560761Y19400000D01*
X37303482Y19293432D01*
X37141872Y19131822D01*
X37134314Y19133326D01*
X37092458Y19125000D01*
X37092457Y19125000D01*
X36968488Y19100341D01*
X36827907Y19006408D01*
X36804196Y18970922D01*
X36114081Y18280806D01*
X36078592Y18257093D01*
X35984660Y18116512D01*
X35984659Y18116511D01*
X35951674Y17950685D01*
X35960000Y17908827D01*
X35960001Y16935158D01*
X35960000Y15121875D01*
X35916914Y15093086D01*
X35900000Y15067772D01*
X35883086Y15093086D01*
X35736000Y15191366D01*
X35562500Y15225877D01*
X35267500Y15225877D01*
X35094000Y15191366D01*
X34946914Y15093086D01*
X34901420Y15025000D01*
X33676041Y15025000D01*
X33300000Y15401040D01*
X33300000Y15639239D01*
X33193432Y15896518D01*
X32996518Y16093432D01*
X32739239Y16200000D01*
X32756955Y16200000D01*
X33786072Y16626275D01*
X34573725Y17413928D01*
X35000000Y18443045D01*
X35000000Y19556955D01*
X34573725Y20586072D01*
X33786072Y21373725D01*
X32756955Y21800000D01*
X31643045Y21800000D01*
X30613928Y21373725D01*
X29826275Y20586072D01*
X29400000Y19556955D01*
X29400000Y18443045D01*
X29557689Y18062351D01*
X28974121Y18645919D01*
X28950408Y18681408D01*
X28809827Y18775341D01*
X28685858Y18800000D01*
X28685857Y18800000D01*
X28644000Y18808326D01*
X28602143Y18800000D01*
X28362473Y18800000D01*
X28400000Y18890598D01*
X28400000Y19109402D01*
X28316267Y19311550D01*
X28161550Y19466267D01*
X27959402Y19550000D01*
X27740598Y19550000D01*
X27538450Y19466267D01*
X27383733Y19311550D01*
X27300000Y19109402D01*
X27300000Y18926086D01*
X27294543Y18925000D01*
X24158142Y18925000D01*
X24034173Y18900341D01*
X23893592Y18806408D01*
X23799659Y18665827D01*
X23799539Y18665225D01*
X23495016Y18360700D01*
X23461617Y18338384D01*
X23407301Y18257093D01*
X23373209Y18206071D01*
X23342164Y18050000D01*
X23350001Y18010602D01*
X23350001Y17950001D01*
X23300000Y17900000D01*
X23300000Y17629545D01*
X23294123Y17600000D01*
X23294123Y16500000D01*
X23300000Y16470455D01*
X23300000Y16200000D01*
X23400000Y16100000D01*
X23479565Y16100000D01*
X23626582Y16160896D01*
X23659809Y16194123D01*
X23900000Y16194123D01*
X24000000Y16214015D01*
X24100000Y16194123D01*
X24350000Y16194123D01*
X24350001Y14689398D01*
X24342164Y14650000D01*
X24373209Y14493929D01*
X24373210Y14493928D01*
X24461617Y14361616D01*
X24495016Y14339300D01*
X24500000Y14334316D01*
X24500000Y14060761D01*
X24606568Y13803482D01*
X24803482Y13606568D01*
X25060761Y13500000D01*
X25339239Y13500000D01*
X25596518Y13606568D01*
X25793432Y13803482D01*
X25860518Y13965442D01*
X27070082Y12755877D01*
X26759809Y12755877D01*
X26726582Y12789104D01*
X26579565Y12850000D01*
X26350000Y12850000D01*
X26250000Y12750000D01*
X26250000Y11900000D01*
X26270000Y11900000D01*
X26270000Y11800000D01*
X26250000Y11800000D01*
X26250000Y10950000D01*
X26350000Y10850000D01*
X26579565Y10850000D01*
X26680437Y10891782D01*
X26693593Y10872092D01*
X26729079Y10848381D01*
X26809800Y10767660D01*
X26809801Y10445341D01*
X26611860Y10247400D01*
X26111623Y10247400D01*
X26200000Y10460761D01*
X26200000Y10739239D01*
X26123625Y10923625D01*
X26150000Y10950000D01*
X26150000Y11800000D01*
X26130000Y11800000D01*
X26130000Y11900000D01*
X26150000Y11900000D01*
X26150000Y12750000D01*
X26050000Y12850000D01*
X25820435Y12850000D01*
X25673418Y12789104D01*
X25640191Y12755877D01*
X25159809Y12755877D01*
X25126582Y12789104D01*
X24979565Y12850000D01*
X24750000Y12850000D01*
X24650000Y12750000D01*
X24650000Y11900000D01*
X24670000Y11900000D01*
X24670000Y11800000D01*
X24650000Y11800000D01*
X24650000Y10950000D01*
X24750000Y10850000D01*
X24845879Y10850000D01*
X24800000Y10739239D01*
X24800000Y10460761D01*
X24888377Y10247400D01*
X24111623Y10247400D01*
X24200000Y10460761D01*
X24200000Y10733663D01*
X24200341Y10734173D01*
X24214604Y10805878D01*
X24223381Y10850000D01*
X24450000Y10850000D01*
X24550000Y10950000D01*
X24550000Y11800000D01*
X24530000Y11800000D01*
X24530000Y11900000D01*
X24550000Y11900000D01*
X24550000Y12750000D01*
X24450000Y12850000D01*
X24220435Y12850000D01*
X24073418Y12789104D01*
X24040191Y12755877D01*
X23500000Y12755877D01*
X23400000Y12735985D01*
X23300000Y12755877D01*
X22700000Y12755877D01*
X22600000Y12735985D01*
X22500000Y12755877D01*
X21900000Y12755877D01*
X21782946Y12732593D01*
X21683712Y12666288D01*
X21617407Y12567054D01*
X21594123Y12450000D01*
X21594123Y11641920D01*
X21125000Y12111042D01*
X21125000Y13235050D01*
X21293432Y13403482D01*
X21400000Y13660761D01*
X21400000Y13939239D01*
X21293432Y14196518D01*
X21096518Y14393432D01*
X20839239Y14500000D01*
X20560761Y14500000D01*
X20303482Y14393432D01*
X20106568Y14196518D01*
X20000000Y13939239D01*
X20000000Y13660761D01*
X20106568Y13403482D01*
X20275001Y13235049D01*
X20275000Y12452345D01*
X20039239Y12550000D01*
X19760761Y12550000D01*
X19525000Y12452345D01*
X19525000Y13923960D01*
X21620920Y16019880D01*
X21656408Y16043592D01*
X21750341Y16184173D01*
X21775000Y16308142D01*
X21775000Y16308143D01*
X21783326Y16350000D01*
X21775000Y16391857D01*
X21775000Y16426944D01*
X21960761Y16350000D01*
X22239239Y16350000D01*
X22239381Y16350059D01*
X22283712Y16283712D01*
X22382946Y16217407D01*
X22500000Y16194123D01*
X22840191Y16194123D01*
X22873418Y16160896D01*
X23020435Y16100000D01*
X23100000Y16100000D01*
X23200000Y16200000D01*
X23200000Y16470455D01*
X23205877Y16500000D01*
X23205877Y17600000D01*
X23200000Y17629545D01*
X23200000Y17900000D01*
X23100000Y18000000D01*
X23020435Y18000000D01*
X22873418Y17939104D01*
X22840191Y17905877D01*
X22500000Y17905877D01*
X22382946Y17882593D01*
X22283712Y17816288D01*
X22239381Y17749941D01*
X22239239Y17750000D01*
X21960761Y17750000D01*
X21775000Y17673056D01*
X21775000Y18597183D01*
X21838450Y18533733D01*
X22040598Y18450000D01*
X22259402Y18450000D01*
X22461550Y18533733D01*
X22616267Y18688450D01*
X22700000Y18890598D01*
X22700000Y19109402D01*
X22616267Y19311550D01*
X22461550Y19466267D01*
X22259402Y19550000D01*
X22040598Y19550000D01*
X21838450Y19466267D01*
X21775000Y19402817D01*
X21775000Y21729694D01*
X21806568Y21653482D01*
X22003482Y21456568D01*
X22194123Y21377602D01*
X22194123Y20400000D01*
X22217407Y20282946D01*
X22283712Y20183712D01*
X22382946Y20117407D01*
X22500000Y20094123D01*
X22840191Y20094123D01*
X22873418Y20060896D01*
X23020435Y20000000D01*
X23100000Y20000000D01*
X23200000Y20100000D01*
X23200000Y20320435D01*
X23260896Y20173418D01*
X23300000Y20134314D01*
X23300000Y20100000D01*
X23400000Y20000000D01*
X23479565Y20000000D01*
X23500000Y20008464D01*
X23520435Y20000000D01*
X23600000Y20000000D01*
X23700000Y20100000D01*
X23700000Y20134314D01*
X23739104Y20173418D01*
X23800000Y20320435D01*
X23800000Y20100000D01*
X23900000Y20000000D01*
X23979565Y20000000D01*
X24126582Y20060896D01*
X24159809Y20094123D01*
X24400000Y20094123D01*
X24500000Y20114015D01*
X24600000Y20094123D01*
X24900000Y20094123D01*
X25000000Y20114015D01*
X25100000Y20094123D01*
X25400000Y20094123D01*
X25500000Y20114015D01*
X25600000Y20094123D01*
X25900000Y20094123D01*
X26000000Y20114015D01*
X26100000Y20094123D01*
X26340191Y20094123D01*
X26373418Y20060896D01*
X26520435Y20000000D01*
X26600000Y20000000D01*
X26700000Y20100000D01*
X26700000Y20320435D01*
X26760896Y20173418D01*
X26800000Y20134314D01*
X26800000Y20100000D01*
X26900000Y20000000D01*
X26979565Y20000000D01*
X27000000Y20008464D01*
X27020435Y20000000D01*
X27150000Y20000000D01*
X27250000Y20100000D01*
X27250000Y20199723D01*
X27300000Y20320435D01*
X27300000Y20800000D01*
X27250000Y20850000D01*
X27250000Y20900000D01*
X27350000Y20900000D01*
X27350000Y20100000D01*
X27450000Y20000000D01*
X27579565Y20000000D01*
X27726582Y20060896D01*
X27839104Y20173418D01*
X27900000Y20320435D01*
X27900000Y20800000D01*
X27800000Y20900000D01*
X27350000Y20900000D01*
X27250000Y20900000D01*
X27230000Y20900000D01*
X27230000Y21000000D01*
X27250000Y21000000D01*
X27250000Y21050000D01*
X27300000Y21100000D01*
X27300000Y21579565D01*
X27250000Y21700277D01*
X27250000Y21800000D01*
X27350000Y21800000D01*
X27350000Y21000000D01*
X27800000Y21000000D01*
X27900000Y21100000D01*
X27900000Y21579565D01*
X27839104Y21726582D01*
X27726582Y21839104D01*
X27579565Y21900000D01*
X27450000Y21900000D01*
X27350000Y21800000D01*
X27250000Y21800000D01*
X27150000Y21900000D01*
X27020435Y21900000D01*
X27000000Y21891536D01*
X26979565Y21900000D01*
X26900000Y21900000D01*
X26800000Y21800000D01*
X26800000Y21765686D01*
X26760896Y21726582D01*
X26700000Y21579565D01*
X26700000Y21800000D01*
X26600000Y21900000D01*
X26520435Y21900000D01*
X26373418Y21839104D01*
X26340191Y21805877D01*
X26100000Y21805877D01*
X26000000Y21785985D01*
X25900000Y21805877D01*
X25600000Y21805877D01*
X25500000Y21785985D01*
X25400000Y21805877D01*
X25150000Y21805877D01*
X25150000Y22960607D01*
X25157836Y23000001D01*
X25127999Y23150000D01*
X25126791Y23156072D01*
X25038384Y23288384D01*
X25004982Y23310702D01*
X25000461Y23315223D01*
X25000341Y23315827D01*
X24930118Y23420923D01*
X24480121Y23870920D01*
X24456408Y23906408D01*
X24315827Y24000341D01*
X24191858Y24025000D01*
X24191857Y24025000D01*
X24150000Y24033326D01*
X24108143Y24025000D01*
X23014948Y24025000D01*
X23089948Y24100000D01*
X32831065Y24100000D01*
X32900000Y24086288D01*
X32968935Y24100000D01*
X32968940Y24100000D01*
X33173126Y24140615D01*
X33404671Y24295329D01*
X33443724Y24353776D01*
X34229187Y25139239D01*
X38270000Y25139239D01*
X38270000Y24860761D01*
X38376568Y24603482D01*
X38573482Y24406568D01*
X38830761Y24300000D01*
X39109239Y24300000D01*
X39366518Y24406568D01*
X39459950Y24500000D01*
X39644123Y24500000D01*
X39667407Y24382946D01*
X39733712Y24283712D01*
X39832946Y24217407D01*
X39950000Y24194123D01*
X43100000Y24194123D01*
X43217054Y24217407D01*
X43316288Y24283712D01*
X43382593Y24382946D01*
X43405877Y24500000D01*
X43405877Y24725861D01*
X43456568Y24603482D01*
X43653482Y24406568D01*
X43910761Y24300000D01*
X44189239Y24300000D01*
X44446518Y24406568D01*
X44539950Y24500000D01*
X44694123Y24500000D01*
X44717407Y24382946D01*
X44783712Y24283712D01*
X44882946Y24217407D01*
X45000000Y24194123D01*
X48150000Y24194123D01*
X48267054Y24217407D01*
X48366288Y24283712D01*
X48432593Y24382946D01*
X48455877Y24500000D01*
X48455877Y25500000D01*
X48432593Y25617054D01*
X48366288Y25716288D01*
X48267054Y25782593D01*
X48150000Y25805877D01*
X45000000Y25805877D01*
X44882946Y25782593D01*
X44783712Y25716288D01*
X44717407Y25617054D01*
X44694123Y25500000D01*
X44539950Y25500000D01*
X44446518Y25593432D01*
X44189239Y25700000D01*
X43910761Y25700000D01*
X43653482Y25593432D01*
X43456568Y25396518D01*
X43405877Y25274139D01*
X43405877Y25500000D01*
X43382593Y25617054D01*
X43316288Y25716288D01*
X43217054Y25782593D01*
X43100000Y25805877D01*
X39950000Y25805877D01*
X39832946Y25782593D01*
X39733712Y25716288D01*
X39667407Y25617054D01*
X39644123Y25500000D01*
X39459950Y25500000D01*
X39366518Y25593432D01*
X39109239Y25700000D01*
X38830761Y25700000D01*
X38573482Y25593432D01*
X38376568Y25396518D01*
X38270000Y25139239D01*
X34229187Y25139239D01*
X35496516Y26406567D01*
X35496518Y26406568D01*
X35693432Y26603482D01*
X35693433Y26603485D01*
X36769187Y27679239D01*
X38270000Y27679239D01*
X38270000Y27400761D01*
X38376568Y27143482D01*
X38573482Y26946568D01*
X38830761Y26840000D01*
X39109239Y26840000D01*
X39366518Y26946568D01*
X39459950Y27040000D01*
X39644123Y27040000D01*
X39667407Y26922946D01*
X39733712Y26823712D01*
X39832946Y26757407D01*
X39950000Y26734123D01*
X43100000Y26734123D01*
X43217054Y26757407D01*
X43316288Y26823712D01*
X43382593Y26922946D01*
X43405877Y27040000D01*
X43405877Y27265861D01*
X43456568Y27143482D01*
X43653482Y26946568D01*
X43910761Y26840000D01*
X44189239Y26840000D01*
X44446518Y26946568D01*
X44539950Y27040000D01*
X44694123Y27040000D01*
X44717407Y26922946D01*
X44783712Y26823712D01*
X44882946Y26757407D01*
X45000000Y26734123D01*
X48150000Y26734123D01*
X48267054Y26757407D01*
X48366288Y26823712D01*
X48432593Y26922946D01*
X48455877Y27040000D01*
X48455877Y28040000D01*
X48432593Y28157054D01*
X48366288Y28256288D01*
X48267054Y28322593D01*
X48150000Y28345877D01*
X45000000Y28345877D01*
X44882946Y28322593D01*
X44783712Y28256288D01*
X44717407Y28157054D01*
X44694123Y28040000D01*
X44539950Y28040000D01*
X44446518Y28133432D01*
X44189239Y28240000D01*
X43910761Y28240000D01*
X43653482Y28133432D01*
X43456568Y27936518D01*
X43405877Y27814139D01*
X43405877Y28040000D01*
X43382593Y28157054D01*
X43316288Y28256288D01*
X43217054Y28322593D01*
X43100000Y28345877D01*
X39950000Y28345877D01*
X39832946Y28322593D01*
X39733712Y28256288D01*
X39667407Y28157054D01*
X39644123Y28040000D01*
X39459950Y28040000D01*
X39366518Y28133432D01*
X39109239Y28240000D01*
X38830761Y28240000D01*
X38573482Y28133432D01*
X38376568Y27936518D01*
X38270000Y27679239D01*
X36769187Y27679239D01*
X38439950Y29350000D01*
X39754234Y29350000D01*
X39832946Y29297407D01*
X39950000Y29274123D01*
X43100000Y29274123D01*
X43217054Y29297407D01*
X43316288Y29363712D01*
X43382593Y29462946D01*
X43405877Y29580000D01*
X43405877Y29805861D01*
X43456568Y29683482D01*
X43653482Y29486568D01*
X43910761Y29380000D01*
X44189239Y29380000D01*
X44446518Y29486568D01*
X44539950Y29580000D01*
X44694123Y29580000D01*
X44717407Y29462946D01*
X44783712Y29363712D01*
X44882946Y29297407D01*
X45000000Y29274123D01*
X48150000Y29274123D01*
X48267054Y29297407D01*
X48366288Y29363712D01*
X48432593Y29462946D01*
X48455877Y29580000D01*
X48455877Y30580000D01*
X48432593Y30697054D01*
X48366288Y30796288D01*
X48267054Y30862593D01*
X48150000Y30885877D01*
X45000000Y30885877D01*
X44882946Y30862593D01*
X44783712Y30796288D01*
X44717407Y30697054D01*
X44694123Y30580000D01*
X44539950Y30580000D01*
X44446518Y30673432D01*
X44189239Y30780000D01*
X43910761Y30780000D01*
X43653482Y30673432D01*
X43456568Y30476518D01*
X43405877Y30354139D01*
X43405877Y30580000D01*
X43382593Y30697054D01*
X43316288Y30796288D01*
X43217054Y30862593D01*
X43100000Y30885877D01*
X39950000Y30885877D01*
X39832946Y30862593D01*
X39733712Y30796288D01*
X39702784Y30750000D01*
X38218934Y30750000D01*
X38149999Y30763712D01*
X38081064Y30750000D01*
X38081060Y30750000D01*
X37876874Y30709385D01*
X37823067Y30673432D01*
X37703772Y30593722D01*
X37703771Y30593721D01*
X37645329Y30554671D01*
X37606279Y30496229D01*
X34703485Y27593433D01*
X34703482Y27593432D01*
X34506568Y27396518D01*
X34506567Y27396516D01*
X32610052Y25500000D01*
X22868934Y25500000D01*
X22799999Y25513712D01*
X22731064Y25500000D01*
X22731060Y25500000D01*
X22526874Y25459385D01*
X22295329Y25304671D01*
X22256277Y25246226D01*
X22003485Y24993433D01*
X22003482Y24993432D01*
X21806568Y24796518D01*
X21779664Y24731565D01*
X21740616Y24673126D01*
X21726904Y24604192D01*
X21700000Y24539239D01*
X21700000Y24468935D01*
X21686288Y24400000D01*
X21700000Y24331065D01*
X21700000Y24260761D01*
X21726904Y24195808D01*
X21740616Y24126874D01*
X21779664Y24068435D01*
X21798453Y24023073D01*
X21684173Y24000341D01*
X21543592Y23906408D01*
X21519881Y23870922D01*
X20354079Y22705119D01*
X20318593Y22681408D01*
X20294882Y22645922D01*
X20224659Y22540826D01*
X20191674Y22375000D01*
X20200001Y22333138D01*
X20200001Y20522637D01*
X20173725Y20586072D01*
X19386072Y21373725D01*
X18356955Y21800000D01*
X17243045Y21800000D01*
X16213928Y21373725D01*
X15426275Y20586072D01*
X15000000Y19556955D01*
X15000000Y18443045D01*
X15426275Y17413928D01*
X16213928Y16626275D01*
X17243045Y16200000D01*
X18356955Y16200000D01*
X19386072Y16626275D01*
X20173725Y17413928D01*
X20200000Y17477362D01*
X20200000Y16651041D01*
X18379079Y14830119D01*
X18343593Y14806408D01*
X18319882Y14770922D01*
X18249659Y14665826D01*
X18216674Y14500000D01*
X18225001Y14458138D01*
X18225000Y10091858D01*
X18216674Y10050000D01*
X18228962Y9988226D01*
X18249659Y9884174D01*
X18343592Y9743592D01*
X18379081Y9719879D01*
X19569881Y8529078D01*
X19593592Y8493592D01*
X19732383Y8400855D01*
X19734173Y8399659D01*
X19859008Y8374828D01*
X19844123Y8300000D01*
X19844123Y7700000D01*
X19864015Y7600000D01*
X19844123Y7500000D01*
X19844123Y6900000D01*
X19864015Y6800000D01*
X19844123Y6700000D01*
X19844123Y6100000D01*
X19859042Y6025000D01*
X19614950Y6025000D01*
X19446518Y6193432D01*
X19189239Y6300000D01*
X18910761Y6300000D01*
X18653482Y6193432D01*
X18456568Y5996518D01*
X18350000Y5739239D01*
X18350000Y5460761D01*
X18447655Y5225000D01*
X17715041Y5225000D01*
X15484121Y7455919D01*
X15460408Y7491408D01*
X15319827Y7585341D01*
X15239995Y7601221D01*
X15419103Y7720897D01*
X15673276Y8101293D01*
X15762529Y8550000D01*
X15673276Y8998707D01*
X15419103Y9379103D01*
X15290000Y9465367D01*
X15290000Y9683164D01*
X15303712Y9752100D01*
X15290000Y9821037D01*
X15290000Y9821040D01*
X15249385Y10025226D01*
X15249385Y10025227D01*
X15143869Y10183141D01*
X15094671Y10256771D01*
X15036226Y10295823D01*
X7505825Y17826223D01*
X7466771Y17884671D01*
X7235226Y18039385D01*
X7031040Y18080000D01*
X7031035Y18080000D01*
X6962100Y18093712D01*
X6893165Y18080000D01*
X4915367Y18080000D01*
X4829103Y18209103D01*
X4448707Y18463276D01*
X4113261Y18530000D01*
X3886739Y18530000D01*
X3551293Y18463276D01*
X3170897Y18209103D01*
X2916724Y17828707D01*
X2827471Y17380000D01*
X2916724Y16931293D01*
X3170897Y16550897D01*
X3551293Y16296724D01*
X3886739Y16230000D01*
X4113261Y16230000D01*
X4448707Y16296724D01*
X4829103Y16550897D01*
X4915367Y16680000D01*
X6672152Y16680000D01*
X13888072Y9464079D01*
X13760897Y9379103D01*
X13506724Y8998707D01*
X13417471Y8550000D01*
X13506724Y8101293D01*
X13760897Y7720897D01*
X13926866Y7610000D01*
X13187974Y7610000D01*
X13205877Y7700000D01*
X13205877Y9400000D01*
X13182593Y9517054D01*
X13116288Y9616288D01*
X13017054Y9682593D01*
X12900000Y9705877D01*
X11200000Y9705877D01*
X11082946Y9682593D01*
X10983712Y9616288D01*
X10917407Y9517054D01*
X10894123Y9400000D01*
X10894123Y7700000D01*
X10917407Y7582946D01*
X10983712Y7483712D01*
X11082946Y7417407D01*
X11200000Y7394123D01*
X11627789Y7394123D01*
X11633417Y7365827D01*
X11649659Y7284174D01*
X11743592Y7143592D01*
X11768977Y7126630D01*
X11601293Y7093276D01*
X11220897Y6839103D01*
X10966724Y6458707D01*
X10877471Y6010000D01*
X10966724Y5561293D01*
X11220897Y5180897D01*
X11601293Y4926724D01*
X11936739Y4860000D01*
X12163261Y4860000D01*
X12498707Y4926724D01*
X12518806Y4940154D01*
X12800001Y4658958D01*
X12800001Y4351958D01*
X12498707Y4553276D01*
X12163261Y4620000D01*
X11936739Y4620000D01*
X11601293Y4553276D01*
X11220897Y4299103D01*
X10966724Y3918707D01*
X10877471Y3470000D01*
X10966724Y3021293D01*
X11220897Y2640897D01*
X11601293Y2386724D01*
X11625000Y2382008D01*
X11625000Y2309777D01*
X11616674Y2267919D01*
X11645700Y2121996D01*
X11649659Y2102093D01*
X11743592Y1961511D01*
X11779081Y1937798D01*
X12591878Y1125000D01*
X11807043Y1125000D01*
X1725000Y11207042D01*
X1725000Y14595229D01*
X2774199Y14595229D01*
X2960145Y14146305D01*
X3304765Y13801174D01*
X3755228Y13614195D01*
X3950000Y13690996D01*
X3950000Y14790000D01*
X4050000Y14790000D01*
X4050000Y13690996D01*
X4244772Y13614195D01*
X4695235Y13801174D01*
X5039855Y14146305D01*
X5225801Y14595229D01*
X5148913Y14790000D01*
X4050000Y14790000D01*
X3950000Y14790000D01*
X2851087Y14790000D01*
X2774199Y14595229D01*
X1725000Y14595229D01*
X1725000Y15084771D01*
X2774199Y15084771D01*
X2851087Y14890000D01*
X3950000Y14890000D01*
X3950000Y15989004D01*
X4050000Y15989004D01*
X4050000Y14890000D01*
X5148913Y14890000D01*
X5225801Y15084771D01*
X5039855Y15533695D01*
X4695235Y15878826D01*
X4244772Y16065805D01*
X4050000Y15989004D01*
X3950000Y15989004D01*
X3755228Y16065805D01*
X3304765Y15878826D01*
X2960145Y15533695D01*
X2774199Y15084771D01*
X1725000Y15084771D01*
X1725000Y19920000D01*
X2827471Y19920000D01*
X2916724Y19471293D01*
X3170897Y19090897D01*
X3551293Y18836724D01*
X3886739Y18770000D01*
X4113261Y18770000D01*
X4448707Y18836724D01*
X4829103Y19090897D01*
X5083276Y19471293D01*
X5172529Y19920000D01*
X5083276Y20368707D01*
X4829103Y20749103D01*
X4448707Y21003276D01*
X4113261Y21070000D01*
X3886739Y21070000D01*
X3551293Y21003276D01*
X3170897Y20749103D01*
X2916724Y20368707D01*
X2827471Y19920000D01*
X1725000Y19920000D01*
X1725000Y22460000D01*
X2827471Y22460000D01*
X2916724Y22011293D01*
X3170897Y21630897D01*
X3551293Y21376724D01*
X3886739Y21310000D01*
X4113261Y21310000D01*
X4448707Y21376724D01*
X4829103Y21630897D01*
X5083276Y22011293D01*
X5172529Y22460000D01*
X5083276Y22908707D01*
X4829103Y23289103D01*
X4448707Y23543276D01*
X4113261Y23610000D01*
X3886739Y23610000D01*
X3551293Y23543276D01*
X3170897Y23289103D01*
X2916724Y22908707D01*
X2827471Y22460000D01*
X1725000Y22460000D01*
X1725000Y25000000D01*
X2827471Y25000000D01*
X2916724Y24551293D01*
X3170897Y24170897D01*
X3551293Y23916724D01*
X3886739Y23850000D01*
X4113261Y23850000D01*
X4448707Y23916724D01*
X4829103Y24170897D01*
X5083276Y24551293D01*
X5172529Y25000000D01*
X5083276Y25448707D01*
X4829103Y25829103D01*
X4448707Y26083276D01*
X4113261Y26150000D01*
X3886739Y26150000D01*
X3551293Y26083276D01*
X3170897Y25829103D01*
X2916724Y25448707D01*
X2827471Y25000000D01*
X1725000Y25000000D01*
X1725000Y27540000D01*
X2827471Y27540000D01*
X2916724Y27091293D01*
X3170897Y26710897D01*
X3551293Y26456724D01*
X3886739Y26390000D01*
X4113261Y26390000D01*
X4448707Y26456724D01*
X4829103Y26710897D01*
X5083276Y27091293D01*
X5172529Y27540000D01*
X5083276Y27988707D01*
X4829103Y28369103D01*
X4448707Y28623276D01*
X4113261Y28690000D01*
X3886739Y28690000D01*
X3551293Y28623276D01*
X3170897Y28369103D01*
X2916724Y27988707D01*
X2827471Y27540000D01*
X1725000Y27540000D01*
X1725000Y29743960D01*
X2061040Y30080000D01*
X2827471Y30080000D01*
X2916724Y29631293D01*
X3170897Y29250897D01*
X3551293Y28996724D01*
X3886739Y28930000D01*
X4113261Y28930000D01*
X4448707Y28996724D01*
X4829103Y29250897D01*
X5083276Y29631293D01*
X5172529Y30080000D01*
X5083276Y30528707D01*
X4829103Y30909103D01*
X4448707Y31163276D01*
X4113261Y31230000D01*
X3886739Y31230000D01*
X3551293Y31163276D01*
X3170897Y30909103D01*
X2916724Y30528707D01*
X2827471Y30080000D01*
X2061040Y30080000D01*
X3531194Y31550154D01*
X3551293Y31536724D01*
X3886739Y31470000D01*
X4113261Y31470000D01*
X4448707Y31536724D01*
X4829103Y31790897D01*
X5083276Y32171293D01*
X5172529Y32620000D01*
X5144833Y32759239D01*
X38270000Y32759239D01*
X38270000Y32480761D01*
X38376568Y32223482D01*
X38573482Y32026568D01*
X38830761Y31920000D01*
X39109239Y31920000D01*
X39366518Y32026568D01*
X39459950Y32120000D01*
X39644123Y32120000D01*
X39667407Y32002946D01*
X39733712Y31903712D01*
X39832946Y31837407D01*
X39950000Y31814123D01*
X43100000Y31814123D01*
X43217054Y31837407D01*
X43316288Y31903712D01*
X43382593Y32002946D01*
X43405877Y32120000D01*
X43405877Y32345861D01*
X43456568Y32223482D01*
X43653482Y32026568D01*
X43910761Y31920000D01*
X44189239Y31920000D01*
X44446518Y32026568D01*
X44539950Y32120000D01*
X44694123Y32120000D01*
X44717407Y32002946D01*
X44783712Y31903712D01*
X44882946Y31837407D01*
X45000000Y31814123D01*
X48150000Y31814123D01*
X48267054Y31837407D01*
X48366288Y31903712D01*
X48432593Y32002946D01*
X48455877Y32120000D01*
X48455877Y33120000D01*
X48432593Y33237054D01*
X48366288Y33336288D01*
X48267054Y33402593D01*
X48150000Y33425877D01*
X45000000Y33425877D01*
X44882946Y33402593D01*
X44783712Y33336288D01*
X44717407Y33237054D01*
X44694123Y33120000D01*
X44539950Y33120000D01*
X44446518Y33213432D01*
X44189239Y33320000D01*
X43910761Y33320000D01*
X43653482Y33213432D01*
X43456568Y33016518D01*
X43405877Y32894139D01*
X43405877Y33120000D01*
X43382593Y33237054D01*
X43316288Y33336288D01*
X43217054Y33402593D01*
X43100000Y33425877D01*
X39950000Y33425877D01*
X39832946Y33402593D01*
X39733712Y33336288D01*
X39667407Y33237054D01*
X39644123Y33120000D01*
X39459950Y33120000D01*
X39366518Y33213432D01*
X39109239Y33320000D01*
X38830761Y33320000D01*
X38573482Y33213432D01*
X38376568Y33016518D01*
X38270000Y32759239D01*
X5144833Y32759239D01*
X5083276Y33068707D01*
X4829103Y33449103D01*
X4448707Y33703276D01*
X4113261Y33770000D01*
X3886739Y33770000D01*
X3551293Y33703276D01*
X3170897Y33449103D01*
X2916724Y33068707D01*
X2827471Y32620000D01*
X2916724Y32171293D01*
X2930154Y32151194D01*
X1029079Y30250119D01*
X993593Y30226408D01*
X969882Y30190922D01*
X899659Y30085826D01*
X866674Y29920000D01*
X875001Y29878138D01*
X875000Y11072859D01*
X866674Y11031002D01*
X878311Y10972500D01*
X899659Y10865176D01*
X993592Y10724594D01*
X1029081Y10700881D01*
X7179961Y4550000D01*
X6691686Y4550000D01*
X6121996Y4314026D01*
X5685974Y3878004D01*
X5450000Y3308314D01*
X5450000Y2691686D01*
X5685974Y2121996D01*
X6121996Y1685974D01*
X6691686Y1450000D01*
X7308314Y1450000D01*
X7878004Y1685974D01*
X8314026Y2121996D01*
X8550000Y2691686D01*
X8550000Y3179961D01*
X11300883Y429078D01*
X11324594Y393592D01*
X11352419Y375000D01*
X3021787Y375000D01*
X2396702Y447877D01*
X2145458Y539075D01*
X1544316Y839645D01*
X1317824Y988140D01*
X900116Y1429082D01*
X879612Y1464382D01*
X534192Y2155224D01*
X417498Y2540517D01*
X375000Y3016696D01*
X375000Y3358042D01*
X1200000Y3358042D01*
X1200000Y2641958D01*
X1474034Y1980382D01*
X1980382Y1474034D01*
X2641958Y1200000D01*
X3358042Y1200000D01*
X4019618Y1474034D01*
X4525966Y1980382D01*
X4800000Y2641958D01*
X4800000Y3358042D01*
X4525966Y4019618D01*
X4019618Y4525966D01*
X3358042Y4800000D01*
X2641958Y4800000D01*
X1980382Y4525966D01*
X1474034Y4019618D01*
X1200000Y3358042D01*
X375000Y3358042D01*
X375000Y36010000D01*
X2844123Y36010000D01*
X2844123Y34310000D01*
X2867407Y34192946D01*
X2933712Y34093712D01*
X3032946Y34027407D01*
X3150000Y34004123D01*
X4850000Y34004123D01*
X4967054Y34027407D01*
X5066288Y34093712D01*
X5132593Y34192946D01*
X5155877Y34310000D01*
X5155877Y35299239D01*
X38270000Y35299239D01*
X38270000Y35020761D01*
X38376568Y34763482D01*
X38573482Y34566568D01*
X38830761Y34460000D01*
X39109239Y34460000D01*
X39366518Y34566568D01*
X39459950Y34660000D01*
X39644123Y34660000D01*
X39667407Y34542946D01*
X39733712Y34443712D01*
X39832946Y34377407D01*
X39950000Y34354123D01*
X43100000Y34354123D01*
X43217054Y34377407D01*
X43316288Y34443712D01*
X43382593Y34542946D01*
X43405877Y34660000D01*
X43405877Y34885861D01*
X43456568Y34763482D01*
X43653482Y34566568D01*
X43910761Y34460000D01*
X44189239Y34460000D01*
X44446518Y34566568D01*
X44539950Y34660000D01*
X44694123Y34660000D01*
X44717407Y34542946D01*
X44783712Y34443712D01*
X44882946Y34377407D01*
X45000000Y34354123D01*
X48150000Y34354123D01*
X48267054Y34377407D01*
X48366288Y34443712D01*
X48432593Y34542946D01*
X48455877Y34660000D01*
X48455877Y35660000D01*
X48432593Y35777054D01*
X48366288Y35876288D01*
X48267054Y35942593D01*
X48150000Y35965877D01*
X45000000Y35965877D01*
X44882946Y35942593D01*
X44783712Y35876288D01*
X44717407Y35777054D01*
X44694123Y35660000D01*
X44539950Y35660000D01*
X44446518Y35753432D01*
X44189239Y35860000D01*
X43910761Y35860000D01*
X43653482Y35753432D01*
X43456568Y35556518D01*
X43405877Y35434139D01*
X43405877Y35660000D01*
X43382593Y35777054D01*
X43316288Y35876288D01*
X43217054Y35942593D01*
X43100000Y35965877D01*
X39950000Y35965877D01*
X39832946Y35942593D01*
X39733712Y35876288D01*
X39667407Y35777054D01*
X39644123Y35660000D01*
X39459950Y35660000D01*
X39366518Y35753432D01*
X39109239Y35860000D01*
X38830761Y35860000D01*
X38573482Y35753432D01*
X38376568Y35556518D01*
X38270000Y35299239D01*
X5155877Y35299239D01*
X5155877Y36010000D01*
X5132593Y36127054D01*
X5066288Y36226288D01*
X4967054Y36292593D01*
X4850000Y36315877D01*
X3150000Y36315877D01*
X3032946Y36292593D01*
X2933712Y36226288D01*
X2867407Y36127054D01*
X2844123Y36010000D01*
X375000Y36010000D01*
X375000Y46978214D01*
X419283Y47358042D01*
X1200000Y47358042D01*
X1200000Y46641958D01*
X1474034Y45980382D01*
X1980382Y45474034D01*
X2641958Y45200000D01*
X3358042Y45200000D01*
X4019618Y45474034D01*
X4525966Y45980382D01*
X4800000Y46641958D01*
X4800000Y47358042D01*
X4525966Y48019618D01*
X4019618Y48525966D01*
X3358042Y48800000D01*
X2641958Y48800000D01*
X1980382Y48525966D01*
X1474034Y48019618D01*
X1200000Y47358042D01*
X419283Y47358042D01*
X447877Y47603294D01*
X539078Y47854548D01*
X839645Y48455684D01*
X988140Y48682176D01*
X1429084Y49099885D01*
X1464383Y49120389D01*
X2155224Y49465808D01*
X2540517Y49582502D01*
X3016697Y49625000D01*
X13900000Y49625000D01*
X13900000Y37500000D01*
X13900000Y37500000D01*
G37*
X13900000Y37500000D02*
X13907612Y37461732D01*
X13929289Y37429289D01*
X13961732Y37407612D01*
X14000000Y37400000D01*
X36000000Y37400000D01*
X36038268Y37407612D01*
X36070711Y37429289D01*
X36092388Y37461732D01*
X36100000Y37500000D01*
X36100000Y37839239D01*
X38270000Y37839239D01*
X38270000Y37560761D01*
X38376568Y37303482D01*
X38573482Y37106568D01*
X38830761Y37000000D01*
X39109239Y37000000D01*
X39366518Y37106568D01*
X39459950Y37200000D01*
X39644123Y37200000D01*
X39667407Y37082946D01*
X39733712Y36983712D01*
X39832946Y36917407D01*
X39950000Y36894123D01*
X43100000Y36894123D01*
X43217054Y36917407D01*
X43316288Y36983712D01*
X43382593Y37082946D01*
X43405877Y37200000D01*
X43405877Y37550000D01*
X44600000Y37550000D01*
X44600000Y37120435D01*
X44660896Y36973418D01*
X44773418Y36860896D01*
X44920435Y36800000D01*
X46425000Y36800000D01*
X46525000Y36900000D01*
X46525000Y37650000D01*
X46625000Y37650000D01*
X46625000Y36900000D01*
X46725000Y36800000D01*
X48229565Y36800000D01*
X48376582Y36860896D01*
X48489104Y36973418D01*
X48550000Y37120435D01*
X48550000Y37550000D01*
X48450000Y37650000D01*
X46625000Y37650000D01*
X46525000Y37650000D01*
X44700000Y37650000D01*
X44600000Y37550000D01*
X43405877Y37550000D01*
X43405877Y38200000D01*
X43382593Y38317054D01*
X43316288Y38416288D01*
X43217054Y38482593D01*
X43100000Y38505877D01*
X39950000Y38505877D01*
X39832946Y38482593D01*
X39733712Y38416288D01*
X39667407Y38317054D01*
X39644123Y38200000D01*
X39459950Y38200000D01*
X39366518Y38293432D01*
X39109239Y38400000D01*
X38830761Y38400000D01*
X38573482Y38293432D01*
X38376568Y38096518D01*
X38270000Y37839239D01*
X36100000Y37839239D01*
X36100000Y39109239D01*
X43350000Y39109239D01*
X43350000Y38830761D01*
X43456568Y38573482D01*
X43653482Y38376568D01*
X43910761Y38270000D01*
X44189239Y38270000D01*
X44212331Y38279565D01*
X44600000Y38279565D01*
X44600000Y37850000D01*
X44700000Y37750000D01*
X46525000Y37750000D01*
X46525000Y38500000D01*
X46625000Y38500000D01*
X46625000Y37750000D01*
X48450000Y37750000D01*
X48550000Y37850000D01*
X48550000Y38279565D01*
X48489104Y38426582D01*
X48376582Y38539104D01*
X48229565Y38600000D01*
X46725000Y38600000D01*
X46625000Y38500000D01*
X46525000Y38500000D01*
X46425000Y38600000D01*
X44920435Y38600000D01*
X44773418Y38539104D01*
X44660896Y38426582D01*
X44600000Y38279565D01*
X44212331Y38279565D01*
X44446518Y38376568D01*
X44643432Y38573482D01*
X44750000Y38830761D01*
X44750000Y39109239D01*
X44643432Y39366518D01*
X44446518Y39563432D01*
X44189239Y39670000D01*
X43910761Y39670000D01*
X43653482Y39563432D01*
X43456568Y39366518D01*
X43350000Y39109239D01*
X36100000Y39109239D01*
X36100000Y40379239D01*
X38270000Y40379239D01*
X38270000Y40100761D01*
X38376568Y39843482D01*
X38573482Y39646568D01*
X38830761Y39540000D01*
X39109239Y39540000D01*
X39366518Y39646568D01*
X39459950Y39740000D01*
X39644123Y39740000D01*
X39667407Y39622946D01*
X39733712Y39523712D01*
X39832946Y39457407D01*
X39950000Y39434123D01*
X43100000Y39434123D01*
X43217054Y39457407D01*
X43316288Y39523712D01*
X43382593Y39622946D01*
X43405877Y39740000D01*
X43405877Y40090000D01*
X44600000Y40090000D01*
X44600000Y39660435D01*
X44660896Y39513418D01*
X44773418Y39400896D01*
X44920435Y39340000D01*
X46425000Y39340000D01*
X46525000Y39440000D01*
X46525000Y40190000D01*
X46625000Y40190000D01*
X46625000Y39440000D01*
X46725000Y39340000D01*
X48229565Y39340000D01*
X48376582Y39400896D01*
X48489104Y39513418D01*
X48550000Y39660435D01*
X48550000Y40090000D01*
X48450000Y40190000D01*
X46625000Y40190000D01*
X46525000Y40190000D01*
X44700000Y40190000D01*
X44600000Y40090000D01*
X43405877Y40090000D01*
X43405877Y40740000D01*
X43382593Y40857054D01*
X43316288Y40956288D01*
X43217054Y41022593D01*
X43100000Y41045877D01*
X39950000Y41045877D01*
X39832946Y41022593D01*
X39733712Y40956288D01*
X39667407Y40857054D01*
X39644123Y40740000D01*
X39459950Y40740000D01*
X39366518Y40833432D01*
X39109239Y40940000D01*
X38830761Y40940000D01*
X38573482Y40833432D01*
X38376568Y40636518D01*
X38270000Y40379239D01*
X36100000Y40379239D01*
X36100000Y41669130D01*
X43250000Y41669130D01*
X43250000Y41350870D01*
X43371793Y41056836D01*
X43596836Y40831793D01*
X43890870Y40710000D01*
X44209130Y40710000D01*
X44473643Y40819565D01*
X44600000Y40819565D01*
X44600000Y40390000D01*
X44700000Y40290000D01*
X46525000Y40290000D01*
X46525000Y41040000D01*
X46625000Y41040000D01*
X46625000Y40290000D01*
X48450000Y40290000D01*
X48550000Y40390000D01*
X48550000Y40819565D01*
X48489104Y40966582D01*
X48376582Y41079104D01*
X48229565Y41140000D01*
X46725000Y41140000D01*
X46625000Y41040000D01*
X46525000Y41040000D01*
X46425000Y41140000D01*
X44920435Y41140000D01*
X44773418Y41079104D01*
X44660896Y40966582D01*
X44600000Y40819565D01*
X44473643Y40819565D01*
X44503164Y40831793D01*
X44728207Y41056836D01*
X44850000Y41350870D01*
X44850000Y41669130D01*
X44728207Y41963164D01*
X44503164Y42188207D01*
X44209130Y42310000D01*
X43890870Y42310000D01*
X43596836Y42188207D01*
X43371793Y41963164D01*
X43250000Y41669130D01*
X36100000Y41669130D01*
X36100000Y42919239D01*
X38270000Y42919239D01*
X38270000Y42640761D01*
X38376568Y42383482D01*
X38573482Y42186568D01*
X38830761Y42080000D01*
X39109239Y42080000D01*
X39366518Y42186568D01*
X39459950Y42280000D01*
X39644123Y42280000D01*
X39667407Y42162946D01*
X39733712Y42063712D01*
X39832946Y41997407D01*
X39950000Y41974123D01*
X43100000Y41974123D01*
X43217054Y41997407D01*
X43316288Y42063712D01*
X43382593Y42162946D01*
X43405877Y42280000D01*
X43405877Y42630000D01*
X44600000Y42630000D01*
X44600000Y42200435D01*
X44660896Y42053418D01*
X44773418Y41940896D01*
X44920435Y41880000D01*
X46425000Y41880000D01*
X46525000Y41980000D01*
X46525000Y42730000D01*
X46625000Y42730000D01*
X46625000Y41980000D01*
X46725000Y41880000D01*
X48229565Y41880000D01*
X48376582Y41940896D01*
X48489104Y42053418D01*
X48550000Y42200435D01*
X48550000Y42630000D01*
X48450000Y42730000D01*
X46625000Y42730000D01*
X46525000Y42730000D01*
X44700000Y42730000D01*
X44600000Y42630000D01*
X43405877Y42630000D01*
X43405877Y43280000D01*
X43390051Y43359565D01*
X44600000Y43359565D01*
X44600000Y42930000D01*
X44700000Y42830000D01*
X46525000Y42830000D01*
X46525000Y43580000D01*
X46625000Y43580000D01*
X46625000Y42830000D01*
X48450000Y42830000D01*
X48550000Y42930000D01*
X48550000Y43359565D01*
X48489104Y43506582D01*
X48376582Y43619104D01*
X48229565Y43680000D01*
X46725000Y43680000D01*
X46625000Y43580000D01*
X46525000Y43580000D01*
X46425000Y43680000D01*
X44920435Y43680000D01*
X44773418Y43619104D01*
X44660896Y43506582D01*
X44600000Y43359565D01*
X43390051Y43359565D01*
X43382593Y43397054D01*
X43316288Y43496288D01*
X43217054Y43562593D01*
X43100000Y43585877D01*
X39950000Y43585877D01*
X39832946Y43562593D01*
X39733712Y43496288D01*
X39667407Y43397054D01*
X39644123Y43280000D01*
X39459950Y43280000D01*
X39366518Y43373432D01*
X39109239Y43480000D01*
X38830761Y43480000D01*
X38573482Y43373432D01*
X38376568Y43176518D01*
X38270000Y42919239D01*
X36100000Y42919239D01*
X36100000Y47358042D01*
X45200000Y47358042D01*
X45200000Y46641958D01*
X45474034Y45980382D01*
X45980382Y45474034D01*
X46641958Y45200000D01*
X47358042Y45200000D01*
X48019618Y45474034D01*
X48525966Y45980382D01*
X48800000Y46641958D01*
X48800000Y47358042D01*
X48525966Y48019618D01*
X48019618Y48525966D01*
X47358042Y48800000D01*
X46641958Y48800000D01*
X45980382Y48525966D01*
X45474034Y48019618D01*
X45200000Y47358042D01*
X36100000Y47358042D01*
X36100000Y49625000D01*
X46978214Y49625000D01*
X47603294Y49552123D01*
X47854548Y49460922D01*
X48455684Y49160355D01*
X48682176Y49011860D01*
X49099885Y48570916D01*
X49120389Y48535617D01*
X49465808Y47844776D01*
X49582502Y47459483D01*
X49625001Y46983292D01*
X49625000Y3021787D01*
X49552123Y2396702D01*
X49460925Y2145458D01*
X49160355Y1544316D01*
X49011860Y1317824D01*
X48570918Y900116D01*
X48535618Y879612D01*
X47844776Y534192D01*
X47459483Y417498D01*
X46983304Y375000D01*
X28351585Y375000D01*
X28379410Y393592D01*
X28403123Y429081D01*
X29520919Y1546877D01*
X29556408Y1570590D01*
X29650341Y1711171D01*
X29675000Y1835140D01*
X29683326Y1876998D01*
X29675000Y1918855D01*
X29675000Y3308314D01*
X41450000Y3308314D01*
X41450000Y2691686D01*
X41685974Y2121996D01*
X42121996Y1685974D01*
X42691686Y1450000D01*
X43308314Y1450000D01*
X43878004Y1685974D01*
X44314026Y2121996D01*
X44550000Y2691686D01*
X44550000Y3308314D01*
X44529402Y3358042D01*
X45200000Y3358042D01*
X45200000Y2641958D01*
X45474034Y1980382D01*
X45980382Y1474034D01*
X46641958Y1200000D01*
X47358042Y1200000D01*
X48019618Y1474034D01*
X48525966Y1980382D01*
X48800000Y2641958D01*
X48800000Y3358042D01*
X48525966Y4019618D01*
X48019618Y4525966D01*
X47358042Y4800000D01*
X46641958Y4800000D01*
X45980382Y4525966D01*
X45474034Y4019618D01*
X45200000Y3358042D01*
X44529402Y3358042D01*
X44314026Y3878004D01*
X43878004Y4314026D01*
X43308314Y4550000D01*
X42691686Y4550000D01*
X42121996Y4314026D01*
X41685974Y3878004D01*
X41450000Y3308314D01*
X29675000Y3308314D01*
X29675000Y4194123D01*
X29850000Y4194123D01*
X29967054Y4217407D01*
X30066288Y4283712D01*
X30132593Y4382946D01*
X30155877Y4500000D01*
X30155877Y5100000D01*
X30135985Y5200000D01*
X30155877Y5300000D01*
X30155877Y5900000D01*
X30140958Y5975000D01*
X36358143Y5975000D01*
X36400000Y5966674D01*
X36441857Y5975000D01*
X36441858Y5975000D01*
X36565827Y5999659D01*
X36706408Y6093592D01*
X36730121Y6129081D01*
X39420922Y8819881D01*
X39456408Y8843592D01*
X39550341Y8984173D01*
X39566204Y9063921D01*
X39583326Y9149999D01*
X39575000Y9191857D01*
X39575000Y12337560D01*
X39644123Y12406683D01*
X39644123Y11800000D01*
X39667407Y11682946D01*
X39733712Y11583712D01*
X39832946Y11517407D01*
X39950000Y11494123D01*
X40984173Y11494123D01*
X40916568Y11426518D01*
X40810000Y11169239D01*
X40810000Y10890761D01*
X40916568Y10633482D01*
X40984173Y10565877D01*
X39950000Y10565877D01*
X39832946Y10542593D01*
X39733712Y10476288D01*
X39667407Y10377054D01*
X39644123Y10260000D01*
X39644123Y9260000D01*
X39667407Y9142946D01*
X39733712Y9043712D01*
X39832946Y8977407D01*
X39950000Y8954123D01*
X40984173Y8954123D01*
X40931568Y8901518D01*
X40825000Y8644239D01*
X40825000Y8365761D01*
X40931568Y8108482D01*
X41014173Y8025877D01*
X39950000Y8025877D01*
X39832946Y8002593D01*
X39733712Y7936288D01*
X39667407Y7837054D01*
X39644123Y7720000D01*
X39459950Y7720000D01*
X39366518Y7813432D01*
X39109239Y7920000D01*
X38830761Y7920000D01*
X38573482Y7813432D01*
X38376568Y7616518D01*
X38270000Y7359239D01*
X38270000Y7080761D01*
X38376568Y6823482D01*
X38573482Y6626568D01*
X38830761Y6520000D01*
X39109239Y6520000D01*
X39366518Y6626568D01*
X39459950Y6720000D01*
X39644123Y6720000D01*
X39667407Y6602946D01*
X39733712Y6503712D01*
X39832946Y6437407D01*
X39950000Y6414123D01*
X43100000Y6414123D01*
X43217054Y6437407D01*
X43316288Y6503712D01*
X43382593Y6602946D01*
X43405877Y6720000D01*
X43405877Y6945861D01*
X43456568Y6823482D01*
X43653482Y6626568D01*
X43910761Y6520000D01*
X44189239Y6520000D01*
X44446518Y6626568D01*
X44539950Y6720000D01*
X44694123Y6720000D01*
X44717407Y6602946D01*
X44783712Y6503712D01*
X44882946Y6437407D01*
X45000000Y6414123D01*
X48150000Y6414123D01*
X48267054Y6437407D01*
X48366288Y6503712D01*
X48432593Y6602946D01*
X48455877Y6720000D01*
X48455877Y7720000D01*
X48432593Y7837054D01*
X48366288Y7936288D01*
X48267054Y8002593D01*
X48150000Y8025877D01*
X47175000Y8025877D01*
X47175000Y8954123D01*
X48150000Y8954123D01*
X48267054Y8977407D01*
X48366288Y9043712D01*
X48432593Y9142946D01*
X48455877Y9260000D01*
X48455877Y10260000D01*
X48432593Y10377054D01*
X48366288Y10476288D01*
X48267054Y10542593D01*
X48150000Y10565877D01*
X47175000Y10565877D01*
X47175000Y11494123D01*
X48150000Y11494123D01*
X48267054Y11517407D01*
X48366288Y11583712D01*
X48432593Y11682946D01*
X48455877Y11800000D01*
X48455877Y12800000D01*
X48432593Y12917054D01*
X48366288Y13016288D01*
X48267054Y13082593D01*
X48150000Y13105877D01*
X47115827Y13105877D01*
X47183432Y13173482D01*
X47290000Y13430761D01*
X47290000Y13709239D01*
X47183432Y13966518D01*
X47115827Y14034123D01*
X48150000Y14034123D01*
X48267054Y14057407D01*
X48366288Y14123712D01*
X48432593Y14222946D01*
X48455877Y14340000D01*
X48455877Y15340000D01*
X48432593Y15457054D01*
X48366288Y15556288D01*
X48267054Y15622593D01*
X48150000Y15645877D01*
X47135827Y15645877D01*
X47193432Y15703482D01*
X47300000Y15960761D01*
X47300000Y16239239D01*
X47193432Y16496518D01*
X47115827Y16574123D01*
X48150000Y16574123D01*
X48267054Y16597407D01*
X48366288Y16663712D01*
X48432593Y16762946D01*
X48455877Y16880000D01*
X48455877Y17880000D01*
X48432593Y17997054D01*
X48366288Y18096288D01*
X48267054Y18162593D01*
X48150000Y18185877D01*
X47075827Y18185877D01*
X47193432Y18303482D01*
X47300000Y18560761D01*
X47300000Y18839239D01*
X47193432Y19096518D01*
X47175827Y19114123D01*
X48150000Y19114123D01*
X48267054Y19137407D01*
X48366288Y19203712D01*
X48432593Y19302946D01*
X48455877Y19420000D01*
X48455877Y20420000D01*
X48432593Y20537054D01*
X48366288Y20636288D01*
X48267054Y20702593D01*
X48150000Y20725877D01*
X45000000Y20725877D01*
X44925000Y20710958D01*
X44925000Y21283960D01*
X45295163Y21654123D01*
X48150000Y21654123D01*
X48267054Y21677407D01*
X48366288Y21743712D01*
X48432593Y21842946D01*
X48455877Y21960000D01*
X48455877Y22960000D01*
X48432593Y23077054D01*
X48366288Y23176288D01*
X48267054Y23242593D01*
X48150000Y23265877D01*
X45000000Y23265877D01*
X44882946Y23242593D01*
X44783712Y23176288D01*
X44717407Y23077054D01*
X44694123Y22960000D01*
X44539950Y22960000D01*
X44446518Y23053432D01*
X44189239Y23160000D01*
X43910761Y23160000D01*
X43653482Y23053432D01*
X43456568Y22856518D01*
X43405877Y22734139D01*
X43405877Y22960000D01*
X43382593Y23077054D01*
X43316288Y23176288D01*
X43217054Y23242593D01*
X43100000Y23265877D01*
X39950000Y23265877D01*
X39832946Y23242593D01*
X39733712Y23176288D01*
X39667407Y23077054D01*
X39644123Y22960000D01*
X39459950Y22960000D01*
X39366518Y23053432D01*
X39109239Y23160000D01*
X38830761Y23160000D01*
X38573482Y23053432D01*
X38376568Y22856518D01*
X38270000Y22599239D01*
X38270000Y22320761D01*
X38376568Y22063482D01*
X38573482Y21866568D01*
X38830761Y21760000D01*
X39109239Y21760000D01*
X39366518Y21866568D01*
X39459950Y21960000D01*
X39644123Y21960000D01*
X39667407Y21842946D01*
X39733712Y21743712D01*
X39832946Y21677407D01*
X39950000Y21654123D01*
X42804837Y21654123D01*
X43475001Y20983958D01*
X43475000Y14731041D01*
X43405877Y14661918D01*
X43405877Y15340000D01*
X43382593Y15457054D01*
X43316288Y15556288D01*
X43217054Y15622593D01*
X43100000Y15645877D01*
X42181409Y15645877D01*
X42200000Y15690761D01*
X42200000Y15969239D01*
X42093432Y16226518D01*
X41896518Y16423432D01*
X41639239Y16530000D01*
X41360761Y16530000D01*
X41103482Y16423432D01*
X40906568Y16226518D01*
X40800000Y15969239D01*
X40800000Y15690761D01*
X40818591Y15645877D01*
X40050000Y15645877D01*
X40050000Y16378960D01*
X40245163Y16574123D01*
X43100000Y16574123D01*
X43217054Y16597407D01*
X43316288Y16663712D01*
X43382593Y16762946D01*
X43405877Y16880000D01*
X43405877Y17880000D01*
X43382593Y17997054D01*
X43316288Y18096288D01*
X43217054Y18162593D01*
X43100000Y18185877D01*
X39950000Y18185877D01*
X39832946Y18162593D01*
X39733712Y18096288D01*
X39667407Y17997054D01*
X39644123Y17880000D01*
X39644123Y17805000D01*
X39534950Y17805000D01*
X39366518Y17973432D01*
X39172031Y18053991D01*
X39240922Y18122882D01*
X39276408Y18146592D01*
X39370341Y18287173D01*
X39395000Y18411142D01*
X39395000Y18411143D01*
X39403326Y18453000D01*
X39395000Y18494857D01*
X39395000Y19355050D01*
X39534950Y19495000D01*
X39644123Y19495000D01*
X39644123Y19420000D01*
X39667407Y19302946D01*
X39733712Y19203712D01*
X39832946Y19137407D01*
X39950000Y19114123D01*
X43100000Y19114123D01*
X43217054Y19137407D01*
X43316288Y19203712D01*
X43382593Y19302946D01*
X43405877Y19420000D01*
X43405877Y20420000D01*
X43382593Y20537054D01*
X43316288Y20636288D01*
X43217054Y20702593D01*
X43100000Y20725877D01*
X39950000Y20725877D01*
X39832946Y20702593D01*
X39733712Y20636288D01*
X39667407Y20537054D01*
X39644123Y20420000D01*
X39644123Y20345000D01*
X39534950Y20345000D01*
X39366518Y20513432D01*
X39109239Y20620000D01*
X38830761Y20620000D01*
X38573482Y20513432D01*
X38376568Y20316518D01*
X38270000Y20059239D01*
X38270000Y19780761D01*
X38376568Y19523482D01*
X38545001Y19355049D01*
X38545000Y18629041D01*
X38345751Y18429791D01*
X38400000Y18560761D01*
X38400000Y18839239D01*
X38293432Y19096518D01*
X38096518Y19293432D01*
X37839239Y19400000D01*
X37560761Y19400000D01*
X37303482Y19293432D01*
X37141872Y19131822D01*
X37134314Y19133326D01*
X37092458Y19125000D01*
X37092457Y19125000D01*
X36968488Y19100341D01*
X36827907Y19006408D01*
X36804196Y18970922D01*
X36114081Y18280806D01*
X36078592Y18257093D01*
X35984660Y18116512D01*
X35984659Y18116511D01*
X35951674Y17950685D01*
X35960000Y17908827D01*
X35960001Y16935158D01*
X35960000Y15121875D01*
X35916914Y15093086D01*
X35900000Y15067772D01*
X35883086Y15093086D01*
X35736000Y15191366D01*
X35562500Y15225877D01*
X35267500Y15225877D01*
X35094000Y15191366D01*
X34946914Y15093086D01*
X34901420Y15025000D01*
X33676041Y15025000D01*
X33300000Y15401040D01*
X33300000Y15639239D01*
X33193432Y15896518D01*
X32996518Y16093432D01*
X32739239Y16200000D01*
X32756955Y16200000D01*
X33786072Y16626275D01*
X34573725Y17413928D01*
X35000000Y18443045D01*
X35000000Y19556955D01*
X34573725Y20586072D01*
X33786072Y21373725D01*
X32756955Y21800000D01*
X31643045Y21800000D01*
X30613928Y21373725D01*
X29826275Y20586072D01*
X29400000Y19556955D01*
X29400000Y18443045D01*
X29557689Y18062351D01*
X28974121Y18645919D01*
X28950408Y18681408D01*
X28809827Y18775341D01*
X28685858Y18800000D01*
X28685857Y18800000D01*
X28644000Y18808326D01*
X28602143Y18800000D01*
X28362473Y18800000D01*
X28400000Y18890598D01*
X28400000Y19109402D01*
X28316267Y19311550D01*
X28161550Y19466267D01*
X27959402Y19550000D01*
X27740598Y19550000D01*
X27538450Y19466267D01*
X27383733Y19311550D01*
X27300000Y19109402D01*
X27300000Y18926086D01*
X27294543Y18925000D01*
X24158142Y18925000D01*
X24034173Y18900341D01*
X23893592Y18806408D01*
X23799659Y18665827D01*
X23799539Y18665225D01*
X23495016Y18360700D01*
X23461617Y18338384D01*
X23407301Y18257093D01*
X23373209Y18206071D01*
X23342164Y18050000D01*
X23350001Y18010602D01*
X23350001Y17950001D01*
X23300000Y17900000D01*
X23300000Y17629545D01*
X23294123Y17600000D01*
X23294123Y16500000D01*
X23300000Y16470455D01*
X23300000Y16200000D01*
X23400000Y16100000D01*
X23479565Y16100000D01*
X23626582Y16160896D01*
X23659809Y16194123D01*
X23900000Y16194123D01*
X24000000Y16214015D01*
X24100000Y16194123D01*
X24350000Y16194123D01*
X24350001Y14689398D01*
X24342164Y14650000D01*
X24373209Y14493929D01*
X24373210Y14493928D01*
X24461617Y14361616D01*
X24495016Y14339300D01*
X24500000Y14334316D01*
X24500000Y14060761D01*
X24606568Y13803482D01*
X24803482Y13606568D01*
X25060761Y13500000D01*
X25339239Y13500000D01*
X25596518Y13606568D01*
X25793432Y13803482D01*
X25860518Y13965442D01*
X27070082Y12755877D01*
X26759809Y12755877D01*
X26726582Y12789104D01*
X26579565Y12850000D01*
X26350000Y12850000D01*
X26250000Y12750000D01*
X26250000Y11900000D01*
X26270000Y11900000D01*
X26270000Y11800000D01*
X26250000Y11800000D01*
X26250000Y10950000D01*
X26350000Y10850000D01*
X26579565Y10850000D01*
X26680437Y10891782D01*
X26693593Y10872092D01*
X26729079Y10848381D01*
X26809800Y10767660D01*
X26809801Y10445341D01*
X26611860Y10247400D01*
X26111623Y10247400D01*
X26200000Y10460761D01*
X26200000Y10739239D01*
X26123625Y10923625D01*
X26150000Y10950000D01*
X26150000Y11800000D01*
X26130000Y11800000D01*
X26130000Y11900000D01*
X26150000Y11900000D01*
X26150000Y12750000D01*
X26050000Y12850000D01*
X25820435Y12850000D01*
X25673418Y12789104D01*
X25640191Y12755877D01*
X25159809Y12755877D01*
X25126582Y12789104D01*
X24979565Y12850000D01*
X24750000Y12850000D01*
X24650000Y12750000D01*
X24650000Y11900000D01*
X24670000Y11900000D01*
X24670000Y11800000D01*
X24650000Y11800000D01*
X24650000Y10950000D01*
X24750000Y10850000D01*
X24845879Y10850000D01*
X24800000Y10739239D01*
X24800000Y10460761D01*
X24888377Y10247400D01*
X24111623Y10247400D01*
X24200000Y10460761D01*
X24200000Y10733663D01*
X24200341Y10734173D01*
X24214604Y10805878D01*
X24223381Y10850000D01*
X24450000Y10850000D01*
X24550000Y10950000D01*
X24550000Y11800000D01*
X24530000Y11800000D01*
X24530000Y11900000D01*
X24550000Y11900000D01*
X24550000Y12750000D01*
X24450000Y12850000D01*
X24220435Y12850000D01*
X24073418Y12789104D01*
X24040191Y12755877D01*
X23500000Y12755877D01*
X23400000Y12735985D01*
X23300000Y12755877D01*
X22700000Y12755877D01*
X22600000Y12735985D01*
X22500000Y12755877D01*
X21900000Y12755877D01*
X21782946Y12732593D01*
X21683712Y12666288D01*
X21617407Y12567054D01*
X21594123Y12450000D01*
X21594123Y11641920D01*
X21125000Y12111042D01*
X21125000Y13235050D01*
X21293432Y13403482D01*
X21400000Y13660761D01*
X21400000Y13939239D01*
X21293432Y14196518D01*
X21096518Y14393432D01*
X20839239Y14500000D01*
X20560761Y14500000D01*
X20303482Y14393432D01*
X20106568Y14196518D01*
X20000000Y13939239D01*
X20000000Y13660761D01*
X20106568Y13403482D01*
X20275001Y13235049D01*
X20275000Y12452345D01*
X20039239Y12550000D01*
X19760761Y12550000D01*
X19525000Y12452345D01*
X19525000Y13923960D01*
X21620920Y16019880D01*
X21656408Y16043592D01*
X21750341Y16184173D01*
X21775000Y16308142D01*
X21775000Y16308143D01*
X21783326Y16350000D01*
X21775000Y16391857D01*
X21775000Y16426944D01*
X21960761Y16350000D01*
X22239239Y16350000D01*
X22239381Y16350059D01*
X22283712Y16283712D01*
X22382946Y16217407D01*
X22500000Y16194123D01*
X22840191Y16194123D01*
X22873418Y16160896D01*
X23020435Y16100000D01*
X23100000Y16100000D01*
X23200000Y16200000D01*
X23200000Y16470455D01*
X23205877Y16500000D01*
X23205877Y17600000D01*
X23200000Y17629545D01*
X23200000Y17900000D01*
X23100000Y18000000D01*
X23020435Y18000000D01*
X22873418Y17939104D01*
X22840191Y17905877D01*
X22500000Y17905877D01*
X22382946Y17882593D01*
X22283712Y17816288D01*
X22239381Y17749941D01*
X22239239Y17750000D01*
X21960761Y17750000D01*
X21775000Y17673056D01*
X21775000Y18597183D01*
X21838450Y18533733D01*
X22040598Y18450000D01*
X22259402Y18450000D01*
X22461550Y18533733D01*
X22616267Y18688450D01*
X22700000Y18890598D01*
X22700000Y19109402D01*
X22616267Y19311550D01*
X22461550Y19466267D01*
X22259402Y19550000D01*
X22040598Y19550000D01*
X21838450Y19466267D01*
X21775000Y19402817D01*
X21775000Y21729694D01*
X21806568Y21653482D01*
X22003482Y21456568D01*
X22194123Y21377602D01*
X22194123Y20400000D01*
X22217407Y20282946D01*
X22283712Y20183712D01*
X22382946Y20117407D01*
X22500000Y20094123D01*
X22840191Y20094123D01*
X22873418Y20060896D01*
X23020435Y20000000D01*
X23100000Y20000000D01*
X23200000Y20100000D01*
X23200000Y20320435D01*
X23260896Y20173418D01*
X23300000Y20134314D01*
X23300000Y20100000D01*
X23400000Y20000000D01*
X23479565Y20000000D01*
X23500000Y20008464D01*
X23520435Y20000000D01*
X23600000Y20000000D01*
X23700000Y20100000D01*
X23700000Y20134314D01*
X23739104Y20173418D01*
X23800000Y20320435D01*
X23800000Y20100000D01*
X23900000Y20000000D01*
X23979565Y20000000D01*
X24126582Y20060896D01*
X24159809Y20094123D01*
X24400000Y20094123D01*
X24500000Y20114015D01*
X24600000Y20094123D01*
X24900000Y20094123D01*
X25000000Y20114015D01*
X25100000Y20094123D01*
X25400000Y20094123D01*
X25500000Y20114015D01*
X25600000Y20094123D01*
X25900000Y20094123D01*
X26000000Y20114015D01*
X26100000Y20094123D01*
X26340191Y20094123D01*
X26373418Y20060896D01*
X26520435Y20000000D01*
X26600000Y20000000D01*
X26700000Y20100000D01*
X26700000Y20320435D01*
X26760896Y20173418D01*
X26800000Y20134314D01*
X26800000Y20100000D01*
X26900000Y20000000D01*
X26979565Y20000000D01*
X27000000Y20008464D01*
X27020435Y20000000D01*
X27150000Y20000000D01*
X27250000Y20100000D01*
X27250000Y20199723D01*
X27300000Y20320435D01*
X27300000Y20800000D01*
X27250000Y20850000D01*
X27250000Y20900000D01*
X27350000Y20900000D01*
X27350000Y20100000D01*
X27450000Y20000000D01*
X27579565Y20000000D01*
X27726582Y20060896D01*
X27839104Y20173418D01*
X27900000Y20320435D01*
X27900000Y20800000D01*
X27800000Y20900000D01*
X27350000Y20900000D01*
X27250000Y20900000D01*
X27230000Y20900000D01*
X27230000Y21000000D01*
X27250000Y21000000D01*
X27250000Y21050000D01*
X27300000Y21100000D01*
X27300000Y21579565D01*
X27250000Y21700277D01*
X27250000Y21800000D01*
X27350000Y21800000D01*
X27350000Y21000000D01*
X27800000Y21000000D01*
X27900000Y21100000D01*
X27900000Y21579565D01*
X27839104Y21726582D01*
X27726582Y21839104D01*
X27579565Y21900000D01*
X27450000Y21900000D01*
X27350000Y21800000D01*
X27250000Y21800000D01*
X27150000Y21900000D01*
X27020435Y21900000D01*
X27000000Y21891536D01*
X26979565Y21900000D01*
X26900000Y21900000D01*
X26800000Y21800000D01*
X26800000Y21765686D01*
X26760896Y21726582D01*
X26700000Y21579565D01*
X26700000Y21800000D01*
X26600000Y21900000D01*
X26520435Y21900000D01*
X26373418Y21839104D01*
X26340191Y21805877D01*
X26100000Y21805877D01*
X26000000Y21785985D01*
X25900000Y21805877D01*
X25600000Y21805877D01*
X25500000Y21785985D01*
X25400000Y21805877D01*
X25150000Y21805877D01*
X25150000Y22960607D01*
X25157836Y23000001D01*
X25127999Y23150000D01*
X25126791Y23156072D01*
X25038384Y23288384D01*
X25004982Y23310702D01*
X25000461Y23315223D01*
X25000341Y23315827D01*
X24930118Y23420923D01*
X24480121Y23870920D01*
X24456408Y23906408D01*
X24315827Y24000341D01*
X24191858Y24025000D01*
X24191857Y24025000D01*
X24150000Y24033326D01*
X24108143Y24025000D01*
X23014948Y24025000D01*
X23089948Y24100000D01*
X32831065Y24100000D01*
X32900000Y24086288D01*
X32968935Y24100000D01*
X32968940Y24100000D01*
X33173126Y24140615D01*
X33404671Y24295329D01*
X33443724Y24353776D01*
X34229187Y25139239D01*
X38270000Y25139239D01*
X38270000Y24860761D01*
X38376568Y24603482D01*
X38573482Y24406568D01*
X38830761Y24300000D01*
X39109239Y24300000D01*
X39366518Y24406568D01*
X39459950Y24500000D01*
X39644123Y24500000D01*
X39667407Y24382946D01*
X39733712Y24283712D01*
X39832946Y24217407D01*
X39950000Y24194123D01*
X43100000Y24194123D01*
X43217054Y24217407D01*
X43316288Y24283712D01*
X43382593Y24382946D01*
X43405877Y24500000D01*
X43405877Y24725861D01*
X43456568Y24603482D01*
X43653482Y24406568D01*
X43910761Y24300000D01*
X44189239Y24300000D01*
X44446518Y24406568D01*
X44539950Y24500000D01*
X44694123Y24500000D01*
X44717407Y24382946D01*
X44783712Y24283712D01*
X44882946Y24217407D01*
X45000000Y24194123D01*
X48150000Y24194123D01*
X48267054Y24217407D01*
X48366288Y24283712D01*
X48432593Y24382946D01*
X48455877Y24500000D01*
X48455877Y25500000D01*
X48432593Y25617054D01*
X48366288Y25716288D01*
X48267054Y25782593D01*
X48150000Y25805877D01*
X45000000Y25805877D01*
X44882946Y25782593D01*
X44783712Y25716288D01*
X44717407Y25617054D01*
X44694123Y25500000D01*
X44539950Y25500000D01*
X44446518Y25593432D01*
X44189239Y25700000D01*
X43910761Y25700000D01*
X43653482Y25593432D01*
X43456568Y25396518D01*
X43405877Y25274139D01*
X43405877Y25500000D01*
X43382593Y25617054D01*
X43316288Y25716288D01*
X43217054Y25782593D01*
X43100000Y25805877D01*
X39950000Y25805877D01*
X39832946Y25782593D01*
X39733712Y25716288D01*
X39667407Y25617054D01*
X39644123Y25500000D01*
X39459950Y25500000D01*
X39366518Y25593432D01*
X39109239Y25700000D01*
X38830761Y25700000D01*
X38573482Y25593432D01*
X38376568Y25396518D01*
X38270000Y25139239D01*
X34229187Y25139239D01*
X35496516Y26406567D01*
X35496518Y26406568D01*
X35693432Y26603482D01*
X35693433Y26603485D01*
X36769187Y27679239D01*
X38270000Y27679239D01*
X38270000Y27400761D01*
X38376568Y27143482D01*
X38573482Y26946568D01*
X38830761Y26840000D01*
X39109239Y26840000D01*
X39366518Y26946568D01*
X39459950Y27040000D01*
X39644123Y27040000D01*
X39667407Y26922946D01*
X39733712Y26823712D01*
X39832946Y26757407D01*
X39950000Y26734123D01*
X43100000Y26734123D01*
X43217054Y26757407D01*
X43316288Y26823712D01*
X43382593Y26922946D01*
X43405877Y27040000D01*
X43405877Y27265861D01*
X43456568Y27143482D01*
X43653482Y26946568D01*
X43910761Y26840000D01*
X44189239Y26840000D01*
X44446518Y26946568D01*
X44539950Y27040000D01*
X44694123Y27040000D01*
X44717407Y26922946D01*
X44783712Y26823712D01*
X44882946Y26757407D01*
X45000000Y26734123D01*
X48150000Y26734123D01*
X48267054Y26757407D01*
X48366288Y26823712D01*
X48432593Y26922946D01*
X48455877Y27040000D01*
X48455877Y28040000D01*
X48432593Y28157054D01*
X48366288Y28256288D01*
X48267054Y28322593D01*
X48150000Y28345877D01*
X45000000Y28345877D01*
X44882946Y28322593D01*
X44783712Y28256288D01*
X44717407Y28157054D01*
X44694123Y28040000D01*
X44539950Y28040000D01*
X44446518Y28133432D01*
X44189239Y28240000D01*
X43910761Y28240000D01*
X43653482Y28133432D01*
X43456568Y27936518D01*
X43405877Y27814139D01*
X43405877Y28040000D01*
X43382593Y28157054D01*
X43316288Y28256288D01*
X43217054Y28322593D01*
X43100000Y28345877D01*
X39950000Y28345877D01*
X39832946Y28322593D01*
X39733712Y28256288D01*
X39667407Y28157054D01*
X39644123Y28040000D01*
X39459950Y28040000D01*
X39366518Y28133432D01*
X39109239Y28240000D01*
X38830761Y28240000D01*
X38573482Y28133432D01*
X38376568Y27936518D01*
X38270000Y27679239D01*
X36769187Y27679239D01*
X38439950Y29350000D01*
X39754234Y29350000D01*
X39832946Y29297407D01*
X39950000Y29274123D01*
X43100000Y29274123D01*
X43217054Y29297407D01*
X43316288Y29363712D01*
X43382593Y29462946D01*
X43405877Y29580000D01*
X43405877Y29805861D01*
X43456568Y29683482D01*
X43653482Y29486568D01*
X43910761Y29380000D01*
X44189239Y29380000D01*
X44446518Y29486568D01*
X44539950Y29580000D01*
X44694123Y29580000D01*
X44717407Y29462946D01*
X44783712Y29363712D01*
X44882946Y29297407D01*
X45000000Y29274123D01*
X48150000Y29274123D01*
X48267054Y29297407D01*
X48366288Y29363712D01*
X48432593Y29462946D01*
X48455877Y29580000D01*
X48455877Y30580000D01*
X48432593Y30697054D01*
X48366288Y30796288D01*
X48267054Y30862593D01*
X48150000Y30885877D01*
X45000000Y30885877D01*
X44882946Y30862593D01*
X44783712Y30796288D01*
X44717407Y30697054D01*
X44694123Y30580000D01*
X44539950Y30580000D01*
X44446518Y30673432D01*
X44189239Y30780000D01*
X43910761Y30780000D01*
X43653482Y30673432D01*
X43456568Y30476518D01*
X43405877Y30354139D01*
X43405877Y30580000D01*
X43382593Y30697054D01*
X43316288Y30796288D01*
X43217054Y30862593D01*
X43100000Y30885877D01*
X39950000Y30885877D01*
X39832946Y30862593D01*
X39733712Y30796288D01*
X39702784Y30750000D01*
X38218934Y30750000D01*
X38149999Y30763712D01*
X38081064Y30750000D01*
X38081060Y30750000D01*
X37876874Y30709385D01*
X37823067Y30673432D01*
X37703772Y30593722D01*
X37703771Y30593721D01*
X37645329Y30554671D01*
X37606279Y30496229D01*
X34703485Y27593433D01*
X34703482Y27593432D01*
X34506568Y27396518D01*
X34506567Y27396516D01*
X32610052Y25500000D01*
X22868934Y25500000D01*
X22799999Y25513712D01*
X22731064Y25500000D01*
X22731060Y25500000D01*
X22526874Y25459385D01*
X22295329Y25304671D01*
X22256277Y25246226D01*
X22003485Y24993433D01*
X22003482Y24993432D01*
X21806568Y24796518D01*
X21779664Y24731565D01*
X21740616Y24673126D01*
X21726904Y24604192D01*
X21700000Y24539239D01*
X21700000Y24468935D01*
X21686288Y24400000D01*
X21700000Y24331065D01*
X21700000Y24260761D01*
X21726904Y24195808D01*
X21740616Y24126874D01*
X21779664Y24068435D01*
X21798453Y24023073D01*
X21684173Y24000341D01*
X21543592Y23906408D01*
X21519881Y23870922D01*
X20354079Y22705119D01*
X20318593Y22681408D01*
X20294882Y22645922D01*
X20224659Y22540826D01*
X20191674Y22375000D01*
X20200001Y22333138D01*
X20200001Y20522637D01*
X20173725Y20586072D01*
X19386072Y21373725D01*
X18356955Y21800000D01*
X17243045Y21800000D01*
X16213928Y21373725D01*
X15426275Y20586072D01*
X15000000Y19556955D01*
X15000000Y18443045D01*
X15426275Y17413928D01*
X16213928Y16626275D01*
X17243045Y16200000D01*
X18356955Y16200000D01*
X19386072Y16626275D01*
X20173725Y17413928D01*
X20200000Y17477362D01*
X20200000Y16651041D01*
X18379079Y14830119D01*
X18343593Y14806408D01*
X18319882Y14770922D01*
X18249659Y14665826D01*
X18216674Y14500000D01*
X18225001Y14458138D01*
X18225000Y10091858D01*
X18216674Y10050000D01*
X18228962Y9988226D01*
X18249659Y9884174D01*
X18343592Y9743592D01*
X18379081Y9719879D01*
X19569881Y8529078D01*
X19593592Y8493592D01*
X19732383Y8400855D01*
X19734173Y8399659D01*
X19859008Y8374828D01*
X19844123Y8300000D01*
X19844123Y7700000D01*
X19864015Y7600000D01*
X19844123Y7500000D01*
X19844123Y6900000D01*
X19864015Y6800000D01*
X19844123Y6700000D01*
X19844123Y6100000D01*
X19859042Y6025000D01*
X19614950Y6025000D01*
X19446518Y6193432D01*
X19189239Y6300000D01*
X18910761Y6300000D01*
X18653482Y6193432D01*
X18456568Y5996518D01*
X18350000Y5739239D01*
X18350000Y5460761D01*
X18447655Y5225000D01*
X17715041Y5225000D01*
X15484121Y7455919D01*
X15460408Y7491408D01*
X15319827Y7585341D01*
X15239995Y7601221D01*
X15419103Y7720897D01*
X15673276Y8101293D01*
X15762529Y8550000D01*
X15673276Y8998707D01*
X15419103Y9379103D01*
X15290000Y9465367D01*
X15290000Y9683164D01*
X15303712Y9752100D01*
X15290000Y9821037D01*
X15290000Y9821040D01*
X15249385Y10025226D01*
X15249385Y10025227D01*
X15143869Y10183141D01*
X15094671Y10256771D01*
X15036226Y10295823D01*
X7505825Y17826223D01*
X7466771Y17884671D01*
X7235226Y18039385D01*
X7031040Y18080000D01*
X7031035Y18080000D01*
X6962100Y18093712D01*
X6893165Y18080000D01*
X4915367Y18080000D01*
X4829103Y18209103D01*
X4448707Y18463276D01*
X4113261Y18530000D01*
X3886739Y18530000D01*
X3551293Y18463276D01*
X3170897Y18209103D01*
X2916724Y17828707D01*
X2827471Y17380000D01*
X2916724Y16931293D01*
X3170897Y16550897D01*
X3551293Y16296724D01*
X3886739Y16230000D01*
X4113261Y16230000D01*
X4448707Y16296724D01*
X4829103Y16550897D01*
X4915367Y16680000D01*
X6672152Y16680000D01*
X13888072Y9464079D01*
X13760897Y9379103D01*
X13506724Y8998707D01*
X13417471Y8550000D01*
X13506724Y8101293D01*
X13760897Y7720897D01*
X13926866Y7610000D01*
X13187974Y7610000D01*
X13205877Y7700000D01*
X13205877Y9400000D01*
X13182593Y9517054D01*
X13116288Y9616288D01*
X13017054Y9682593D01*
X12900000Y9705877D01*
X11200000Y9705877D01*
X11082946Y9682593D01*
X10983712Y9616288D01*
X10917407Y9517054D01*
X10894123Y9400000D01*
X10894123Y7700000D01*
X10917407Y7582946D01*
X10983712Y7483712D01*
X11082946Y7417407D01*
X11200000Y7394123D01*
X11627789Y7394123D01*
X11633417Y7365827D01*
X11649659Y7284174D01*
X11743592Y7143592D01*
X11768977Y7126630D01*
X11601293Y7093276D01*
X11220897Y6839103D01*
X10966724Y6458707D01*
X10877471Y6010000D01*
X10966724Y5561293D01*
X11220897Y5180897D01*
X11601293Y4926724D01*
X11936739Y4860000D01*
X12163261Y4860000D01*
X12498707Y4926724D01*
X12518806Y4940154D01*
X12800001Y4658958D01*
X12800001Y4351958D01*
X12498707Y4553276D01*
X12163261Y4620000D01*
X11936739Y4620000D01*
X11601293Y4553276D01*
X11220897Y4299103D01*
X10966724Y3918707D01*
X10877471Y3470000D01*
X10966724Y3021293D01*
X11220897Y2640897D01*
X11601293Y2386724D01*
X11625000Y2382008D01*
X11625000Y2309777D01*
X11616674Y2267919D01*
X11645700Y2121996D01*
X11649659Y2102093D01*
X11743592Y1961511D01*
X11779081Y1937798D01*
X12591878Y1125000D01*
X11807043Y1125000D01*
X1725000Y11207042D01*
X1725000Y14595229D01*
X2774199Y14595229D01*
X2960145Y14146305D01*
X3304765Y13801174D01*
X3755228Y13614195D01*
X3950000Y13690996D01*
X3950000Y14790000D01*
X4050000Y14790000D01*
X4050000Y13690996D01*
X4244772Y13614195D01*
X4695235Y13801174D01*
X5039855Y14146305D01*
X5225801Y14595229D01*
X5148913Y14790000D01*
X4050000Y14790000D01*
X3950000Y14790000D01*
X2851087Y14790000D01*
X2774199Y14595229D01*
X1725000Y14595229D01*
X1725000Y15084771D01*
X2774199Y15084771D01*
X2851087Y14890000D01*
X3950000Y14890000D01*
X3950000Y15989004D01*
X4050000Y15989004D01*
X4050000Y14890000D01*
X5148913Y14890000D01*
X5225801Y15084771D01*
X5039855Y15533695D01*
X4695235Y15878826D01*
X4244772Y16065805D01*
X4050000Y15989004D01*
X3950000Y15989004D01*
X3755228Y16065805D01*
X3304765Y15878826D01*
X2960145Y15533695D01*
X2774199Y15084771D01*
X1725000Y15084771D01*
X1725000Y19920000D01*
X2827471Y19920000D01*
X2916724Y19471293D01*
X3170897Y19090897D01*
X3551293Y18836724D01*
X3886739Y18770000D01*
X4113261Y18770000D01*
X4448707Y18836724D01*
X4829103Y19090897D01*
X5083276Y19471293D01*
X5172529Y19920000D01*
X5083276Y20368707D01*
X4829103Y20749103D01*
X4448707Y21003276D01*
X4113261Y21070000D01*
X3886739Y21070000D01*
X3551293Y21003276D01*
X3170897Y20749103D01*
X2916724Y20368707D01*
X2827471Y19920000D01*
X1725000Y19920000D01*
X1725000Y22460000D01*
X2827471Y22460000D01*
X2916724Y22011293D01*
X3170897Y21630897D01*
X3551293Y21376724D01*
X3886739Y21310000D01*
X4113261Y21310000D01*
X4448707Y21376724D01*
X4829103Y21630897D01*
X5083276Y22011293D01*
X5172529Y22460000D01*
X5083276Y22908707D01*
X4829103Y23289103D01*
X4448707Y23543276D01*
X4113261Y23610000D01*
X3886739Y23610000D01*
X3551293Y23543276D01*
X3170897Y23289103D01*
X2916724Y22908707D01*
X2827471Y22460000D01*
X1725000Y22460000D01*
X1725000Y25000000D01*
X2827471Y25000000D01*
X2916724Y24551293D01*
X3170897Y24170897D01*
X3551293Y23916724D01*
X3886739Y23850000D01*
X4113261Y23850000D01*
X4448707Y23916724D01*
X4829103Y24170897D01*
X5083276Y24551293D01*
X5172529Y25000000D01*
X5083276Y25448707D01*
X4829103Y25829103D01*
X4448707Y26083276D01*
X4113261Y26150000D01*
X3886739Y26150000D01*
X3551293Y26083276D01*
X3170897Y25829103D01*
X2916724Y25448707D01*
X2827471Y25000000D01*
X1725000Y25000000D01*
X1725000Y27540000D01*
X2827471Y27540000D01*
X2916724Y27091293D01*
X3170897Y26710897D01*
X3551293Y26456724D01*
X3886739Y26390000D01*
X4113261Y26390000D01*
X4448707Y26456724D01*
X4829103Y26710897D01*
X5083276Y27091293D01*
X5172529Y27540000D01*
X5083276Y27988707D01*
X4829103Y28369103D01*
X4448707Y28623276D01*
X4113261Y28690000D01*
X3886739Y28690000D01*
X3551293Y28623276D01*
X3170897Y28369103D01*
X2916724Y27988707D01*
X2827471Y27540000D01*
X1725000Y27540000D01*
X1725000Y29743960D01*
X2061040Y30080000D01*
X2827471Y30080000D01*
X2916724Y29631293D01*
X3170897Y29250897D01*
X3551293Y28996724D01*
X3886739Y28930000D01*
X4113261Y28930000D01*
X4448707Y28996724D01*
X4829103Y29250897D01*
X5083276Y29631293D01*
X5172529Y30080000D01*
X5083276Y30528707D01*
X4829103Y30909103D01*
X4448707Y31163276D01*
X4113261Y31230000D01*
X3886739Y31230000D01*
X3551293Y31163276D01*
X3170897Y30909103D01*
X2916724Y30528707D01*
X2827471Y30080000D01*
X2061040Y30080000D01*
X3531194Y31550154D01*
X3551293Y31536724D01*
X3886739Y31470000D01*
X4113261Y31470000D01*
X4448707Y31536724D01*
X4829103Y31790897D01*
X5083276Y32171293D01*
X5172529Y32620000D01*
X5144833Y32759239D01*
X38270000Y32759239D01*
X38270000Y32480761D01*
X38376568Y32223482D01*
X38573482Y32026568D01*
X38830761Y31920000D01*
X39109239Y31920000D01*
X39366518Y32026568D01*
X39459950Y32120000D01*
X39644123Y32120000D01*
X39667407Y32002946D01*
X39733712Y31903712D01*
X39832946Y31837407D01*
X39950000Y31814123D01*
X43100000Y31814123D01*
X43217054Y31837407D01*
X43316288Y31903712D01*
X43382593Y32002946D01*
X43405877Y32120000D01*
X43405877Y32345861D01*
X43456568Y32223482D01*
X43653482Y32026568D01*
X43910761Y31920000D01*
X44189239Y31920000D01*
X44446518Y32026568D01*
X44539950Y32120000D01*
X44694123Y32120000D01*
X44717407Y32002946D01*
X44783712Y31903712D01*
X44882946Y31837407D01*
X45000000Y31814123D01*
X48150000Y31814123D01*
X48267054Y31837407D01*
X48366288Y31903712D01*
X48432593Y32002946D01*
X48455877Y32120000D01*
X48455877Y33120000D01*
X48432593Y33237054D01*
X48366288Y33336288D01*
X48267054Y33402593D01*
X48150000Y33425877D01*
X45000000Y33425877D01*
X44882946Y33402593D01*
X44783712Y33336288D01*
X44717407Y33237054D01*
X44694123Y33120000D01*
X44539950Y33120000D01*
X44446518Y33213432D01*
X44189239Y33320000D01*
X43910761Y33320000D01*
X43653482Y33213432D01*
X43456568Y33016518D01*
X43405877Y32894139D01*
X43405877Y33120000D01*
X43382593Y33237054D01*
X43316288Y33336288D01*
X43217054Y33402593D01*
X43100000Y33425877D01*
X39950000Y33425877D01*
X39832946Y33402593D01*
X39733712Y33336288D01*
X39667407Y33237054D01*
X39644123Y33120000D01*
X39459950Y33120000D01*
X39366518Y33213432D01*
X39109239Y33320000D01*
X38830761Y33320000D01*
X38573482Y33213432D01*
X38376568Y33016518D01*
X38270000Y32759239D01*
X5144833Y32759239D01*
X5083276Y33068707D01*
X4829103Y33449103D01*
X4448707Y33703276D01*
X4113261Y33770000D01*
X3886739Y33770000D01*
X3551293Y33703276D01*
X3170897Y33449103D01*
X2916724Y33068707D01*
X2827471Y32620000D01*
X2916724Y32171293D01*
X2930154Y32151194D01*
X1029079Y30250119D01*
X993593Y30226408D01*
X969882Y30190922D01*
X899659Y30085826D01*
X866674Y29920000D01*
X875001Y29878138D01*
X875000Y11072859D01*
X866674Y11031002D01*
X878311Y10972500D01*
X899659Y10865176D01*
X993592Y10724594D01*
X1029081Y10700881D01*
X7179961Y4550000D01*
X6691686Y4550000D01*
X6121996Y4314026D01*
X5685974Y3878004D01*
X5450000Y3308314D01*
X5450000Y2691686D01*
X5685974Y2121996D01*
X6121996Y1685974D01*
X6691686Y1450000D01*
X7308314Y1450000D01*
X7878004Y1685974D01*
X8314026Y2121996D01*
X8550000Y2691686D01*
X8550000Y3179961D01*
X11300883Y429078D01*
X11324594Y393592D01*
X11352419Y375000D01*
X3021787Y375000D01*
X2396702Y447877D01*
X2145458Y539075D01*
X1544316Y839645D01*
X1317824Y988140D01*
X900116Y1429082D01*
X879612Y1464382D01*
X534192Y2155224D01*
X417498Y2540517D01*
X375000Y3016696D01*
X375000Y3358042D01*
X1200000Y3358042D01*
X1200000Y2641958D01*
X1474034Y1980382D01*
X1980382Y1474034D01*
X2641958Y1200000D01*
X3358042Y1200000D01*
X4019618Y1474034D01*
X4525966Y1980382D01*
X4800000Y2641958D01*
X4800000Y3358042D01*
X4525966Y4019618D01*
X4019618Y4525966D01*
X3358042Y4800000D01*
X2641958Y4800000D01*
X1980382Y4525966D01*
X1474034Y4019618D01*
X1200000Y3358042D01*
X375000Y3358042D01*
X375000Y36010000D01*
X2844123Y36010000D01*
X2844123Y34310000D01*
X2867407Y34192946D01*
X2933712Y34093712D01*
X3032946Y34027407D01*
X3150000Y34004123D01*
X4850000Y34004123D01*
X4967054Y34027407D01*
X5066288Y34093712D01*
X5132593Y34192946D01*
X5155877Y34310000D01*
X5155877Y35299239D01*
X38270000Y35299239D01*
X38270000Y35020761D01*
X38376568Y34763482D01*
X38573482Y34566568D01*
X38830761Y34460000D01*
X39109239Y34460000D01*
X39366518Y34566568D01*
X39459950Y34660000D01*
X39644123Y34660000D01*
X39667407Y34542946D01*
X39733712Y34443712D01*
X39832946Y34377407D01*
X39950000Y34354123D01*
X43100000Y34354123D01*
X43217054Y34377407D01*
X43316288Y34443712D01*
X43382593Y34542946D01*
X43405877Y34660000D01*
X43405877Y34885861D01*
X43456568Y34763482D01*
X43653482Y34566568D01*
X43910761Y34460000D01*
X44189239Y34460000D01*
X44446518Y34566568D01*
X44539950Y34660000D01*
X44694123Y34660000D01*
X44717407Y34542946D01*
X44783712Y34443712D01*
X44882946Y34377407D01*
X45000000Y34354123D01*
X48150000Y34354123D01*
X48267054Y34377407D01*
X48366288Y34443712D01*
X48432593Y34542946D01*
X48455877Y34660000D01*
X48455877Y35660000D01*
X48432593Y35777054D01*
X48366288Y35876288D01*
X48267054Y35942593D01*
X48150000Y35965877D01*
X45000000Y35965877D01*
X44882946Y35942593D01*
X44783712Y35876288D01*
X44717407Y35777054D01*
X44694123Y35660000D01*
X44539950Y35660000D01*
X44446518Y35753432D01*
X44189239Y35860000D01*
X43910761Y35860000D01*
X43653482Y35753432D01*
X43456568Y35556518D01*
X43405877Y35434139D01*
X43405877Y35660000D01*
X43382593Y35777054D01*
X43316288Y35876288D01*
X43217054Y35942593D01*
X43100000Y35965877D01*
X39950000Y35965877D01*
X39832946Y35942593D01*
X39733712Y35876288D01*
X39667407Y35777054D01*
X39644123Y35660000D01*
X39459950Y35660000D01*
X39366518Y35753432D01*
X39109239Y35860000D01*
X38830761Y35860000D01*
X38573482Y35753432D01*
X38376568Y35556518D01*
X38270000Y35299239D01*
X5155877Y35299239D01*
X5155877Y36010000D01*
X5132593Y36127054D01*
X5066288Y36226288D01*
X4967054Y36292593D01*
X4850000Y36315877D01*
X3150000Y36315877D01*
X3032946Y36292593D01*
X2933712Y36226288D01*
X2867407Y36127054D01*
X2844123Y36010000D01*
X375000Y36010000D01*
X375000Y46978214D01*
X419283Y47358042D01*
X1200000Y47358042D01*
X1200000Y46641958D01*
X1474034Y45980382D01*
X1980382Y45474034D01*
X2641958Y45200000D01*
X3358042Y45200000D01*
X4019618Y45474034D01*
X4525966Y45980382D01*
X4800000Y46641958D01*
X4800000Y47358042D01*
X4525966Y48019618D01*
X4019618Y48525966D01*
X3358042Y48800000D01*
X2641958Y48800000D01*
X1980382Y48525966D01*
X1474034Y48019618D01*
X1200000Y47358042D01*
X419283Y47358042D01*
X447877Y47603294D01*
X539078Y47854548D01*
X839645Y48455684D01*
X988140Y48682176D01*
X1429084Y49099885D01*
X1464383Y49120389D01*
X2155224Y49465808D01*
X2540517Y49582502D01*
X3016697Y49625000D01*
X13900000Y49625000D01*
X13900000Y37500000D01*
G36*
X13506724Y6458707D02*
X13417471Y6010000D01*
X13506724Y5561293D01*
X13760897Y5180897D01*
X14141293Y4926724D01*
X14476739Y4860000D01*
X14703261Y4860000D01*
X15038707Y4926724D01*
X15419103Y5180897D01*
X15673276Y5561293D01*
X15756794Y5981166D01*
X17208881Y4529078D01*
X17232592Y4493592D01*
X17373173Y4399659D01*
X17497142Y4375000D01*
X17497143Y4375000D01*
X17538999Y4366674D01*
X17580855Y4375000D01*
X19872716Y4375000D01*
X19933712Y4283712D01*
X20032946Y4217407D01*
X20150000Y4194123D01*
X20958882Y4194123D01*
X19806560Y3041800D01*
X17272550Y3041800D01*
X17104118Y3210232D01*
X16846839Y3316800D01*
X16568361Y3316800D01*
X16311082Y3210232D01*
X16114168Y3013318D01*
X16007600Y2756039D01*
X16007600Y2477561D01*
X16114168Y2220282D01*
X16209450Y2125000D01*
X14276041Y2125000D01*
X14023162Y2377879D01*
X14345228Y2244195D01*
X14540000Y2320996D01*
X14540000Y3420000D01*
X14640000Y3420000D01*
X14640000Y2320996D01*
X14834772Y2244195D01*
X15285235Y2431174D01*
X15629855Y2776305D01*
X15815801Y3225229D01*
X15738913Y3420000D01*
X14640000Y3420000D01*
X14540000Y3420000D01*
X14520000Y3420000D01*
X14520000Y3520000D01*
X14540000Y3520000D01*
X14540000Y4619004D01*
X14640000Y4619004D01*
X14640000Y3520000D01*
X15738913Y3520000D01*
X15815801Y3714771D01*
X15629855Y4163695D01*
X15285235Y4508826D01*
X14834772Y4695805D01*
X14640000Y4619004D01*
X14540000Y4619004D01*
X14345228Y4695805D01*
X13894765Y4508826D01*
X13650000Y4263698D01*
X13650000Y4793143D01*
X13658326Y4835000D01*
X13625341Y5000827D01*
X13531408Y5141408D01*
X13495922Y5165119D01*
X13119846Y5541194D01*
X13133276Y5561293D01*
X13222529Y6010000D01*
X13133276Y6458707D01*
X12931958Y6760000D01*
X13708042Y6760000D01*
X13506724Y6458707D01*
X13506724Y6458707D01*
G37*
X13506724Y6458707D02*
X13417471Y6010000D01*
X13506724Y5561293D01*
X13760897Y5180897D01*
X14141293Y4926724D01*
X14476739Y4860000D01*
X14703261Y4860000D01*
X15038707Y4926724D01*
X15419103Y5180897D01*
X15673276Y5561293D01*
X15756794Y5981166D01*
X17208881Y4529078D01*
X17232592Y4493592D01*
X17373173Y4399659D01*
X17497142Y4375000D01*
X17497143Y4375000D01*
X17538999Y4366674D01*
X17580855Y4375000D01*
X19872716Y4375000D01*
X19933712Y4283712D01*
X20032946Y4217407D01*
X20150000Y4194123D01*
X20958882Y4194123D01*
X19806560Y3041800D01*
X17272550Y3041800D01*
X17104118Y3210232D01*
X16846839Y3316800D01*
X16568361Y3316800D01*
X16311082Y3210232D01*
X16114168Y3013318D01*
X16007600Y2756039D01*
X16007600Y2477561D01*
X16114168Y2220282D01*
X16209450Y2125000D01*
X14276041Y2125000D01*
X14023162Y2377879D01*
X14345228Y2244195D01*
X14540000Y2320996D01*
X14540000Y3420000D01*
X14640000Y3420000D01*
X14640000Y2320996D01*
X14834772Y2244195D01*
X15285235Y2431174D01*
X15629855Y2776305D01*
X15815801Y3225229D01*
X15738913Y3420000D01*
X14640000Y3420000D01*
X14540000Y3420000D01*
X14520000Y3420000D01*
X14520000Y3520000D01*
X14540000Y3520000D01*
X14540000Y4619004D01*
X14640000Y4619004D01*
X14640000Y3520000D01*
X15738913Y3520000D01*
X15815801Y3714771D01*
X15629855Y4163695D01*
X15285235Y4508826D01*
X14834772Y4695805D01*
X14640000Y4619004D01*
X14540000Y4619004D01*
X14345228Y4695805D01*
X13894765Y4508826D01*
X13650000Y4263698D01*
X13650000Y4793143D01*
X13658326Y4835000D01*
X13625341Y5000827D01*
X13531408Y5141408D01*
X13495922Y5165119D01*
X13119846Y5541194D01*
X13133276Y5561293D01*
X13222529Y6010000D01*
X13133276Y6458707D01*
X12931958Y6760000D01*
X13708042Y6760000D01*
X13506724Y6458707D01*
G36*
X25783480Y4879068D02*
X25807192Y4843581D01*
X25872416Y4800000D01*
X25947773Y4749648D01*
X26113599Y4716663D01*
X26155456Y4724989D01*
X26673971Y4724989D01*
X27143082Y4255877D01*
X26700000Y4255877D01*
X26600000Y4235985D01*
X26500000Y4255877D01*
X25959809Y4255877D01*
X25926582Y4289104D01*
X25779565Y4350000D01*
X25550000Y4350000D01*
X25450000Y4250000D01*
X25450000Y3400000D01*
X25470000Y3400000D01*
X25470000Y3300000D01*
X25450000Y3300000D01*
X25450000Y3280000D01*
X25350000Y3280000D01*
X25350000Y3300000D01*
X25330000Y3300000D01*
X25330000Y3400000D01*
X25350000Y3400000D01*
X25350000Y4250000D01*
X25250000Y4350000D01*
X25200000Y4350000D01*
X25200000Y4539239D01*
X25093432Y4796518D01*
X24896518Y4993432D01*
X24879454Y5000500D01*
X25662050Y5000500D01*
X25783480Y4879068D01*
X25783480Y4879068D01*
G37*
X25783480Y4879068D02*
X25807192Y4843581D01*
X25872416Y4800000D01*
X25947773Y4749648D01*
X26113599Y4716663D01*
X26155456Y4724989D01*
X26673971Y4724989D01*
X27143082Y4255877D01*
X26700000Y4255877D01*
X26600000Y4235985D01*
X26500000Y4255877D01*
X25959809Y4255877D01*
X25926582Y4289104D01*
X25779565Y4350000D01*
X25550000Y4350000D01*
X25450000Y4250000D01*
X25450000Y3400000D01*
X25470000Y3400000D01*
X25470000Y3300000D01*
X25450000Y3300000D01*
X25450000Y3280000D01*
X25350000Y3280000D01*
X25350000Y3300000D01*
X25330000Y3300000D01*
X25330000Y3400000D01*
X25350000Y3400000D01*
X25350000Y4250000D01*
X25250000Y4350000D01*
X25200000Y4350000D01*
X25200000Y4539239D01*
X25093432Y4796518D01*
X24896518Y4993432D01*
X24879454Y5000500D01*
X25662050Y5000500D01*
X25783480Y4879068D01*
G36*
X28825000Y12073959D02*
X28825001Y11005877D01*
X28650000Y11005877D01*
X28532946Y10982593D01*
X28433712Y10916288D01*
X28367407Y10817054D01*
X28344123Y10700000D01*
X28344123Y10100000D01*
X28364015Y10000000D01*
X28344123Y9900000D01*
X28344123Y9300000D01*
X28364015Y9200000D01*
X28344123Y9100000D01*
X28344123Y8500000D01*
X28364015Y8400000D01*
X28344123Y8300000D01*
X28344123Y7700000D01*
X28364015Y7600000D01*
X28344123Y7500000D01*
X28344123Y6900000D01*
X28364015Y6800000D01*
X28344123Y6700000D01*
X28344123Y6100000D01*
X28359042Y6025000D01*
X26476041Y6025000D01*
X23110465Y9390575D01*
X23144777Y9397400D01*
X26746043Y9397400D01*
X26787900Y9389074D01*
X26829757Y9397400D01*
X26829758Y9397400D01*
X26953727Y9422059D01*
X27094308Y9515992D01*
X27118021Y9551480D01*
X27505722Y9939181D01*
X27541208Y9962892D01*
X27635141Y10103473D01*
X27645692Y10156518D01*
X27668126Y10269299D01*
X27659800Y10311157D01*
X27659800Y10901845D01*
X27668126Y10943701D01*
X27668042Y10944123D01*
X28100000Y10944123D01*
X28217054Y10967407D01*
X28316288Y11033712D01*
X28382593Y11132946D01*
X28405877Y11250000D01*
X28405877Y12450000D01*
X28395179Y12503780D01*
X28825000Y12073959D01*
X28825000Y12073959D01*
G37*
X28825000Y12073959D02*
X28825001Y11005877D01*
X28650000Y11005877D01*
X28532946Y10982593D01*
X28433712Y10916288D01*
X28367407Y10817054D01*
X28344123Y10700000D01*
X28344123Y10100000D01*
X28364015Y10000000D01*
X28344123Y9900000D01*
X28344123Y9300000D01*
X28364015Y9200000D01*
X28344123Y9100000D01*
X28344123Y8500000D01*
X28364015Y8400000D01*
X28344123Y8300000D01*
X28344123Y7700000D01*
X28364015Y7600000D01*
X28344123Y7500000D01*
X28344123Y6900000D01*
X28364015Y6800000D01*
X28344123Y6700000D01*
X28344123Y6100000D01*
X28359042Y6025000D01*
X26476041Y6025000D01*
X23110465Y9390575D01*
X23144777Y9397400D01*
X26746043Y9397400D01*
X26787900Y9389074D01*
X26829757Y9397400D01*
X26829758Y9397400D01*
X26953727Y9422059D01*
X27094308Y9515992D01*
X27118021Y9551480D01*
X27505722Y9939181D01*
X27541208Y9962892D01*
X27635141Y10103473D01*
X27645692Y10156518D01*
X27668126Y10269299D01*
X27659800Y10311157D01*
X27659800Y10901845D01*
X27668126Y10943701D01*
X27668042Y10944123D01*
X28100000Y10944123D01*
X28217054Y10967407D01*
X28316288Y11033712D01*
X28382593Y11132946D01*
X28405877Y11250000D01*
X28405877Y12450000D01*
X28395179Y12503780D01*
X28825000Y12073959D01*
G36*
X38075000Y9976041D02*
X35723960Y7625000D01*
X31802345Y7625000D01*
X31900000Y7860761D01*
X31900000Y8139239D01*
X31802345Y8375000D01*
X31958143Y8375000D01*
X32000000Y8366674D01*
X32041857Y8375000D01*
X32041858Y8375000D01*
X32165827Y8399659D01*
X32306408Y8493592D01*
X32330120Y8529080D01*
X32570922Y8769881D01*
X32606408Y8793592D01*
X32700341Y8934173D01*
X32725000Y9058142D01*
X32725000Y9058143D01*
X32733326Y9099999D01*
X32725000Y9141857D01*
X32725000Y9186420D01*
X32793086Y9231914D01*
X32891366Y9379000D01*
X32925877Y9552500D01*
X32925877Y9847500D01*
X32891366Y10021000D01*
X32793086Y10168086D01*
X32767772Y10185000D01*
X32793086Y10201914D01*
X32821875Y10245000D01*
X33828143Y10245000D01*
X33870000Y10236674D01*
X33911857Y10245000D01*
X33911858Y10245000D01*
X34035827Y10269659D01*
X34176408Y10363592D01*
X34184031Y10375000D01*
X34901420Y10375000D01*
X34946914Y10306914D01*
X35094000Y10208634D01*
X35267500Y10174123D01*
X35562500Y10174123D01*
X35736000Y10208634D01*
X35883086Y10306914D01*
X35900000Y10332228D01*
X35916914Y10306914D01*
X36064000Y10208634D01*
X36237500Y10174123D01*
X36532500Y10174123D01*
X36706000Y10208634D01*
X36853086Y10306914D01*
X36951366Y10454000D01*
X36985877Y10627500D01*
X36985877Y10799837D01*
X38075001Y11888960D01*
X38075000Y9976041D01*
X38075000Y9976041D01*
G37*
X38075000Y9976041D02*
X35723960Y7625000D01*
X31802345Y7625000D01*
X31900000Y7860761D01*
X31900000Y8139239D01*
X31802345Y8375000D01*
X31958143Y8375000D01*
X32000000Y8366674D01*
X32041857Y8375000D01*
X32041858Y8375000D01*
X32165827Y8399659D01*
X32306408Y8493592D01*
X32330120Y8529080D01*
X32570922Y8769881D01*
X32606408Y8793592D01*
X32700341Y8934173D01*
X32725000Y9058142D01*
X32725000Y9058143D01*
X32733326Y9099999D01*
X32725000Y9141857D01*
X32725000Y9186420D01*
X32793086Y9231914D01*
X32891366Y9379000D01*
X32925877Y9552500D01*
X32925877Y9847500D01*
X32891366Y10021000D01*
X32793086Y10168086D01*
X32767772Y10185000D01*
X32793086Y10201914D01*
X32821875Y10245000D01*
X33828143Y10245000D01*
X33870000Y10236674D01*
X33911857Y10245000D01*
X33911858Y10245000D01*
X34035827Y10269659D01*
X34176408Y10363592D01*
X34184031Y10375000D01*
X34901420Y10375000D01*
X34946914Y10306914D01*
X35094000Y10208634D01*
X35267500Y10174123D01*
X35562500Y10174123D01*
X35736000Y10208634D01*
X35883086Y10306914D01*
X35900000Y10332228D01*
X35916914Y10306914D01*
X36064000Y10208634D01*
X36237500Y10174123D01*
X36532500Y10174123D01*
X36706000Y10208634D01*
X36853086Y10306914D01*
X36951366Y10454000D01*
X36985877Y10627500D01*
X36985877Y10799837D01*
X38075001Y11888960D01*
X38075000Y9976041D01*
G36*
X30400000Y14633959D02*
X30400000Y14395761D01*
X30506568Y14138482D01*
X30675000Y13970050D01*
X30675001Y11183580D01*
X30606914Y11138086D01*
X30508634Y10991000D01*
X30474123Y10817500D01*
X30474123Y10522500D01*
X30508634Y10349000D01*
X30606914Y10201914D01*
X30632228Y10185000D01*
X30606914Y10168086D01*
X30578125Y10125000D01*
X30441855Y10125000D01*
X30399999Y10133326D01*
X30358143Y10125000D01*
X30358142Y10125000D01*
X30234173Y10100341D01*
X30143954Y10040058D01*
X30155877Y10100000D01*
X30155877Y10700000D01*
X30132593Y10817054D01*
X30066288Y10916288D01*
X29967054Y10982593D01*
X29850000Y11005877D01*
X29675000Y11005877D01*
X29675000Y12208143D01*
X29683326Y12250000D01*
X29674904Y12292343D01*
X29650341Y12415827D01*
X29556408Y12556408D01*
X29520923Y12580118D01*
X27300000Y14801040D01*
X27300000Y15039239D01*
X27193432Y15296518D01*
X26996518Y15493432D01*
X26739239Y15600000D01*
X26460761Y15600000D01*
X26203482Y15493432D01*
X26006568Y15296518D01*
X25926009Y15102031D01*
X25709808Y15318232D01*
X25700341Y15365826D01*
X25650000Y15441167D01*
X25650000Y16150000D01*
X25700000Y16200000D01*
X25700000Y16420435D01*
X25760896Y16273418D01*
X25800000Y16234314D01*
X25800000Y16200000D01*
X25900000Y16100000D01*
X25979565Y16100000D01*
X26000000Y16108464D01*
X26020435Y16100000D01*
X26100000Y16100000D01*
X26200000Y16200000D01*
X26200000Y16234314D01*
X26239104Y16273418D01*
X26250000Y16299723D01*
X26260896Y16273418D01*
X26300000Y16234314D01*
X26300000Y16200000D01*
X26400000Y16100000D01*
X26479565Y16100000D01*
X26500000Y16108464D01*
X26520435Y16100000D01*
X26600000Y16100000D01*
X26700000Y16200000D01*
X26700000Y16234314D01*
X26739104Y16273418D01*
X26750000Y16299723D01*
X26760896Y16273418D01*
X26800000Y16234314D01*
X26800000Y16200000D01*
X26900000Y16100000D01*
X26979565Y16100000D01*
X27000000Y16108464D01*
X27020435Y16100000D01*
X27150000Y16100000D01*
X27250000Y16200000D01*
X27250000Y16299723D01*
X27300000Y16420435D01*
X27300000Y16900000D01*
X27250000Y16950000D01*
X27250000Y17000000D01*
X27350000Y17000000D01*
X27350000Y16200000D01*
X27450000Y16100000D01*
X27579565Y16100000D01*
X27726582Y16160896D01*
X27839104Y16273418D01*
X27900000Y16420435D01*
X27900000Y16900000D01*
X27800000Y17000000D01*
X27350000Y17000000D01*
X27250000Y17000000D01*
X26800000Y17000000D01*
X26750000Y16950000D01*
X26700000Y17000000D01*
X26300000Y17000000D01*
X26250000Y16950000D01*
X26200000Y17000000D01*
X26180000Y17000000D01*
X26180000Y17100000D01*
X26200000Y17100000D01*
X26220000Y17120000D01*
X26280000Y17120000D01*
X26300000Y17100000D01*
X26700000Y17100000D01*
X26720000Y17120000D01*
X26780000Y17120000D01*
X26800000Y17100000D01*
X27250000Y17100000D01*
X27250000Y17120000D01*
X27350000Y17120000D01*
X27350000Y17100000D01*
X27800000Y17100000D01*
X27866980Y17166980D01*
X30400000Y14633959D01*
X30400000Y14633959D01*
G37*
X30400000Y14633959D02*
X30400000Y14395761D01*
X30506568Y14138482D01*
X30675000Y13970050D01*
X30675001Y11183580D01*
X30606914Y11138086D01*
X30508634Y10991000D01*
X30474123Y10817500D01*
X30474123Y10522500D01*
X30508634Y10349000D01*
X30606914Y10201914D01*
X30632228Y10185000D01*
X30606914Y10168086D01*
X30578125Y10125000D01*
X30441855Y10125000D01*
X30399999Y10133326D01*
X30358143Y10125000D01*
X30358142Y10125000D01*
X30234173Y10100341D01*
X30143954Y10040058D01*
X30155877Y10100000D01*
X30155877Y10700000D01*
X30132593Y10817054D01*
X30066288Y10916288D01*
X29967054Y10982593D01*
X29850000Y11005877D01*
X29675000Y11005877D01*
X29675000Y12208143D01*
X29683326Y12250000D01*
X29674904Y12292343D01*
X29650341Y12415827D01*
X29556408Y12556408D01*
X29520923Y12580118D01*
X27300000Y14801040D01*
X27300000Y15039239D01*
X27193432Y15296518D01*
X26996518Y15493432D01*
X26739239Y15600000D01*
X26460761Y15600000D01*
X26203482Y15493432D01*
X26006568Y15296518D01*
X25926009Y15102031D01*
X25709808Y15318232D01*
X25700341Y15365826D01*
X25650000Y15441167D01*
X25650000Y16150000D01*
X25700000Y16200000D01*
X25700000Y16420435D01*
X25760896Y16273418D01*
X25800000Y16234314D01*
X25800000Y16200000D01*
X25900000Y16100000D01*
X25979565Y16100000D01*
X26000000Y16108464D01*
X26020435Y16100000D01*
X26100000Y16100000D01*
X26200000Y16200000D01*
X26200000Y16234314D01*
X26239104Y16273418D01*
X26250000Y16299723D01*
X26260896Y16273418D01*
X26300000Y16234314D01*
X26300000Y16200000D01*
X26400000Y16100000D01*
X26479565Y16100000D01*
X26500000Y16108464D01*
X26520435Y16100000D01*
X26600000Y16100000D01*
X26700000Y16200000D01*
X26700000Y16234314D01*
X26739104Y16273418D01*
X26750000Y16299723D01*
X26760896Y16273418D01*
X26800000Y16234314D01*
X26800000Y16200000D01*
X26900000Y16100000D01*
X26979565Y16100000D01*
X27000000Y16108464D01*
X27020435Y16100000D01*
X27150000Y16100000D01*
X27250000Y16200000D01*
X27250000Y16299723D01*
X27300000Y16420435D01*
X27300000Y16900000D01*
X27250000Y16950000D01*
X27250000Y17000000D01*
X27350000Y17000000D01*
X27350000Y16200000D01*
X27450000Y16100000D01*
X27579565Y16100000D01*
X27726582Y16160896D01*
X27839104Y16273418D01*
X27900000Y16420435D01*
X27900000Y16900000D01*
X27800000Y17000000D01*
X27350000Y17000000D01*
X27250000Y17000000D01*
X26800000Y17000000D01*
X26750000Y16950000D01*
X26700000Y17000000D01*
X26300000Y17000000D01*
X26250000Y16950000D01*
X26200000Y17000000D01*
X26180000Y17000000D01*
X26180000Y17100000D01*
X26200000Y17100000D01*
X26220000Y17120000D01*
X26280000Y17120000D01*
X26300000Y17100000D01*
X26700000Y17100000D01*
X26720000Y17120000D01*
X26780000Y17120000D01*
X26800000Y17100000D01*
X27250000Y17100000D01*
X27250000Y17120000D01*
X27350000Y17120000D01*
X27350000Y17100000D01*
X27800000Y17100000D01*
X27866980Y17166980D01*
X30400000Y14633959D01*
G36*
X33169881Y14329078D02*
X33193592Y14293592D01*
X33315416Y14212192D01*
X33334173Y14199659D01*
X33499999Y14166674D01*
X33541857Y14175000D01*
X34901420Y14175000D01*
X34946914Y14106914D01*
X34990001Y14078124D01*
X34990000Y13921876D01*
X34946914Y13893086D01*
X34848634Y13746000D01*
X34814123Y13572500D01*
X34814123Y13227500D01*
X34848634Y13054000D01*
X34946914Y12906914D01*
X35094000Y12808634D01*
X35267500Y12774123D01*
X35562500Y12774123D01*
X35736000Y12808634D01*
X35883086Y12906914D01*
X35900000Y12932228D01*
X35916914Y12906914D01*
X36064000Y12808634D01*
X36237500Y12774123D01*
X36500283Y12774123D01*
X36448280Y12722120D01*
X36412792Y12698408D01*
X36364328Y12625877D01*
X36237500Y12625877D01*
X36064000Y12591366D01*
X35916914Y12493086D01*
X35900000Y12467772D01*
X35883086Y12493086D01*
X35736000Y12591366D01*
X35562500Y12625877D01*
X35267500Y12625877D01*
X35094000Y12591366D01*
X34946914Y12493086D01*
X34848634Y12346000D01*
X34814123Y12172500D01*
X34814123Y11827500D01*
X34848634Y11654000D01*
X34946914Y11506914D01*
X34990001Y11478124D01*
X34990000Y11321876D01*
X34946914Y11293086D01*
X34901420Y11225000D01*
X34041857Y11225000D01*
X34000000Y11233326D01*
X33958143Y11225000D01*
X33958142Y11225000D01*
X33834173Y11200341D01*
X33693592Y11106408D01*
X33685969Y11095000D01*
X32821875Y11095000D01*
X32793086Y11138086D01*
X32725000Y11183580D01*
X32725000Y14677143D01*
X32733326Y14719000D01*
X32721747Y14777213D01*
X33169881Y14329078D01*
X33169881Y14329078D01*
G37*
X33169881Y14329078D02*
X33193592Y14293592D01*
X33315416Y14212192D01*
X33334173Y14199659D01*
X33499999Y14166674D01*
X33541857Y14175000D01*
X34901420Y14175000D01*
X34946914Y14106914D01*
X34990001Y14078124D01*
X34990000Y13921876D01*
X34946914Y13893086D01*
X34848634Y13746000D01*
X34814123Y13572500D01*
X34814123Y13227500D01*
X34848634Y13054000D01*
X34946914Y12906914D01*
X35094000Y12808634D01*
X35267500Y12774123D01*
X35562500Y12774123D01*
X35736000Y12808634D01*
X35883086Y12906914D01*
X35900000Y12932228D01*
X35916914Y12906914D01*
X36064000Y12808634D01*
X36237500Y12774123D01*
X36500283Y12774123D01*
X36448280Y12722120D01*
X36412792Y12698408D01*
X36364328Y12625877D01*
X36237500Y12625877D01*
X36064000Y12591366D01*
X35916914Y12493086D01*
X35900000Y12467772D01*
X35883086Y12493086D01*
X35736000Y12591366D01*
X35562500Y12625877D01*
X35267500Y12625877D01*
X35094000Y12591366D01*
X34946914Y12493086D01*
X34848634Y12346000D01*
X34814123Y12172500D01*
X34814123Y11827500D01*
X34848634Y11654000D01*
X34946914Y11506914D01*
X34990001Y11478124D01*
X34990000Y11321876D01*
X34946914Y11293086D01*
X34901420Y11225000D01*
X34041857Y11225000D01*
X34000000Y11233326D01*
X33958143Y11225000D01*
X33958142Y11225000D01*
X33834173Y11200341D01*
X33693592Y11106408D01*
X33685969Y11095000D01*
X32821875Y11095000D01*
X32793086Y11138086D01*
X32725000Y11183580D01*
X32725000Y14677143D01*
X32733326Y14719000D01*
X32721747Y14777213D01*
X33169881Y14329078D01*
G36*
X25705877Y16905877D02*
X25705877Y16999998D01*
X25799998Y16999998D01*
X25705877Y16905877D01*
X25705877Y16905877D01*
G37*
X25705877Y16905877D02*
X25705877Y16999998D01*
X25799998Y16999998D01*
X25705877Y16905877D01*
G36*
X25799998Y17100002D02*
X25705877Y17100002D01*
X25705877Y17120000D01*
X25780000Y17120000D01*
X25799998Y17100002D01*
X25799998Y17100002D01*
G37*
X25799998Y17100002D02*
X25705877Y17100002D01*
X25705877Y17120000D01*
X25780000Y17120000D01*
X25799998Y17100002D01*
G36*
X23794123Y20805877D02*
X23700002Y20899998D01*
X23794123Y20899998D01*
X23794123Y20805877D01*
X23794123Y20805877D01*
G37*
X23794123Y20805877D02*
X23700002Y20899998D01*
X23794123Y20899998D01*
X23794123Y20805877D01*
G36*
X23205877Y20805877D02*
X23205877Y20899998D01*
X23299998Y20899998D01*
X23205877Y20805877D01*
X23205877Y20805877D01*
G37*
X23205877Y20805877D02*
X23205877Y20899998D01*
X23299998Y20899998D01*
X23205877Y20805877D01*
G36*
X26705877Y20805877D02*
X26705877Y20899998D01*
X26799998Y20899998D01*
X26705877Y20805877D01*
X26705877Y20805877D01*
G37*
X26705877Y20805877D02*
X26705877Y20899998D01*
X26799998Y20899998D01*
X26705877Y20805877D01*
G36*
X26799998Y21000002D02*
X26705877Y21000002D01*
X26705877Y21094123D01*
X26799998Y21000002D01*
X26799998Y21000002D01*
G37*
X26799998Y21000002D02*
X26705877Y21000002D01*
X26705877Y21094123D01*
X26799998Y21000002D01*
G36*
X23299998Y21000002D02*
X23205877Y21000002D01*
X23205877Y21094123D01*
X23299998Y21000002D01*
X23299998Y21000002D01*
G37*
X23299998Y21000002D02*
X23205877Y21000002D01*
X23205877Y21094123D01*
X23299998Y21000002D01*
G36*
X23794123Y21000002D02*
X23700002Y21000002D01*
X23794123Y21094123D01*
X23794123Y21000002D01*
X23794123Y21000002D01*
G37*
X23794123Y21000002D02*
X23700002Y21000002D01*
X23794123Y21094123D01*
X23794123Y21000002D01*
G36*
X23850000Y22584315D02*
X23850000Y21850000D01*
X23800000Y21800000D01*
X23800000Y21579565D01*
X23739104Y21726582D01*
X23700000Y21765686D01*
X23700000Y21800000D01*
X23600000Y21900000D01*
X23520435Y21900000D01*
X23500000Y21891536D01*
X23479565Y21900000D01*
X23400000Y21900000D01*
X23300000Y21800000D01*
X23300000Y21765686D01*
X23260896Y21726582D01*
X23200000Y21579565D01*
X23200000Y21800000D01*
X23100000Y21900000D01*
X23097440Y21900000D01*
X23096269Y21901753D01*
X23100000Y21910761D01*
X23100000Y22189239D01*
X22993432Y22446518D01*
X22814950Y22625000D01*
X23809316Y22625000D01*
X23850000Y22584315D01*
X23850000Y22584315D01*
G37*
X23850000Y22584315D02*
X23850000Y21850000D01*
X23800000Y21800000D01*
X23800000Y21579565D01*
X23739104Y21726582D01*
X23700000Y21765686D01*
X23700000Y21800000D01*
X23600000Y21900000D01*
X23520435Y21900000D01*
X23500000Y21891536D01*
X23479565Y21900000D01*
X23400000Y21900000D01*
X23300000Y21800000D01*
X23300000Y21765686D01*
X23260896Y21726582D01*
X23200000Y21579565D01*
X23200000Y21800000D01*
X23100000Y21900000D01*
X23097440Y21900000D01*
X23096269Y21901753D01*
X23100000Y21910761D01*
X23100000Y22189239D01*
X22993432Y22446518D01*
X22814950Y22625000D01*
X23809316Y22625000D01*
X23850000Y22584315D01*
G04 #@! TD*
M02*
