G04 #@! TF.GenerationSoftware,KiCad,Pcbnew,(5.0.0)*
G04 #@! TF.CreationDate,2018-09-04T03:51:54+09:00*
G04 #@! TF.ProjectId,M5Stack_WiSUN,4D35537461636B5F576953554E2E6B69,rev?*
G04 #@! TF.SameCoordinates,PX989680PY55d4a80*
G04 #@! TF.FileFunction,Soldermask,Bot*
G04 #@! TF.FilePolarity,Negative*
%FSLAX46Y46*%
G04 Gerber Fmt 4.6, Leading zero omitted, Abs format (unit mm)*
G04 Created by KiCad (PCBNEW (5.0.0)) date 09/04/18 03:51:54*
%MOMM*%
%LPD*%
G01*
G04 APERTURE LIST*
%ADD10C,5.400000*%
%ADD11C,0.900000*%
%ADD12C,1.400000*%
%ADD13R,3.550000X1.400000*%
%ADD14C,1.200000*%
%ADD15C,3.400000*%
%ADD16C,2.900000*%
%ADD17R,2.100000X2.100000*%
%ADD18O,2.100000X2.100000*%
%ADD19C,0.100000*%
%ADD20C,0.990000*%
%ADD21C,1.275000*%
G04 APERTURE END LIST*
D10*
G04 #@! TO.C,U1*
X17800000Y19000000D03*
X32200000Y19000000D03*
D11*
X22150000Y19000000D03*
X27850000Y19000000D03*
G04 #@! TD*
D12*
G04 #@! TO.C,J2*
X44050000Y8490000D03*
X44050000Y41510000D03*
D13*
X46575000Y42780000D03*
X41525000Y42780000D03*
X46575000Y40240000D03*
X41525000Y40240000D03*
X46575000Y37700000D03*
X41525000Y37700000D03*
X46575000Y35160000D03*
X41525000Y35160000D03*
X46575000Y32620000D03*
X41525000Y32620000D03*
X46575000Y30080000D03*
X41525000Y30080000D03*
X46575000Y27540000D03*
X41525000Y27540000D03*
X46575000Y25000000D03*
X41525000Y25000000D03*
X46575000Y22460000D03*
X41525000Y22460000D03*
X46575000Y19920000D03*
X41525000Y19920000D03*
X46575000Y17380000D03*
X41525000Y17380000D03*
X46575000Y14840000D03*
X41525000Y14840000D03*
X46575000Y12300000D03*
X41525000Y12300000D03*
X46575000Y9760000D03*
X41525000Y9760000D03*
X46575000Y7220000D03*
X41525000Y7220000D03*
G04 #@! TD*
D14*
G04 #@! TO.C,J1*
X44050000Y11030000D03*
X44050000Y38970000D03*
G04 #@! TD*
D15*
G04 #@! TO.C,MH1*
X3000000Y3000000D03*
G04 #@! TD*
G04 #@! TO.C,MH2*
X47000000Y3000000D03*
G04 #@! TD*
G04 #@! TO.C,MH3*
X3000000Y47000000D03*
G04 #@! TD*
G04 #@! TO.C,MH4*
X47000000Y47000000D03*
G04 #@! TD*
D16*
G04 #@! TO.C,MH5*
X7000000Y3000000D03*
G04 #@! TD*
G04 #@! TO.C,MH6*
X43000000Y3000000D03*
G04 #@! TD*
D17*
G04 #@! TO.C,J3*
X4000000Y35160000D03*
D18*
X4000000Y32620000D03*
X4000000Y30080000D03*
X4000000Y27540000D03*
X4000000Y25000000D03*
X4000000Y22460000D03*
X4000000Y19920000D03*
X4000000Y17380000D03*
X4000000Y14840000D03*
G04 #@! TD*
D19*
G04 #@! TO.C,C1*
G36*
X25756759Y5918808D02*
X25780785Y5915244D01*
X25804345Y5909343D01*
X25827214Y5901160D01*
X25849171Y5890776D01*
X25870004Y5878289D01*
X25889512Y5863820D01*
X25907509Y5847509D01*
X25923820Y5829512D01*
X25938289Y5810004D01*
X25950776Y5789171D01*
X25961160Y5767214D01*
X25969343Y5744345D01*
X25975244Y5720785D01*
X25978808Y5696759D01*
X25980000Y5672500D01*
X25980000Y5127500D01*
X25978808Y5103241D01*
X25975244Y5079215D01*
X25969343Y5055655D01*
X25961160Y5032786D01*
X25950776Y5010829D01*
X25938289Y4989996D01*
X25923820Y4970488D01*
X25907509Y4952491D01*
X25889512Y4936180D01*
X25870004Y4921711D01*
X25849171Y4909224D01*
X25827214Y4898840D01*
X25804345Y4890657D01*
X25780785Y4884756D01*
X25756759Y4881192D01*
X25732500Y4880000D01*
X25237500Y4880000D01*
X25213241Y4881192D01*
X25189215Y4884756D01*
X25165655Y4890657D01*
X25142786Y4898840D01*
X25120829Y4909224D01*
X25099996Y4921711D01*
X25080488Y4936180D01*
X25062491Y4952491D01*
X25046180Y4970488D01*
X25031711Y4989996D01*
X25019224Y5010829D01*
X25008840Y5032786D01*
X25000657Y5055655D01*
X24994756Y5079215D01*
X24991192Y5103241D01*
X24990000Y5127500D01*
X24990000Y5672500D01*
X24991192Y5696759D01*
X24994756Y5720785D01*
X25000657Y5744345D01*
X25008840Y5767214D01*
X25019224Y5789171D01*
X25031711Y5810004D01*
X25046180Y5829512D01*
X25062491Y5847509D01*
X25080488Y5863820D01*
X25099996Y5878289D01*
X25120829Y5890776D01*
X25142786Y5901160D01*
X25165655Y5909343D01*
X25189215Y5915244D01*
X25213241Y5918808D01*
X25237500Y5920000D01*
X25732500Y5920000D01*
X25756759Y5918808D01*
X25756759Y5918808D01*
G37*
D20*
X25485000Y5400000D03*
D19*
G36*
X24786759Y5918808D02*
X24810785Y5915244D01*
X24834345Y5909343D01*
X24857214Y5901160D01*
X24879171Y5890776D01*
X24900004Y5878289D01*
X24919512Y5863820D01*
X24937509Y5847509D01*
X24953820Y5829512D01*
X24968289Y5810004D01*
X24980776Y5789171D01*
X24991160Y5767214D01*
X24999343Y5744345D01*
X25005244Y5720785D01*
X25008808Y5696759D01*
X25010000Y5672500D01*
X25010000Y5127500D01*
X25008808Y5103241D01*
X25005244Y5079215D01*
X24999343Y5055655D01*
X24991160Y5032786D01*
X24980776Y5010829D01*
X24968289Y4989996D01*
X24953820Y4970488D01*
X24937509Y4952491D01*
X24919512Y4936180D01*
X24900004Y4921711D01*
X24879171Y4909224D01*
X24857214Y4898840D01*
X24834345Y4890657D01*
X24810785Y4884756D01*
X24786759Y4881192D01*
X24762500Y4880000D01*
X24267500Y4880000D01*
X24243241Y4881192D01*
X24219215Y4884756D01*
X24195655Y4890657D01*
X24172786Y4898840D01*
X24150829Y4909224D01*
X24129996Y4921711D01*
X24110488Y4936180D01*
X24092491Y4952491D01*
X24076180Y4970488D01*
X24061711Y4989996D01*
X24049224Y5010829D01*
X24038840Y5032786D01*
X24030657Y5055655D01*
X24024756Y5079215D01*
X24021192Y5103241D01*
X24020000Y5127500D01*
X24020000Y5672500D01*
X24021192Y5696759D01*
X24024756Y5720785D01*
X24030657Y5744345D01*
X24038840Y5767214D01*
X24049224Y5789171D01*
X24061711Y5810004D01*
X24076180Y5829512D01*
X24092491Y5847509D01*
X24110488Y5863820D01*
X24129996Y5878289D01*
X24150829Y5890776D01*
X24172786Y5901160D01*
X24195655Y5909343D01*
X24219215Y5915244D01*
X24243241Y5918808D01*
X24267500Y5920000D01*
X24762500Y5920000D01*
X24786759Y5918808D01*
X24786759Y5918808D01*
G37*
D20*
X24515000Y5400000D03*
G04 #@! TD*
D19*
G04 #@! TO.C,C2*
G36*
X24286759Y7018808D02*
X24310785Y7015244D01*
X24334345Y7009343D01*
X24357214Y7001160D01*
X24379171Y6990776D01*
X24400004Y6978289D01*
X24419512Y6963820D01*
X24437509Y6947509D01*
X24453820Y6929512D01*
X24468289Y6910004D01*
X24480776Y6889171D01*
X24491160Y6867214D01*
X24499343Y6844345D01*
X24505244Y6820785D01*
X24508808Y6796759D01*
X24510000Y6772500D01*
X24510000Y6227500D01*
X24508808Y6203241D01*
X24505244Y6179215D01*
X24499343Y6155655D01*
X24491160Y6132786D01*
X24480776Y6110829D01*
X24468289Y6089996D01*
X24453820Y6070488D01*
X24437509Y6052491D01*
X24419512Y6036180D01*
X24400004Y6021711D01*
X24379171Y6009224D01*
X24357214Y5998840D01*
X24334345Y5990657D01*
X24310785Y5984756D01*
X24286759Y5981192D01*
X24262500Y5980000D01*
X23767500Y5980000D01*
X23743241Y5981192D01*
X23719215Y5984756D01*
X23695655Y5990657D01*
X23672786Y5998840D01*
X23650829Y6009224D01*
X23629996Y6021711D01*
X23610488Y6036180D01*
X23592491Y6052491D01*
X23576180Y6070488D01*
X23561711Y6089996D01*
X23549224Y6110829D01*
X23538840Y6132786D01*
X23530657Y6155655D01*
X23524756Y6179215D01*
X23521192Y6203241D01*
X23520000Y6227500D01*
X23520000Y6772500D01*
X23521192Y6796759D01*
X23524756Y6820785D01*
X23530657Y6844345D01*
X23538840Y6867214D01*
X23549224Y6889171D01*
X23561711Y6910004D01*
X23576180Y6929512D01*
X23592491Y6947509D01*
X23610488Y6963820D01*
X23629996Y6978289D01*
X23650829Y6990776D01*
X23672786Y7001160D01*
X23695655Y7009343D01*
X23719215Y7015244D01*
X23743241Y7018808D01*
X23767500Y7020000D01*
X24262500Y7020000D01*
X24286759Y7018808D01*
X24286759Y7018808D01*
G37*
D20*
X24015000Y6500000D03*
D19*
G36*
X25256759Y7018808D02*
X25280785Y7015244D01*
X25304345Y7009343D01*
X25327214Y7001160D01*
X25349171Y6990776D01*
X25370004Y6978289D01*
X25389512Y6963820D01*
X25407509Y6947509D01*
X25423820Y6929512D01*
X25438289Y6910004D01*
X25450776Y6889171D01*
X25461160Y6867214D01*
X25469343Y6844345D01*
X25475244Y6820785D01*
X25478808Y6796759D01*
X25480000Y6772500D01*
X25480000Y6227500D01*
X25478808Y6203241D01*
X25475244Y6179215D01*
X25469343Y6155655D01*
X25461160Y6132786D01*
X25450776Y6110829D01*
X25438289Y6089996D01*
X25423820Y6070488D01*
X25407509Y6052491D01*
X25389512Y6036180D01*
X25370004Y6021711D01*
X25349171Y6009224D01*
X25327214Y5998840D01*
X25304345Y5990657D01*
X25280785Y5984756D01*
X25256759Y5981192D01*
X25232500Y5980000D01*
X24737500Y5980000D01*
X24713241Y5981192D01*
X24689215Y5984756D01*
X24665655Y5990657D01*
X24642786Y5998840D01*
X24620829Y6009224D01*
X24599996Y6021711D01*
X24580488Y6036180D01*
X24562491Y6052491D01*
X24546180Y6070488D01*
X24531711Y6089996D01*
X24519224Y6110829D01*
X24508840Y6132786D01*
X24500657Y6155655D01*
X24494756Y6179215D01*
X24491192Y6203241D01*
X24490000Y6227500D01*
X24490000Y6772500D01*
X24491192Y6796759D01*
X24494756Y6820785D01*
X24500657Y6844345D01*
X24508840Y6867214D01*
X24519224Y6889171D01*
X24531711Y6910004D01*
X24546180Y6929512D01*
X24562491Y6947509D01*
X24580488Y6963820D01*
X24599996Y6978289D01*
X24620829Y6990776D01*
X24642786Y7001160D01*
X24665655Y7009343D01*
X24689215Y7015244D01*
X24713241Y7018808D01*
X24737500Y7020000D01*
X25232500Y7020000D01*
X25256759Y7018808D01*
X25256759Y7018808D01*
G37*
D20*
X24985000Y6500000D03*
G04 #@! TD*
D19*
G04 #@! TO.C,C3*
G36*
X24756759Y10018808D02*
X24780785Y10015244D01*
X24804345Y10009343D01*
X24827214Y10001160D01*
X24849171Y9990776D01*
X24870004Y9978289D01*
X24889512Y9963820D01*
X24907509Y9947509D01*
X24923820Y9929512D01*
X24938289Y9910004D01*
X24950776Y9889171D01*
X24961160Y9867214D01*
X24969343Y9844345D01*
X24975244Y9820785D01*
X24978808Y9796759D01*
X24980000Y9772500D01*
X24980000Y9227500D01*
X24978808Y9203241D01*
X24975244Y9179215D01*
X24969343Y9155655D01*
X24961160Y9132786D01*
X24950776Y9110829D01*
X24938289Y9089996D01*
X24923820Y9070488D01*
X24907509Y9052491D01*
X24889512Y9036180D01*
X24870004Y9021711D01*
X24849171Y9009224D01*
X24827214Y8998840D01*
X24804345Y8990657D01*
X24780785Y8984756D01*
X24756759Y8981192D01*
X24732500Y8980000D01*
X24237500Y8980000D01*
X24213241Y8981192D01*
X24189215Y8984756D01*
X24165655Y8990657D01*
X24142786Y8998840D01*
X24120829Y9009224D01*
X24099996Y9021711D01*
X24080488Y9036180D01*
X24062491Y9052491D01*
X24046180Y9070488D01*
X24031711Y9089996D01*
X24019224Y9110829D01*
X24008840Y9132786D01*
X24000657Y9155655D01*
X23994756Y9179215D01*
X23991192Y9203241D01*
X23990000Y9227500D01*
X23990000Y9772500D01*
X23991192Y9796759D01*
X23994756Y9820785D01*
X24000657Y9844345D01*
X24008840Y9867214D01*
X24019224Y9889171D01*
X24031711Y9910004D01*
X24046180Y9929512D01*
X24062491Y9947509D01*
X24080488Y9963820D01*
X24099996Y9978289D01*
X24120829Y9990776D01*
X24142786Y10001160D01*
X24165655Y10009343D01*
X24189215Y10015244D01*
X24213241Y10018808D01*
X24237500Y10020000D01*
X24732500Y10020000D01*
X24756759Y10018808D01*
X24756759Y10018808D01*
G37*
D20*
X24485000Y9500000D03*
D19*
G36*
X23786759Y10018808D02*
X23810785Y10015244D01*
X23834345Y10009343D01*
X23857214Y10001160D01*
X23879171Y9990776D01*
X23900004Y9978289D01*
X23919512Y9963820D01*
X23937509Y9947509D01*
X23953820Y9929512D01*
X23968289Y9910004D01*
X23980776Y9889171D01*
X23991160Y9867214D01*
X23999343Y9844345D01*
X24005244Y9820785D01*
X24008808Y9796759D01*
X24010000Y9772500D01*
X24010000Y9227500D01*
X24008808Y9203241D01*
X24005244Y9179215D01*
X23999343Y9155655D01*
X23991160Y9132786D01*
X23980776Y9110829D01*
X23968289Y9089996D01*
X23953820Y9070488D01*
X23937509Y9052491D01*
X23919512Y9036180D01*
X23900004Y9021711D01*
X23879171Y9009224D01*
X23857214Y8998840D01*
X23834345Y8990657D01*
X23810785Y8984756D01*
X23786759Y8981192D01*
X23762500Y8980000D01*
X23267500Y8980000D01*
X23243241Y8981192D01*
X23219215Y8984756D01*
X23195655Y8990657D01*
X23172786Y8998840D01*
X23150829Y9009224D01*
X23129996Y9021711D01*
X23110488Y9036180D01*
X23092491Y9052491D01*
X23076180Y9070488D01*
X23061711Y9089996D01*
X23049224Y9110829D01*
X23038840Y9132786D01*
X23030657Y9155655D01*
X23024756Y9179215D01*
X23021192Y9203241D01*
X23020000Y9227500D01*
X23020000Y9772500D01*
X23021192Y9796759D01*
X23024756Y9820785D01*
X23030657Y9844345D01*
X23038840Y9867214D01*
X23049224Y9889171D01*
X23061711Y9910004D01*
X23076180Y9929512D01*
X23092491Y9947509D01*
X23110488Y9963820D01*
X23129996Y9978289D01*
X23150829Y9990776D01*
X23172786Y10001160D01*
X23195655Y10009343D01*
X23219215Y10015244D01*
X23243241Y10018808D01*
X23267500Y10020000D01*
X23762500Y10020000D01*
X23786759Y10018808D01*
X23786759Y10018808D01*
G37*
D20*
X23515000Y9500000D03*
G04 #@! TD*
D19*
G04 #@! TO.C,C4*
G36*
X25786759Y10018808D02*
X25810785Y10015244D01*
X25834345Y10009343D01*
X25857214Y10001160D01*
X25879171Y9990776D01*
X25900004Y9978289D01*
X25919512Y9963820D01*
X25937509Y9947509D01*
X25953820Y9929512D01*
X25968289Y9910004D01*
X25980776Y9889171D01*
X25991160Y9867214D01*
X25999343Y9844345D01*
X26005244Y9820785D01*
X26008808Y9796759D01*
X26010000Y9772500D01*
X26010000Y9227500D01*
X26008808Y9203241D01*
X26005244Y9179215D01*
X25999343Y9155655D01*
X25991160Y9132786D01*
X25980776Y9110829D01*
X25968289Y9089996D01*
X25953820Y9070488D01*
X25937509Y9052491D01*
X25919512Y9036180D01*
X25900004Y9021711D01*
X25879171Y9009224D01*
X25857214Y8998840D01*
X25834345Y8990657D01*
X25810785Y8984756D01*
X25786759Y8981192D01*
X25762500Y8980000D01*
X25267500Y8980000D01*
X25243241Y8981192D01*
X25219215Y8984756D01*
X25195655Y8990657D01*
X25172786Y8998840D01*
X25150829Y9009224D01*
X25129996Y9021711D01*
X25110488Y9036180D01*
X25092491Y9052491D01*
X25076180Y9070488D01*
X25061711Y9089996D01*
X25049224Y9110829D01*
X25038840Y9132786D01*
X25030657Y9155655D01*
X25024756Y9179215D01*
X25021192Y9203241D01*
X25020000Y9227500D01*
X25020000Y9772500D01*
X25021192Y9796759D01*
X25024756Y9820785D01*
X25030657Y9844345D01*
X25038840Y9867214D01*
X25049224Y9889171D01*
X25061711Y9910004D01*
X25076180Y9929512D01*
X25092491Y9947509D01*
X25110488Y9963820D01*
X25129996Y9978289D01*
X25150829Y9990776D01*
X25172786Y10001160D01*
X25195655Y10009343D01*
X25219215Y10015244D01*
X25243241Y10018808D01*
X25267500Y10020000D01*
X25762500Y10020000D01*
X25786759Y10018808D01*
X25786759Y10018808D01*
G37*
D20*
X25515000Y9500000D03*
D19*
G36*
X26756759Y10018808D02*
X26780785Y10015244D01*
X26804345Y10009343D01*
X26827214Y10001160D01*
X26849171Y9990776D01*
X26870004Y9978289D01*
X26889512Y9963820D01*
X26907509Y9947509D01*
X26923820Y9929512D01*
X26938289Y9910004D01*
X26950776Y9889171D01*
X26961160Y9867214D01*
X26969343Y9844345D01*
X26975244Y9820785D01*
X26978808Y9796759D01*
X26980000Y9772500D01*
X26980000Y9227500D01*
X26978808Y9203241D01*
X26975244Y9179215D01*
X26969343Y9155655D01*
X26961160Y9132786D01*
X26950776Y9110829D01*
X26938289Y9089996D01*
X26923820Y9070488D01*
X26907509Y9052491D01*
X26889512Y9036180D01*
X26870004Y9021711D01*
X26849171Y9009224D01*
X26827214Y8998840D01*
X26804345Y8990657D01*
X26780785Y8984756D01*
X26756759Y8981192D01*
X26732500Y8980000D01*
X26237500Y8980000D01*
X26213241Y8981192D01*
X26189215Y8984756D01*
X26165655Y8990657D01*
X26142786Y8998840D01*
X26120829Y9009224D01*
X26099996Y9021711D01*
X26080488Y9036180D01*
X26062491Y9052491D01*
X26046180Y9070488D01*
X26031711Y9089996D01*
X26019224Y9110829D01*
X26008840Y9132786D01*
X26000657Y9155655D01*
X25994756Y9179215D01*
X25991192Y9203241D01*
X25990000Y9227500D01*
X25990000Y9772500D01*
X25991192Y9796759D01*
X25994756Y9820785D01*
X26000657Y9844345D01*
X26008840Y9867214D01*
X26019224Y9889171D01*
X26031711Y9910004D01*
X26046180Y9929512D01*
X26062491Y9947509D01*
X26080488Y9963820D01*
X26099996Y9978289D01*
X26120829Y9990776D01*
X26142786Y10001160D01*
X26165655Y10009343D01*
X26189215Y10015244D01*
X26213241Y10018808D01*
X26237500Y10020000D01*
X26732500Y10020000D01*
X26756759Y10018808D01*
X26756759Y10018808D01*
G37*
D20*
X26485000Y9500000D03*
G04 #@! TD*
D19*
G04 #@! TO.C,L1*
G36*
X23087493Y6748465D02*
X23118435Y6743875D01*
X23148778Y6736275D01*
X23178230Y6725737D01*
X23206508Y6712362D01*
X23233338Y6696281D01*
X23258463Y6677647D01*
X23281640Y6656640D01*
X23302647Y6633463D01*
X23321281Y6608338D01*
X23337362Y6581508D01*
X23350737Y6553230D01*
X23361275Y6523778D01*
X23368875Y6493435D01*
X23373465Y6462493D01*
X23375000Y6431250D01*
X23375000Y5793750D01*
X23373465Y5762507D01*
X23368875Y5731565D01*
X23361275Y5701222D01*
X23350737Y5671770D01*
X23337362Y5643492D01*
X23321281Y5616662D01*
X23302647Y5591537D01*
X23281640Y5568360D01*
X23258463Y5547353D01*
X23233338Y5528719D01*
X23206508Y5512638D01*
X23178230Y5499263D01*
X23148778Y5488725D01*
X23118435Y5481125D01*
X23087493Y5476535D01*
X23056250Y5475000D01*
X22343750Y5475000D01*
X22312507Y5476535D01*
X22281565Y5481125D01*
X22251222Y5488725D01*
X22221770Y5499263D01*
X22193492Y5512638D01*
X22166662Y5528719D01*
X22141537Y5547353D01*
X22118360Y5568360D01*
X22097353Y5591537D01*
X22078719Y5616662D01*
X22062638Y5643492D01*
X22049263Y5671770D01*
X22038725Y5701222D01*
X22031125Y5731565D01*
X22026535Y5762507D01*
X22025000Y5793750D01*
X22025000Y6431250D01*
X22026535Y6462493D01*
X22031125Y6493435D01*
X22038725Y6523778D01*
X22049263Y6553230D01*
X22062638Y6581508D01*
X22078719Y6608338D01*
X22097353Y6633463D01*
X22118360Y6656640D01*
X22141537Y6677647D01*
X22166662Y6696281D01*
X22193492Y6712362D01*
X22221770Y6725737D01*
X22251222Y6736275D01*
X22281565Y6743875D01*
X22312507Y6748465D01*
X22343750Y6750000D01*
X23056250Y6750000D01*
X23087493Y6748465D01*
X23087493Y6748465D01*
G37*
D21*
X22700000Y6112500D03*
D19*
G36*
X23087493Y8323465D02*
X23118435Y8318875D01*
X23148778Y8311275D01*
X23178230Y8300737D01*
X23206508Y8287362D01*
X23233338Y8271281D01*
X23258463Y8252647D01*
X23281640Y8231640D01*
X23302647Y8208463D01*
X23321281Y8183338D01*
X23337362Y8156508D01*
X23350737Y8128230D01*
X23361275Y8098778D01*
X23368875Y8068435D01*
X23373465Y8037493D01*
X23375000Y8006250D01*
X23375000Y7368750D01*
X23373465Y7337507D01*
X23368875Y7306565D01*
X23361275Y7276222D01*
X23350737Y7246770D01*
X23337362Y7218492D01*
X23321281Y7191662D01*
X23302647Y7166537D01*
X23281640Y7143360D01*
X23258463Y7122353D01*
X23233338Y7103719D01*
X23206508Y7087638D01*
X23178230Y7074263D01*
X23148778Y7063725D01*
X23118435Y7056125D01*
X23087493Y7051535D01*
X23056250Y7050000D01*
X22343750Y7050000D01*
X22312507Y7051535D01*
X22281565Y7056125D01*
X22251222Y7063725D01*
X22221770Y7074263D01*
X22193492Y7087638D01*
X22166662Y7103719D01*
X22141537Y7122353D01*
X22118360Y7143360D01*
X22097353Y7166537D01*
X22078719Y7191662D01*
X22062638Y7218492D01*
X22049263Y7246770D01*
X22038725Y7276222D01*
X22031125Y7306565D01*
X22026535Y7337507D01*
X22025000Y7368750D01*
X22025000Y8006250D01*
X22026535Y8037493D01*
X22031125Y8068435D01*
X22038725Y8098778D01*
X22049263Y8128230D01*
X22062638Y8156508D01*
X22078719Y8183338D01*
X22097353Y8208463D01*
X22118360Y8231640D01*
X22141537Y8252647D01*
X22166662Y8271281D01*
X22193492Y8287362D01*
X22221770Y8300737D01*
X22251222Y8311275D01*
X22281565Y8318875D01*
X22312507Y8323465D01*
X22343750Y8325000D01*
X23056250Y8325000D01*
X23087493Y8323465D01*
X23087493Y8323465D01*
G37*
D21*
X22700000Y7687500D03*
G04 #@! TD*
D17*
G04 #@! TO.C,J4*
X12050000Y8550000D03*
D18*
X14590000Y8550000D03*
X12050000Y6010000D03*
X14590000Y6010000D03*
X12050000Y3470000D03*
X14590000Y3470000D03*
G04 #@! TD*
M02*
