G04 #@! TF.GenerationSoftware,KiCad,Pcbnew,(5.0.0)*
G04 #@! TF.CreationDate,2018-09-04T03:51:54+09:00*
G04 #@! TF.ProjectId,M5Stack_WiSUN,4D35537461636B5F576953554E2E6B69,rev?*
G04 #@! TF.SameCoordinates,PX989680PY55d4a80*
G04 #@! TF.FileFunction,Copper,L2,Bot,Signal*
G04 #@! TF.FilePolarity,Positive*
%FSLAX46Y46*%
G04 Gerber Fmt 4.6, Leading zero omitted, Abs format (unit mm)*
G04 Created by KiCad (PCBNEW (5.0.0)) date 09/04/18 03:51:54*
%MOMM*%
%LPD*%
G01*
G04 APERTURE LIST*
G04 #@! TA.AperFunction,WasherPad*
%ADD10C,5.000000*%
G04 #@! TD*
G04 #@! TA.AperFunction,SMDPad,CuDef*
%ADD11R,3.150000X1.000000*%
G04 #@! TD*
G04 #@! TA.AperFunction,ComponentPad*
%ADD12R,1.700000X1.700000*%
G04 #@! TD*
G04 #@! TA.AperFunction,ComponentPad*
%ADD13O,1.700000X1.700000*%
G04 #@! TD*
G04 #@! TA.AperFunction,Conductor*
%ADD14C,0.100000*%
G04 #@! TD*
G04 #@! TA.AperFunction,SMDPad,CuDef*
%ADD15C,0.590000*%
G04 #@! TD*
G04 #@! TA.AperFunction,SMDPad,CuDef*
%ADD16C,0.875000*%
G04 #@! TD*
G04 #@! TA.AperFunction,ViaPad*
%ADD17C,0.800000*%
G04 #@! TD*
G04 #@! TA.AperFunction,Conductor*
%ADD18C,0.250000*%
G04 #@! TD*
G04 #@! TA.AperFunction,Conductor*
%ADD19C,0.400000*%
G04 #@! TD*
G04 #@! TA.AperFunction,Conductor*
%ADD20C,0.800000*%
G04 #@! TD*
G04 #@! TA.AperFunction,Conductor*
%ADD21C,0.600000*%
G04 #@! TD*
G04 #@! TA.AperFunction,Conductor*
%ADD22C,0.200000*%
G04 #@! TD*
G04 APERTURE END LIST*
D10*
G04 #@! TO.P,U1,*
G04 #@! TO.N,*
X17800000Y19000000D03*
X32200000Y19000000D03*
G04 #@! TD*
D11*
G04 #@! TO.P,J2,1*
G04 #@! TO.N,GND*
X46575000Y42780000D03*
G04 #@! TO.P,J2,2*
G04 #@! TO.N,/ADC_G35*
X41525000Y42780000D03*
G04 #@! TO.P,J2,3*
G04 #@! TO.N,GND*
X46575000Y40240000D03*
G04 #@! TO.P,J2,4*
G04 #@! TO.N,/ADC_G36*
X41525000Y40240000D03*
G04 #@! TO.P,J2,5*
G04 #@! TO.N,GND*
X46575000Y37700000D03*
G04 #@! TO.P,J2,6*
G04 #@! TO.N,/RST*
X41525000Y37700000D03*
G04 #@! TO.P,J2,7*
G04 #@! TO.N,/MOSI*
X46575000Y35160000D03*
G04 #@! TO.P,J2,8*
G04 #@! TO.N,/DAC_SPK*
X41525000Y35160000D03*
G04 #@! TO.P,J2,9*
G04 #@! TO.N,/MISO*
X46575000Y32620000D03*
G04 #@! TO.P,J2,10*
G04 #@! TO.N,/DAC*
X41525000Y32620000D03*
G04 #@! TO.P,J2,11*
G04 #@! TO.N,/SCK*
X46575000Y30080000D03*
G04 #@! TO.P,J2,12*
G04 #@! TO.N,+3V3*
X41525000Y30080000D03*
G04 #@! TO.P,J2,13*
G04 #@! TO.N,/RXD0*
X46575000Y27540000D03*
G04 #@! TO.P,J2,14*
G04 #@! TO.N,/TXD0*
X41525000Y27540000D03*
G04 #@! TO.P,J2,15*
G04 #@! TO.N,/RXD2*
X46575000Y25000000D03*
G04 #@! TO.P,J2,16*
G04 #@! TO.N,/TXD2*
X41525000Y25000000D03*
G04 #@! TO.P,J2,17*
G04 #@! TO.N,/SDA*
X46575000Y22460000D03*
G04 #@! TO.P,J2,18*
G04 #@! TO.N,/SCL*
X41525000Y22460000D03*
G04 #@! TO.P,J2,19*
G04 #@! TO.N,/GPIO_G2*
X46575000Y19920000D03*
G04 #@! TO.P,J2,20*
G04 #@! TO.N,/GPIO_G5*
X41525000Y19920000D03*
G04 #@! TO.P,J2,21*
G04 #@! TO.N,/IIS_SK*
X46575000Y17380000D03*
G04 #@! TO.P,J2,22*
G04 #@! TO.N,/IIS_WS*
X41525000Y17380000D03*
G04 #@! TO.P,J2,23*
G04 #@! TO.N,/IIS_OUT*
X46575000Y14840000D03*
G04 #@! TO.P,J2,24*
G04 #@! TO.N,/IIS_MK*
X41525000Y14840000D03*
G04 #@! TO.P,J2,25*
G04 #@! TO.N,/HPWR*
X46575000Y12300000D03*
G04 #@! TO.P,J2,26*
G04 #@! TO.N,/IIS_IN*
X41525000Y12300000D03*
G04 #@! TO.P,J2,27*
G04 #@! TO.N,/HPWR*
X46575000Y9760000D03*
G04 #@! TO.P,J2,28*
G04 #@! TO.N,+5V*
X41525000Y9760000D03*
G04 #@! TO.P,J2,29*
G04 #@! TO.N,/HPWR*
X46575000Y7220000D03*
G04 #@! TO.P,J2,30*
G04 #@! TO.N,/BATTERY*
X41525000Y7220000D03*
G04 #@! TD*
D12*
G04 #@! TO.P,J3,1*
G04 #@! TO.N,/AVR_ADC3*
X4000000Y35160000D03*
D13*
G04 #@! TO.P,J3,2*
G04 #@! TO.N,/AVR_ADC2*
X4000000Y32620000D03*
G04 #@! TO.P,J3,3*
G04 #@! TO.N,/AVR_ADC1*
X4000000Y30080000D03*
G04 #@! TO.P,J3,4*
G04 #@! TO.N,/AVR_ADC0*
X4000000Y27540000D03*
G04 #@! TO.P,J3,5*
G04 #@! TO.N,/AVR_PB1*
X4000000Y25000000D03*
G04 #@! TO.P,J3,6*
G04 #@! TO.N,/AVR_PD4*
X4000000Y22460000D03*
G04 #@! TO.P,J3,7*
G04 #@! TO.N,/AVR_PD5*
X4000000Y19920000D03*
G04 #@! TO.P,J3,8*
G04 #@! TO.N,+3V3*
X4000000Y17380000D03*
G04 #@! TO.P,J3,9*
G04 #@! TO.N,GND*
X4000000Y14840000D03*
G04 #@! TD*
D14*
G04 #@! TO.N,GND*
G04 #@! TO.C,C1*
G36*
X25646958Y5719290D02*
X25661276Y5717166D01*
X25675317Y5713649D01*
X25688946Y5708772D01*
X25702031Y5702583D01*
X25714447Y5695142D01*
X25726073Y5686519D01*
X25736798Y5676798D01*
X25746519Y5666073D01*
X25755142Y5654447D01*
X25762583Y5642031D01*
X25768772Y5628946D01*
X25773649Y5615317D01*
X25777166Y5601276D01*
X25779290Y5586958D01*
X25780000Y5572500D01*
X25780000Y5227500D01*
X25779290Y5213042D01*
X25777166Y5198724D01*
X25773649Y5184683D01*
X25768772Y5171054D01*
X25762583Y5157969D01*
X25755142Y5145553D01*
X25746519Y5133927D01*
X25736798Y5123202D01*
X25726073Y5113481D01*
X25714447Y5104858D01*
X25702031Y5097417D01*
X25688946Y5091228D01*
X25675317Y5086351D01*
X25661276Y5082834D01*
X25646958Y5080710D01*
X25632500Y5080000D01*
X25337500Y5080000D01*
X25323042Y5080710D01*
X25308724Y5082834D01*
X25294683Y5086351D01*
X25281054Y5091228D01*
X25267969Y5097417D01*
X25255553Y5104858D01*
X25243927Y5113481D01*
X25233202Y5123202D01*
X25223481Y5133927D01*
X25214858Y5145553D01*
X25207417Y5157969D01*
X25201228Y5171054D01*
X25196351Y5184683D01*
X25192834Y5198724D01*
X25190710Y5213042D01*
X25190000Y5227500D01*
X25190000Y5572500D01*
X25190710Y5586958D01*
X25192834Y5601276D01*
X25196351Y5615317D01*
X25201228Y5628946D01*
X25207417Y5642031D01*
X25214858Y5654447D01*
X25223481Y5666073D01*
X25233202Y5676798D01*
X25243927Y5686519D01*
X25255553Y5695142D01*
X25267969Y5702583D01*
X25281054Y5708772D01*
X25294683Y5713649D01*
X25308724Y5717166D01*
X25323042Y5719290D01*
X25337500Y5720000D01*
X25632500Y5720000D01*
X25646958Y5719290D01*
X25646958Y5719290D01*
G37*
D15*
G04 #@! TD*
G04 #@! TO.P,C1,2*
G04 #@! TO.N,GND*
X25485000Y5400000D03*
D14*
G04 #@! TO.N,Net-(C1-Pad1)*
G04 #@! TO.C,C1*
G36*
X24676958Y5719290D02*
X24691276Y5717166D01*
X24705317Y5713649D01*
X24718946Y5708772D01*
X24732031Y5702583D01*
X24744447Y5695142D01*
X24756073Y5686519D01*
X24766798Y5676798D01*
X24776519Y5666073D01*
X24785142Y5654447D01*
X24792583Y5642031D01*
X24798772Y5628946D01*
X24803649Y5615317D01*
X24807166Y5601276D01*
X24809290Y5586958D01*
X24810000Y5572500D01*
X24810000Y5227500D01*
X24809290Y5213042D01*
X24807166Y5198724D01*
X24803649Y5184683D01*
X24798772Y5171054D01*
X24792583Y5157969D01*
X24785142Y5145553D01*
X24776519Y5133927D01*
X24766798Y5123202D01*
X24756073Y5113481D01*
X24744447Y5104858D01*
X24732031Y5097417D01*
X24718946Y5091228D01*
X24705317Y5086351D01*
X24691276Y5082834D01*
X24676958Y5080710D01*
X24662500Y5080000D01*
X24367500Y5080000D01*
X24353042Y5080710D01*
X24338724Y5082834D01*
X24324683Y5086351D01*
X24311054Y5091228D01*
X24297969Y5097417D01*
X24285553Y5104858D01*
X24273927Y5113481D01*
X24263202Y5123202D01*
X24253481Y5133927D01*
X24244858Y5145553D01*
X24237417Y5157969D01*
X24231228Y5171054D01*
X24226351Y5184683D01*
X24222834Y5198724D01*
X24220710Y5213042D01*
X24220000Y5227500D01*
X24220000Y5572500D01*
X24220710Y5586958D01*
X24222834Y5601276D01*
X24226351Y5615317D01*
X24231228Y5628946D01*
X24237417Y5642031D01*
X24244858Y5654447D01*
X24253481Y5666073D01*
X24263202Y5676798D01*
X24273927Y5686519D01*
X24285553Y5695142D01*
X24297969Y5702583D01*
X24311054Y5708772D01*
X24324683Y5713649D01*
X24338724Y5717166D01*
X24353042Y5719290D01*
X24367500Y5720000D01*
X24662500Y5720000D01*
X24676958Y5719290D01*
X24676958Y5719290D01*
G37*
D15*
G04 #@! TD*
G04 #@! TO.P,C1,1*
G04 #@! TO.N,Net-(C1-Pad1)*
X24515000Y5400000D03*
D14*
G04 #@! TO.N,Net-(C2-Pad1)*
G04 #@! TO.C,C2*
G36*
X24176958Y6819290D02*
X24191276Y6817166D01*
X24205317Y6813649D01*
X24218946Y6808772D01*
X24232031Y6802583D01*
X24244447Y6795142D01*
X24256073Y6786519D01*
X24266798Y6776798D01*
X24276519Y6766073D01*
X24285142Y6754447D01*
X24292583Y6742031D01*
X24298772Y6728946D01*
X24303649Y6715317D01*
X24307166Y6701276D01*
X24309290Y6686958D01*
X24310000Y6672500D01*
X24310000Y6327500D01*
X24309290Y6313042D01*
X24307166Y6298724D01*
X24303649Y6284683D01*
X24298772Y6271054D01*
X24292583Y6257969D01*
X24285142Y6245553D01*
X24276519Y6233927D01*
X24266798Y6223202D01*
X24256073Y6213481D01*
X24244447Y6204858D01*
X24232031Y6197417D01*
X24218946Y6191228D01*
X24205317Y6186351D01*
X24191276Y6182834D01*
X24176958Y6180710D01*
X24162500Y6180000D01*
X23867500Y6180000D01*
X23853042Y6180710D01*
X23838724Y6182834D01*
X23824683Y6186351D01*
X23811054Y6191228D01*
X23797969Y6197417D01*
X23785553Y6204858D01*
X23773927Y6213481D01*
X23763202Y6223202D01*
X23753481Y6233927D01*
X23744858Y6245553D01*
X23737417Y6257969D01*
X23731228Y6271054D01*
X23726351Y6284683D01*
X23722834Y6298724D01*
X23720710Y6313042D01*
X23720000Y6327500D01*
X23720000Y6672500D01*
X23720710Y6686958D01*
X23722834Y6701276D01*
X23726351Y6715317D01*
X23731228Y6728946D01*
X23737417Y6742031D01*
X23744858Y6754447D01*
X23753481Y6766073D01*
X23763202Y6776798D01*
X23773927Y6786519D01*
X23785553Y6795142D01*
X23797969Y6802583D01*
X23811054Y6808772D01*
X23824683Y6813649D01*
X23838724Y6817166D01*
X23853042Y6819290D01*
X23867500Y6820000D01*
X24162500Y6820000D01*
X24176958Y6819290D01*
X24176958Y6819290D01*
G37*
D15*
G04 #@! TD*
G04 #@! TO.P,C2,1*
G04 #@! TO.N,Net-(C2-Pad1)*
X24015000Y6500000D03*
D14*
G04 #@! TO.N,GND*
G04 #@! TO.C,C2*
G36*
X25146958Y6819290D02*
X25161276Y6817166D01*
X25175317Y6813649D01*
X25188946Y6808772D01*
X25202031Y6802583D01*
X25214447Y6795142D01*
X25226073Y6786519D01*
X25236798Y6776798D01*
X25246519Y6766073D01*
X25255142Y6754447D01*
X25262583Y6742031D01*
X25268772Y6728946D01*
X25273649Y6715317D01*
X25277166Y6701276D01*
X25279290Y6686958D01*
X25280000Y6672500D01*
X25280000Y6327500D01*
X25279290Y6313042D01*
X25277166Y6298724D01*
X25273649Y6284683D01*
X25268772Y6271054D01*
X25262583Y6257969D01*
X25255142Y6245553D01*
X25246519Y6233927D01*
X25236798Y6223202D01*
X25226073Y6213481D01*
X25214447Y6204858D01*
X25202031Y6197417D01*
X25188946Y6191228D01*
X25175317Y6186351D01*
X25161276Y6182834D01*
X25146958Y6180710D01*
X25132500Y6180000D01*
X24837500Y6180000D01*
X24823042Y6180710D01*
X24808724Y6182834D01*
X24794683Y6186351D01*
X24781054Y6191228D01*
X24767969Y6197417D01*
X24755553Y6204858D01*
X24743927Y6213481D01*
X24733202Y6223202D01*
X24723481Y6233927D01*
X24714858Y6245553D01*
X24707417Y6257969D01*
X24701228Y6271054D01*
X24696351Y6284683D01*
X24692834Y6298724D01*
X24690710Y6313042D01*
X24690000Y6327500D01*
X24690000Y6672500D01*
X24690710Y6686958D01*
X24692834Y6701276D01*
X24696351Y6715317D01*
X24701228Y6728946D01*
X24707417Y6742031D01*
X24714858Y6754447D01*
X24723481Y6766073D01*
X24733202Y6776798D01*
X24743927Y6786519D01*
X24755553Y6795142D01*
X24767969Y6802583D01*
X24781054Y6808772D01*
X24794683Y6813649D01*
X24808724Y6817166D01*
X24823042Y6819290D01*
X24837500Y6820000D01*
X25132500Y6820000D01*
X25146958Y6819290D01*
X25146958Y6819290D01*
G37*
D15*
G04 #@! TD*
G04 #@! TO.P,C2,2*
G04 #@! TO.N,GND*
X24985000Y6500000D03*
D14*
G04 #@! TO.N,GND*
G04 #@! TO.C,C3*
G36*
X24646958Y9819290D02*
X24661276Y9817166D01*
X24675317Y9813649D01*
X24688946Y9808772D01*
X24702031Y9802583D01*
X24714447Y9795142D01*
X24726073Y9786519D01*
X24736798Y9776798D01*
X24746519Y9766073D01*
X24755142Y9754447D01*
X24762583Y9742031D01*
X24768772Y9728946D01*
X24773649Y9715317D01*
X24777166Y9701276D01*
X24779290Y9686958D01*
X24780000Y9672500D01*
X24780000Y9327500D01*
X24779290Y9313042D01*
X24777166Y9298724D01*
X24773649Y9284683D01*
X24768772Y9271054D01*
X24762583Y9257969D01*
X24755142Y9245553D01*
X24746519Y9233927D01*
X24736798Y9223202D01*
X24726073Y9213481D01*
X24714447Y9204858D01*
X24702031Y9197417D01*
X24688946Y9191228D01*
X24675317Y9186351D01*
X24661276Y9182834D01*
X24646958Y9180710D01*
X24632500Y9180000D01*
X24337500Y9180000D01*
X24323042Y9180710D01*
X24308724Y9182834D01*
X24294683Y9186351D01*
X24281054Y9191228D01*
X24267969Y9197417D01*
X24255553Y9204858D01*
X24243927Y9213481D01*
X24233202Y9223202D01*
X24223481Y9233927D01*
X24214858Y9245553D01*
X24207417Y9257969D01*
X24201228Y9271054D01*
X24196351Y9284683D01*
X24192834Y9298724D01*
X24190710Y9313042D01*
X24190000Y9327500D01*
X24190000Y9672500D01*
X24190710Y9686958D01*
X24192834Y9701276D01*
X24196351Y9715317D01*
X24201228Y9728946D01*
X24207417Y9742031D01*
X24214858Y9754447D01*
X24223481Y9766073D01*
X24233202Y9776798D01*
X24243927Y9786519D01*
X24255553Y9795142D01*
X24267969Y9802583D01*
X24281054Y9808772D01*
X24294683Y9813649D01*
X24308724Y9817166D01*
X24323042Y9819290D01*
X24337500Y9820000D01*
X24632500Y9820000D01*
X24646958Y9819290D01*
X24646958Y9819290D01*
G37*
D15*
G04 #@! TD*
G04 #@! TO.P,C3,2*
G04 #@! TO.N,GND*
X24485000Y9500000D03*
D14*
G04 #@! TO.N,+3V3*
G04 #@! TO.C,C3*
G36*
X23676958Y9819290D02*
X23691276Y9817166D01*
X23705317Y9813649D01*
X23718946Y9808772D01*
X23732031Y9802583D01*
X23744447Y9795142D01*
X23756073Y9786519D01*
X23766798Y9776798D01*
X23776519Y9766073D01*
X23785142Y9754447D01*
X23792583Y9742031D01*
X23798772Y9728946D01*
X23803649Y9715317D01*
X23807166Y9701276D01*
X23809290Y9686958D01*
X23810000Y9672500D01*
X23810000Y9327500D01*
X23809290Y9313042D01*
X23807166Y9298724D01*
X23803649Y9284683D01*
X23798772Y9271054D01*
X23792583Y9257969D01*
X23785142Y9245553D01*
X23776519Y9233927D01*
X23766798Y9223202D01*
X23756073Y9213481D01*
X23744447Y9204858D01*
X23732031Y9197417D01*
X23718946Y9191228D01*
X23705317Y9186351D01*
X23691276Y9182834D01*
X23676958Y9180710D01*
X23662500Y9180000D01*
X23367500Y9180000D01*
X23353042Y9180710D01*
X23338724Y9182834D01*
X23324683Y9186351D01*
X23311054Y9191228D01*
X23297969Y9197417D01*
X23285553Y9204858D01*
X23273927Y9213481D01*
X23263202Y9223202D01*
X23253481Y9233927D01*
X23244858Y9245553D01*
X23237417Y9257969D01*
X23231228Y9271054D01*
X23226351Y9284683D01*
X23222834Y9298724D01*
X23220710Y9313042D01*
X23220000Y9327500D01*
X23220000Y9672500D01*
X23220710Y9686958D01*
X23222834Y9701276D01*
X23226351Y9715317D01*
X23231228Y9728946D01*
X23237417Y9742031D01*
X23244858Y9754447D01*
X23253481Y9766073D01*
X23263202Y9776798D01*
X23273927Y9786519D01*
X23285553Y9795142D01*
X23297969Y9802583D01*
X23311054Y9808772D01*
X23324683Y9813649D01*
X23338724Y9817166D01*
X23353042Y9819290D01*
X23367500Y9820000D01*
X23662500Y9820000D01*
X23676958Y9819290D01*
X23676958Y9819290D01*
G37*
D15*
G04 #@! TD*
G04 #@! TO.P,C3,1*
G04 #@! TO.N,+3V3*
X23515000Y9500000D03*
D14*
G04 #@! TO.N,+3V3*
G04 #@! TO.C,C4*
G36*
X25676958Y9819290D02*
X25691276Y9817166D01*
X25705317Y9813649D01*
X25718946Y9808772D01*
X25732031Y9802583D01*
X25744447Y9795142D01*
X25756073Y9786519D01*
X25766798Y9776798D01*
X25776519Y9766073D01*
X25785142Y9754447D01*
X25792583Y9742031D01*
X25798772Y9728946D01*
X25803649Y9715317D01*
X25807166Y9701276D01*
X25809290Y9686958D01*
X25810000Y9672500D01*
X25810000Y9327500D01*
X25809290Y9313042D01*
X25807166Y9298724D01*
X25803649Y9284683D01*
X25798772Y9271054D01*
X25792583Y9257969D01*
X25785142Y9245553D01*
X25776519Y9233927D01*
X25766798Y9223202D01*
X25756073Y9213481D01*
X25744447Y9204858D01*
X25732031Y9197417D01*
X25718946Y9191228D01*
X25705317Y9186351D01*
X25691276Y9182834D01*
X25676958Y9180710D01*
X25662500Y9180000D01*
X25367500Y9180000D01*
X25353042Y9180710D01*
X25338724Y9182834D01*
X25324683Y9186351D01*
X25311054Y9191228D01*
X25297969Y9197417D01*
X25285553Y9204858D01*
X25273927Y9213481D01*
X25263202Y9223202D01*
X25253481Y9233927D01*
X25244858Y9245553D01*
X25237417Y9257969D01*
X25231228Y9271054D01*
X25226351Y9284683D01*
X25222834Y9298724D01*
X25220710Y9313042D01*
X25220000Y9327500D01*
X25220000Y9672500D01*
X25220710Y9686958D01*
X25222834Y9701276D01*
X25226351Y9715317D01*
X25231228Y9728946D01*
X25237417Y9742031D01*
X25244858Y9754447D01*
X25253481Y9766073D01*
X25263202Y9776798D01*
X25273927Y9786519D01*
X25285553Y9795142D01*
X25297969Y9802583D01*
X25311054Y9808772D01*
X25324683Y9813649D01*
X25338724Y9817166D01*
X25353042Y9819290D01*
X25367500Y9820000D01*
X25662500Y9820000D01*
X25676958Y9819290D01*
X25676958Y9819290D01*
G37*
D15*
G04 #@! TD*
G04 #@! TO.P,C4,1*
G04 #@! TO.N,+3V3*
X25515000Y9500000D03*
D14*
G04 #@! TO.N,GND*
G04 #@! TO.C,C4*
G36*
X26646958Y9819290D02*
X26661276Y9817166D01*
X26675317Y9813649D01*
X26688946Y9808772D01*
X26702031Y9802583D01*
X26714447Y9795142D01*
X26726073Y9786519D01*
X26736798Y9776798D01*
X26746519Y9766073D01*
X26755142Y9754447D01*
X26762583Y9742031D01*
X26768772Y9728946D01*
X26773649Y9715317D01*
X26777166Y9701276D01*
X26779290Y9686958D01*
X26780000Y9672500D01*
X26780000Y9327500D01*
X26779290Y9313042D01*
X26777166Y9298724D01*
X26773649Y9284683D01*
X26768772Y9271054D01*
X26762583Y9257969D01*
X26755142Y9245553D01*
X26746519Y9233927D01*
X26736798Y9223202D01*
X26726073Y9213481D01*
X26714447Y9204858D01*
X26702031Y9197417D01*
X26688946Y9191228D01*
X26675317Y9186351D01*
X26661276Y9182834D01*
X26646958Y9180710D01*
X26632500Y9180000D01*
X26337500Y9180000D01*
X26323042Y9180710D01*
X26308724Y9182834D01*
X26294683Y9186351D01*
X26281054Y9191228D01*
X26267969Y9197417D01*
X26255553Y9204858D01*
X26243927Y9213481D01*
X26233202Y9223202D01*
X26223481Y9233927D01*
X26214858Y9245553D01*
X26207417Y9257969D01*
X26201228Y9271054D01*
X26196351Y9284683D01*
X26192834Y9298724D01*
X26190710Y9313042D01*
X26190000Y9327500D01*
X26190000Y9672500D01*
X26190710Y9686958D01*
X26192834Y9701276D01*
X26196351Y9715317D01*
X26201228Y9728946D01*
X26207417Y9742031D01*
X26214858Y9754447D01*
X26223481Y9766073D01*
X26233202Y9776798D01*
X26243927Y9786519D01*
X26255553Y9795142D01*
X26267969Y9802583D01*
X26281054Y9808772D01*
X26294683Y9813649D01*
X26308724Y9817166D01*
X26323042Y9819290D01*
X26337500Y9820000D01*
X26632500Y9820000D01*
X26646958Y9819290D01*
X26646958Y9819290D01*
G37*
D15*
G04 #@! TD*
G04 #@! TO.P,C4,2*
G04 #@! TO.N,GND*
X26485000Y9500000D03*
D14*
G04 #@! TO.N,Net-(C2-Pad1)*
G04 #@! TO.C,L1*
G36*
X22977691Y6548947D02*
X22998926Y6545797D01*
X23019750Y6540581D01*
X23039962Y6533349D01*
X23059368Y6524170D01*
X23077781Y6513134D01*
X23095024Y6500346D01*
X23110930Y6485930D01*
X23125346Y6470024D01*
X23138134Y6452781D01*
X23149170Y6434368D01*
X23158349Y6414962D01*
X23165581Y6394750D01*
X23170797Y6373926D01*
X23173947Y6352691D01*
X23175000Y6331250D01*
X23175000Y5893750D01*
X23173947Y5872309D01*
X23170797Y5851074D01*
X23165581Y5830250D01*
X23158349Y5810038D01*
X23149170Y5790632D01*
X23138134Y5772219D01*
X23125346Y5754976D01*
X23110930Y5739070D01*
X23095024Y5724654D01*
X23077781Y5711866D01*
X23059368Y5700830D01*
X23039962Y5691651D01*
X23019750Y5684419D01*
X22998926Y5679203D01*
X22977691Y5676053D01*
X22956250Y5675000D01*
X22443750Y5675000D01*
X22422309Y5676053D01*
X22401074Y5679203D01*
X22380250Y5684419D01*
X22360038Y5691651D01*
X22340632Y5700830D01*
X22322219Y5711866D01*
X22304976Y5724654D01*
X22289070Y5739070D01*
X22274654Y5754976D01*
X22261866Y5772219D01*
X22250830Y5790632D01*
X22241651Y5810038D01*
X22234419Y5830250D01*
X22229203Y5851074D01*
X22226053Y5872309D01*
X22225000Y5893750D01*
X22225000Y6331250D01*
X22226053Y6352691D01*
X22229203Y6373926D01*
X22234419Y6394750D01*
X22241651Y6414962D01*
X22250830Y6434368D01*
X22261866Y6452781D01*
X22274654Y6470024D01*
X22289070Y6485930D01*
X22304976Y6500346D01*
X22322219Y6513134D01*
X22340632Y6524170D01*
X22360038Y6533349D01*
X22380250Y6540581D01*
X22401074Y6545797D01*
X22422309Y6548947D01*
X22443750Y6550000D01*
X22956250Y6550000D01*
X22977691Y6548947D01*
X22977691Y6548947D01*
G37*
D16*
G04 #@! TD*
G04 #@! TO.P,L1,1*
G04 #@! TO.N,Net-(C2-Pad1)*
X22700000Y6112500D03*
D14*
G04 #@! TO.N,+3V3*
G04 #@! TO.C,L1*
G36*
X22977691Y8123947D02*
X22998926Y8120797D01*
X23019750Y8115581D01*
X23039962Y8108349D01*
X23059368Y8099170D01*
X23077781Y8088134D01*
X23095024Y8075346D01*
X23110930Y8060930D01*
X23125346Y8045024D01*
X23138134Y8027781D01*
X23149170Y8009368D01*
X23158349Y7989962D01*
X23165581Y7969750D01*
X23170797Y7948926D01*
X23173947Y7927691D01*
X23175000Y7906250D01*
X23175000Y7468750D01*
X23173947Y7447309D01*
X23170797Y7426074D01*
X23165581Y7405250D01*
X23158349Y7385038D01*
X23149170Y7365632D01*
X23138134Y7347219D01*
X23125346Y7329976D01*
X23110930Y7314070D01*
X23095024Y7299654D01*
X23077781Y7286866D01*
X23059368Y7275830D01*
X23039962Y7266651D01*
X23019750Y7259419D01*
X22998926Y7254203D01*
X22977691Y7251053D01*
X22956250Y7250000D01*
X22443750Y7250000D01*
X22422309Y7251053D01*
X22401074Y7254203D01*
X22380250Y7259419D01*
X22360038Y7266651D01*
X22340632Y7275830D01*
X22322219Y7286866D01*
X22304976Y7299654D01*
X22289070Y7314070D01*
X22274654Y7329976D01*
X22261866Y7347219D01*
X22250830Y7365632D01*
X22241651Y7385038D01*
X22234419Y7405250D01*
X22229203Y7426074D01*
X22226053Y7447309D01*
X22225000Y7468750D01*
X22225000Y7906250D01*
X22226053Y7927691D01*
X22229203Y7948926D01*
X22234419Y7969750D01*
X22241651Y7989962D01*
X22250830Y8009368D01*
X22261866Y8027781D01*
X22274654Y8045024D01*
X22289070Y8060930D01*
X22304976Y8075346D01*
X22322219Y8088134D01*
X22340632Y8099170D01*
X22360038Y8108349D01*
X22380250Y8115581D01*
X22401074Y8120797D01*
X22422309Y8123947D01*
X22443750Y8125000D01*
X22956250Y8125000D01*
X22977691Y8123947D01*
X22977691Y8123947D01*
G37*
D16*
G04 #@! TD*
G04 #@! TO.P,L1,2*
G04 #@! TO.N,+3V3*
X22700000Y7687500D03*
D12*
G04 #@! TO.P,J4,1*
G04 #@! TO.N,/AVR_MISO*
X12050000Y8550000D03*
D13*
G04 #@! TO.P,J4,2*
G04 #@! TO.N,+3V3*
X14590000Y8550000D03*
G04 #@! TO.P,J4,3*
G04 #@! TO.N,/AVR_SCK*
X12050000Y6010000D03*
G04 #@! TO.P,J4,4*
G04 #@! TO.N,/AVR_MOSI*
X14590000Y6010000D03*
G04 #@! TO.P,J4,5*
G04 #@! TO.N,/AVR_RESET*
X12050000Y3470000D03*
G04 #@! TO.P,J4,6*
G04 #@! TO.N,GND*
X14590000Y3470000D03*
G04 #@! TD*
D17*
G04 #@! TO.N,Net-(C1-Pad1)*
X24500000Y4400000D03*
G04 #@! TO.N,GND*
X44050000Y42780000D03*
X44050000Y40240000D03*
X44050000Y37700000D03*
X23500000Y22050000D03*
X27000000Y22050000D03*
X23250000Y15900000D03*
X25500000Y4400000D03*
X26500000Y10600000D03*
X24500000Y10600000D03*
X24600000Y13200000D03*
X26200000Y13200000D03*
X27000000Y15900000D03*
X26000000Y15900000D03*
X8500000Y17700000D03*
X5700000Y16200000D03*
X6600000Y16200000D03*
X5700000Y13400000D03*
X5100000Y12500000D03*
X10400000Y7200000D03*
X10500000Y10100000D03*
X12500000Y10100000D03*
X15900000Y9900000D03*
X17600000Y9000000D03*
X17600000Y11300000D03*
X11300000Y17700000D03*
X7500000Y10100000D03*
X2600000Y12700000D03*
X10700000Y4400000D03*
X9500000Y5600000D03*
X1000000Y10100000D03*
X1000000Y6200000D03*
X1000000Y8100000D03*
X3000000Y8100000D03*
X5200000Y23700000D03*
X8100000Y23300000D03*
X5200000Y26300000D03*
X5200000Y28800000D03*
X5200000Y31400000D03*
X5700000Y36100000D03*
X6500000Y35300000D03*
X7000000Y31100000D03*
X7000000Y26900000D03*
X14600000Y19300000D03*
X13000000Y49000000D03*
X13000000Y47000000D03*
X13000000Y45000000D03*
X13000000Y43000000D03*
X13000000Y41000000D03*
X13000000Y39000000D03*
X13000000Y37000000D03*
X37000000Y49000000D03*
X37000000Y47000000D03*
X37000000Y45000000D03*
X37000000Y43000000D03*
X37000000Y41000000D03*
X37000000Y39000000D03*
X37000000Y37000000D03*
X15000000Y36000000D03*
X17000000Y36000000D03*
X19000000Y36000000D03*
X21000000Y36000000D03*
X23000000Y36000000D03*
X25000000Y36000000D03*
X27000000Y36000000D03*
X29000000Y36000000D03*
X31000000Y36000000D03*
X33000000Y36000000D03*
X35000000Y36000000D03*
X7000000Y49000000D03*
X7000000Y47000000D03*
X7000000Y45000000D03*
X7000000Y43000000D03*
X1000000Y43000000D03*
X3000000Y43000000D03*
X5000000Y43000000D03*
X44000000Y49000000D03*
X44000000Y47000000D03*
X44000000Y45000000D03*
X39000000Y45000000D03*
X39000000Y47000000D03*
X39000000Y49000000D03*
X42000000Y49000000D03*
X42000000Y47000000D03*
X42000000Y45000000D03*
X1000000Y41000000D03*
X1000000Y39000000D03*
X1000000Y37000000D03*
X1000000Y35000000D03*
X1000000Y33000000D03*
X1000000Y31000000D03*
X7000000Y33000000D03*
X7000000Y29000000D03*
X13000000Y21000000D03*
X11000000Y23000000D03*
X9000000Y25000000D03*
X7000000Y37000000D03*
X9000000Y49000000D03*
X11000000Y49000000D03*
X3000000Y37000000D03*
X10000000Y40000000D03*
X10000000Y46000000D03*
X10000000Y34000000D03*
X10000000Y28000000D03*
X13000000Y31000000D03*
X17000000Y31000000D03*
X21000000Y31000000D03*
X25000000Y31000000D03*
X29000000Y31000000D03*
X33000000Y31000000D03*
X37000000Y31000000D03*
X15000000Y27000000D03*
X19000000Y27000000D03*
X23000000Y27000000D03*
X27000000Y27000000D03*
X31000000Y27000000D03*
X13000000Y23000000D03*
X17000000Y23000000D03*
X29000000Y23000000D03*
X33000000Y23000000D03*
X37000000Y23000000D03*
X30000000Y1000000D03*
X33000000Y1000000D03*
X37000000Y1000000D03*
X40000000Y1000000D03*
X43500000Y6100000D03*
X37900000Y6600000D03*
X32100000Y5500000D03*
X32500000Y8100000D03*
X35600000Y8100000D03*
X33200000Y11600000D03*
X33200000Y13800000D03*
X34400000Y13800000D03*
X34400000Y11700000D03*
X28000000Y15000000D03*
X29000000Y14000000D03*
X30000000Y13000000D03*
X23300000Y13300000D03*
X33400000Y9800000D03*
X37600000Y10800000D03*
X35900000Y9700000D03*
X48600000Y6100000D03*
X40100000Y5900000D03*
X36100000Y5500000D03*
X9000000Y13700000D03*
X5400000Y21100000D03*
X9100000Y21700000D03*
X10200000Y20700000D03*
X25400000Y8000000D03*
X27800000Y9400000D03*
X26700000Y6700000D03*
X27700000Y6700000D03*
X19400000Y3700000D03*
X49100000Y42800000D03*
X49100000Y40200000D03*
X49100000Y37700000D03*
G04 #@! TO.N,Net-(C2-Pad1)*
X23000000Y4700000D03*
G04 #@! TO.N,+3V3*
X39200000Y30050000D03*
X22400000Y24400000D03*
X22100000Y17050000D03*
X22400000Y22050000D03*
X25500000Y10600000D03*
X23500000Y10600000D03*
X35100000Y27000000D03*
G04 #@! TO.N,/HPWR*
X44050000Y12300000D03*
X44050000Y9760000D03*
X44050000Y7220000D03*
G04 #@! TO.N,/BATTERY*
X38970000Y7220000D03*
G04 #@! TO.N,+5V*
X41525000Y8505000D03*
G04 #@! TO.N,/IIS_IN*
X41510000Y11030000D03*
G04 #@! TO.N,/IIS_OUT*
X46590000Y13570000D03*
G04 #@! TO.N,/IIS_MK*
X41500000Y15830000D03*
G04 #@! TO.N,/IIS_SK*
X46600000Y16100000D03*
X38200000Y15800000D03*
G04 #@! TO.N,/IIS_WS*
X38970000Y17380000D03*
G04 #@! TO.N,/GPIO_G2*
X46600000Y18700000D03*
X37700000Y18700000D03*
G04 #@! TO.N,/GPIO_G5*
X38970000Y19920000D03*
G04 #@! TO.N,/SDA*
X44050000Y22460000D03*
G04 #@! TO.N,/SCL*
X38970000Y22460000D03*
G04 #@! TO.N,/RXD2*
X44050000Y25000000D03*
G04 #@! TO.N,/TXD2*
X38970000Y25000000D03*
G04 #@! TO.N,/RXD0*
X44050000Y27540000D03*
G04 #@! TO.N,/TXD0*
X38970000Y27540000D03*
G04 #@! TO.N,/SCK*
X44050000Y30080000D03*
G04 #@! TO.N,/MISO*
X44050000Y32620000D03*
G04 #@! TO.N,/DAC*
X38970000Y32620000D03*
G04 #@! TO.N,/MOSI*
X44050000Y35160000D03*
G04 #@! TO.N,/DAC_SPK*
X38970000Y35160000D03*
G04 #@! TO.N,/RST*
X38970000Y37700000D03*
G04 #@! TO.N,/ADC_G36*
X38970000Y40240000D03*
G04 #@! TO.N,/ADC_G35*
X38970000Y42780000D03*
G04 #@! TO.N,/AVR_RESET*
X31200000Y8000000D03*
X27900000Y1600000D03*
G04 #@! TO.N,/AVR_MOSI*
X19050000Y5600000D03*
G04 #@! TO.N,/AVR_ADC3*
X20700000Y13800000D03*
G04 #@! TO.N,/AVR_ADC1*
X16707600Y2616800D03*
G04 #@! TO.N,/AVR_ADC0*
X25311600Y2125010D03*
G04 #@! TO.N,/AVR_PB1*
X21950012Y8924682D03*
G04 #@! TO.N,/AVR_PD4*
X22515960Y10409360D03*
G04 #@! TO.N,/BP35_RXD*
X32600000Y15500000D03*
X31100000Y14535000D03*
G04 #@! TO.N,/BP35_WKUP*
X26600000Y14900000D03*
X25200000Y14200000D03*
G04 #@! TO.N,/AVR_PD5*
X19900000Y11850000D03*
G04 #@! TD*
D18*
G04 #@! TO.N,Net-(C1-Pad1)*
X24500000Y4400000D02*
X24500000Y5385000D01*
X24500000Y5385000D02*
X24515000Y5400000D01*
D19*
G04 #@! TO.N,GND*
X44050000Y42780000D02*
X46575000Y42780000D01*
X46575000Y40240000D02*
X44050000Y40240000D01*
X44050000Y37700000D02*
X46575000Y37700000D01*
D18*
X25500000Y4400000D02*
X25500000Y5385000D01*
X25500000Y5385000D02*
X25485000Y5400000D01*
X26500000Y10600000D02*
X26500000Y9515000D01*
X26500000Y9515000D02*
X26485000Y9500000D01*
X24500000Y10600000D02*
X24500000Y9515000D01*
X24500000Y9515000D02*
X24485000Y9500000D01*
G04 #@! TO.N,Net-(C2-Pad1)*
X22700000Y6112500D02*
X23275000Y6112500D01*
X23275000Y6112500D02*
X23400000Y6237500D01*
X23400000Y6237500D02*
X23400000Y6280000D01*
X23400000Y6280000D02*
X23620000Y6500000D01*
X23620000Y6500000D02*
X24015000Y6500000D01*
X23000000Y4700000D02*
X23000000Y5812500D01*
X23000000Y5812500D02*
X22700000Y6112500D01*
D20*
G04 #@! TO.N,+3V3*
X39200000Y30050000D02*
X41495000Y30050000D01*
X41495000Y30050000D02*
X41525000Y30080000D01*
X22400000Y22050000D02*
X22400000Y24400000D01*
X22700000Y7687500D02*
X17012500Y7687500D01*
X17012500Y7687500D02*
X16150000Y8550000D01*
X16150000Y8550000D02*
X14590000Y8550000D01*
D21*
X23500000Y10600000D02*
X23500000Y9515000D01*
X23500000Y9515000D02*
X23515000Y9500000D01*
X23500000Y10600000D02*
X23500000Y11165700D01*
X23500000Y11165700D02*
X24134300Y11800000D01*
X24134300Y11800000D02*
X24865700Y11800000D01*
X24865700Y11800000D02*
X25500000Y11165700D01*
X25500000Y11165700D02*
X25500000Y10600000D01*
X22100000Y17050000D02*
X21400000Y17750000D01*
X21400000Y17750000D02*
X21400000Y21050000D01*
X21400000Y21050000D02*
X22400000Y22050000D01*
X22700000Y7687500D02*
X23515000Y8502500D01*
X23515000Y8502500D02*
X23515000Y9500000D01*
D18*
X25500000Y10600000D02*
X25500000Y9515000D01*
X25500000Y9515000D02*
X25515000Y9500000D01*
D21*
X22100000Y17050000D02*
X22100000Y12157322D01*
X23500000Y10757322D02*
X23500000Y10600000D01*
X22100000Y12157322D02*
X23500000Y10757322D01*
G04 #@! TO.N,/HPWR*
X46575000Y9760000D02*
X46575000Y12300000D01*
X46575000Y7220000D02*
X46575000Y9760000D01*
D19*
X46575000Y12300000D02*
X44050000Y12300000D01*
X44050000Y9760000D02*
X46575000Y9760000D01*
X46575000Y7220000D02*
X44050000Y7220000D01*
G04 #@! TO.N,/BATTERY*
X38970000Y7220000D02*
X41525000Y7220000D01*
G04 #@! TO.N,+5V*
X41525000Y9760000D02*
X41525000Y8505000D01*
G04 #@! TO.N,/IIS_IN*
X41510000Y11030000D02*
X41510000Y12285000D01*
X41510000Y12285000D02*
X41525000Y12300000D01*
G04 #@! TO.N,/IIS_OUT*
X46590000Y13570000D02*
X46590000Y14825000D01*
X46590000Y14825000D02*
X46575000Y14840000D01*
D18*
G04 #@! TO.N,/IIS_MK*
X41500000Y15830000D02*
X41500000Y14865000D01*
X41500000Y14865000D02*
X41525000Y14840000D01*
G04 #@! TO.N,/IIS_SK*
X46575000Y16125000D02*
X46145000Y16555000D01*
X46145000Y16555000D02*
X38955000Y16555000D01*
X38955000Y16555000D02*
X38200000Y15800000D01*
X46600000Y16100000D02*
X46575000Y16125000D01*
D19*
X46575000Y17380000D02*
X46575000Y16125000D01*
X46575000Y16125000D02*
X46600000Y16100000D01*
D18*
G04 #@! TO.N,/IIS_WS*
X41525000Y17380000D02*
X38970000Y17380000D01*
X41510000Y17365000D02*
X41525000Y17380000D01*
G04 #@! TO.N,/GPIO_G2*
X46600000Y18700000D02*
X38191700Y18700000D01*
X46575000Y19920000D02*
X46575000Y18725000D01*
X46575000Y18725000D02*
X46600000Y18700000D01*
X38191700Y18700000D02*
X37700000Y18700000D01*
G04 #@! TO.N,/GPIO_G5*
X38970000Y19920000D02*
X41525000Y19920000D01*
D19*
G04 #@! TO.N,/SDA*
X46575000Y22460000D02*
X44050000Y22460000D01*
G04 #@! TO.N,/SCL*
X38970000Y22460000D02*
X41525000Y22460000D01*
G04 #@! TO.N,/RXD2*
X44050000Y25000000D02*
X46575000Y25000000D01*
X46590000Y24985000D02*
X46575000Y25000000D01*
G04 #@! TO.N,/TXD2*
X41525000Y25000000D02*
X38970000Y25000000D01*
G04 #@! TO.N,/RXD0*
X44050000Y27540000D02*
X46575000Y27540000D01*
G04 #@! TO.N,/TXD0*
X41525000Y27540000D02*
X38970000Y27540000D01*
G04 #@! TO.N,/SCK*
X46575000Y30080000D02*
X44050000Y30080000D01*
G04 #@! TO.N,/MISO*
X44050000Y32620000D02*
X46575000Y32620000D01*
X46590000Y32605000D02*
X46575000Y32620000D01*
G04 #@! TO.N,/DAC*
X41525000Y32620000D02*
X38970000Y32620000D01*
G04 #@! TO.N,/MOSI*
X44050000Y35160000D02*
X46575000Y35160000D01*
X46590000Y35145000D02*
X46575000Y35160000D01*
G04 #@! TO.N,/DAC_SPK*
X41525000Y35160000D02*
X38970000Y35160000D01*
G04 #@! TO.N,/RST*
X38970000Y37700000D02*
X41525000Y37700000D01*
G04 #@! TO.N,/ADC_G36*
X41525000Y40240000D02*
X38970000Y40240000D01*
G04 #@! TO.N,/ADC_G35*
X38970000Y42780000D02*
X41525000Y42780000D01*
D18*
G04 #@! TO.N,/AVR_RESET*
X31200000Y4900000D02*
X27900000Y1600000D01*
X31200000Y8000000D02*
X31200000Y4900000D01*
G04 #@! TO.N,/AVR_MOSI*
X19050000Y5600000D02*
X15000000Y5600000D01*
X15000000Y5600000D02*
X14590000Y6010000D01*
G04 #@! TO.N,/AVR_ADC3*
X20700000Y13800000D02*
X18325001Y16174999D01*
X18325001Y16174999D02*
X16443999Y16174999D01*
X16443999Y16174999D02*
X6100000Y26518998D01*
X5100000Y35160000D02*
X4000000Y35160000D01*
X6100000Y34160000D02*
X5100000Y35160000D01*
X6100000Y26518998D02*
X6100000Y34160000D01*
G04 #@! TO.N,/AVR_ADC1*
X4000000Y30080000D02*
X4000000Y28904700D01*
X4000000Y28904700D02*
X3632700Y28904700D01*
X3632700Y28904700D02*
X1857900Y27129900D01*
X1857900Y27129900D02*
X1857900Y11960400D01*
X1857900Y11960400D02*
X11525200Y2293100D01*
X11525200Y2293100D02*
X16383900Y2293100D01*
X16383900Y2293100D02*
X16707600Y2616800D01*
G04 #@! TO.N,/AVR_ADC0*
X11548600Y4834600D02*
X16273000Y4834600D01*
X2308300Y14074900D02*
X11548600Y4834600D01*
X24745915Y2125010D02*
X25311600Y2125010D01*
X18982590Y2125010D02*
X24745915Y2125010D01*
X4000000Y27540000D02*
X2308300Y25848300D01*
X2308300Y25848300D02*
X2308300Y14074900D01*
X16273000Y4834600D02*
X18982590Y2125010D01*
G04 #@! TO.N,/AVR_PB1*
X2786800Y19460700D02*
X3597500Y18650000D01*
X11659009Y18650000D02*
X21384327Y8924682D01*
X21384327Y8924682D02*
X21950012Y8924682D01*
X3597500Y18650000D02*
X11659009Y18650000D01*
X2786800Y23786800D02*
X2786800Y19460700D01*
X4000000Y25000000D02*
X2786800Y23786800D01*
G04 #@! TO.N,/AVR_PD4*
X4000000Y22460000D02*
X9522588Y22460000D01*
X22115961Y10809359D02*
X22515960Y10409360D01*
X17200332Y15724988D02*
X22115961Y10809359D01*
X16257599Y15724988D02*
X17200332Y15724988D01*
X9522588Y22460000D02*
X16257599Y15724988D01*
G04 #@! TO.N,/BP35_RXD*
X32600000Y15500000D02*
X32065000Y15500000D01*
X32065000Y15500000D02*
X31100000Y14535000D01*
G04 #@! TO.N,/BP35_WKUP*
X25200000Y14200000D02*
X25900000Y14200000D01*
X25900000Y14200000D02*
X26600000Y14900000D01*
G04 #@! TO.N,/AVR_PD5*
X19900000Y11850000D02*
X16475023Y15274977D01*
X16475023Y15274977D02*
X16071199Y15274977D01*
X16071199Y15274977D02*
X11426176Y19920000D01*
X11426176Y19920000D02*
X5202081Y19920000D01*
X5202081Y19920000D02*
X4000000Y19920000D01*
G04 #@! TD*
D22*
G04 #@! TO.N,GND*
G36*
X13900000Y37500000D02*
X13907612Y37461732D01*
X13929289Y37429289D01*
X13961732Y37407612D01*
X14000000Y37400000D01*
X36000000Y37400000D01*
X36038268Y37407612D01*
X36070711Y37429289D01*
X36092388Y37461732D01*
X36100000Y37500000D01*
X36100000Y37839239D01*
X38270000Y37839239D01*
X38270000Y37560761D01*
X38376568Y37303482D01*
X38573482Y37106568D01*
X38830761Y37000000D01*
X39109239Y37000000D01*
X39366518Y37106568D01*
X39459950Y37200000D01*
X39644123Y37200000D01*
X39667407Y37082946D01*
X39733712Y36983712D01*
X39832946Y36917407D01*
X39950000Y36894123D01*
X43100000Y36894123D01*
X43217054Y36917407D01*
X43316288Y36983712D01*
X43382593Y37082946D01*
X43405877Y37200000D01*
X43405877Y37394000D01*
X44392000Y37394000D01*
X44392000Y37079062D01*
X44484562Y36855596D01*
X44655595Y36684563D01*
X44879061Y36592000D01*
X46269000Y36592000D01*
X46421000Y36744000D01*
X46421000Y37546000D01*
X46729000Y37546000D01*
X46729000Y36744000D01*
X46881000Y36592000D01*
X48270939Y36592000D01*
X48494405Y36684563D01*
X48665438Y36855596D01*
X48758000Y37079062D01*
X48758000Y37394000D01*
X48606000Y37546000D01*
X46729000Y37546000D01*
X46421000Y37546000D01*
X44544000Y37546000D01*
X44392000Y37394000D01*
X43405877Y37394000D01*
X43405877Y38200000D01*
X43382593Y38317054D01*
X43316288Y38416288D01*
X43217054Y38482593D01*
X43100000Y38505877D01*
X39950000Y38505877D01*
X39832946Y38482593D01*
X39733712Y38416288D01*
X39667407Y38317054D01*
X39644123Y38200000D01*
X39459950Y38200000D01*
X39366518Y38293432D01*
X39109239Y38400000D01*
X38830761Y38400000D01*
X38573482Y38293432D01*
X38376568Y38096518D01*
X38270000Y37839239D01*
X36100000Y37839239D01*
X36100000Y39109239D01*
X43350000Y39109239D01*
X43350000Y38830761D01*
X43456568Y38573482D01*
X43653482Y38376568D01*
X43910761Y38270000D01*
X44189239Y38270000D01*
X44408524Y38360830D01*
X44392000Y38320938D01*
X44392000Y38006000D01*
X44544000Y37854000D01*
X46421000Y37854000D01*
X46421000Y38656000D01*
X46729000Y38656000D01*
X46729000Y37854000D01*
X48606000Y37854000D01*
X48758000Y38006000D01*
X48758000Y38320938D01*
X48665438Y38544404D01*
X48494405Y38715437D01*
X48270939Y38808000D01*
X46881000Y38808000D01*
X46729000Y38656000D01*
X46421000Y38656000D01*
X46269000Y38808000D01*
X44879061Y38808000D01*
X44711890Y38738755D01*
X44750000Y38830761D01*
X44750000Y39109239D01*
X44711890Y39201245D01*
X44879061Y39132000D01*
X46269000Y39132000D01*
X46421000Y39284000D01*
X46421000Y40086000D01*
X46729000Y40086000D01*
X46729000Y39284000D01*
X46881000Y39132000D01*
X48270939Y39132000D01*
X48494405Y39224563D01*
X48665438Y39395596D01*
X48758000Y39619062D01*
X48758000Y39934000D01*
X48606000Y40086000D01*
X46729000Y40086000D01*
X46421000Y40086000D01*
X44544000Y40086000D01*
X44392000Y39934000D01*
X44392000Y39619062D01*
X44408524Y39579170D01*
X44189239Y39670000D01*
X43910761Y39670000D01*
X43653482Y39563432D01*
X43456568Y39366518D01*
X43350000Y39109239D01*
X36100000Y39109239D01*
X36100000Y40379239D01*
X38270000Y40379239D01*
X38270000Y40100761D01*
X38376568Y39843482D01*
X38573482Y39646568D01*
X38830761Y39540000D01*
X39109239Y39540000D01*
X39366518Y39646568D01*
X39459950Y39740000D01*
X39644123Y39740000D01*
X39667407Y39622946D01*
X39733712Y39523712D01*
X39832946Y39457407D01*
X39950000Y39434123D01*
X43100000Y39434123D01*
X43217054Y39457407D01*
X43316288Y39523712D01*
X43382593Y39622946D01*
X43405877Y39740000D01*
X43405877Y40740000D01*
X43382593Y40857054D01*
X43316288Y40956288D01*
X43217054Y41022593D01*
X43100000Y41045877D01*
X39950000Y41045877D01*
X39832946Y41022593D01*
X39733712Y40956288D01*
X39667407Y40857054D01*
X39644123Y40740000D01*
X39459950Y40740000D01*
X39366518Y40833432D01*
X39109239Y40940000D01*
X38830761Y40940000D01*
X38573482Y40833432D01*
X38376568Y40636518D01*
X38270000Y40379239D01*
X36100000Y40379239D01*
X36100000Y41669130D01*
X43250000Y41669130D01*
X43250000Y41350870D01*
X43371793Y41056836D01*
X43596836Y40831793D01*
X43890870Y40710000D01*
X44209130Y40710000D01*
X44392000Y40785747D01*
X44392000Y40546000D01*
X44544000Y40394000D01*
X46421000Y40394000D01*
X46421000Y41196000D01*
X46729000Y41196000D01*
X46729000Y40394000D01*
X48606000Y40394000D01*
X48758000Y40546000D01*
X48758000Y40860938D01*
X48665438Y41084404D01*
X48494405Y41255437D01*
X48270939Y41348000D01*
X46881000Y41348000D01*
X46729000Y41196000D01*
X46421000Y41196000D01*
X46269000Y41348000D01*
X44879061Y41348000D01*
X44842546Y41332875D01*
X44850000Y41350870D01*
X44850000Y41669130D01*
X44842546Y41687125D01*
X44879061Y41672000D01*
X46269000Y41672000D01*
X46421000Y41824000D01*
X46421000Y42626000D01*
X46729000Y42626000D01*
X46729000Y41824000D01*
X46881000Y41672000D01*
X48270939Y41672000D01*
X48494405Y41764563D01*
X48665438Y41935596D01*
X48758000Y42159062D01*
X48758000Y42474000D01*
X48606000Y42626000D01*
X46729000Y42626000D01*
X46421000Y42626000D01*
X44544000Y42626000D01*
X44392000Y42474000D01*
X44392000Y42234253D01*
X44209130Y42310000D01*
X43890870Y42310000D01*
X43596836Y42188207D01*
X43371793Y41963164D01*
X43250000Y41669130D01*
X36100000Y41669130D01*
X36100000Y42919239D01*
X38270000Y42919239D01*
X38270000Y42640761D01*
X38376568Y42383482D01*
X38573482Y42186568D01*
X38830761Y42080000D01*
X39109239Y42080000D01*
X39366518Y42186568D01*
X39459950Y42280000D01*
X39644123Y42280000D01*
X39667407Y42162946D01*
X39733712Y42063712D01*
X39832946Y41997407D01*
X39950000Y41974123D01*
X43100000Y41974123D01*
X43217054Y41997407D01*
X43316288Y42063712D01*
X43382593Y42162946D01*
X43405877Y42280000D01*
X43405877Y43280000D01*
X43382593Y43397054D01*
X43379998Y43400938D01*
X44392000Y43400938D01*
X44392000Y43086000D01*
X44544000Y42934000D01*
X46421000Y42934000D01*
X46421000Y43736000D01*
X46729000Y43736000D01*
X46729000Y42934000D01*
X48606000Y42934000D01*
X48758000Y43086000D01*
X48758000Y43400938D01*
X48665438Y43624404D01*
X48494405Y43795437D01*
X48270939Y43888000D01*
X46881000Y43888000D01*
X46729000Y43736000D01*
X46421000Y43736000D01*
X46269000Y43888000D01*
X44879061Y43888000D01*
X44655595Y43795437D01*
X44484562Y43624404D01*
X44392000Y43400938D01*
X43379998Y43400938D01*
X43316288Y43496288D01*
X43217054Y43562593D01*
X43100000Y43585877D01*
X39950000Y43585877D01*
X39832946Y43562593D01*
X39733712Y43496288D01*
X39667407Y43397054D01*
X39644123Y43280000D01*
X39459950Y43280000D01*
X39366518Y43373432D01*
X39109239Y43480000D01*
X38830761Y43480000D01*
X38573482Y43373432D01*
X38376568Y43176518D01*
X38270000Y42919239D01*
X36100000Y42919239D01*
X36100000Y47358042D01*
X45200000Y47358042D01*
X45200000Y46641958D01*
X45474034Y45980382D01*
X45980382Y45474034D01*
X46641958Y45200000D01*
X47358042Y45200000D01*
X48019618Y45474034D01*
X48525966Y45980382D01*
X48800000Y46641958D01*
X48800000Y47358042D01*
X48525966Y48019618D01*
X48019618Y48525966D01*
X47358042Y48800000D01*
X46641958Y48800000D01*
X45980382Y48525966D01*
X45474034Y48019618D01*
X45200000Y47358042D01*
X36100000Y47358042D01*
X36100000Y49625000D01*
X46978214Y49625000D01*
X47603294Y49552123D01*
X47854547Y49460923D01*
X48455688Y49160352D01*
X48682176Y49011860D01*
X49099885Y48570916D01*
X49120383Y48535626D01*
X49465809Y47844775D01*
X49582502Y47459483D01*
X49625001Y46983292D01*
X49625000Y3021787D01*
X49552123Y2396702D01*
X49460926Y2145459D01*
X49160352Y1544312D01*
X49011860Y1317824D01*
X48570918Y900116D01*
X48535628Y879618D01*
X47844775Y534191D01*
X47459483Y417498D01*
X46983304Y375000D01*
X3021787Y375000D01*
X2396702Y447877D01*
X2145459Y539074D01*
X1544312Y839648D01*
X1317824Y988140D01*
X900116Y1429082D01*
X879618Y1464372D01*
X534191Y2155225D01*
X417498Y2540517D01*
X375000Y3016696D01*
X375000Y3358042D01*
X1200000Y3358042D01*
X1200000Y2641958D01*
X1474034Y1980382D01*
X1980382Y1474034D01*
X2641958Y1200000D01*
X3358042Y1200000D01*
X4019618Y1474034D01*
X4525966Y1980382D01*
X4800000Y2641958D01*
X4800000Y3308314D01*
X5450000Y3308314D01*
X5450000Y2691686D01*
X5685974Y2121996D01*
X6121996Y1685974D01*
X6691686Y1450000D01*
X7308314Y1450000D01*
X7878004Y1685974D01*
X8314026Y2121996D01*
X8550000Y2691686D01*
X8550000Y3308314D01*
X8314026Y3878004D01*
X7878004Y4314026D01*
X7308314Y4550000D01*
X6691686Y4550000D01*
X6121996Y4314026D01*
X5685974Y3878004D01*
X5450000Y3308314D01*
X4800000Y3308314D01*
X4800000Y3358042D01*
X4525966Y4019618D01*
X4019618Y4525966D01*
X3358042Y4800000D01*
X2641958Y4800000D01*
X1980382Y4525966D01*
X1474034Y4019618D01*
X1200000Y3358042D01*
X375000Y3358042D01*
X375000Y27129900D01*
X1424574Y27129900D01*
X1432900Y27088043D01*
X1432901Y12002262D01*
X1424574Y11960400D01*
X1457559Y11794574D01*
X1500706Y11730000D01*
X1551493Y11653992D01*
X1586979Y11630281D01*
X11195081Y2022178D01*
X11218792Y1986692D01*
X11288272Y1940267D01*
X11359373Y1892759D01*
X11525200Y1859774D01*
X11567057Y1868100D01*
X16342043Y1868100D01*
X16383900Y1859774D01*
X16425757Y1868100D01*
X16425758Y1868100D01*
X16549727Y1892759D01*
X16585707Y1916800D01*
X16846839Y1916800D01*
X17104118Y2023368D01*
X17301032Y2220282D01*
X17407600Y2477561D01*
X17407600Y2756039D01*
X17301032Y3013318D01*
X17104118Y3210232D01*
X16846839Y3316800D01*
X16568361Y3316800D01*
X16311082Y3210232D01*
X16114168Y3013318D01*
X16007600Y2756039D01*
X16007600Y2718100D01*
X15832228Y2718100D01*
X15853477Y2742384D01*
X15997903Y3091090D01*
X15886889Y3316000D01*
X14744000Y3316000D01*
X14744000Y3296000D01*
X14436000Y3296000D01*
X14436000Y3316000D01*
X14416000Y3316000D01*
X14416000Y3624000D01*
X14436000Y3624000D01*
X14436000Y3644000D01*
X14744000Y3644000D01*
X14744000Y3624000D01*
X15886889Y3624000D01*
X15997903Y3848910D01*
X15853477Y4197616D01*
X15667984Y4409600D01*
X16096960Y4409600D01*
X18652471Y1854088D01*
X18676182Y1818602D01*
X18816763Y1724669D01*
X18940034Y1700149D01*
X18982590Y1691684D01*
X19024447Y1700010D01*
X24746650Y1700010D01*
X24915082Y1531578D01*
X25172361Y1425010D01*
X25450839Y1425010D01*
X25708118Y1531578D01*
X25905032Y1728492D01*
X25909483Y1739239D01*
X27200000Y1739239D01*
X27200000Y1460761D01*
X27306568Y1203482D01*
X27503482Y1006568D01*
X27760761Y900000D01*
X28039239Y900000D01*
X28296518Y1006568D01*
X28493432Y1203482D01*
X28600000Y1460761D01*
X28600000Y1698960D01*
X30209354Y3308314D01*
X41450000Y3308314D01*
X41450000Y2691686D01*
X41685974Y2121996D01*
X42121996Y1685974D01*
X42691686Y1450000D01*
X43308314Y1450000D01*
X43878004Y1685974D01*
X44314026Y2121996D01*
X44550000Y2691686D01*
X44550000Y3308314D01*
X44529402Y3358042D01*
X45200000Y3358042D01*
X45200000Y2641958D01*
X45474034Y1980382D01*
X45980382Y1474034D01*
X46641958Y1200000D01*
X47358042Y1200000D01*
X48019618Y1474034D01*
X48525966Y1980382D01*
X48800000Y2641958D01*
X48800000Y3358042D01*
X48525966Y4019618D01*
X48019618Y4525966D01*
X47358042Y4800000D01*
X46641958Y4800000D01*
X45980382Y4525966D01*
X45474034Y4019618D01*
X45200000Y3358042D01*
X44529402Y3358042D01*
X44314026Y3878004D01*
X43878004Y4314026D01*
X43308314Y4550000D01*
X42691686Y4550000D01*
X42121996Y4314026D01*
X41685974Y3878004D01*
X41450000Y3308314D01*
X30209354Y3308314D01*
X31470922Y4569881D01*
X31506408Y4593592D01*
X31600341Y4734173D01*
X31625000Y4858142D01*
X31633326Y4900000D01*
X31625000Y4941857D01*
X31625000Y7435050D01*
X31793432Y7603482D01*
X31900000Y7860761D01*
X31900000Y8139239D01*
X31793432Y8396518D01*
X31596518Y8593432D01*
X31339239Y8700000D01*
X31060761Y8700000D01*
X30803482Y8593432D01*
X30606568Y8396518D01*
X30500000Y8139239D01*
X30500000Y7860761D01*
X30606568Y7603482D01*
X30775000Y7435050D01*
X30775001Y5076042D01*
X27998960Y2300000D01*
X27760761Y2300000D01*
X27503482Y2193432D01*
X27306568Y1996518D01*
X27200000Y1739239D01*
X25909483Y1739239D01*
X26011600Y1985771D01*
X26011600Y2264249D01*
X25905032Y2521528D01*
X25708118Y2718442D01*
X25450839Y2825010D01*
X25172361Y2825010D01*
X24915082Y2718442D01*
X24746650Y2550010D01*
X19158631Y2550010D01*
X16603121Y5105519D01*
X16579408Y5141008D01*
X16528535Y5175000D01*
X18485050Y5175000D01*
X18653482Y5006568D01*
X18910761Y4900000D01*
X19189239Y4900000D01*
X19446518Y5006568D01*
X19643432Y5203482D01*
X19750000Y5460761D01*
X19750000Y5739239D01*
X19643432Y5996518D01*
X19446518Y6193432D01*
X19189239Y6300000D01*
X18910761Y6300000D01*
X18653482Y6193432D01*
X18485050Y6025000D01*
X15759545Y6025000D01*
X15698629Y6331250D01*
X21919123Y6331250D01*
X21919123Y5893750D01*
X21959058Y5692984D01*
X22072783Y5522783D01*
X22242984Y5409058D01*
X22443750Y5369123D01*
X22575001Y5369123D01*
X22575001Y5264951D01*
X22406568Y5096518D01*
X22300000Y4839239D01*
X22300000Y4560761D01*
X22406568Y4303482D01*
X22603482Y4106568D01*
X22860761Y4000000D01*
X23139239Y4000000D01*
X23396518Y4106568D01*
X23593432Y4303482D01*
X23700000Y4560761D01*
X23700000Y4839239D01*
X23593432Y5096518D01*
X23425000Y5264950D01*
X23425000Y5669125D01*
X23440942Y5692984D01*
X23445358Y5715187D01*
X23581408Y5806092D01*
X23605121Y5841581D01*
X23670920Y5907380D01*
X23683399Y5915718D01*
X23694000Y5908634D01*
X23867500Y5874123D01*
X24034243Y5874123D01*
X23948634Y5746000D01*
X23914123Y5572500D01*
X23914123Y5227500D01*
X23948634Y5054000D01*
X24034918Y4924868D01*
X23906568Y4796518D01*
X23800000Y4539239D01*
X23800000Y4260761D01*
X23906568Y4003482D01*
X24103482Y3806568D01*
X24360761Y3700000D01*
X24639239Y3700000D01*
X24896518Y3806568D01*
X25093432Y4003482D01*
X25200000Y4260761D01*
X25200000Y4486500D01*
X25337500Y4624000D01*
X25337500Y5246000D01*
X25632500Y5246000D01*
X25632500Y4624000D01*
X25784500Y4472000D01*
X25900939Y4472000D01*
X26124405Y4564563D01*
X26295438Y4735596D01*
X26388000Y4959062D01*
X26388000Y5094000D01*
X26236000Y5246000D01*
X25632500Y5246000D01*
X25337500Y5246000D01*
X25311000Y5246000D01*
X25311000Y5554000D01*
X25337500Y5554000D01*
X25337500Y5572000D01*
X25400939Y5572000D01*
X25405767Y5574000D01*
X25632500Y5574000D01*
X25632500Y5554000D01*
X26236000Y5554000D01*
X26388000Y5706000D01*
X26388000Y5840938D01*
X26295438Y6064404D01*
X26124405Y6235437D01*
X25900939Y6328000D01*
X25784500Y6328000D01*
X25769250Y6312750D01*
X25736000Y6346000D01*
X25132500Y6346000D01*
X25132500Y6328000D01*
X25069061Y6328000D01*
X25064233Y6326000D01*
X24837500Y6326000D01*
X24837500Y6346000D01*
X24811000Y6346000D01*
X24811000Y6654000D01*
X24837500Y6654000D01*
X24837500Y7276000D01*
X25132500Y7276000D01*
X25132500Y6654000D01*
X25736000Y6654000D01*
X25888000Y6806000D01*
X25888000Y6940938D01*
X25795438Y7164404D01*
X25624405Y7335437D01*
X25400939Y7428000D01*
X25284500Y7428000D01*
X25132500Y7276000D01*
X24837500Y7276000D01*
X24685500Y7428000D01*
X24569061Y7428000D01*
X24345595Y7335437D01*
X24174562Y7164404D01*
X24158604Y7125877D01*
X23867500Y7125877D01*
X23694000Y7091366D01*
X23546914Y6993086D01*
X23489660Y6907400D01*
X23454173Y6900341D01*
X23313592Y6806408D01*
X23289879Y6770919D01*
X23263651Y6744691D01*
X23157016Y6815942D01*
X22956250Y6855877D01*
X22443750Y6855877D01*
X22242984Y6815942D01*
X22072783Y6702217D01*
X21959058Y6532016D01*
X21919123Y6331250D01*
X15698629Y6331250D01*
X15673276Y6458707D01*
X15419103Y6839103D01*
X15038707Y7093276D01*
X14703261Y7160000D01*
X14476739Y7160000D01*
X14141293Y7093276D01*
X13760897Y6839103D01*
X13506724Y6458707D01*
X13417471Y6010000D01*
X13506724Y5561293D01*
X13708309Y5259600D01*
X12931691Y5259600D01*
X13133276Y5561293D01*
X13222529Y6010000D01*
X13133276Y6458707D01*
X12879103Y6839103D01*
X12498707Y7093276D01*
X12163261Y7160000D01*
X11936739Y7160000D01*
X11601293Y7093276D01*
X11220897Y6839103D01*
X10966724Y6458707D01*
X10893526Y6090715D01*
X7584241Y9400000D01*
X10894123Y9400000D01*
X10894123Y7700000D01*
X10917407Y7582946D01*
X10983712Y7483712D01*
X11082946Y7417407D01*
X11200000Y7394123D01*
X12900000Y7394123D01*
X13017054Y7417407D01*
X13116288Y7483712D01*
X13182593Y7582946D01*
X13205877Y7700000D01*
X13205877Y9400000D01*
X13182593Y9517054D01*
X13116288Y9616288D01*
X13017054Y9682593D01*
X12900000Y9705877D01*
X11200000Y9705877D01*
X11082946Y9682593D01*
X10983712Y9616288D01*
X10917407Y9517054D01*
X10894123Y9400000D01*
X7584241Y9400000D01*
X3484717Y13499523D01*
X3621089Y13432085D01*
X3846000Y13542144D01*
X3846000Y14686000D01*
X4154000Y14686000D01*
X4154000Y13542144D01*
X4378911Y13432085D01*
X4888854Y13684259D01*
X5263477Y14112384D01*
X5407903Y14461090D01*
X5296889Y14686000D01*
X4154000Y14686000D01*
X3846000Y14686000D01*
X3826000Y14686000D01*
X3826000Y14994000D01*
X3846000Y14994000D01*
X3846000Y15014000D01*
X4154000Y15014000D01*
X4154000Y14994000D01*
X5296889Y14994000D01*
X5407903Y15218910D01*
X5263477Y15567616D01*
X4888854Y15995741D01*
X4378911Y16247915D01*
X4154002Y16137857D01*
X4154002Y16238104D01*
X4448707Y16296724D01*
X4829103Y16550897D01*
X5083276Y16931293D01*
X5172529Y17380000D01*
X5083276Y17828707D01*
X4829103Y18209103D01*
X4805312Y18225000D01*
X11482969Y18225000D01*
X21054208Y8653760D01*
X21077919Y8618274D01*
X21113404Y8594564D01*
X21218500Y8524341D01*
X21384327Y8491356D01*
X21391885Y8492859D01*
X21497244Y8387500D01*
X17302449Y8387500D01*
X16693724Y8996224D01*
X16654671Y9054671D01*
X16423126Y9209385D01*
X16218940Y9250000D01*
X16218935Y9250000D01*
X16150000Y9263712D01*
X16081065Y9250000D01*
X15505367Y9250000D01*
X15419103Y9379103D01*
X15038707Y9633276D01*
X14703261Y9700000D01*
X14476739Y9700000D01*
X14141293Y9633276D01*
X13760897Y9379103D01*
X13506724Y8998707D01*
X13417471Y8550000D01*
X13506724Y8101293D01*
X13760897Y7720897D01*
X14141293Y7466724D01*
X14476739Y7400000D01*
X14703261Y7400000D01*
X15038707Y7466724D01*
X15419103Y7720897D01*
X15505367Y7850000D01*
X15860052Y7850000D01*
X16468777Y7241274D01*
X16507829Y7182829D01*
X16739374Y7028115D01*
X16943560Y6987500D01*
X16943564Y6987500D01*
X17012499Y6973788D01*
X17081434Y6987500D01*
X22237833Y6987500D01*
X22242984Y6984058D01*
X22443750Y6944123D01*
X22956250Y6944123D01*
X23157016Y6984058D01*
X23327217Y7097783D01*
X23440942Y7267984D01*
X23480877Y7468750D01*
X23480877Y7619850D01*
X23897482Y8036454D01*
X23947575Y8069925D01*
X24080187Y8268392D01*
X24115000Y8443409D01*
X24115000Y8443413D01*
X24126753Y8502499D01*
X24115000Y8561586D01*
X24115000Y8572000D01*
X24185500Y8572000D01*
X24337500Y8724000D01*
X24337500Y9346000D01*
X24311000Y9346000D01*
X24311000Y9654000D01*
X24337500Y9654000D01*
X24337500Y10276000D01*
X24186158Y10427342D01*
X24200000Y10460761D01*
X24200000Y10739239D01*
X24118595Y10935768D01*
X24382828Y11200000D01*
X24617173Y11200000D01*
X24881405Y10935768D01*
X24800000Y10739239D01*
X24800000Y10460761D01*
X24813570Y10428000D01*
X24784500Y10428000D01*
X24632500Y10276000D01*
X24632500Y9654000D01*
X24659000Y9654000D01*
X24659000Y9346000D01*
X24632500Y9346000D01*
X24632500Y8724000D01*
X24784500Y8572000D01*
X24900939Y8572000D01*
X25124405Y8664563D01*
X25295438Y8835596D01*
X25315667Y8884433D01*
X25367500Y8874123D01*
X25658604Y8874123D01*
X25674562Y8835596D01*
X25845595Y8664563D01*
X26069061Y8572000D01*
X26185500Y8572000D01*
X26337500Y8724000D01*
X26337500Y9346000D01*
X26632500Y9346000D01*
X26632500Y8724000D01*
X26784500Y8572000D01*
X26900939Y8572000D01*
X27124405Y8664563D01*
X27295438Y8835596D01*
X27388000Y9059062D01*
X27388000Y9194000D01*
X27236000Y9346000D01*
X26632500Y9346000D01*
X26337500Y9346000D01*
X26311000Y9346000D01*
X26311000Y9654000D01*
X26337500Y9654000D01*
X26337500Y10276000D01*
X26632500Y10276000D01*
X26632500Y9654000D01*
X27236000Y9654000D01*
X27388000Y9806000D01*
X27388000Y9940938D01*
X27295438Y10164404D01*
X27124405Y10335437D01*
X26900939Y10428000D01*
X26784500Y10428000D01*
X26632500Y10276000D01*
X26337500Y10276000D01*
X26186158Y10427342D01*
X26200000Y10460761D01*
X26200000Y10739239D01*
X26100000Y10980661D01*
X26100000Y11106612D01*
X26111753Y11165700D01*
X26100000Y11224790D01*
X26100000Y11224791D01*
X26065187Y11399808D01*
X26047340Y11426518D01*
X25966047Y11548181D01*
X25932575Y11598275D01*
X25882481Y11631746D01*
X25331748Y12182479D01*
X25298275Y12232575D01*
X25099808Y12365187D01*
X24924791Y12400000D01*
X24924786Y12400000D01*
X24865700Y12411753D01*
X24806614Y12400000D01*
X24193388Y12400000D01*
X24134300Y12411753D01*
X24075212Y12400000D01*
X24075209Y12400000D01*
X23900192Y12365187D01*
X23752957Y12266807D01*
X23701725Y12232575D01*
X23668253Y12182481D01*
X23295811Y11810038D01*
X22700000Y12405849D01*
X22700000Y14339239D01*
X24500000Y14339239D01*
X24500000Y14060761D01*
X24606568Y13803482D01*
X24803482Y13606568D01*
X25060761Y13500000D01*
X25339239Y13500000D01*
X25596518Y13606568D01*
X25764950Y13775000D01*
X25858143Y13775000D01*
X25900000Y13766674D01*
X25941857Y13775000D01*
X25941858Y13775000D01*
X26065827Y13799659D01*
X26206408Y13893592D01*
X26230121Y13929081D01*
X26501040Y14200000D01*
X26739239Y14200000D01*
X26996518Y14306568D01*
X27193432Y14503482D01*
X27300000Y14760761D01*
X27300000Y15039239D01*
X27193432Y15296518D01*
X26996518Y15493432D01*
X26739239Y15600000D01*
X26460761Y15600000D01*
X26203482Y15493432D01*
X26006568Y15296518D01*
X25900000Y15039239D01*
X25900000Y14801040D01*
X25744455Y14645495D01*
X25596518Y14793432D01*
X25339239Y14900000D01*
X25060761Y14900000D01*
X24803482Y14793432D01*
X24606568Y14596518D01*
X24500000Y14339239D01*
X22700000Y14339239D01*
X22700000Y16669339D01*
X22800000Y16910761D01*
X22800000Y17189239D01*
X22693432Y17446518D01*
X22496518Y17643432D01*
X22255096Y17743432D01*
X22000000Y17998527D01*
X22000000Y18466816D01*
X22040598Y18450000D01*
X22259402Y18450000D01*
X22461550Y18533733D01*
X22616267Y18688450D01*
X22700000Y18890598D01*
X22700000Y19109402D01*
X27300000Y19109402D01*
X27300000Y18890598D01*
X27383733Y18688450D01*
X27538450Y18533733D01*
X27740598Y18450000D01*
X27959402Y18450000D01*
X28161550Y18533733D01*
X28316267Y18688450D01*
X28400000Y18890598D01*
X28400000Y19109402D01*
X28316267Y19311550D01*
X28161550Y19466267D01*
X27959402Y19550000D01*
X27740598Y19550000D01*
X27538450Y19466267D01*
X27383733Y19311550D01*
X27300000Y19109402D01*
X22700000Y19109402D01*
X22616267Y19311550D01*
X22461550Y19466267D01*
X22259402Y19550000D01*
X22040598Y19550000D01*
X22000000Y19533184D01*
X22000000Y19556955D01*
X29400000Y19556955D01*
X29400000Y18443045D01*
X29826275Y17413928D01*
X30613928Y16626275D01*
X31643045Y16200000D01*
X32460761Y16200000D01*
X32203482Y16093432D01*
X32038007Y15927957D01*
X32023142Y15925000D01*
X31899173Y15900341D01*
X31758592Y15806408D01*
X31734881Y15770922D01*
X31198960Y15235000D01*
X30960761Y15235000D01*
X30703482Y15128432D01*
X30506568Y14931518D01*
X30400000Y14674239D01*
X30400000Y14395761D01*
X30506568Y14138482D01*
X30703482Y13941568D01*
X30960761Y13835000D01*
X31239239Y13835000D01*
X31496518Y13941568D01*
X31693432Y14138482D01*
X31800000Y14395761D01*
X31800000Y14633960D01*
X32138045Y14972005D01*
X32203482Y14906568D01*
X32460761Y14800000D01*
X32739239Y14800000D01*
X32996518Y14906568D01*
X33193432Y15103482D01*
X33300000Y15360761D01*
X33300000Y15639239D01*
X33193432Y15896518D01*
X32996518Y16093432D01*
X32739239Y16200000D01*
X32756955Y16200000D01*
X33786072Y16626275D01*
X34573725Y17413928D01*
X35000000Y18443045D01*
X35000000Y18839239D01*
X37000000Y18839239D01*
X37000000Y18560761D01*
X37106568Y18303482D01*
X37303482Y18106568D01*
X37560761Y18000000D01*
X37839239Y18000000D01*
X38096518Y18106568D01*
X38264950Y18275000D01*
X46035050Y18275000D01*
X46124173Y18185877D01*
X45000000Y18185877D01*
X44882946Y18162593D01*
X44783712Y18096288D01*
X44717407Y17997054D01*
X44694123Y17880000D01*
X44694123Y16980000D01*
X43405877Y16980000D01*
X43405877Y17880000D01*
X43382593Y17997054D01*
X43316288Y18096288D01*
X43217054Y18162593D01*
X43100000Y18185877D01*
X39950000Y18185877D01*
X39832946Y18162593D01*
X39733712Y18096288D01*
X39667407Y17997054D01*
X39644123Y17880000D01*
X39644123Y17805000D01*
X39534950Y17805000D01*
X39366518Y17973432D01*
X39109239Y18080000D01*
X38830761Y18080000D01*
X38573482Y17973432D01*
X38376568Y17776518D01*
X38270000Y17519239D01*
X38270000Y17240761D01*
X38376568Y16983482D01*
X38573482Y16786568D01*
X38581999Y16783040D01*
X38298959Y16500000D01*
X38060761Y16500000D01*
X37803482Y16393432D01*
X37606568Y16196518D01*
X37500000Y15939239D01*
X37500000Y15660761D01*
X37606568Y15403482D01*
X37803482Y15206568D01*
X38060761Y15100000D01*
X38339239Y15100000D01*
X38596518Y15206568D01*
X38793432Y15403482D01*
X38900000Y15660761D01*
X38900000Y15898959D01*
X39131041Y16130000D01*
X40866589Y16130000D01*
X40800000Y15969239D01*
X40800000Y15690761D01*
X40818591Y15645877D01*
X39950000Y15645877D01*
X39832946Y15622593D01*
X39733712Y15556288D01*
X39667407Y15457054D01*
X39644123Y15340000D01*
X39644123Y14340000D01*
X39667407Y14222946D01*
X39733712Y14123712D01*
X39832946Y14057407D01*
X39950000Y14034123D01*
X43100000Y14034123D01*
X43217054Y14057407D01*
X43316288Y14123712D01*
X43382593Y14222946D01*
X43405877Y14340000D01*
X43405877Y15340000D01*
X43382593Y15457054D01*
X43316288Y15556288D01*
X43217054Y15622593D01*
X43100000Y15645877D01*
X42181409Y15645877D01*
X42200000Y15690761D01*
X42200000Y15969239D01*
X42133411Y16130000D01*
X45900000Y16130000D01*
X45900000Y15960761D01*
X46006568Y15703482D01*
X46064173Y15645877D01*
X45000000Y15645877D01*
X44882946Y15622593D01*
X44783712Y15556288D01*
X44717407Y15457054D01*
X44694123Y15340000D01*
X44694123Y14340000D01*
X44717407Y14222946D01*
X44783712Y14123712D01*
X44882946Y14057407D01*
X45000000Y14034123D01*
X46064173Y14034123D01*
X45996568Y13966518D01*
X45890000Y13709239D01*
X45890000Y13430761D01*
X45996568Y13173482D01*
X46064173Y13105877D01*
X45000000Y13105877D01*
X44882946Y13082593D01*
X44783712Y13016288D01*
X44717407Y12917054D01*
X44694123Y12800000D01*
X44539950Y12800000D01*
X44446518Y12893432D01*
X44189239Y13000000D01*
X43910761Y13000000D01*
X43653482Y12893432D01*
X43456568Y12696518D01*
X43405877Y12574139D01*
X43405877Y12800000D01*
X43382593Y12917054D01*
X43316288Y13016288D01*
X43217054Y13082593D01*
X43100000Y13105877D01*
X39950000Y13105877D01*
X39832946Y13082593D01*
X39733712Y13016288D01*
X39667407Y12917054D01*
X39644123Y12800000D01*
X39644123Y11800000D01*
X39667407Y11682946D01*
X39733712Y11583712D01*
X39832946Y11517407D01*
X39950000Y11494123D01*
X40984173Y11494123D01*
X40916568Y11426518D01*
X40810000Y11169239D01*
X40810000Y10890761D01*
X40916568Y10633482D01*
X40984173Y10565877D01*
X39950000Y10565877D01*
X39832946Y10542593D01*
X39733712Y10476288D01*
X39667407Y10377054D01*
X39644123Y10260000D01*
X39644123Y9260000D01*
X39667407Y9142946D01*
X39733712Y9043712D01*
X39832946Y8977407D01*
X39950000Y8954123D01*
X40984173Y8954123D01*
X40931568Y8901518D01*
X40825000Y8644239D01*
X40825000Y8365761D01*
X40931568Y8108482D01*
X41014173Y8025877D01*
X39950000Y8025877D01*
X39832946Y8002593D01*
X39733712Y7936288D01*
X39667407Y7837054D01*
X39644123Y7720000D01*
X39459950Y7720000D01*
X39366518Y7813432D01*
X39109239Y7920000D01*
X38830761Y7920000D01*
X38573482Y7813432D01*
X38376568Y7616518D01*
X38270000Y7359239D01*
X38270000Y7080761D01*
X38376568Y6823482D01*
X38573482Y6626568D01*
X38830761Y6520000D01*
X39109239Y6520000D01*
X39366518Y6626568D01*
X39459950Y6720000D01*
X39644123Y6720000D01*
X39667407Y6602946D01*
X39733712Y6503712D01*
X39832946Y6437407D01*
X39950000Y6414123D01*
X43100000Y6414123D01*
X43217054Y6437407D01*
X43316288Y6503712D01*
X43382593Y6602946D01*
X43405877Y6720000D01*
X43405877Y6945861D01*
X43456568Y6823482D01*
X43653482Y6626568D01*
X43910761Y6520000D01*
X44189239Y6520000D01*
X44446518Y6626568D01*
X44539950Y6720000D01*
X44694123Y6720000D01*
X44717407Y6602946D01*
X44783712Y6503712D01*
X44882946Y6437407D01*
X45000000Y6414123D01*
X48150000Y6414123D01*
X48267054Y6437407D01*
X48366288Y6503712D01*
X48432593Y6602946D01*
X48455877Y6720000D01*
X48455877Y7720000D01*
X48432593Y7837054D01*
X48366288Y7936288D01*
X48267054Y8002593D01*
X48150000Y8025877D01*
X47175000Y8025877D01*
X47175000Y8954123D01*
X48150000Y8954123D01*
X48267054Y8977407D01*
X48366288Y9043712D01*
X48432593Y9142946D01*
X48455877Y9260000D01*
X48455877Y10260000D01*
X48432593Y10377054D01*
X48366288Y10476288D01*
X48267054Y10542593D01*
X48150000Y10565877D01*
X47175000Y10565877D01*
X47175000Y11494123D01*
X48150000Y11494123D01*
X48267054Y11517407D01*
X48366288Y11583712D01*
X48432593Y11682946D01*
X48455877Y11800000D01*
X48455877Y12800000D01*
X48432593Y12917054D01*
X48366288Y13016288D01*
X48267054Y13082593D01*
X48150000Y13105877D01*
X47115827Y13105877D01*
X47183432Y13173482D01*
X47290000Y13430761D01*
X47290000Y13709239D01*
X47183432Y13966518D01*
X47115827Y14034123D01*
X48150000Y14034123D01*
X48267054Y14057407D01*
X48366288Y14123712D01*
X48432593Y14222946D01*
X48455877Y14340000D01*
X48455877Y15340000D01*
X48432593Y15457054D01*
X48366288Y15556288D01*
X48267054Y15622593D01*
X48150000Y15645877D01*
X47135827Y15645877D01*
X47193432Y15703482D01*
X47300000Y15960761D01*
X47300000Y16239239D01*
X47193432Y16496518D01*
X47115827Y16574123D01*
X48150000Y16574123D01*
X48267054Y16597407D01*
X48366288Y16663712D01*
X48432593Y16762946D01*
X48455877Y16880000D01*
X48455877Y17880000D01*
X48432593Y17997054D01*
X48366288Y18096288D01*
X48267054Y18162593D01*
X48150000Y18185877D01*
X47075827Y18185877D01*
X47193432Y18303482D01*
X47300000Y18560761D01*
X47300000Y18839239D01*
X47193432Y19096518D01*
X47175827Y19114123D01*
X48150000Y19114123D01*
X48267054Y19137407D01*
X48366288Y19203712D01*
X48432593Y19302946D01*
X48455877Y19420000D01*
X48455877Y20420000D01*
X48432593Y20537054D01*
X48366288Y20636288D01*
X48267054Y20702593D01*
X48150000Y20725877D01*
X45000000Y20725877D01*
X44882946Y20702593D01*
X44783712Y20636288D01*
X44717407Y20537054D01*
X44694123Y20420000D01*
X44694123Y19420000D01*
X44717407Y19302946D01*
X44783712Y19203712D01*
X44882946Y19137407D01*
X44945319Y19125000D01*
X43154681Y19125000D01*
X43217054Y19137407D01*
X43316288Y19203712D01*
X43382593Y19302946D01*
X43405877Y19420000D01*
X43405877Y20420000D01*
X43382593Y20537054D01*
X43316288Y20636288D01*
X43217054Y20702593D01*
X43100000Y20725877D01*
X39950000Y20725877D01*
X39832946Y20702593D01*
X39733712Y20636288D01*
X39667407Y20537054D01*
X39644123Y20420000D01*
X39644123Y20345000D01*
X39534950Y20345000D01*
X39366518Y20513432D01*
X39109239Y20620000D01*
X38830761Y20620000D01*
X38573482Y20513432D01*
X38376568Y20316518D01*
X38270000Y20059239D01*
X38270000Y19780761D01*
X38376568Y19523482D01*
X38573482Y19326568D01*
X38830761Y19220000D01*
X39109239Y19220000D01*
X39366518Y19326568D01*
X39534950Y19495000D01*
X39644123Y19495000D01*
X39644123Y19420000D01*
X39667407Y19302946D01*
X39733712Y19203712D01*
X39832946Y19137407D01*
X39895319Y19125000D01*
X38264950Y19125000D01*
X38096518Y19293432D01*
X37839239Y19400000D01*
X37560761Y19400000D01*
X37303482Y19293432D01*
X37106568Y19096518D01*
X37000000Y18839239D01*
X35000000Y18839239D01*
X35000000Y19556955D01*
X34573725Y20586072D01*
X33786072Y21373725D01*
X32756955Y21800000D01*
X31643045Y21800000D01*
X30613928Y21373725D01*
X29826275Y20586072D01*
X29400000Y19556955D01*
X22000000Y19556955D01*
X22000000Y20801473D01*
X22555097Y21356569D01*
X22604188Y21376902D01*
X22673125Y21390615D01*
X22731566Y21429664D01*
X22796518Y21456568D01*
X22846231Y21506281D01*
X22904670Y21545329D01*
X22943718Y21603768D01*
X22993432Y21653482D01*
X23020335Y21718433D01*
X23059385Y21776874D01*
X23073098Y21845813D01*
X23100000Y21910761D01*
X23100000Y22599239D01*
X38270000Y22599239D01*
X38270000Y22320761D01*
X38376568Y22063482D01*
X38573482Y21866568D01*
X38830761Y21760000D01*
X39109239Y21760000D01*
X39366518Y21866568D01*
X39459950Y21960000D01*
X39644123Y21960000D01*
X39667407Y21842946D01*
X39733712Y21743712D01*
X39832946Y21677407D01*
X39950000Y21654123D01*
X43100000Y21654123D01*
X43217054Y21677407D01*
X43316288Y21743712D01*
X43382593Y21842946D01*
X43405877Y21960000D01*
X43405877Y22185861D01*
X43456568Y22063482D01*
X43653482Y21866568D01*
X43910761Y21760000D01*
X44189239Y21760000D01*
X44446518Y21866568D01*
X44539950Y21960000D01*
X44694123Y21960000D01*
X44717407Y21842946D01*
X44783712Y21743712D01*
X44882946Y21677407D01*
X45000000Y21654123D01*
X48150000Y21654123D01*
X48267054Y21677407D01*
X48366288Y21743712D01*
X48432593Y21842946D01*
X48455877Y21960000D01*
X48455877Y22960000D01*
X48432593Y23077054D01*
X48366288Y23176288D01*
X48267054Y23242593D01*
X48150000Y23265877D01*
X45000000Y23265877D01*
X44882946Y23242593D01*
X44783712Y23176288D01*
X44717407Y23077054D01*
X44694123Y22960000D01*
X44539950Y22960000D01*
X44446518Y23053432D01*
X44189239Y23160000D01*
X43910761Y23160000D01*
X43653482Y23053432D01*
X43456568Y22856518D01*
X43405877Y22734139D01*
X43405877Y22960000D01*
X43382593Y23077054D01*
X43316288Y23176288D01*
X43217054Y23242593D01*
X43100000Y23265877D01*
X39950000Y23265877D01*
X39832946Y23242593D01*
X39733712Y23176288D01*
X39667407Y23077054D01*
X39644123Y22960000D01*
X39459950Y22960000D01*
X39366518Y23053432D01*
X39109239Y23160000D01*
X38830761Y23160000D01*
X38573482Y23053432D01*
X38376568Y22856518D01*
X38270000Y22599239D01*
X23100000Y22599239D01*
X23100000Y24539239D01*
X23073098Y24604187D01*
X23059385Y24673126D01*
X23020335Y24731568D01*
X22993432Y24796518D01*
X22943721Y24846229D01*
X22904671Y24904671D01*
X22846229Y24943721D01*
X22796518Y24993432D01*
X22731568Y25020335D01*
X22673126Y25059385D01*
X22604187Y25073098D01*
X22539239Y25100000D01*
X22468940Y25100000D01*
X22400000Y25113713D01*
X22331060Y25100000D01*
X22260761Y25100000D01*
X22195812Y25073098D01*
X22126875Y25059385D01*
X22068434Y25020336D01*
X22003482Y24993432D01*
X21953769Y24943719D01*
X21895330Y24904671D01*
X21856282Y24846232D01*
X21806568Y24796518D01*
X21779663Y24731564D01*
X21740616Y24673126D01*
X21726904Y24604192D01*
X21700000Y24539239D01*
X21700000Y24260761D01*
X21700001Y24260759D01*
X21700000Y22198529D01*
X21017519Y21516046D01*
X20967426Y21482575D01*
X20933954Y21432481D01*
X20933953Y21432480D01*
X20834814Y21284108D01*
X20788247Y21050000D01*
X20800001Y20990909D01*
X20800000Y17809086D01*
X20788247Y17750000D01*
X20800000Y17690914D01*
X20800000Y17690910D01*
X20834813Y17515893D01*
X20967425Y17317425D01*
X21017521Y17283952D01*
X21406568Y16894904D01*
X21500000Y16669338D01*
X21500001Y12216413D01*
X21488247Y12157322D01*
X21517847Y12008514D01*
X20331326Y13195035D01*
X20560761Y13100000D01*
X20839239Y13100000D01*
X21096518Y13206568D01*
X21293432Y13403482D01*
X21400000Y13660761D01*
X21400000Y13939239D01*
X21293432Y14196518D01*
X21096518Y14393432D01*
X20839239Y14500000D01*
X20601041Y14500000D01*
X18741681Y16359359D01*
X19386072Y16626275D01*
X20173725Y17413928D01*
X20600000Y18443045D01*
X20600000Y19556955D01*
X20173725Y20586072D01*
X19386072Y21373725D01*
X18356955Y21800000D01*
X17243045Y21800000D01*
X16213928Y21373725D01*
X15426275Y20586072D01*
X15000000Y19556955D01*
X15000000Y18443045D01*
X15157690Y18062349D01*
X8080800Y25139239D01*
X38270000Y25139239D01*
X38270000Y24860761D01*
X38376568Y24603482D01*
X38573482Y24406568D01*
X38830761Y24300000D01*
X39109239Y24300000D01*
X39366518Y24406568D01*
X39459950Y24500000D01*
X39644123Y24500000D01*
X39667407Y24382946D01*
X39733712Y24283712D01*
X39832946Y24217407D01*
X39950000Y24194123D01*
X43100000Y24194123D01*
X43217054Y24217407D01*
X43316288Y24283712D01*
X43382593Y24382946D01*
X43405877Y24500000D01*
X43405877Y24725861D01*
X43456568Y24603482D01*
X43653482Y24406568D01*
X43910761Y24300000D01*
X44189239Y24300000D01*
X44446518Y24406568D01*
X44539950Y24500000D01*
X44694123Y24500000D01*
X44717407Y24382946D01*
X44783712Y24283712D01*
X44882946Y24217407D01*
X45000000Y24194123D01*
X48150000Y24194123D01*
X48267054Y24217407D01*
X48366288Y24283712D01*
X48432593Y24382946D01*
X48455877Y24500000D01*
X48455877Y25500000D01*
X48432593Y25617054D01*
X48366288Y25716288D01*
X48267054Y25782593D01*
X48150000Y25805877D01*
X45000000Y25805877D01*
X44882946Y25782593D01*
X44783712Y25716288D01*
X44717407Y25617054D01*
X44694123Y25500000D01*
X44539950Y25500000D01*
X44446518Y25593432D01*
X44189239Y25700000D01*
X43910761Y25700000D01*
X43653482Y25593432D01*
X43456568Y25396518D01*
X43405877Y25274139D01*
X43405877Y25500000D01*
X43382593Y25617054D01*
X43316288Y25716288D01*
X43217054Y25782593D01*
X43100000Y25805877D01*
X39950000Y25805877D01*
X39832946Y25782593D01*
X39733712Y25716288D01*
X39667407Y25617054D01*
X39644123Y25500000D01*
X39459950Y25500000D01*
X39366518Y25593432D01*
X39109239Y25700000D01*
X38830761Y25700000D01*
X38573482Y25593432D01*
X38376568Y25396518D01*
X38270000Y25139239D01*
X8080800Y25139239D01*
X6525000Y26695038D01*
X6525000Y27139239D01*
X34400000Y27139239D01*
X34400000Y26860761D01*
X34506568Y26603482D01*
X34703482Y26406568D01*
X34960761Y26300000D01*
X35239239Y26300000D01*
X35496518Y26406568D01*
X35693432Y26603482D01*
X35800000Y26860761D01*
X35800000Y27139239D01*
X35693432Y27396518D01*
X35496518Y27593432D01*
X35289361Y27679239D01*
X38270000Y27679239D01*
X38270000Y27400761D01*
X38376568Y27143482D01*
X38573482Y26946568D01*
X38830761Y26840000D01*
X39109239Y26840000D01*
X39366518Y26946568D01*
X39459950Y27040000D01*
X39644123Y27040000D01*
X39667407Y26922946D01*
X39733712Y26823712D01*
X39832946Y26757407D01*
X39950000Y26734123D01*
X43100000Y26734123D01*
X43217054Y26757407D01*
X43316288Y26823712D01*
X43382593Y26922946D01*
X43405877Y27040000D01*
X43405877Y27265861D01*
X43456568Y27143482D01*
X43653482Y26946568D01*
X43910761Y26840000D01*
X44189239Y26840000D01*
X44446518Y26946568D01*
X44539950Y27040000D01*
X44694123Y27040000D01*
X44717407Y26922946D01*
X44783712Y26823712D01*
X44882946Y26757407D01*
X45000000Y26734123D01*
X48150000Y26734123D01*
X48267054Y26757407D01*
X48366288Y26823712D01*
X48432593Y26922946D01*
X48455877Y27040000D01*
X48455877Y28040000D01*
X48432593Y28157054D01*
X48366288Y28256288D01*
X48267054Y28322593D01*
X48150000Y28345877D01*
X45000000Y28345877D01*
X44882946Y28322593D01*
X44783712Y28256288D01*
X44717407Y28157054D01*
X44694123Y28040000D01*
X44539950Y28040000D01*
X44446518Y28133432D01*
X44189239Y28240000D01*
X43910761Y28240000D01*
X43653482Y28133432D01*
X43456568Y27936518D01*
X43405877Y27814139D01*
X43405877Y28040000D01*
X43382593Y28157054D01*
X43316288Y28256288D01*
X43217054Y28322593D01*
X43100000Y28345877D01*
X39950000Y28345877D01*
X39832946Y28322593D01*
X39733712Y28256288D01*
X39667407Y28157054D01*
X39644123Y28040000D01*
X39459950Y28040000D01*
X39366518Y28133432D01*
X39109239Y28240000D01*
X38830761Y28240000D01*
X38573482Y28133432D01*
X38376568Y27936518D01*
X38270000Y27679239D01*
X35289361Y27679239D01*
X35239239Y27700000D01*
X34960761Y27700000D01*
X34703482Y27593432D01*
X34506568Y27396518D01*
X34400000Y27139239D01*
X6525000Y27139239D01*
X6525000Y30050000D01*
X38486287Y30050000D01*
X38500000Y29981060D01*
X38500000Y29910761D01*
X38526902Y29845813D01*
X38540615Y29776874D01*
X38579665Y29718432D01*
X38606568Y29653482D01*
X38656279Y29603771D01*
X38695329Y29545329D01*
X38753771Y29506279D01*
X38803482Y29456568D01*
X38868432Y29429665D01*
X38926874Y29390615D01*
X38995813Y29376902D01*
X39060761Y29350000D01*
X39754234Y29350000D01*
X39832946Y29297407D01*
X39950000Y29274123D01*
X43100000Y29274123D01*
X43217054Y29297407D01*
X43316288Y29363712D01*
X43382593Y29462946D01*
X43405877Y29580000D01*
X43405877Y29805861D01*
X43456568Y29683482D01*
X43653482Y29486568D01*
X43910761Y29380000D01*
X44189239Y29380000D01*
X44446518Y29486568D01*
X44539950Y29580000D01*
X44694123Y29580000D01*
X44717407Y29462946D01*
X44783712Y29363712D01*
X44882946Y29297407D01*
X45000000Y29274123D01*
X48150000Y29274123D01*
X48267054Y29297407D01*
X48366288Y29363712D01*
X48432593Y29462946D01*
X48455877Y29580000D01*
X48455877Y30580000D01*
X48432593Y30697054D01*
X48366288Y30796288D01*
X48267054Y30862593D01*
X48150000Y30885877D01*
X45000000Y30885877D01*
X44882946Y30862593D01*
X44783712Y30796288D01*
X44717407Y30697054D01*
X44694123Y30580000D01*
X44539950Y30580000D01*
X44446518Y30673432D01*
X44189239Y30780000D01*
X43910761Y30780000D01*
X43653482Y30673432D01*
X43456568Y30476518D01*
X43405877Y30354139D01*
X43405877Y30580000D01*
X43382593Y30697054D01*
X43316288Y30796288D01*
X43217054Y30862593D01*
X43100000Y30885877D01*
X39950000Y30885877D01*
X39832946Y30862593D01*
X39733712Y30796288D01*
X39702784Y30750000D01*
X39060761Y30750000D01*
X38995813Y30723098D01*
X38926874Y30709385D01*
X38868432Y30670335D01*
X38803482Y30643432D01*
X38753771Y30593721D01*
X38695329Y30554671D01*
X38656279Y30496229D01*
X38606568Y30446518D01*
X38579665Y30381568D01*
X38540615Y30323126D01*
X38526902Y30254187D01*
X38500000Y30189239D01*
X38500000Y30118940D01*
X38486287Y30050000D01*
X6525000Y30050000D01*
X6525000Y32759239D01*
X38270000Y32759239D01*
X38270000Y32480761D01*
X38376568Y32223482D01*
X38573482Y32026568D01*
X38830761Y31920000D01*
X39109239Y31920000D01*
X39366518Y32026568D01*
X39459950Y32120000D01*
X39644123Y32120000D01*
X39667407Y32002946D01*
X39733712Y31903712D01*
X39832946Y31837407D01*
X39950000Y31814123D01*
X43100000Y31814123D01*
X43217054Y31837407D01*
X43316288Y31903712D01*
X43382593Y32002946D01*
X43405877Y32120000D01*
X43405877Y32345861D01*
X43456568Y32223482D01*
X43653482Y32026568D01*
X43910761Y31920000D01*
X44189239Y31920000D01*
X44446518Y32026568D01*
X44539950Y32120000D01*
X44694123Y32120000D01*
X44717407Y32002946D01*
X44783712Y31903712D01*
X44882946Y31837407D01*
X45000000Y31814123D01*
X48150000Y31814123D01*
X48267054Y31837407D01*
X48366288Y31903712D01*
X48432593Y32002946D01*
X48455877Y32120000D01*
X48455877Y33120000D01*
X48432593Y33237054D01*
X48366288Y33336288D01*
X48267054Y33402593D01*
X48150000Y33425877D01*
X45000000Y33425877D01*
X44882946Y33402593D01*
X44783712Y33336288D01*
X44717407Y33237054D01*
X44694123Y33120000D01*
X44539950Y33120000D01*
X44446518Y33213432D01*
X44189239Y33320000D01*
X43910761Y33320000D01*
X43653482Y33213432D01*
X43456568Y33016518D01*
X43405877Y32894139D01*
X43405877Y33120000D01*
X43382593Y33237054D01*
X43316288Y33336288D01*
X43217054Y33402593D01*
X43100000Y33425877D01*
X39950000Y33425877D01*
X39832946Y33402593D01*
X39733712Y33336288D01*
X39667407Y33237054D01*
X39644123Y33120000D01*
X39459950Y33120000D01*
X39366518Y33213432D01*
X39109239Y33320000D01*
X38830761Y33320000D01*
X38573482Y33213432D01*
X38376568Y33016518D01*
X38270000Y32759239D01*
X6525000Y32759239D01*
X6525000Y34118143D01*
X6533326Y34160000D01*
X6500341Y34325827D01*
X6465876Y34377407D01*
X6406408Y34466408D01*
X6370919Y34490121D01*
X5561801Y35299239D01*
X38270000Y35299239D01*
X38270000Y35020761D01*
X38376568Y34763482D01*
X38573482Y34566568D01*
X38830761Y34460000D01*
X39109239Y34460000D01*
X39366518Y34566568D01*
X39459950Y34660000D01*
X39644123Y34660000D01*
X39667407Y34542946D01*
X39733712Y34443712D01*
X39832946Y34377407D01*
X39950000Y34354123D01*
X43100000Y34354123D01*
X43217054Y34377407D01*
X43316288Y34443712D01*
X43382593Y34542946D01*
X43405877Y34660000D01*
X43405877Y34885861D01*
X43456568Y34763482D01*
X43653482Y34566568D01*
X43910761Y34460000D01*
X44189239Y34460000D01*
X44446518Y34566568D01*
X44539950Y34660000D01*
X44694123Y34660000D01*
X44717407Y34542946D01*
X44783712Y34443712D01*
X44882946Y34377407D01*
X45000000Y34354123D01*
X48150000Y34354123D01*
X48267054Y34377407D01*
X48366288Y34443712D01*
X48432593Y34542946D01*
X48455877Y34660000D01*
X48455877Y35660000D01*
X48432593Y35777054D01*
X48366288Y35876288D01*
X48267054Y35942593D01*
X48150000Y35965877D01*
X45000000Y35965877D01*
X44882946Y35942593D01*
X44783712Y35876288D01*
X44717407Y35777054D01*
X44694123Y35660000D01*
X44539950Y35660000D01*
X44446518Y35753432D01*
X44189239Y35860000D01*
X43910761Y35860000D01*
X43653482Y35753432D01*
X43456568Y35556518D01*
X43405877Y35434139D01*
X43405877Y35660000D01*
X43382593Y35777054D01*
X43316288Y35876288D01*
X43217054Y35942593D01*
X43100000Y35965877D01*
X39950000Y35965877D01*
X39832946Y35942593D01*
X39733712Y35876288D01*
X39667407Y35777054D01*
X39644123Y35660000D01*
X39459950Y35660000D01*
X39366518Y35753432D01*
X39109239Y35860000D01*
X38830761Y35860000D01*
X38573482Y35753432D01*
X38376568Y35556518D01*
X38270000Y35299239D01*
X5561801Y35299239D01*
X5430121Y35430919D01*
X5406408Y35466408D01*
X5265827Y35560341D01*
X5155877Y35582211D01*
X5155877Y36010000D01*
X5132593Y36127054D01*
X5066288Y36226288D01*
X4967054Y36292593D01*
X4850000Y36315877D01*
X3150000Y36315877D01*
X3032946Y36292593D01*
X2933712Y36226288D01*
X2867407Y36127054D01*
X2844123Y36010000D01*
X2844123Y34310000D01*
X2867407Y34192946D01*
X2933712Y34093712D01*
X3032946Y34027407D01*
X3150000Y34004123D01*
X4850000Y34004123D01*
X4967054Y34027407D01*
X5066288Y34093712D01*
X5132593Y34192946D01*
X5155877Y34310000D01*
X5155877Y34503083D01*
X5675001Y33983959D01*
X5675000Y26560855D01*
X5666674Y26518998D01*
X5675000Y26477141D01*
X5699659Y26353172D01*
X5793592Y26212590D01*
X5829081Y26188877D01*
X9132958Y22885000D01*
X5087992Y22885000D01*
X5083276Y22908707D01*
X4829103Y23289103D01*
X4448707Y23543276D01*
X4113261Y23610000D01*
X3886739Y23610000D01*
X3551293Y23543276D01*
X3211800Y23316434D01*
X3211800Y23610760D01*
X3531194Y23930154D01*
X3551293Y23916724D01*
X3886739Y23850000D01*
X4113261Y23850000D01*
X4448707Y23916724D01*
X4829103Y24170897D01*
X5083276Y24551293D01*
X5172529Y25000000D01*
X5083276Y25448707D01*
X4829103Y25829103D01*
X4448707Y26083276D01*
X4113261Y26150000D01*
X3886739Y26150000D01*
X3551293Y26083276D01*
X3170897Y25829103D01*
X2916724Y25448707D01*
X2827471Y25000000D01*
X2916724Y24551293D01*
X2930154Y24531194D01*
X2733300Y24334340D01*
X2733300Y25672260D01*
X3531194Y26470154D01*
X3551293Y26456724D01*
X3886739Y26390000D01*
X4113261Y26390000D01*
X4448707Y26456724D01*
X4829103Y26710897D01*
X5083276Y27091293D01*
X5172529Y27540000D01*
X5083276Y27988707D01*
X4829103Y28369103D01*
X4448707Y28623276D01*
X4337837Y28645329D01*
X4400341Y28738873D01*
X4425000Y28862842D01*
X4433326Y28904700D01*
X4425000Y28946558D01*
X4425000Y28992008D01*
X4448707Y28996724D01*
X4829103Y29250897D01*
X5083276Y29631293D01*
X5172529Y30080000D01*
X5083276Y30528707D01*
X4829103Y30909103D01*
X4448707Y31163276D01*
X4113261Y31230000D01*
X3886739Y31230000D01*
X3551293Y31163276D01*
X3170897Y30909103D01*
X2916724Y30528707D01*
X2827471Y30080000D01*
X2916724Y29631293D01*
X3170897Y29250897D01*
X3294960Y29168001D01*
X1586981Y27460021D01*
X1551492Y27436308D01*
X1457560Y27295727D01*
X1457559Y27295726D01*
X1424574Y27129900D01*
X375000Y27129900D01*
X375000Y32620000D01*
X2827471Y32620000D01*
X2916724Y32171293D01*
X3170897Y31790897D01*
X3551293Y31536724D01*
X3886739Y31470000D01*
X4113261Y31470000D01*
X4448707Y31536724D01*
X4829103Y31790897D01*
X5083276Y32171293D01*
X5172529Y32620000D01*
X5083276Y33068707D01*
X4829103Y33449103D01*
X4448707Y33703276D01*
X4113261Y33770000D01*
X3886739Y33770000D01*
X3551293Y33703276D01*
X3170897Y33449103D01*
X2916724Y33068707D01*
X2827471Y32620000D01*
X375000Y32620000D01*
X375000Y46978214D01*
X419283Y47358042D01*
X1200000Y47358042D01*
X1200000Y46641958D01*
X1474034Y45980382D01*
X1980382Y45474034D01*
X2641958Y45200000D01*
X3358042Y45200000D01*
X4019618Y45474034D01*
X4525966Y45980382D01*
X4800000Y46641958D01*
X4800000Y47358042D01*
X4525966Y48019618D01*
X4019618Y48525966D01*
X3358042Y48800000D01*
X2641958Y48800000D01*
X1980382Y48525966D01*
X1474034Y48019618D01*
X1200000Y47358042D01*
X419283Y47358042D01*
X447877Y47603294D01*
X539077Y47854547D01*
X839648Y48455688D01*
X988140Y48682176D01*
X1429084Y49099885D01*
X1464374Y49120383D01*
X2155225Y49465809D01*
X2540517Y49582502D01*
X3016697Y49625000D01*
X13900000Y49625000D01*
X13900000Y37500000D01*
X13900000Y37500000D01*
G37*
X13900000Y37500000D02*
X13907612Y37461732D01*
X13929289Y37429289D01*
X13961732Y37407612D01*
X14000000Y37400000D01*
X36000000Y37400000D01*
X36038268Y37407612D01*
X36070711Y37429289D01*
X36092388Y37461732D01*
X36100000Y37500000D01*
X36100000Y37839239D01*
X38270000Y37839239D01*
X38270000Y37560761D01*
X38376568Y37303482D01*
X38573482Y37106568D01*
X38830761Y37000000D01*
X39109239Y37000000D01*
X39366518Y37106568D01*
X39459950Y37200000D01*
X39644123Y37200000D01*
X39667407Y37082946D01*
X39733712Y36983712D01*
X39832946Y36917407D01*
X39950000Y36894123D01*
X43100000Y36894123D01*
X43217054Y36917407D01*
X43316288Y36983712D01*
X43382593Y37082946D01*
X43405877Y37200000D01*
X43405877Y37394000D01*
X44392000Y37394000D01*
X44392000Y37079062D01*
X44484562Y36855596D01*
X44655595Y36684563D01*
X44879061Y36592000D01*
X46269000Y36592000D01*
X46421000Y36744000D01*
X46421000Y37546000D01*
X46729000Y37546000D01*
X46729000Y36744000D01*
X46881000Y36592000D01*
X48270939Y36592000D01*
X48494405Y36684563D01*
X48665438Y36855596D01*
X48758000Y37079062D01*
X48758000Y37394000D01*
X48606000Y37546000D01*
X46729000Y37546000D01*
X46421000Y37546000D01*
X44544000Y37546000D01*
X44392000Y37394000D01*
X43405877Y37394000D01*
X43405877Y38200000D01*
X43382593Y38317054D01*
X43316288Y38416288D01*
X43217054Y38482593D01*
X43100000Y38505877D01*
X39950000Y38505877D01*
X39832946Y38482593D01*
X39733712Y38416288D01*
X39667407Y38317054D01*
X39644123Y38200000D01*
X39459950Y38200000D01*
X39366518Y38293432D01*
X39109239Y38400000D01*
X38830761Y38400000D01*
X38573482Y38293432D01*
X38376568Y38096518D01*
X38270000Y37839239D01*
X36100000Y37839239D01*
X36100000Y39109239D01*
X43350000Y39109239D01*
X43350000Y38830761D01*
X43456568Y38573482D01*
X43653482Y38376568D01*
X43910761Y38270000D01*
X44189239Y38270000D01*
X44408524Y38360830D01*
X44392000Y38320938D01*
X44392000Y38006000D01*
X44544000Y37854000D01*
X46421000Y37854000D01*
X46421000Y38656000D01*
X46729000Y38656000D01*
X46729000Y37854000D01*
X48606000Y37854000D01*
X48758000Y38006000D01*
X48758000Y38320938D01*
X48665438Y38544404D01*
X48494405Y38715437D01*
X48270939Y38808000D01*
X46881000Y38808000D01*
X46729000Y38656000D01*
X46421000Y38656000D01*
X46269000Y38808000D01*
X44879061Y38808000D01*
X44711890Y38738755D01*
X44750000Y38830761D01*
X44750000Y39109239D01*
X44711890Y39201245D01*
X44879061Y39132000D01*
X46269000Y39132000D01*
X46421000Y39284000D01*
X46421000Y40086000D01*
X46729000Y40086000D01*
X46729000Y39284000D01*
X46881000Y39132000D01*
X48270939Y39132000D01*
X48494405Y39224563D01*
X48665438Y39395596D01*
X48758000Y39619062D01*
X48758000Y39934000D01*
X48606000Y40086000D01*
X46729000Y40086000D01*
X46421000Y40086000D01*
X44544000Y40086000D01*
X44392000Y39934000D01*
X44392000Y39619062D01*
X44408524Y39579170D01*
X44189239Y39670000D01*
X43910761Y39670000D01*
X43653482Y39563432D01*
X43456568Y39366518D01*
X43350000Y39109239D01*
X36100000Y39109239D01*
X36100000Y40379239D01*
X38270000Y40379239D01*
X38270000Y40100761D01*
X38376568Y39843482D01*
X38573482Y39646568D01*
X38830761Y39540000D01*
X39109239Y39540000D01*
X39366518Y39646568D01*
X39459950Y39740000D01*
X39644123Y39740000D01*
X39667407Y39622946D01*
X39733712Y39523712D01*
X39832946Y39457407D01*
X39950000Y39434123D01*
X43100000Y39434123D01*
X43217054Y39457407D01*
X43316288Y39523712D01*
X43382593Y39622946D01*
X43405877Y39740000D01*
X43405877Y40740000D01*
X43382593Y40857054D01*
X43316288Y40956288D01*
X43217054Y41022593D01*
X43100000Y41045877D01*
X39950000Y41045877D01*
X39832946Y41022593D01*
X39733712Y40956288D01*
X39667407Y40857054D01*
X39644123Y40740000D01*
X39459950Y40740000D01*
X39366518Y40833432D01*
X39109239Y40940000D01*
X38830761Y40940000D01*
X38573482Y40833432D01*
X38376568Y40636518D01*
X38270000Y40379239D01*
X36100000Y40379239D01*
X36100000Y41669130D01*
X43250000Y41669130D01*
X43250000Y41350870D01*
X43371793Y41056836D01*
X43596836Y40831793D01*
X43890870Y40710000D01*
X44209130Y40710000D01*
X44392000Y40785747D01*
X44392000Y40546000D01*
X44544000Y40394000D01*
X46421000Y40394000D01*
X46421000Y41196000D01*
X46729000Y41196000D01*
X46729000Y40394000D01*
X48606000Y40394000D01*
X48758000Y40546000D01*
X48758000Y40860938D01*
X48665438Y41084404D01*
X48494405Y41255437D01*
X48270939Y41348000D01*
X46881000Y41348000D01*
X46729000Y41196000D01*
X46421000Y41196000D01*
X46269000Y41348000D01*
X44879061Y41348000D01*
X44842546Y41332875D01*
X44850000Y41350870D01*
X44850000Y41669130D01*
X44842546Y41687125D01*
X44879061Y41672000D01*
X46269000Y41672000D01*
X46421000Y41824000D01*
X46421000Y42626000D01*
X46729000Y42626000D01*
X46729000Y41824000D01*
X46881000Y41672000D01*
X48270939Y41672000D01*
X48494405Y41764563D01*
X48665438Y41935596D01*
X48758000Y42159062D01*
X48758000Y42474000D01*
X48606000Y42626000D01*
X46729000Y42626000D01*
X46421000Y42626000D01*
X44544000Y42626000D01*
X44392000Y42474000D01*
X44392000Y42234253D01*
X44209130Y42310000D01*
X43890870Y42310000D01*
X43596836Y42188207D01*
X43371793Y41963164D01*
X43250000Y41669130D01*
X36100000Y41669130D01*
X36100000Y42919239D01*
X38270000Y42919239D01*
X38270000Y42640761D01*
X38376568Y42383482D01*
X38573482Y42186568D01*
X38830761Y42080000D01*
X39109239Y42080000D01*
X39366518Y42186568D01*
X39459950Y42280000D01*
X39644123Y42280000D01*
X39667407Y42162946D01*
X39733712Y42063712D01*
X39832946Y41997407D01*
X39950000Y41974123D01*
X43100000Y41974123D01*
X43217054Y41997407D01*
X43316288Y42063712D01*
X43382593Y42162946D01*
X43405877Y42280000D01*
X43405877Y43280000D01*
X43382593Y43397054D01*
X43379998Y43400938D01*
X44392000Y43400938D01*
X44392000Y43086000D01*
X44544000Y42934000D01*
X46421000Y42934000D01*
X46421000Y43736000D01*
X46729000Y43736000D01*
X46729000Y42934000D01*
X48606000Y42934000D01*
X48758000Y43086000D01*
X48758000Y43400938D01*
X48665438Y43624404D01*
X48494405Y43795437D01*
X48270939Y43888000D01*
X46881000Y43888000D01*
X46729000Y43736000D01*
X46421000Y43736000D01*
X46269000Y43888000D01*
X44879061Y43888000D01*
X44655595Y43795437D01*
X44484562Y43624404D01*
X44392000Y43400938D01*
X43379998Y43400938D01*
X43316288Y43496288D01*
X43217054Y43562593D01*
X43100000Y43585877D01*
X39950000Y43585877D01*
X39832946Y43562593D01*
X39733712Y43496288D01*
X39667407Y43397054D01*
X39644123Y43280000D01*
X39459950Y43280000D01*
X39366518Y43373432D01*
X39109239Y43480000D01*
X38830761Y43480000D01*
X38573482Y43373432D01*
X38376568Y43176518D01*
X38270000Y42919239D01*
X36100000Y42919239D01*
X36100000Y47358042D01*
X45200000Y47358042D01*
X45200000Y46641958D01*
X45474034Y45980382D01*
X45980382Y45474034D01*
X46641958Y45200000D01*
X47358042Y45200000D01*
X48019618Y45474034D01*
X48525966Y45980382D01*
X48800000Y46641958D01*
X48800000Y47358042D01*
X48525966Y48019618D01*
X48019618Y48525966D01*
X47358042Y48800000D01*
X46641958Y48800000D01*
X45980382Y48525966D01*
X45474034Y48019618D01*
X45200000Y47358042D01*
X36100000Y47358042D01*
X36100000Y49625000D01*
X46978214Y49625000D01*
X47603294Y49552123D01*
X47854547Y49460923D01*
X48455688Y49160352D01*
X48682176Y49011860D01*
X49099885Y48570916D01*
X49120383Y48535626D01*
X49465809Y47844775D01*
X49582502Y47459483D01*
X49625001Y46983292D01*
X49625000Y3021787D01*
X49552123Y2396702D01*
X49460926Y2145459D01*
X49160352Y1544312D01*
X49011860Y1317824D01*
X48570918Y900116D01*
X48535628Y879618D01*
X47844775Y534191D01*
X47459483Y417498D01*
X46983304Y375000D01*
X3021787Y375000D01*
X2396702Y447877D01*
X2145459Y539074D01*
X1544312Y839648D01*
X1317824Y988140D01*
X900116Y1429082D01*
X879618Y1464372D01*
X534191Y2155225D01*
X417498Y2540517D01*
X375000Y3016696D01*
X375000Y3358042D01*
X1200000Y3358042D01*
X1200000Y2641958D01*
X1474034Y1980382D01*
X1980382Y1474034D01*
X2641958Y1200000D01*
X3358042Y1200000D01*
X4019618Y1474034D01*
X4525966Y1980382D01*
X4800000Y2641958D01*
X4800000Y3308314D01*
X5450000Y3308314D01*
X5450000Y2691686D01*
X5685974Y2121996D01*
X6121996Y1685974D01*
X6691686Y1450000D01*
X7308314Y1450000D01*
X7878004Y1685974D01*
X8314026Y2121996D01*
X8550000Y2691686D01*
X8550000Y3308314D01*
X8314026Y3878004D01*
X7878004Y4314026D01*
X7308314Y4550000D01*
X6691686Y4550000D01*
X6121996Y4314026D01*
X5685974Y3878004D01*
X5450000Y3308314D01*
X4800000Y3308314D01*
X4800000Y3358042D01*
X4525966Y4019618D01*
X4019618Y4525966D01*
X3358042Y4800000D01*
X2641958Y4800000D01*
X1980382Y4525966D01*
X1474034Y4019618D01*
X1200000Y3358042D01*
X375000Y3358042D01*
X375000Y27129900D01*
X1424574Y27129900D01*
X1432900Y27088043D01*
X1432901Y12002262D01*
X1424574Y11960400D01*
X1457559Y11794574D01*
X1500706Y11730000D01*
X1551493Y11653992D01*
X1586979Y11630281D01*
X11195081Y2022178D01*
X11218792Y1986692D01*
X11288272Y1940267D01*
X11359373Y1892759D01*
X11525200Y1859774D01*
X11567057Y1868100D01*
X16342043Y1868100D01*
X16383900Y1859774D01*
X16425757Y1868100D01*
X16425758Y1868100D01*
X16549727Y1892759D01*
X16585707Y1916800D01*
X16846839Y1916800D01*
X17104118Y2023368D01*
X17301032Y2220282D01*
X17407600Y2477561D01*
X17407600Y2756039D01*
X17301032Y3013318D01*
X17104118Y3210232D01*
X16846839Y3316800D01*
X16568361Y3316800D01*
X16311082Y3210232D01*
X16114168Y3013318D01*
X16007600Y2756039D01*
X16007600Y2718100D01*
X15832228Y2718100D01*
X15853477Y2742384D01*
X15997903Y3091090D01*
X15886889Y3316000D01*
X14744000Y3316000D01*
X14744000Y3296000D01*
X14436000Y3296000D01*
X14436000Y3316000D01*
X14416000Y3316000D01*
X14416000Y3624000D01*
X14436000Y3624000D01*
X14436000Y3644000D01*
X14744000Y3644000D01*
X14744000Y3624000D01*
X15886889Y3624000D01*
X15997903Y3848910D01*
X15853477Y4197616D01*
X15667984Y4409600D01*
X16096960Y4409600D01*
X18652471Y1854088D01*
X18676182Y1818602D01*
X18816763Y1724669D01*
X18940034Y1700149D01*
X18982590Y1691684D01*
X19024447Y1700010D01*
X24746650Y1700010D01*
X24915082Y1531578D01*
X25172361Y1425010D01*
X25450839Y1425010D01*
X25708118Y1531578D01*
X25905032Y1728492D01*
X25909483Y1739239D01*
X27200000Y1739239D01*
X27200000Y1460761D01*
X27306568Y1203482D01*
X27503482Y1006568D01*
X27760761Y900000D01*
X28039239Y900000D01*
X28296518Y1006568D01*
X28493432Y1203482D01*
X28600000Y1460761D01*
X28600000Y1698960D01*
X30209354Y3308314D01*
X41450000Y3308314D01*
X41450000Y2691686D01*
X41685974Y2121996D01*
X42121996Y1685974D01*
X42691686Y1450000D01*
X43308314Y1450000D01*
X43878004Y1685974D01*
X44314026Y2121996D01*
X44550000Y2691686D01*
X44550000Y3308314D01*
X44529402Y3358042D01*
X45200000Y3358042D01*
X45200000Y2641958D01*
X45474034Y1980382D01*
X45980382Y1474034D01*
X46641958Y1200000D01*
X47358042Y1200000D01*
X48019618Y1474034D01*
X48525966Y1980382D01*
X48800000Y2641958D01*
X48800000Y3358042D01*
X48525966Y4019618D01*
X48019618Y4525966D01*
X47358042Y4800000D01*
X46641958Y4800000D01*
X45980382Y4525966D01*
X45474034Y4019618D01*
X45200000Y3358042D01*
X44529402Y3358042D01*
X44314026Y3878004D01*
X43878004Y4314026D01*
X43308314Y4550000D01*
X42691686Y4550000D01*
X42121996Y4314026D01*
X41685974Y3878004D01*
X41450000Y3308314D01*
X30209354Y3308314D01*
X31470922Y4569881D01*
X31506408Y4593592D01*
X31600341Y4734173D01*
X31625000Y4858142D01*
X31633326Y4900000D01*
X31625000Y4941857D01*
X31625000Y7435050D01*
X31793432Y7603482D01*
X31900000Y7860761D01*
X31900000Y8139239D01*
X31793432Y8396518D01*
X31596518Y8593432D01*
X31339239Y8700000D01*
X31060761Y8700000D01*
X30803482Y8593432D01*
X30606568Y8396518D01*
X30500000Y8139239D01*
X30500000Y7860761D01*
X30606568Y7603482D01*
X30775000Y7435050D01*
X30775001Y5076042D01*
X27998960Y2300000D01*
X27760761Y2300000D01*
X27503482Y2193432D01*
X27306568Y1996518D01*
X27200000Y1739239D01*
X25909483Y1739239D01*
X26011600Y1985771D01*
X26011600Y2264249D01*
X25905032Y2521528D01*
X25708118Y2718442D01*
X25450839Y2825010D01*
X25172361Y2825010D01*
X24915082Y2718442D01*
X24746650Y2550010D01*
X19158631Y2550010D01*
X16603121Y5105519D01*
X16579408Y5141008D01*
X16528535Y5175000D01*
X18485050Y5175000D01*
X18653482Y5006568D01*
X18910761Y4900000D01*
X19189239Y4900000D01*
X19446518Y5006568D01*
X19643432Y5203482D01*
X19750000Y5460761D01*
X19750000Y5739239D01*
X19643432Y5996518D01*
X19446518Y6193432D01*
X19189239Y6300000D01*
X18910761Y6300000D01*
X18653482Y6193432D01*
X18485050Y6025000D01*
X15759545Y6025000D01*
X15698629Y6331250D01*
X21919123Y6331250D01*
X21919123Y5893750D01*
X21959058Y5692984D01*
X22072783Y5522783D01*
X22242984Y5409058D01*
X22443750Y5369123D01*
X22575001Y5369123D01*
X22575001Y5264951D01*
X22406568Y5096518D01*
X22300000Y4839239D01*
X22300000Y4560761D01*
X22406568Y4303482D01*
X22603482Y4106568D01*
X22860761Y4000000D01*
X23139239Y4000000D01*
X23396518Y4106568D01*
X23593432Y4303482D01*
X23700000Y4560761D01*
X23700000Y4839239D01*
X23593432Y5096518D01*
X23425000Y5264950D01*
X23425000Y5669125D01*
X23440942Y5692984D01*
X23445358Y5715187D01*
X23581408Y5806092D01*
X23605121Y5841581D01*
X23670920Y5907380D01*
X23683399Y5915718D01*
X23694000Y5908634D01*
X23867500Y5874123D01*
X24034243Y5874123D01*
X23948634Y5746000D01*
X23914123Y5572500D01*
X23914123Y5227500D01*
X23948634Y5054000D01*
X24034918Y4924868D01*
X23906568Y4796518D01*
X23800000Y4539239D01*
X23800000Y4260761D01*
X23906568Y4003482D01*
X24103482Y3806568D01*
X24360761Y3700000D01*
X24639239Y3700000D01*
X24896518Y3806568D01*
X25093432Y4003482D01*
X25200000Y4260761D01*
X25200000Y4486500D01*
X25337500Y4624000D01*
X25337500Y5246000D01*
X25632500Y5246000D01*
X25632500Y4624000D01*
X25784500Y4472000D01*
X25900939Y4472000D01*
X26124405Y4564563D01*
X26295438Y4735596D01*
X26388000Y4959062D01*
X26388000Y5094000D01*
X26236000Y5246000D01*
X25632500Y5246000D01*
X25337500Y5246000D01*
X25311000Y5246000D01*
X25311000Y5554000D01*
X25337500Y5554000D01*
X25337500Y5572000D01*
X25400939Y5572000D01*
X25405767Y5574000D01*
X25632500Y5574000D01*
X25632500Y5554000D01*
X26236000Y5554000D01*
X26388000Y5706000D01*
X26388000Y5840938D01*
X26295438Y6064404D01*
X26124405Y6235437D01*
X25900939Y6328000D01*
X25784500Y6328000D01*
X25769250Y6312750D01*
X25736000Y6346000D01*
X25132500Y6346000D01*
X25132500Y6328000D01*
X25069061Y6328000D01*
X25064233Y6326000D01*
X24837500Y6326000D01*
X24837500Y6346000D01*
X24811000Y6346000D01*
X24811000Y6654000D01*
X24837500Y6654000D01*
X24837500Y7276000D01*
X25132500Y7276000D01*
X25132500Y6654000D01*
X25736000Y6654000D01*
X25888000Y6806000D01*
X25888000Y6940938D01*
X25795438Y7164404D01*
X25624405Y7335437D01*
X25400939Y7428000D01*
X25284500Y7428000D01*
X25132500Y7276000D01*
X24837500Y7276000D01*
X24685500Y7428000D01*
X24569061Y7428000D01*
X24345595Y7335437D01*
X24174562Y7164404D01*
X24158604Y7125877D01*
X23867500Y7125877D01*
X23694000Y7091366D01*
X23546914Y6993086D01*
X23489660Y6907400D01*
X23454173Y6900341D01*
X23313592Y6806408D01*
X23289879Y6770919D01*
X23263651Y6744691D01*
X23157016Y6815942D01*
X22956250Y6855877D01*
X22443750Y6855877D01*
X22242984Y6815942D01*
X22072783Y6702217D01*
X21959058Y6532016D01*
X21919123Y6331250D01*
X15698629Y6331250D01*
X15673276Y6458707D01*
X15419103Y6839103D01*
X15038707Y7093276D01*
X14703261Y7160000D01*
X14476739Y7160000D01*
X14141293Y7093276D01*
X13760897Y6839103D01*
X13506724Y6458707D01*
X13417471Y6010000D01*
X13506724Y5561293D01*
X13708309Y5259600D01*
X12931691Y5259600D01*
X13133276Y5561293D01*
X13222529Y6010000D01*
X13133276Y6458707D01*
X12879103Y6839103D01*
X12498707Y7093276D01*
X12163261Y7160000D01*
X11936739Y7160000D01*
X11601293Y7093276D01*
X11220897Y6839103D01*
X10966724Y6458707D01*
X10893526Y6090715D01*
X7584241Y9400000D01*
X10894123Y9400000D01*
X10894123Y7700000D01*
X10917407Y7582946D01*
X10983712Y7483712D01*
X11082946Y7417407D01*
X11200000Y7394123D01*
X12900000Y7394123D01*
X13017054Y7417407D01*
X13116288Y7483712D01*
X13182593Y7582946D01*
X13205877Y7700000D01*
X13205877Y9400000D01*
X13182593Y9517054D01*
X13116288Y9616288D01*
X13017054Y9682593D01*
X12900000Y9705877D01*
X11200000Y9705877D01*
X11082946Y9682593D01*
X10983712Y9616288D01*
X10917407Y9517054D01*
X10894123Y9400000D01*
X7584241Y9400000D01*
X3484717Y13499523D01*
X3621089Y13432085D01*
X3846000Y13542144D01*
X3846000Y14686000D01*
X4154000Y14686000D01*
X4154000Y13542144D01*
X4378911Y13432085D01*
X4888854Y13684259D01*
X5263477Y14112384D01*
X5407903Y14461090D01*
X5296889Y14686000D01*
X4154000Y14686000D01*
X3846000Y14686000D01*
X3826000Y14686000D01*
X3826000Y14994000D01*
X3846000Y14994000D01*
X3846000Y15014000D01*
X4154000Y15014000D01*
X4154000Y14994000D01*
X5296889Y14994000D01*
X5407903Y15218910D01*
X5263477Y15567616D01*
X4888854Y15995741D01*
X4378911Y16247915D01*
X4154002Y16137857D01*
X4154002Y16238104D01*
X4448707Y16296724D01*
X4829103Y16550897D01*
X5083276Y16931293D01*
X5172529Y17380000D01*
X5083276Y17828707D01*
X4829103Y18209103D01*
X4805312Y18225000D01*
X11482969Y18225000D01*
X21054208Y8653760D01*
X21077919Y8618274D01*
X21113404Y8594564D01*
X21218500Y8524341D01*
X21384327Y8491356D01*
X21391885Y8492859D01*
X21497244Y8387500D01*
X17302449Y8387500D01*
X16693724Y8996224D01*
X16654671Y9054671D01*
X16423126Y9209385D01*
X16218940Y9250000D01*
X16218935Y9250000D01*
X16150000Y9263712D01*
X16081065Y9250000D01*
X15505367Y9250000D01*
X15419103Y9379103D01*
X15038707Y9633276D01*
X14703261Y9700000D01*
X14476739Y9700000D01*
X14141293Y9633276D01*
X13760897Y9379103D01*
X13506724Y8998707D01*
X13417471Y8550000D01*
X13506724Y8101293D01*
X13760897Y7720897D01*
X14141293Y7466724D01*
X14476739Y7400000D01*
X14703261Y7400000D01*
X15038707Y7466724D01*
X15419103Y7720897D01*
X15505367Y7850000D01*
X15860052Y7850000D01*
X16468777Y7241274D01*
X16507829Y7182829D01*
X16739374Y7028115D01*
X16943560Y6987500D01*
X16943564Y6987500D01*
X17012499Y6973788D01*
X17081434Y6987500D01*
X22237833Y6987500D01*
X22242984Y6984058D01*
X22443750Y6944123D01*
X22956250Y6944123D01*
X23157016Y6984058D01*
X23327217Y7097783D01*
X23440942Y7267984D01*
X23480877Y7468750D01*
X23480877Y7619850D01*
X23897482Y8036454D01*
X23947575Y8069925D01*
X24080187Y8268392D01*
X24115000Y8443409D01*
X24115000Y8443413D01*
X24126753Y8502499D01*
X24115000Y8561586D01*
X24115000Y8572000D01*
X24185500Y8572000D01*
X24337500Y8724000D01*
X24337500Y9346000D01*
X24311000Y9346000D01*
X24311000Y9654000D01*
X24337500Y9654000D01*
X24337500Y10276000D01*
X24186158Y10427342D01*
X24200000Y10460761D01*
X24200000Y10739239D01*
X24118595Y10935768D01*
X24382828Y11200000D01*
X24617173Y11200000D01*
X24881405Y10935768D01*
X24800000Y10739239D01*
X24800000Y10460761D01*
X24813570Y10428000D01*
X24784500Y10428000D01*
X24632500Y10276000D01*
X24632500Y9654000D01*
X24659000Y9654000D01*
X24659000Y9346000D01*
X24632500Y9346000D01*
X24632500Y8724000D01*
X24784500Y8572000D01*
X24900939Y8572000D01*
X25124405Y8664563D01*
X25295438Y8835596D01*
X25315667Y8884433D01*
X25367500Y8874123D01*
X25658604Y8874123D01*
X25674562Y8835596D01*
X25845595Y8664563D01*
X26069061Y8572000D01*
X26185500Y8572000D01*
X26337500Y8724000D01*
X26337500Y9346000D01*
X26632500Y9346000D01*
X26632500Y8724000D01*
X26784500Y8572000D01*
X26900939Y8572000D01*
X27124405Y8664563D01*
X27295438Y8835596D01*
X27388000Y9059062D01*
X27388000Y9194000D01*
X27236000Y9346000D01*
X26632500Y9346000D01*
X26337500Y9346000D01*
X26311000Y9346000D01*
X26311000Y9654000D01*
X26337500Y9654000D01*
X26337500Y10276000D01*
X26632500Y10276000D01*
X26632500Y9654000D01*
X27236000Y9654000D01*
X27388000Y9806000D01*
X27388000Y9940938D01*
X27295438Y10164404D01*
X27124405Y10335437D01*
X26900939Y10428000D01*
X26784500Y10428000D01*
X26632500Y10276000D01*
X26337500Y10276000D01*
X26186158Y10427342D01*
X26200000Y10460761D01*
X26200000Y10739239D01*
X26100000Y10980661D01*
X26100000Y11106612D01*
X26111753Y11165700D01*
X26100000Y11224790D01*
X26100000Y11224791D01*
X26065187Y11399808D01*
X26047340Y11426518D01*
X25966047Y11548181D01*
X25932575Y11598275D01*
X25882481Y11631746D01*
X25331748Y12182479D01*
X25298275Y12232575D01*
X25099808Y12365187D01*
X24924791Y12400000D01*
X24924786Y12400000D01*
X24865700Y12411753D01*
X24806614Y12400000D01*
X24193388Y12400000D01*
X24134300Y12411753D01*
X24075212Y12400000D01*
X24075209Y12400000D01*
X23900192Y12365187D01*
X23752957Y12266807D01*
X23701725Y12232575D01*
X23668253Y12182481D01*
X23295811Y11810038D01*
X22700000Y12405849D01*
X22700000Y14339239D01*
X24500000Y14339239D01*
X24500000Y14060761D01*
X24606568Y13803482D01*
X24803482Y13606568D01*
X25060761Y13500000D01*
X25339239Y13500000D01*
X25596518Y13606568D01*
X25764950Y13775000D01*
X25858143Y13775000D01*
X25900000Y13766674D01*
X25941857Y13775000D01*
X25941858Y13775000D01*
X26065827Y13799659D01*
X26206408Y13893592D01*
X26230121Y13929081D01*
X26501040Y14200000D01*
X26739239Y14200000D01*
X26996518Y14306568D01*
X27193432Y14503482D01*
X27300000Y14760761D01*
X27300000Y15039239D01*
X27193432Y15296518D01*
X26996518Y15493432D01*
X26739239Y15600000D01*
X26460761Y15600000D01*
X26203482Y15493432D01*
X26006568Y15296518D01*
X25900000Y15039239D01*
X25900000Y14801040D01*
X25744455Y14645495D01*
X25596518Y14793432D01*
X25339239Y14900000D01*
X25060761Y14900000D01*
X24803482Y14793432D01*
X24606568Y14596518D01*
X24500000Y14339239D01*
X22700000Y14339239D01*
X22700000Y16669339D01*
X22800000Y16910761D01*
X22800000Y17189239D01*
X22693432Y17446518D01*
X22496518Y17643432D01*
X22255096Y17743432D01*
X22000000Y17998527D01*
X22000000Y18466816D01*
X22040598Y18450000D01*
X22259402Y18450000D01*
X22461550Y18533733D01*
X22616267Y18688450D01*
X22700000Y18890598D01*
X22700000Y19109402D01*
X27300000Y19109402D01*
X27300000Y18890598D01*
X27383733Y18688450D01*
X27538450Y18533733D01*
X27740598Y18450000D01*
X27959402Y18450000D01*
X28161550Y18533733D01*
X28316267Y18688450D01*
X28400000Y18890598D01*
X28400000Y19109402D01*
X28316267Y19311550D01*
X28161550Y19466267D01*
X27959402Y19550000D01*
X27740598Y19550000D01*
X27538450Y19466267D01*
X27383733Y19311550D01*
X27300000Y19109402D01*
X22700000Y19109402D01*
X22616267Y19311550D01*
X22461550Y19466267D01*
X22259402Y19550000D01*
X22040598Y19550000D01*
X22000000Y19533184D01*
X22000000Y19556955D01*
X29400000Y19556955D01*
X29400000Y18443045D01*
X29826275Y17413928D01*
X30613928Y16626275D01*
X31643045Y16200000D01*
X32460761Y16200000D01*
X32203482Y16093432D01*
X32038007Y15927957D01*
X32023142Y15925000D01*
X31899173Y15900341D01*
X31758592Y15806408D01*
X31734881Y15770922D01*
X31198960Y15235000D01*
X30960761Y15235000D01*
X30703482Y15128432D01*
X30506568Y14931518D01*
X30400000Y14674239D01*
X30400000Y14395761D01*
X30506568Y14138482D01*
X30703482Y13941568D01*
X30960761Y13835000D01*
X31239239Y13835000D01*
X31496518Y13941568D01*
X31693432Y14138482D01*
X31800000Y14395761D01*
X31800000Y14633960D01*
X32138045Y14972005D01*
X32203482Y14906568D01*
X32460761Y14800000D01*
X32739239Y14800000D01*
X32996518Y14906568D01*
X33193432Y15103482D01*
X33300000Y15360761D01*
X33300000Y15639239D01*
X33193432Y15896518D01*
X32996518Y16093432D01*
X32739239Y16200000D01*
X32756955Y16200000D01*
X33786072Y16626275D01*
X34573725Y17413928D01*
X35000000Y18443045D01*
X35000000Y18839239D01*
X37000000Y18839239D01*
X37000000Y18560761D01*
X37106568Y18303482D01*
X37303482Y18106568D01*
X37560761Y18000000D01*
X37839239Y18000000D01*
X38096518Y18106568D01*
X38264950Y18275000D01*
X46035050Y18275000D01*
X46124173Y18185877D01*
X45000000Y18185877D01*
X44882946Y18162593D01*
X44783712Y18096288D01*
X44717407Y17997054D01*
X44694123Y17880000D01*
X44694123Y16980000D01*
X43405877Y16980000D01*
X43405877Y17880000D01*
X43382593Y17997054D01*
X43316288Y18096288D01*
X43217054Y18162593D01*
X43100000Y18185877D01*
X39950000Y18185877D01*
X39832946Y18162593D01*
X39733712Y18096288D01*
X39667407Y17997054D01*
X39644123Y17880000D01*
X39644123Y17805000D01*
X39534950Y17805000D01*
X39366518Y17973432D01*
X39109239Y18080000D01*
X38830761Y18080000D01*
X38573482Y17973432D01*
X38376568Y17776518D01*
X38270000Y17519239D01*
X38270000Y17240761D01*
X38376568Y16983482D01*
X38573482Y16786568D01*
X38581999Y16783040D01*
X38298959Y16500000D01*
X38060761Y16500000D01*
X37803482Y16393432D01*
X37606568Y16196518D01*
X37500000Y15939239D01*
X37500000Y15660761D01*
X37606568Y15403482D01*
X37803482Y15206568D01*
X38060761Y15100000D01*
X38339239Y15100000D01*
X38596518Y15206568D01*
X38793432Y15403482D01*
X38900000Y15660761D01*
X38900000Y15898959D01*
X39131041Y16130000D01*
X40866589Y16130000D01*
X40800000Y15969239D01*
X40800000Y15690761D01*
X40818591Y15645877D01*
X39950000Y15645877D01*
X39832946Y15622593D01*
X39733712Y15556288D01*
X39667407Y15457054D01*
X39644123Y15340000D01*
X39644123Y14340000D01*
X39667407Y14222946D01*
X39733712Y14123712D01*
X39832946Y14057407D01*
X39950000Y14034123D01*
X43100000Y14034123D01*
X43217054Y14057407D01*
X43316288Y14123712D01*
X43382593Y14222946D01*
X43405877Y14340000D01*
X43405877Y15340000D01*
X43382593Y15457054D01*
X43316288Y15556288D01*
X43217054Y15622593D01*
X43100000Y15645877D01*
X42181409Y15645877D01*
X42200000Y15690761D01*
X42200000Y15969239D01*
X42133411Y16130000D01*
X45900000Y16130000D01*
X45900000Y15960761D01*
X46006568Y15703482D01*
X46064173Y15645877D01*
X45000000Y15645877D01*
X44882946Y15622593D01*
X44783712Y15556288D01*
X44717407Y15457054D01*
X44694123Y15340000D01*
X44694123Y14340000D01*
X44717407Y14222946D01*
X44783712Y14123712D01*
X44882946Y14057407D01*
X45000000Y14034123D01*
X46064173Y14034123D01*
X45996568Y13966518D01*
X45890000Y13709239D01*
X45890000Y13430761D01*
X45996568Y13173482D01*
X46064173Y13105877D01*
X45000000Y13105877D01*
X44882946Y13082593D01*
X44783712Y13016288D01*
X44717407Y12917054D01*
X44694123Y12800000D01*
X44539950Y12800000D01*
X44446518Y12893432D01*
X44189239Y13000000D01*
X43910761Y13000000D01*
X43653482Y12893432D01*
X43456568Y12696518D01*
X43405877Y12574139D01*
X43405877Y12800000D01*
X43382593Y12917054D01*
X43316288Y13016288D01*
X43217054Y13082593D01*
X43100000Y13105877D01*
X39950000Y13105877D01*
X39832946Y13082593D01*
X39733712Y13016288D01*
X39667407Y12917054D01*
X39644123Y12800000D01*
X39644123Y11800000D01*
X39667407Y11682946D01*
X39733712Y11583712D01*
X39832946Y11517407D01*
X39950000Y11494123D01*
X40984173Y11494123D01*
X40916568Y11426518D01*
X40810000Y11169239D01*
X40810000Y10890761D01*
X40916568Y10633482D01*
X40984173Y10565877D01*
X39950000Y10565877D01*
X39832946Y10542593D01*
X39733712Y10476288D01*
X39667407Y10377054D01*
X39644123Y10260000D01*
X39644123Y9260000D01*
X39667407Y9142946D01*
X39733712Y9043712D01*
X39832946Y8977407D01*
X39950000Y8954123D01*
X40984173Y8954123D01*
X40931568Y8901518D01*
X40825000Y8644239D01*
X40825000Y8365761D01*
X40931568Y8108482D01*
X41014173Y8025877D01*
X39950000Y8025877D01*
X39832946Y8002593D01*
X39733712Y7936288D01*
X39667407Y7837054D01*
X39644123Y7720000D01*
X39459950Y7720000D01*
X39366518Y7813432D01*
X39109239Y7920000D01*
X38830761Y7920000D01*
X38573482Y7813432D01*
X38376568Y7616518D01*
X38270000Y7359239D01*
X38270000Y7080761D01*
X38376568Y6823482D01*
X38573482Y6626568D01*
X38830761Y6520000D01*
X39109239Y6520000D01*
X39366518Y6626568D01*
X39459950Y6720000D01*
X39644123Y6720000D01*
X39667407Y6602946D01*
X39733712Y6503712D01*
X39832946Y6437407D01*
X39950000Y6414123D01*
X43100000Y6414123D01*
X43217054Y6437407D01*
X43316288Y6503712D01*
X43382593Y6602946D01*
X43405877Y6720000D01*
X43405877Y6945861D01*
X43456568Y6823482D01*
X43653482Y6626568D01*
X43910761Y6520000D01*
X44189239Y6520000D01*
X44446518Y6626568D01*
X44539950Y6720000D01*
X44694123Y6720000D01*
X44717407Y6602946D01*
X44783712Y6503712D01*
X44882946Y6437407D01*
X45000000Y6414123D01*
X48150000Y6414123D01*
X48267054Y6437407D01*
X48366288Y6503712D01*
X48432593Y6602946D01*
X48455877Y6720000D01*
X48455877Y7720000D01*
X48432593Y7837054D01*
X48366288Y7936288D01*
X48267054Y8002593D01*
X48150000Y8025877D01*
X47175000Y8025877D01*
X47175000Y8954123D01*
X48150000Y8954123D01*
X48267054Y8977407D01*
X48366288Y9043712D01*
X48432593Y9142946D01*
X48455877Y9260000D01*
X48455877Y10260000D01*
X48432593Y10377054D01*
X48366288Y10476288D01*
X48267054Y10542593D01*
X48150000Y10565877D01*
X47175000Y10565877D01*
X47175000Y11494123D01*
X48150000Y11494123D01*
X48267054Y11517407D01*
X48366288Y11583712D01*
X48432593Y11682946D01*
X48455877Y11800000D01*
X48455877Y12800000D01*
X48432593Y12917054D01*
X48366288Y13016288D01*
X48267054Y13082593D01*
X48150000Y13105877D01*
X47115827Y13105877D01*
X47183432Y13173482D01*
X47290000Y13430761D01*
X47290000Y13709239D01*
X47183432Y13966518D01*
X47115827Y14034123D01*
X48150000Y14034123D01*
X48267054Y14057407D01*
X48366288Y14123712D01*
X48432593Y14222946D01*
X48455877Y14340000D01*
X48455877Y15340000D01*
X48432593Y15457054D01*
X48366288Y15556288D01*
X48267054Y15622593D01*
X48150000Y15645877D01*
X47135827Y15645877D01*
X47193432Y15703482D01*
X47300000Y15960761D01*
X47300000Y16239239D01*
X47193432Y16496518D01*
X47115827Y16574123D01*
X48150000Y16574123D01*
X48267054Y16597407D01*
X48366288Y16663712D01*
X48432593Y16762946D01*
X48455877Y16880000D01*
X48455877Y17880000D01*
X48432593Y17997054D01*
X48366288Y18096288D01*
X48267054Y18162593D01*
X48150000Y18185877D01*
X47075827Y18185877D01*
X47193432Y18303482D01*
X47300000Y18560761D01*
X47300000Y18839239D01*
X47193432Y19096518D01*
X47175827Y19114123D01*
X48150000Y19114123D01*
X48267054Y19137407D01*
X48366288Y19203712D01*
X48432593Y19302946D01*
X48455877Y19420000D01*
X48455877Y20420000D01*
X48432593Y20537054D01*
X48366288Y20636288D01*
X48267054Y20702593D01*
X48150000Y20725877D01*
X45000000Y20725877D01*
X44882946Y20702593D01*
X44783712Y20636288D01*
X44717407Y20537054D01*
X44694123Y20420000D01*
X44694123Y19420000D01*
X44717407Y19302946D01*
X44783712Y19203712D01*
X44882946Y19137407D01*
X44945319Y19125000D01*
X43154681Y19125000D01*
X43217054Y19137407D01*
X43316288Y19203712D01*
X43382593Y19302946D01*
X43405877Y19420000D01*
X43405877Y20420000D01*
X43382593Y20537054D01*
X43316288Y20636288D01*
X43217054Y20702593D01*
X43100000Y20725877D01*
X39950000Y20725877D01*
X39832946Y20702593D01*
X39733712Y20636288D01*
X39667407Y20537054D01*
X39644123Y20420000D01*
X39644123Y20345000D01*
X39534950Y20345000D01*
X39366518Y20513432D01*
X39109239Y20620000D01*
X38830761Y20620000D01*
X38573482Y20513432D01*
X38376568Y20316518D01*
X38270000Y20059239D01*
X38270000Y19780761D01*
X38376568Y19523482D01*
X38573482Y19326568D01*
X38830761Y19220000D01*
X39109239Y19220000D01*
X39366518Y19326568D01*
X39534950Y19495000D01*
X39644123Y19495000D01*
X39644123Y19420000D01*
X39667407Y19302946D01*
X39733712Y19203712D01*
X39832946Y19137407D01*
X39895319Y19125000D01*
X38264950Y19125000D01*
X38096518Y19293432D01*
X37839239Y19400000D01*
X37560761Y19400000D01*
X37303482Y19293432D01*
X37106568Y19096518D01*
X37000000Y18839239D01*
X35000000Y18839239D01*
X35000000Y19556955D01*
X34573725Y20586072D01*
X33786072Y21373725D01*
X32756955Y21800000D01*
X31643045Y21800000D01*
X30613928Y21373725D01*
X29826275Y20586072D01*
X29400000Y19556955D01*
X22000000Y19556955D01*
X22000000Y20801473D01*
X22555097Y21356569D01*
X22604188Y21376902D01*
X22673125Y21390615D01*
X22731566Y21429664D01*
X22796518Y21456568D01*
X22846231Y21506281D01*
X22904670Y21545329D01*
X22943718Y21603768D01*
X22993432Y21653482D01*
X23020335Y21718433D01*
X23059385Y21776874D01*
X23073098Y21845813D01*
X23100000Y21910761D01*
X23100000Y22599239D01*
X38270000Y22599239D01*
X38270000Y22320761D01*
X38376568Y22063482D01*
X38573482Y21866568D01*
X38830761Y21760000D01*
X39109239Y21760000D01*
X39366518Y21866568D01*
X39459950Y21960000D01*
X39644123Y21960000D01*
X39667407Y21842946D01*
X39733712Y21743712D01*
X39832946Y21677407D01*
X39950000Y21654123D01*
X43100000Y21654123D01*
X43217054Y21677407D01*
X43316288Y21743712D01*
X43382593Y21842946D01*
X43405877Y21960000D01*
X43405877Y22185861D01*
X43456568Y22063482D01*
X43653482Y21866568D01*
X43910761Y21760000D01*
X44189239Y21760000D01*
X44446518Y21866568D01*
X44539950Y21960000D01*
X44694123Y21960000D01*
X44717407Y21842946D01*
X44783712Y21743712D01*
X44882946Y21677407D01*
X45000000Y21654123D01*
X48150000Y21654123D01*
X48267054Y21677407D01*
X48366288Y21743712D01*
X48432593Y21842946D01*
X48455877Y21960000D01*
X48455877Y22960000D01*
X48432593Y23077054D01*
X48366288Y23176288D01*
X48267054Y23242593D01*
X48150000Y23265877D01*
X45000000Y23265877D01*
X44882946Y23242593D01*
X44783712Y23176288D01*
X44717407Y23077054D01*
X44694123Y22960000D01*
X44539950Y22960000D01*
X44446518Y23053432D01*
X44189239Y23160000D01*
X43910761Y23160000D01*
X43653482Y23053432D01*
X43456568Y22856518D01*
X43405877Y22734139D01*
X43405877Y22960000D01*
X43382593Y23077054D01*
X43316288Y23176288D01*
X43217054Y23242593D01*
X43100000Y23265877D01*
X39950000Y23265877D01*
X39832946Y23242593D01*
X39733712Y23176288D01*
X39667407Y23077054D01*
X39644123Y22960000D01*
X39459950Y22960000D01*
X39366518Y23053432D01*
X39109239Y23160000D01*
X38830761Y23160000D01*
X38573482Y23053432D01*
X38376568Y22856518D01*
X38270000Y22599239D01*
X23100000Y22599239D01*
X23100000Y24539239D01*
X23073098Y24604187D01*
X23059385Y24673126D01*
X23020335Y24731568D01*
X22993432Y24796518D01*
X22943721Y24846229D01*
X22904671Y24904671D01*
X22846229Y24943721D01*
X22796518Y24993432D01*
X22731568Y25020335D01*
X22673126Y25059385D01*
X22604187Y25073098D01*
X22539239Y25100000D01*
X22468940Y25100000D01*
X22400000Y25113713D01*
X22331060Y25100000D01*
X22260761Y25100000D01*
X22195812Y25073098D01*
X22126875Y25059385D01*
X22068434Y25020336D01*
X22003482Y24993432D01*
X21953769Y24943719D01*
X21895330Y24904671D01*
X21856282Y24846232D01*
X21806568Y24796518D01*
X21779663Y24731564D01*
X21740616Y24673126D01*
X21726904Y24604192D01*
X21700000Y24539239D01*
X21700000Y24260761D01*
X21700001Y24260759D01*
X21700000Y22198529D01*
X21017519Y21516046D01*
X20967426Y21482575D01*
X20933954Y21432481D01*
X20933953Y21432480D01*
X20834814Y21284108D01*
X20788247Y21050000D01*
X20800001Y20990909D01*
X20800000Y17809086D01*
X20788247Y17750000D01*
X20800000Y17690914D01*
X20800000Y17690910D01*
X20834813Y17515893D01*
X20967425Y17317425D01*
X21017521Y17283952D01*
X21406568Y16894904D01*
X21500000Y16669338D01*
X21500001Y12216413D01*
X21488247Y12157322D01*
X21517847Y12008514D01*
X20331326Y13195035D01*
X20560761Y13100000D01*
X20839239Y13100000D01*
X21096518Y13206568D01*
X21293432Y13403482D01*
X21400000Y13660761D01*
X21400000Y13939239D01*
X21293432Y14196518D01*
X21096518Y14393432D01*
X20839239Y14500000D01*
X20601041Y14500000D01*
X18741681Y16359359D01*
X19386072Y16626275D01*
X20173725Y17413928D01*
X20600000Y18443045D01*
X20600000Y19556955D01*
X20173725Y20586072D01*
X19386072Y21373725D01*
X18356955Y21800000D01*
X17243045Y21800000D01*
X16213928Y21373725D01*
X15426275Y20586072D01*
X15000000Y19556955D01*
X15000000Y18443045D01*
X15157690Y18062349D01*
X8080800Y25139239D01*
X38270000Y25139239D01*
X38270000Y24860761D01*
X38376568Y24603482D01*
X38573482Y24406568D01*
X38830761Y24300000D01*
X39109239Y24300000D01*
X39366518Y24406568D01*
X39459950Y24500000D01*
X39644123Y24500000D01*
X39667407Y24382946D01*
X39733712Y24283712D01*
X39832946Y24217407D01*
X39950000Y24194123D01*
X43100000Y24194123D01*
X43217054Y24217407D01*
X43316288Y24283712D01*
X43382593Y24382946D01*
X43405877Y24500000D01*
X43405877Y24725861D01*
X43456568Y24603482D01*
X43653482Y24406568D01*
X43910761Y24300000D01*
X44189239Y24300000D01*
X44446518Y24406568D01*
X44539950Y24500000D01*
X44694123Y24500000D01*
X44717407Y24382946D01*
X44783712Y24283712D01*
X44882946Y24217407D01*
X45000000Y24194123D01*
X48150000Y24194123D01*
X48267054Y24217407D01*
X48366288Y24283712D01*
X48432593Y24382946D01*
X48455877Y24500000D01*
X48455877Y25500000D01*
X48432593Y25617054D01*
X48366288Y25716288D01*
X48267054Y25782593D01*
X48150000Y25805877D01*
X45000000Y25805877D01*
X44882946Y25782593D01*
X44783712Y25716288D01*
X44717407Y25617054D01*
X44694123Y25500000D01*
X44539950Y25500000D01*
X44446518Y25593432D01*
X44189239Y25700000D01*
X43910761Y25700000D01*
X43653482Y25593432D01*
X43456568Y25396518D01*
X43405877Y25274139D01*
X43405877Y25500000D01*
X43382593Y25617054D01*
X43316288Y25716288D01*
X43217054Y25782593D01*
X43100000Y25805877D01*
X39950000Y25805877D01*
X39832946Y25782593D01*
X39733712Y25716288D01*
X39667407Y25617054D01*
X39644123Y25500000D01*
X39459950Y25500000D01*
X39366518Y25593432D01*
X39109239Y25700000D01*
X38830761Y25700000D01*
X38573482Y25593432D01*
X38376568Y25396518D01*
X38270000Y25139239D01*
X8080800Y25139239D01*
X6525000Y26695038D01*
X6525000Y27139239D01*
X34400000Y27139239D01*
X34400000Y26860761D01*
X34506568Y26603482D01*
X34703482Y26406568D01*
X34960761Y26300000D01*
X35239239Y26300000D01*
X35496518Y26406568D01*
X35693432Y26603482D01*
X35800000Y26860761D01*
X35800000Y27139239D01*
X35693432Y27396518D01*
X35496518Y27593432D01*
X35289361Y27679239D01*
X38270000Y27679239D01*
X38270000Y27400761D01*
X38376568Y27143482D01*
X38573482Y26946568D01*
X38830761Y26840000D01*
X39109239Y26840000D01*
X39366518Y26946568D01*
X39459950Y27040000D01*
X39644123Y27040000D01*
X39667407Y26922946D01*
X39733712Y26823712D01*
X39832946Y26757407D01*
X39950000Y26734123D01*
X43100000Y26734123D01*
X43217054Y26757407D01*
X43316288Y26823712D01*
X43382593Y26922946D01*
X43405877Y27040000D01*
X43405877Y27265861D01*
X43456568Y27143482D01*
X43653482Y26946568D01*
X43910761Y26840000D01*
X44189239Y26840000D01*
X44446518Y26946568D01*
X44539950Y27040000D01*
X44694123Y27040000D01*
X44717407Y26922946D01*
X44783712Y26823712D01*
X44882946Y26757407D01*
X45000000Y26734123D01*
X48150000Y26734123D01*
X48267054Y26757407D01*
X48366288Y26823712D01*
X48432593Y26922946D01*
X48455877Y27040000D01*
X48455877Y28040000D01*
X48432593Y28157054D01*
X48366288Y28256288D01*
X48267054Y28322593D01*
X48150000Y28345877D01*
X45000000Y28345877D01*
X44882946Y28322593D01*
X44783712Y28256288D01*
X44717407Y28157054D01*
X44694123Y28040000D01*
X44539950Y28040000D01*
X44446518Y28133432D01*
X44189239Y28240000D01*
X43910761Y28240000D01*
X43653482Y28133432D01*
X43456568Y27936518D01*
X43405877Y27814139D01*
X43405877Y28040000D01*
X43382593Y28157054D01*
X43316288Y28256288D01*
X43217054Y28322593D01*
X43100000Y28345877D01*
X39950000Y28345877D01*
X39832946Y28322593D01*
X39733712Y28256288D01*
X39667407Y28157054D01*
X39644123Y28040000D01*
X39459950Y28040000D01*
X39366518Y28133432D01*
X39109239Y28240000D01*
X38830761Y28240000D01*
X38573482Y28133432D01*
X38376568Y27936518D01*
X38270000Y27679239D01*
X35289361Y27679239D01*
X35239239Y27700000D01*
X34960761Y27700000D01*
X34703482Y27593432D01*
X34506568Y27396518D01*
X34400000Y27139239D01*
X6525000Y27139239D01*
X6525000Y30050000D01*
X38486287Y30050000D01*
X38500000Y29981060D01*
X38500000Y29910761D01*
X38526902Y29845813D01*
X38540615Y29776874D01*
X38579665Y29718432D01*
X38606568Y29653482D01*
X38656279Y29603771D01*
X38695329Y29545329D01*
X38753771Y29506279D01*
X38803482Y29456568D01*
X38868432Y29429665D01*
X38926874Y29390615D01*
X38995813Y29376902D01*
X39060761Y29350000D01*
X39754234Y29350000D01*
X39832946Y29297407D01*
X39950000Y29274123D01*
X43100000Y29274123D01*
X43217054Y29297407D01*
X43316288Y29363712D01*
X43382593Y29462946D01*
X43405877Y29580000D01*
X43405877Y29805861D01*
X43456568Y29683482D01*
X43653482Y29486568D01*
X43910761Y29380000D01*
X44189239Y29380000D01*
X44446518Y29486568D01*
X44539950Y29580000D01*
X44694123Y29580000D01*
X44717407Y29462946D01*
X44783712Y29363712D01*
X44882946Y29297407D01*
X45000000Y29274123D01*
X48150000Y29274123D01*
X48267054Y29297407D01*
X48366288Y29363712D01*
X48432593Y29462946D01*
X48455877Y29580000D01*
X48455877Y30580000D01*
X48432593Y30697054D01*
X48366288Y30796288D01*
X48267054Y30862593D01*
X48150000Y30885877D01*
X45000000Y30885877D01*
X44882946Y30862593D01*
X44783712Y30796288D01*
X44717407Y30697054D01*
X44694123Y30580000D01*
X44539950Y30580000D01*
X44446518Y30673432D01*
X44189239Y30780000D01*
X43910761Y30780000D01*
X43653482Y30673432D01*
X43456568Y30476518D01*
X43405877Y30354139D01*
X43405877Y30580000D01*
X43382593Y30697054D01*
X43316288Y30796288D01*
X43217054Y30862593D01*
X43100000Y30885877D01*
X39950000Y30885877D01*
X39832946Y30862593D01*
X39733712Y30796288D01*
X39702784Y30750000D01*
X39060761Y30750000D01*
X38995813Y30723098D01*
X38926874Y30709385D01*
X38868432Y30670335D01*
X38803482Y30643432D01*
X38753771Y30593721D01*
X38695329Y30554671D01*
X38656279Y30496229D01*
X38606568Y30446518D01*
X38579665Y30381568D01*
X38540615Y30323126D01*
X38526902Y30254187D01*
X38500000Y30189239D01*
X38500000Y30118940D01*
X38486287Y30050000D01*
X6525000Y30050000D01*
X6525000Y32759239D01*
X38270000Y32759239D01*
X38270000Y32480761D01*
X38376568Y32223482D01*
X38573482Y32026568D01*
X38830761Y31920000D01*
X39109239Y31920000D01*
X39366518Y32026568D01*
X39459950Y32120000D01*
X39644123Y32120000D01*
X39667407Y32002946D01*
X39733712Y31903712D01*
X39832946Y31837407D01*
X39950000Y31814123D01*
X43100000Y31814123D01*
X43217054Y31837407D01*
X43316288Y31903712D01*
X43382593Y32002946D01*
X43405877Y32120000D01*
X43405877Y32345861D01*
X43456568Y32223482D01*
X43653482Y32026568D01*
X43910761Y31920000D01*
X44189239Y31920000D01*
X44446518Y32026568D01*
X44539950Y32120000D01*
X44694123Y32120000D01*
X44717407Y32002946D01*
X44783712Y31903712D01*
X44882946Y31837407D01*
X45000000Y31814123D01*
X48150000Y31814123D01*
X48267054Y31837407D01*
X48366288Y31903712D01*
X48432593Y32002946D01*
X48455877Y32120000D01*
X48455877Y33120000D01*
X48432593Y33237054D01*
X48366288Y33336288D01*
X48267054Y33402593D01*
X48150000Y33425877D01*
X45000000Y33425877D01*
X44882946Y33402593D01*
X44783712Y33336288D01*
X44717407Y33237054D01*
X44694123Y33120000D01*
X44539950Y33120000D01*
X44446518Y33213432D01*
X44189239Y33320000D01*
X43910761Y33320000D01*
X43653482Y33213432D01*
X43456568Y33016518D01*
X43405877Y32894139D01*
X43405877Y33120000D01*
X43382593Y33237054D01*
X43316288Y33336288D01*
X43217054Y33402593D01*
X43100000Y33425877D01*
X39950000Y33425877D01*
X39832946Y33402593D01*
X39733712Y33336288D01*
X39667407Y33237054D01*
X39644123Y33120000D01*
X39459950Y33120000D01*
X39366518Y33213432D01*
X39109239Y33320000D01*
X38830761Y33320000D01*
X38573482Y33213432D01*
X38376568Y33016518D01*
X38270000Y32759239D01*
X6525000Y32759239D01*
X6525000Y34118143D01*
X6533326Y34160000D01*
X6500341Y34325827D01*
X6465876Y34377407D01*
X6406408Y34466408D01*
X6370919Y34490121D01*
X5561801Y35299239D01*
X38270000Y35299239D01*
X38270000Y35020761D01*
X38376568Y34763482D01*
X38573482Y34566568D01*
X38830761Y34460000D01*
X39109239Y34460000D01*
X39366518Y34566568D01*
X39459950Y34660000D01*
X39644123Y34660000D01*
X39667407Y34542946D01*
X39733712Y34443712D01*
X39832946Y34377407D01*
X39950000Y34354123D01*
X43100000Y34354123D01*
X43217054Y34377407D01*
X43316288Y34443712D01*
X43382593Y34542946D01*
X43405877Y34660000D01*
X43405877Y34885861D01*
X43456568Y34763482D01*
X43653482Y34566568D01*
X43910761Y34460000D01*
X44189239Y34460000D01*
X44446518Y34566568D01*
X44539950Y34660000D01*
X44694123Y34660000D01*
X44717407Y34542946D01*
X44783712Y34443712D01*
X44882946Y34377407D01*
X45000000Y34354123D01*
X48150000Y34354123D01*
X48267054Y34377407D01*
X48366288Y34443712D01*
X48432593Y34542946D01*
X48455877Y34660000D01*
X48455877Y35660000D01*
X48432593Y35777054D01*
X48366288Y35876288D01*
X48267054Y35942593D01*
X48150000Y35965877D01*
X45000000Y35965877D01*
X44882946Y35942593D01*
X44783712Y35876288D01*
X44717407Y35777054D01*
X44694123Y35660000D01*
X44539950Y35660000D01*
X44446518Y35753432D01*
X44189239Y35860000D01*
X43910761Y35860000D01*
X43653482Y35753432D01*
X43456568Y35556518D01*
X43405877Y35434139D01*
X43405877Y35660000D01*
X43382593Y35777054D01*
X43316288Y35876288D01*
X43217054Y35942593D01*
X43100000Y35965877D01*
X39950000Y35965877D01*
X39832946Y35942593D01*
X39733712Y35876288D01*
X39667407Y35777054D01*
X39644123Y35660000D01*
X39459950Y35660000D01*
X39366518Y35753432D01*
X39109239Y35860000D01*
X38830761Y35860000D01*
X38573482Y35753432D01*
X38376568Y35556518D01*
X38270000Y35299239D01*
X5561801Y35299239D01*
X5430121Y35430919D01*
X5406408Y35466408D01*
X5265827Y35560341D01*
X5155877Y35582211D01*
X5155877Y36010000D01*
X5132593Y36127054D01*
X5066288Y36226288D01*
X4967054Y36292593D01*
X4850000Y36315877D01*
X3150000Y36315877D01*
X3032946Y36292593D01*
X2933712Y36226288D01*
X2867407Y36127054D01*
X2844123Y36010000D01*
X2844123Y34310000D01*
X2867407Y34192946D01*
X2933712Y34093712D01*
X3032946Y34027407D01*
X3150000Y34004123D01*
X4850000Y34004123D01*
X4967054Y34027407D01*
X5066288Y34093712D01*
X5132593Y34192946D01*
X5155877Y34310000D01*
X5155877Y34503083D01*
X5675001Y33983959D01*
X5675000Y26560855D01*
X5666674Y26518998D01*
X5675000Y26477141D01*
X5699659Y26353172D01*
X5793592Y26212590D01*
X5829081Y26188877D01*
X9132958Y22885000D01*
X5087992Y22885000D01*
X5083276Y22908707D01*
X4829103Y23289103D01*
X4448707Y23543276D01*
X4113261Y23610000D01*
X3886739Y23610000D01*
X3551293Y23543276D01*
X3211800Y23316434D01*
X3211800Y23610760D01*
X3531194Y23930154D01*
X3551293Y23916724D01*
X3886739Y23850000D01*
X4113261Y23850000D01*
X4448707Y23916724D01*
X4829103Y24170897D01*
X5083276Y24551293D01*
X5172529Y25000000D01*
X5083276Y25448707D01*
X4829103Y25829103D01*
X4448707Y26083276D01*
X4113261Y26150000D01*
X3886739Y26150000D01*
X3551293Y26083276D01*
X3170897Y25829103D01*
X2916724Y25448707D01*
X2827471Y25000000D01*
X2916724Y24551293D01*
X2930154Y24531194D01*
X2733300Y24334340D01*
X2733300Y25672260D01*
X3531194Y26470154D01*
X3551293Y26456724D01*
X3886739Y26390000D01*
X4113261Y26390000D01*
X4448707Y26456724D01*
X4829103Y26710897D01*
X5083276Y27091293D01*
X5172529Y27540000D01*
X5083276Y27988707D01*
X4829103Y28369103D01*
X4448707Y28623276D01*
X4337837Y28645329D01*
X4400341Y28738873D01*
X4425000Y28862842D01*
X4433326Y28904700D01*
X4425000Y28946558D01*
X4425000Y28992008D01*
X4448707Y28996724D01*
X4829103Y29250897D01*
X5083276Y29631293D01*
X5172529Y30080000D01*
X5083276Y30528707D01*
X4829103Y30909103D01*
X4448707Y31163276D01*
X4113261Y31230000D01*
X3886739Y31230000D01*
X3551293Y31163276D01*
X3170897Y30909103D01*
X2916724Y30528707D01*
X2827471Y30080000D01*
X2916724Y29631293D01*
X3170897Y29250897D01*
X3294960Y29168001D01*
X1586981Y27460021D01*
X1551492Y27436308D01*
X1457560Y27295727D01*
X1457559Y27295726D01*
X1424574Y27129900D01*
X375000Y27129900D01*
X375000Y32620000D01*
X2827471Y32620000D01*
X2916724Y32171293D01*
X3170897Y31790897D01*
X3551293Y31536724D01*
X3886739Y31470000D01*
X4113261Y31470000D01*
X4448707Y31536724D01*
X4829103Y31790897D01*
X5083276Y32171293D01*
X5172529Y32620000D01*
X5083276Y33068707D01*
X4829103Y33449103D01*
X4448707Y33703276D01*
X4113261Y33770000D01*
X3886739Y33770000D01*
X3551293Y33703276D01*
X3170897Y33449103D01*
X2916724Y33068707D01*
X2827471Y32620000D01*
X375000Y32620000D01*
X375000Y46978214D01*
X419283Y47358042D01*
X1200000Y47358042D01*
X1200000Y46641958D01*
X1474034Y45980382D01*
X1980382Y45474034D01*
X2641958Y45200000D01*
X3358042Y45200000D01*
X4019618Y45474034D01*
X4525966Y45980382D01*
X4800000Y46641958D01*
X4800000Y47358042D01*
X4525966Y48019618D01*
X4019618Y48525966D01*
X3358042Y48800000D01*
X2641958Y48800000D01*
X1980382Y48525966D01*
X1474034Y48019618D01*
X1200000Y47358042D01*
X419283Y47358042D01*
X447877Y47603294D01*
X539077Y47854547D01*
X839648Y48455688D01*
X988140Y48682176D01*
X1429084Y49099885D01*
X1464374Y49120383D01*
X2155225Y49465809D01*
X2540517Y49582502D01*
X3016697Y49625000D01*
X13900000Y49625000D01*
X13900000Y37500000D01*
G36*
X11218481Y4563678D02*
X11242192Y4528192D01*
X11382773Y4434259D01*
X11413904Y4428067D01*
X11220897Y4299103D01*
X10966724Y3918707D01*
X10889395Y3529946D01*
X2282900Y12136440D01*
X2282900Y13499260D01*
X11218481Y4563678D01*
X11218481Y4563678D01*
G37*
X11218481Y4563678D02*
X11242192Y4528192D01*
X11382773Y4434259D01*
X11413904Y4428067D01*
X11220897Y4299103D01*
X10966724Y3918707D01*
X10889395Y3529946D01*
X2282900Y12136440D01*
X2282900Y13499260D01*
X11218481Y4563678D01*
G36*
X11036547Y20345000D02*
X5087992Y20345000D01*
X5083276Y20368707D01*
X4829103Y20749103D01*
X4448707Y21003276D01*
X4113261Y21070000D01*
X3886739Y21070000D01*
X3551293Y21003276D01*
X3211800Y20776434D01*
X3211800Y21603566D01*
X3551293Y21376724D01*
X3886739Y21310000D01*
X4113261Y21310000D01*
X4448707Y21376724D01*
X4829103Y21630897D01*
X5083276Y22011293D01*
X5087992Y22035000D01*
X9346548Y22035000D01*
X11036547Y20345000D01*
X11036547Y20345000D01*
G37*
X11036547Y20345000D02*
X5087992Y20345000D01*
X5083276Y20368707D01*
X4829103Y20749103D01*
X4448707Y21003276D01*
X4113261Y21070000D01*
X3886739Y21070000D01*
X3551293Y21003276D01*
X3211800Y20776434D01*
X3211800Y21603566D01*
X3551293Y21376724D01*
X3886739Y21310000D01*
X4113261Y21310000D01*
X4448707Y21376724D01*
X4829103Y21630897D01*
X5083276Y22011293D01*
X5087992Y22035000D01*
X9346548Y22035000D01*
X11036547Y20345000D01*
G04 #@! TD*
M02*
