G04 #@! TF.GenerationSoftware,KiCad,Pcbnew,(5.0.0)*
G04 #@! TF.CreationDate,2018-10-17T05:01:03+09:00*
G04 #@! TF.ProjectId,M5Stack_WiSUN,4D35537461636B5F576953554E2E6B69,rev?*
G04 #@! TF.SameCoordinates,PX989680PY55d4a80*
G04 #@! TF.FileFunction,Copper,L1,Top,Signal*
G04 #@! TF.FilePolarity,Positive*
%FSLAX46Y46*%
G04 Gerber Fmt 4.6, Leading zero omitted, Abs format (unit mm)*
G04 Created by KiCad (PCBNEW (5.0.0)) date 10/17/18 05:01:03*
%MOMM*%
%LPD*%
G01*
G04 APERTURE LIST*
G04 #@! TA.AperFunction,SMDPad,CuDef*
%ADD10R,0.740000X2.400000*%
G04 #@! TD*
G04 #@! TA.AperFunction,WasherPad*
%ADD11C,5.000000*%
G04 #@! TD*
G04 #@! TA.AperFunction,SMDPad,CuDef*
%ADD12R,0.400000X1.100000*%
G04 #@! TD*
G04 #@! TA.AperFunction,SMDPad,CuDef*
%ADD13R,0.300000X1.100000*%
G04 #@! TD*
G04 #@! TA.AperFunction,SMDPad,CuDef*
%ADD14R,3.150000X1.000000*%
G04 #@! TD*
G04 #@! TA.AperFunction,ComponentPad*
%ADD15C,4.000000*%
G04 #@! TD*
G04 #@! TA.AperFunction,ViaPad*
%ADD16C,0.800000*%
G04 #@! TD*
G04 #@! TA.AperFunction,Conductor*
%ADD17C,1.000000*%
G04 #@! TD*
G04 #@! TA.AperFunction,Conductor*
%ADD18C,0.300000*%
G04 #@! TD*
G04 #@! TA.AperFunction,Conductor*
%ADD19C,0.800000*%
G04 #@! TD*
G04 #@! TA.AperFunction,Conductor*
%ADD20C,0.400000*%
G04 #@! TD*
G04 #@! TA.AperFunction,Conductor*
%ADD21C,0.250000*%
G04 #@! TD*
G04 #@! TA.AperFunction,Conductor*
%ADD22C,0.200000*%
G04 #@! TD*
G04 APERTURE END LIST*
D10*
G04 #@! TO.P,J3,1*
G04 #@! TO.N,/BP35_RESET*
X27540000Y13025000D03*
G04 #@! TO.P,J3,2*
G04 #@! TO.N,/GPIO_G5*
X27540000Y9125000D03*
G04 #@! TO.P,J3,3*
G04 #@! TO.N,/BP35_RESET*
X26270000Y13025000D03*
G04 #@! TO.P,J3,4*
G04 #@! TO.N,/IIS_WS*
X26270000Y9125000D03*
G04 #@! TO.P,J3,5*
G04 #@! TO.N,/BP35_WKUP*
X25000000Y13025000D03*
G04 #@! TO.P,J3,6*
G04 #@! TO.N,/GPIO_G2*
X25000000Y9125000D03*
G04 #@! TO.P,J3,7*
G04 #@! TO.N,/BP35_WKUP*
X23730000Y13025000D03*
G04 #@! TO.P,J3,8*
G04 #@! TO.N,/IIS_SK*
X23730000Y9125000D03*
G04 #@! TD*
D11*
G04 #@! TO.P,U1,*
G04 #@! TO.N,*
X17800000Y19000000D03*
X32200000Y19000000D03*
D12*
G04 #@! TO.P,U1,11*
G04 #@! TO.N,+3V3*
X22700000Y20950000D03*
D13*
G04 #@! TO.P,U1,12*
G04 #@! TO.N,GND*
X23250000Y20950000D03*
G04 #@! TO.P,U1,13*
X23750000Y20950000D03*
G04 #@! TO.P,U1,14*
G04 #@! TO.N,/BP35_CTS*
X24250000Y20950000D03*
G04 #@! TO.P,U1,15*
G04 #@! TO.N,/BP35_RTS*
X24750000Y20950000D03*
G04 #@! TO.P,U1,16*
G04 #@! TO.N,Net-(U1-Pad16)*
X25250000Y20950000D03*
G04 #@! TO.P,U1,17*
G04 #@! TO.N,Net-(U1-Pad17)*
X25750000Y20950000D03*
G04 #@! TO.P,U1,18*
G04 #@! TO.N,Net-(U1-Pad18)*
X26250000Y20950000D03*
G04 #@! TO.P,U1,19*
G04 #@! TO.N,GND*
X26750000Y20950000D03*
D12*
G04 #@! TO.P,U1,20*
X27300000Y20950000D03*
G04 #@! TO.P,U1,1*
G04 #@! TO.N,+3V3*
X22700000Y17050000D03*
D13*
G04 #@! TO.P,U1,2*
G04 #@! TO.N,GND*
X23250000Y17050000D03*
G04 #@! TO.P,U1,3*
G04 #@! TO.N,/BP35_TXD*
X23750000Y17050000D03*
G04 #@! TO.P,U1,4*
G04 #@! TO.N,/BP35_RXD*
X24250000Y17050000D03*
G04 #@! TO.P,U1,5*
G04 #@! TO.N,/BP35_WKUP*
X24750000Y17050000D03*
G04 #@! TO.P,U1,6*
G04 #@! TO.N,/BP35_RESET*
X25250000Y17050000D03*
G04 #@! TO.P,U1,7*
G04 #@! TO.N,GND*
X25750000Y17050000D03*
G04 #@! TO.P,U1,8*
X26250000Y17050000D03*
G04 #@! TO.P,U1,9*
X26750000Y17050000D03*
D12*
G04 #@! TO.P,U1,10*
X27300000Y17050000D03*
G04 #@! TD*
D14*
G04 #@! TO.P,J1,1*
G04 #@! TO.N,/ADC_G35*
X41525000Y42780000D03*
G04 #@! TO.P,J1,2*
G04 #@! TO.N,GND*
X46575000Y42780000D03*
G04 #@! TO.P,J1,3*
G04 #@! TO.N,/ADC_G36*
X41525000Y40240000D03*
G04 #@! TO.P,J1,4*
G04 #@! TO.N,GND*
X46575000Y40240000D03*
G04 #@! TO.P,J1,5*
G04 #@! TO.N,/RST*
X41525000Y37700000D03*
G04 #@! TO.P,J1,6*
G04 #@! TO.N,GND*
X46575000Y37700000D03*
G04 #@! TO.P,J1,7*
G04 #@! TO.N,/DAC_SPK*
X41525000Y35160000D03*
G04 #@! TO.P,J1,8*
G04 #@! TO.N,/MOSI*
X46575000Y35160000D03*
G04 #@! TO.P,J1,9*
G04 #@! TO.N,/DAC*
X41525000Y32620000D03*
G04 #@! TO.P,J1,10*
G04 #@! TO.N,/MISO*
X46575000Y32620000D03*
G04 #@! TO.P,J1,11*
G04 #@! TO.N,+3V3*
X41525000Y30080000D03*
G04 #@! TO.P,J1,12*
G04 #@! TO.N,/SCK*
X46575000Y30080000D03*
G04 #@! TO.P,J1,13*
G04 #@! TO.N,/TXD0*
X41525000Y27540000D03*
G04 #@! TO.P,J1,14*
G04 #@! TO.N,/RXD0*
X46575000Y27540000D03*
G04 #@! TO.P,J1,15*
G04 #@! TO.N,/TXD2*
X41525000Y25000000D03*
G04 #@! TO.P,J1,16*
G04 #@! TO.N,/RXD2*
X46575000Y25000000D03*
G04 #@! TO.P,J1,17*
G04 #@! TO.N,/SCL*
X41525000Y22460000D03*
G04 #@! TO.P,J1,18*
G04 #@! TO.N,/SDA*
X46575000Y22460000D03*
G04 #@! TO.P,J1,19*
G04 #@! TO.N,/GPIO_G5*
X41525000Y19920000D03*
G04 #@! TO.P,J1,20*
G04 #@! TO.N,/GPIO_G2*
X46575000Y19920000D03*
G04 #@! TO.P,J1,21*
G04 #@! TO.N,/IIS_WS*
X41525000Y17380000D03*
G04 #@! TO.P,J1,22*
G04 #@! TO.N,/IIS_SK*
X46575000Y17380000D03*
G04 #@! TO.P,J1,23*
G04 #@! TO.N,/IIS_MK*
X41525000Y14840000D03*
G04 #@! TO.P,J1,24*
G04 #@! TO.N,/IIS_OUT*
X46575000Y14840000D03*
G04 #@! TO.P,J1,25*
G04 #@! TO.N,/IIS_IN*
X41525000Y12300000D03*
G04 #@! TO.P,J1,26*
G04 #@! TO.N,/HPWR*
X46575000Y12300000D03*
G04 #@! TO.P,J1,27*
G04 #@! TO.N,+5V*
X41525000Y9760000D03*
G04 #@! TO.P,J1,28*
G04 #@! TO.N,/HPWR*
X46575000Y9760000D03*
G04 #@! TO.P,J1,29*
G04 #@! TO.N,/BATTERY*
X41525000Y7220000D03*
G04 #@! TO.P,J1,30*
G04 #@! TO.N,/HPWR*
X46575000Y7220000D03*
G04 #@! TD*
D15*
G04 #@! TO.P,MH5,1*
G04 #@! TO.N,N/C*
X7000000Y3000000D03*
G04 #@! TD*
G04 #@! TO.P,MH6,1*
G04 #@! TO.N,N/C*
X43000000Y3000000D03*
G04 #@! TD*
G04 #@! TO.P,MH7,1*
G04 #@! TO.N,N/C*
X7000000Y47000000D03*
G04 #@! TD*
G04 #@! TO.P,MH8,1*
G04 #@! TO.N,N/C*
X43000000Y47000000D03*
G04 #@! TD*
D10*
G04 #@! TO.P,J4,1*
G04 #@! TO.N,/BP35_TXD*
X16110000Y13070000D03*
G04 #@! TO.P,J4,2*
G04 #@! TO.N,/RXD2*
X16110000Y9170000D03*
G04 #@! TO.P,J4,3*
G04 #@! TO.N,/BP35_TXD*
X14840000Y13070000D03*
G04 #@! TO.P,J4,4*
G04 #@! TO.N,/GPIO_G2*
X14840000Y9170000D03*
G04 #@! TO.P,J4,5*
G04 #@! TO.N,/BP35_TXD*
X13570000Y13070000D03*
G04 #@! TO.P,J4,6*
G04 #@! TO.N,/IIS_SK*
X13570000Y9170000D03*
G04 #@! TD*
G04 #@! TO.P,J5,6*
G04 #@! TO.N,/IIS_WS*
X18650000Y9125000D03*
G04 #@! TO.P,J5,5*
G04 #@! TO.N,/BP35_RXD*
X18650000Y13025000D03*
G04 #@! TO.P,J5,4*
G04 #@! TO.N,/GPIO_G5*
X19920000Y9125000D03*
G04 #@! TO.P,J5,3*
G04 #@! TO.N,/BP35_RXD*
X19920000Y13025000D03*
G04 #@! TO.P,J5,2*
G04 #@! TO.N,/TXD2*
X21190000Y9125000D03*
G04 #@! TO.P,J5,1*
G04 #@! TO.N,/BP35_RXD*
X21190000Y13025000D03*
G04 #@! TD*
G04 #@! TO.P,J6,8*
G04 #@! TO.N,/IIS_OUT*
X30080000Y9125000D03*
G04 #@! TO.P,J6,7*
G04 #@! TO.N,/BP35_CTS*
X30080000Y13025000D03*
G04 #@! TO.P,J6,6*
G04 #@! TO.N,/IIS_SK*
X31350000Y9125000D03*
G04 #@! TO.P,J6,5*
G04 #@! TO.N,/BP35_CTS*
X31350000Y13025000D03*
G04 #@! TO.P,J6,4*
G04 #@! TO.N,/IIS_MK*
X32620000Y9125000D03*
G04 #@! TO.P,J6,3*
G04 #@! TO.N,/BP35_RTS*
X32620000Y13025000D03*
G04 #@! TO.P,J6,2*
G04 #@! TO.N,/IIS_WS*
X33890000Y9125000D03*
G04 #@! TO.P,J6,1*
G04 #@! TO.N,/BP35_RTS*
X33890000Y13025000D03*
G04 #@! TD*
D16*
G04 #@! TO.N,GND*
X46590000Y41510000D03*
X46590000Y38970000D03*
X23500000Y19750000D03*
X23500000Y22150000D03*
X23250000Y18350000D03*
X25750000Y18350000D03*
X5000000Y40000000D03*
X10000000Y40000000D03*
X10000000Y45000000D03*
X10000000Y35000000D03*
X5000000Y35000000D03*
X5000000Y30000000D03*
X10000000Y30000000D03*
X10000000Y25000000D03*
X5000000Y25000000D03*
X10000000Y20000000D03*
X10000000Y15000000D03*
X10000000Y10000000D03*
X10000000Y5000000D03*
X15000000Y35000000D03*
X20000000Y35000000D03*
X25000000Y35000000D03*
X30000000Y35000000D03*
X35000000Y35000000D03*
X30000000Y30000000D03*
X25000000Y30000000D03*
X20000000Y30000000D03*
X15000000Y30000000D03*
X15000000Y25000000D03*
X20000000Y25000000D03*
X25000000Y25000000D03*
X30000000Y25000000D03*
X35000000Y30000000D03*
X35000000Y25000000D03*
X37500000Y32500000D03*
X37500000Y37500000D03*
X37500000Y42500000D03*
X37500000Y47500000D03*
X12500000Y47500000D03*
X12500000Y42500000D03*
X12500000Y37500000D03*
X2500000Y42500000D03*
X2500000Y37500000D03*
X2500000Y32500000D03*
X2500000Y27500000D03*
X2500000Y7500000D03*
X7500000Y7500000D03*
X12500000Y2500000D03*
X49130000Y8490000D03*
X49130000Y13570000D03*
X49130000Y18650000D03*
X49130000Y23730000D03*
X49130000Y28810000D03*
X49130000Y33890000D03*
X49130000Y38970000D03*
X49130000Y44050000D03*
G04 #@! TO.N,+3V3*
X38970000Y30080000D03*
X22714000Y22968000D03*
G04 #@! TO.N,/HPWR*
X46590000Y11030000D03*
X46590000Y8490000D03*
G04 #@! TO.N,/BATTERY*
X44050000Y7220000D03*
G04 #@! TO.N,+5V*
X44050000Y9760000D03*
G04 #@! TO.N,/IIS_IN*
X44050000Y12300000D03*
G04 #@! TO.N,/IIS_OUT*
X46590000Y13570000D03*
X30080000Y1378000D03*
G04 #@! TO.N,/IIS_MK*
X38970000Y14840000D03*
X32620000Y3180000D03*
G04 #@! TO.N,/IIS_SK*
X44050000Y16110000D03*
X13570000Y4045000D03*
X23730000Y2140000D03*
X31350000Y2140000D03*
G04 #@! TO.N,/IIS_WS*
X38970000Y17380000D03*
X18650000Y3930000D03*
X26270000Y3930000D03*
X33890000Y3930000D03*
G04 #@! TO.N,/GPIO_G2*
X44050000Y18695000D03*
X14840000Y4680000D03*
X25000000Y4680000D03*
G04 #@! TO.N,/GPIO_G5*
X38970000Y19920000D03*
X19920000Y5430000D03*
X27540000Y5430000D03*
G04 #@! TO.N,/SDA*
X44050000Y22460000D03*
G04 #@! TO.N,/SCL*
X44050000Y23730000D03*
G04 #@! TO.N,/RXD2*
X44050000Y25000000D03*
X16110000Y7220000D03*
G04 #@! TO.N,/TXD2*
X38970000Y25000000D03*
X21190000Y6180000D03*
G04 #@! TO.N,/RXD0*
X44050000Y27540000D03*
G04 #@! TO.N,/TXD0*
X44050000Y28810000D03*
G04 #@! TO.N,/SCK*
X44050000Y30080000D03*
G04 #@! TO.N,/MISO*
X44050000Y32620000D03*
G04 #@! TO.N,/DAC*
X44050000Y33890000D03*
G04 #@! TO.N,/MOSI*
X44050000Y35160000D03*
G04 #@! TO.N,/DAC_SPK*
X44050000Y36430000D03*
G04 #@! TO.N,/RST*
X44050000Y37700000D03*
G04 #@! TO.N,/ADC_G36*
X44050000Y40240000D03*
G04 #@! TO.N,/ADC_G35*
X44050000Y42780000D03*
G04 #@! TD*
D17*
G04 #@! TO.N,GND*
X46575000Y42780000D02*
X46575000Y41525000D01*
X46575000Y41525000D02*
X46590000Y41510000D01*
X46590000Y37715000D02*
X46575000Y37700000D01*
X46590000Y38970000D02*
X46590000Y37715000D01*
X46590000Y40225000D02*
X46575000Y40240000D01*
X46590000Y38970000D02*
X46590000Y40225000D01*
X46590000Y40255000D02*
X46575000Y40240000D01*
X46590000Y41510000D02*
X46590000Y40255000D01*
D18*
X23250000Y20950000D02*
X23250000Y20000000D01*
X23250000Y20000000D02*
X23500000Y19750000D01*
X23750000Y20000000D02*
X23500000Y19750000D01*
X23750000Y20950000D02*
X23750000Y20000000D01*
X23250000Y20950000D02*
X23250000Y21900000D01*
X23250000Y21900000D02*
X23500000Y22150000D01*
X23750000Y21900000D02*
X23500000Y22150000D01*
X23750000Y20950000D02*
X23750000Y21900000D01*
X23250000Y17050000D02*
X23250000Y18350000D01*
X25750000Y17050000D02*
X25750000Y18350000D01*
X26900000Y18350000D02*
X25750000Y18350000D01*
X27300000Y17050000D02*
X27300000Y17950000D01*
X27300000Y17950000D02*
X26900000Y18350000D01*
D19*
G04 #@! TO.N,+3V3*
X41525000Y30080000D02*
X38970000Y30080000D01*
D20*
X22100000Y20950000D02*
X22700000Y20950000D01*
X21317000Y20167000D02*
X22100000Y20950000D01*
X21317000Y17833000D02*
X21317000Y20167000D01*
X22100000Y17050000D02*
X21317000Y17833000D01*
X22700000Y17050000D02*
X22100000Y17050000D01*
X22700000Y22954000D02*
X22714000Y22968000D01*
X22700000Y20950000D02*
X22700000Y22954000D01*
D17*
G04 #@! TO.N,/HPWR*
X46575000Y12300000D02*
X46575000Y11045000D01*
X46575000Y11045000D02*
X46590000Y11030000D01*
X46590000Y7235000D02*
X46575000Y7220000D01*
X46590000Y8490000D02*
X46590000Y7235000D01*
X46590000Y9745000D02*
X46575000Y9760000D01*
X46590000Y8490000D02*
X46590000Y9745000D01*
X46575000Y11015000D02*
X46590000Y11030000D01*
X46575000Y9760000D02*
X46575000Y11015000D01*
G04 #@! TO.N,/BATTERY*
X44050000Y7220000D02*
X41525000Y7220000D01*
G04 #@! TO.N,+5V*
X41525000Y9760000D02*
X44050000Y9760000D01*
D21*
G04 #@! TO.N,/IIS_IN*
X41525000Y12300000D02*
X44050000Y12300000D01*
G04 #@! TO.N,/IIS_OUT*
X46575000Y14840000D02*
X46575000Y13585000D01*
X46575000Y13585000D02*
X46590000Y13570000D01*
D18*
X30080000Y1378000D02*
X30080000Y9125000D01*
G04 #@! TO.N,/IIS_MK*
X38970000Y14840000D02*
X41525000Y14840000D01*
X32620000Y3180000D02*
X32620000Y9125000D01*
G04 #@! TO.N,/IIS_SK*
X44230000Y16110000D02*
X44050000Y16110000D01*
X46575000Y17380000D02*
X45500000Y17380000D01*
X45500000Y17380000D02*
X44230000Y16110000D01*
X13570000Y4045000D02*
X13570000Y9170000D01*
X23730000Y9125000D02*
X23730000Y2140000D01*
X31350000Y9125000D02*
X31350000Y2140000D01*
G04 #@! TO.N,/IIS_WS*
X38970000Y17380000D02*
X41525000Y17380000D01*
X18650000Y3930000D02*
X18650000Y9125000D01*
X26270000Y9125000D02*
X26270000Y3930000D01*
X33890000Y9125000D02*
X33890000Y3930000D01*
G04 #@! TO.N,/GPIO_G2*
X44449999Y19094999D02*
X44050000Y18695000D01*
X45275000Y19920000D02*
X44449999Y19094999D01*
X46575000Y19920000D02*
X45275000Y19920000D01*
X14840000Y4680000D02*
X14840000Y9170000D01*
X25000000Y9125000D02*
X25000000Y4680000D01*
G04 #@! TO.N,/GPIO_G5*
X41525000Y19920000D02*
X38970000Y19920000D01*
X19920000Y5430000D02*
X19920000Y9125000D01*
X27540000Y9125000D02*
X27540000Y5430000D01*
G04 #@! TO.N,/SDA*
X44050000Y22460000D02*
X46575000Y22460000D01*
G04 #@! TO.N,/SCL*
X41525000Y22460000D02*
X42780000Y22460000D01*
X42780000Y22460000D02*
X44050000Y23730000D01*
G04 #@! TO.N,/RXD2*
X44050000Y25000000D02*
X46575000Y25000000D01*
X16110000Y7220000D02*
X16110000Y9170000D01*
G04 #@! TO.N,/TXD2*
X41525000Y25000000D02*
X38970000Y25000000D01*
X21190000Y6180000D02*
X21190000Y9125000D01*
G04 #@! TO.N,/RXD0*
X44050000Y27540000D02*
X46575000Y27540000D01*
G04 #@! TO.N,/TXD0*
X41525000Y27540000D02*
X42780000Y27540000D01*
X42780000Y27540000D02*
X44050000Y28810000D01*
G04 #@! TO.N,/SCK*
X44050000Y30080000D02*
X46575000Y30080000D01*
G04 #@! TO.N,/MISO*
X46575000Y32620000D02*
X44050000Y32620000D01*
G04 #@! TO.N,/DAC*
X42780000Y32620000D02*
X41525000Y32620000D01*
X44050000Y33890000D02*
X42780000Y32620000D01*
G04 #@! TO.N,/MOSI*
X46575000Y35160000D02*
X44050000Y35160000D01*
G04 #@! TO.N,/DAC_SPK*
X42780000Y35160000D02*
X41525000Y35160000D01*
X44050000Y36430000D02*
X42780000Y35160000D01*
G04 #@! TO.N,/RST*
X41525000Y37700000D02*
X44050000Y37700000D01*
G04 #@! TO.N,/ADC_G36*
X44050000Y40240000D02*
X41525000Y40240000D01*
G04 #@! TO.N,/ADC_G35*
X41525000Y42780000D02*
X44050000Y42780000D01*
D21*
G04 #@! TO.N,/BP35_TXD*
X13570000Y13900000D02*
X13570000Y14885000D01*
X13570000Y13070000D02*
X13570000Y13900000D01*
X23750000Y16264998D02*
X23640002Y16155000D01*
X23750000Y17050000D02*
X23750000Y16264998D01*
X23640002Y16155000D02*
X23095000Y16155000D01*
X16110000Y13070000D02*
X16110000Y16155000D01*
X14840000Y16155000D02*
X16110000Y16155000D01*
X16110000Y16155000D02*
X23095000Y16155000D01*
X14840000Y13070000D02*
X14840000Y16155000D01*
X13570000Y14885000D02*
X13570000Y15520000D01*
X13570000Y15520000D02*
X14205000Y16155000D01*
X14205000Y16155000D02*
X14840000Y16155000D01*
G04 #@! TO.N,/BP35_RXD*
X18650000Y14885000D02*
X19285000Y15520000D01*
X18650000Y13025000D02*
X18650000Y14885000D01*
X21190000Y13025000D02*
X21190000Y15520000D01*
X19920000Y13025000D02*
X19920000Y15520000D01*
X19285000Y15520000D02*
X19920000Y15520000D01*
X19920000Y15520000D02*
X21190000Y15520000D01*
X21190000Y15520000D02*
X23641413Y15520000D01*
X23641413Y15520000D02*
X24250000Y16128587D01*
X24250000Y16250000D02*
X24250000Y17050000D01*
X24250000Y16128587D02*
X24250000Y16250000D01*
G04 #@! TO.N,/BP35_RESET*
X26270000Y13025000D02*
X26270000Y14885000D01*
X25250000Y15905000D02*
X25250000Y17050000D01*
X26270000Y14885000D02*
X25250000Y15905000D01*
X27540000Y14631000D02*
X27540000Y13025000D01*
X26270000Y14885000D02*
X27286000Y14885000D01*
X27286000Y14885000D02*
X27540000Y14631000D01*
G04 #@! TO.N,/BP35_WKUP*
X24750000Y15135000D02*
X24750000Y17050000D01*
X25000000Y13025000D02*
X25000000Y14885000D01*
X25000000Y14885000D02*
X24750000Y15135000D01*
X24750000Y15135000D02*
X23980000Y15135000D01*
X23730000Y14885000D02*
X23730000Y13025000D01*
X23980000Y15135000D02*
X23730000Y14885000D01*
G04 #@! TO.N,/BP35_RTS*
X33890000Y14620000D02*
X33890000Y13025000D01*
X33289000Y15221000D02*
X33890000Y14620000D01*
X31223000Y15983000D02*
X31985000Y15221000D01*
X30461000Y15983000D02*
X31223000Y15983000D01*
X24750000Y20164998D02*
X24839999Y20074999D01*
X24750000Y20950000D02*
X24750000Y20164998D01*
X24839999Y20074999D02*
X28401001Y20074999D01*
X28401001Y20074999D02*
X29191000Y19285000D01*
X29191000Y19285000D02*
X29191000Y17253000D01*
X29191000Y17253000D02*
X30461000Y15983000D01*
X32620000Y13025000D02*
X32620000Y15221000D01*
X31985000Y15221000D02*
X32620000Y15221000D01*
X32620000Y15221000D02*
X33289000Y15221000D01*
G04 #@! TO.N,/BP35_CTS*
X31350000Y13990000D02*
X31350000Y13570000D01*
X31350000Y14967000D02*
X31350000Y13025000D01*
X31096000Y15221000D02*
X31350000Y14967000D01*
X30080000Y15221000D02*
X31096000Y15221000D01*
X30080000Y13025000D02*
X30080000Y15221000D01*
X24250000Y20028587D02*
X24250000Y20950000D01*
X24653599Y19624988D02*
X24250000Y20028587D01*
X28152512Y19624988D02*
X24653599Y19624988D01*
X28683000Y19094500D02*
X28152512Y19624988D01*
X30080000Y15221000D02*
X28683000Y16618000D01*
X28683000Y16618000D02*
X28683000Y19094500D01*
G04 #@! TD*
D20*
G04 #@! TO.N,GND*
G36*
X13800000Y37500000D02*
X13815224Y37423463D01*
X13858579Y37358579D01*
X13923463Y37315224D01*
X14000000Y37300000D01*
X36000000Y37300000D01*
X36076537Y37315224D01*
X36141421Y37358579D01*
X36184776Y37423463D01*
X36200000Y37500000D01*
X36200000Y43280000D01*
X39542164Y43280000D01*
X39542164Y42280000D01*
X39573209Y42123928D01*
X39661616Y41991616D01*
X39793928Y41903209D01*
X39950000Y41872164D01*
X43100000Y41872164D01*
X43237162Y41899447D01*
X43150000Y41689021D01*
X43150000Y41330979D01*
X43237162Y41120553D01*
X43100000Y41147836D01*
X39950000Y41147836D01*
X39793928Y41116791D01*
X39661616Y41028384D01*
X39573209Y40896072D01*
X39542164Y40740000D01*
X39542164Y39740000D01*
X39573209Y39583928D01*
X39661616Y39451616D01*
X39793928Y39363209D01*
X39950000Y39332164D01*
X43100000Y39332164D01*
X43256072Y39363209D01*
X43388384Y39451616D01*
X43476791Y39583928D01*
X43493035Y39665594D01*
X43553629Y39605000D01*
X43371793Y39423164D01*
X43250000Y39129130D01*
X43250000Y38810870D01*
X43371793Y38516836D01*
X43553629Y38335000D01*
X43493035Y38274406D01*
X43476791Y38356072D01*
X43388384Y38488384D01*
X43256072Y38576791D01*
X43100000Y38607836D01*
X39950000Y38607836D01*
X39793928Y38576791D01*
X39661616Y38488384D01*
X39573209Y38356072D01*
X39542164Y38200000D01*
X39542164Y37200000D01*
X39573209Y37043928D01*
X39661616Y36911616D01*
X39793928Y36823209D01*
X39950000Y36792164D01*
X43100000Y36792164D01*
X43256072Y36823209D01*
X43388384Y36911616D01*
X43476791Y37043928D01*
X43493035Y37125594D01*
X43553629Y37065000D01*
X43371793Y36883164D01*
X43250000Y36589130D01*
X43250000Y36407817D01*
X42910020Y36067836D01*
X39950000Y36067836D01*
X39793928Y36036791D01*
X39661616Y35948384D01*
X39573209Y35816072D01*
X39542164Y35660000D01*
X39542164Y34660000D01*
X39573209Y34503928D01*
X39661616Y34371616D01*
X39793928Y34283209D01*
X39950000Y34252164D01*
X43100000Y34252164D01*
X43256072Y34283209D01*
X43388384Y34371616D01*
X43476791Y34503928D01*
X43493035Y34585594D01*
X43553629Y34525000D01*
X43371793Y34343164D01*
X43250000Y34049130D01*
X43250000Y33867817D01*
X42910020Y33527836D01*
X39950000Y33527836D01*
X39793928Y33496791D01*
X39661616Y33408384D01*
X39573209Y33276072D01*
X39542164Y33120000D01*
X39542164Y32120000D01*
X39573209Y31963928D01*
X39661616Y31831616D01*
X39793928Y31743209D01*
X39950000Y31712164D01*
X43100000Y31712164D01*
X43256072Y31743209D01*
X43388384Y31831616D01*
X43476791Y31963928D01*
X43493035Y32045594D01*
X43596836Y31941793D01*
X43890870Y31820000D01*
X44209130Y31820000D01*
X44503164Y31941793D01*
X44606965Y32045594D01*
X44623209Y31963928D01*
X44711616Y31831616D01*
X44843928Y31743209D01*
X45000000Y31712164D01*
X48150000Y31712164D01*
X48306072Y31743209D01*
X48438384Y31831616D01*
X48526791Y31963928D01*
X48557836Y32120000D01*
X48557836Y33120000D01*
X48526791Y33276072D01*
X48438384Y33408384D01*
X48306072Y33496791D01*
X48150000Y33527836D01*
X45000000Y33527836D01*
X44843928Y33496791D01*
X44711616Y33408384D01*
X44623209Y33276072D01*
X44606965Y33194406D01*
X44546371Y33255000D01*
X44728207Y33436836D01*
X44850000Y33730870D01*
X44850000Y34049130D01*
X44728207Y34343164D01*
X44546371Y34525000D01*
X44606965Y34585594D01*
X44623209Y34503928D01*
X44711616Y34371616D01*
X44843928Y34283209D01*
X45000000Y34252164D01*
X48150000Y34252164D01*
X48306072Y34283209D01*
X48438384Y34371616D01*
X48526791Y34503928D01*
X48557836Y34660000D01*
X48557836Y35660000D01*
X48526791Y35816072D01*
X48438384Y35948384D01*
X48306072Y36036791D01*
X48150000Y36067836D01*
X45000000Y36067836D01*
X44843928Y36036791D01*
X44711616Y35948384D01*
X44623209Y35816072D01*
X44606965Y35734406D01*
X44546371Y35795000D01*
X44728207Y35976836D01*
X44850000Y36270870D01*
X44850000Y36589130D01*
X44838217Y36617578D01*
X44880653Y36600000D01*
X46375000Y36600000D01*
X46525000Y36750000D01*
X46525000Y37650000D01*
X46625000Y37650000D01*
X46625000Y36750000D01*
X46775000Y36600000D01*
X48269347Y36600000D01*
X48489872Y36691344D01*
X48658655Y36860127D01*
X48750000Y37080652D01*
X48750000Y37500000D01*
X48600000Y37650000D01*
X46625000Y37650000D01*
X46525000Y37650000D01*
X46505000Y37650000D01*
X46505000Y37750000D01*
X46525000Y37750000D01*
X46525000Y38650000D01*
X46625000Y38650000D01*
X46625000Y37750000D01*
X48600000Y37750000D01*
X48750000Y37900000D01*
X48750000Y38319348D01*
X48658655Y38539873D01*
X48489872Y38708656D01*
X48269347Y38800000D01*
X46775000Y38800000D01*
X46625000Y38650000D01*
X46525000Y38650000D01*
X46375000Y38800000D01*
X44880653Y38800000D01*
X44838217Y38782422D01*
X44850000Y38810870D01*
X44850000Y39129130D01*
X44838217Y39157578D01*
X44880653Y39140000D01*
X46375000Y39140000D01*
X46525000Y39290000D01*
X46525000Y40190000D01*
X46625000Y40190000D01*
X46625000Y39290000D01*
X46775000Y39140000D01*
X48269347Y39140000D01*
X48489872Y39231344D01*
X48658655Y39400127D01*
X48750000Y39620652D01*
X48750000Y40040000D01*
X48600000Y40190000D01*
X46625000Y40190000D01*
X46525000Y40190000D01*
X46505000Y40190000D01*
X46505000Y40290000D01*
X46525000Y40290000D01*
X46525000Y41190000D01*
X46625000Y41190000D01*
X46625000Y40290000D01*
X48600000Y40290000D01*
X48750000Y40440000D01*
X48750000Y40859348D01*
X48658655Y41079873D01*
X48489872Y41248656D01*
X48269347Y41340000D01*
X46775000Y41340000D01*
X46625000Y41190000D01*
X46525000Y41190000D01*
X46375000Y41340000D01*
X44950000Y41340000D01*
X44950000Y41680000D01*
X46375000Y41680000D01*
X46525000Y41830000D01*
X46525000Y42730000D01*
X46625000Y42730000D01*
X46625000Y41830000D01*
X46775000Y41680000D01*
X48269347Y41680000D01*
X48489872Y41771344D01*
X48658655Y41940127D01*
X48750000Y42160652D01*
X48750000Y42580000D01*
X48600000Y42730000D01*
X46625000Y42730000D01*
X46525000Y42730000D01*
X46505000Y42730000D01*
X46505000Y42830000D01*
X46525000Y42830000D01*
X46525000Y43730000D01*
X46625000Y43730000D01*
X46625000Y42830000D01*
X48600000Y42830000D01*
X48750000Y42980000D01*
X48750000Y43399348D01*
X48658655Y43619873D01*
X48489872Y43788656D01*
X48269347Y43880000D01*
X46775000Y43880000D01*
X46625000Y43730000D01*
X46525000Y43730000D01*
X46375000Y43880000D01*
X44880653Y43880000D01*
X44660128Y43788656D01*
X44491345Y43619873D01*
X44435918Y43486061D01*
X44209130Y43580000D01*
X43890870Y43580000D01*
X43596836Y43458207D01*
X43493035Y43354406D01*
X43476791Y43436072D01*
X43388384Y43568384D01*
X43256072Y43656791D01*
X43100000Y43687836D01*
X39950000Y43687836D01*
X39793928Y43656791D01*
X39661616Y43568384D01*
X39573209Y43436072D01*
X39542164Y43280000D01*
X36200000Y43280000D01*
X36200000Y47477390D01*
X40600000Y47477390D01*
X40600000Y46522610D01*
X40965378Y45640509D01*
X41640509Y44965378D01*
X42522610Y44600000D01*
X43477390Y44600000D01*
X44359491Y44965378D01*
X45034622Y45640509D01*
X45270598Y46210207D01*
X45389258Y45923737D01*
X45923737Y45389258D01*
X46622067Y45100000D01*
X47377933Y45100000D01*
X48076263Y45389258D01*
X48610742Y45923737D01*
X48900000Y46622067D01*
X48900000Y47377933D01*
X48610742Y48076263D01*
X48076263Y48610742D01*
X47377933Y48900000D01*
X46622067Y48900000D01*
X45923737Y48610742D01*
X45389258Y48076263D01*
X45270598Y47789793D01*
X45034622Y48359491D01*
X44359491Y49034622D01*
X43477390Y49400000D01*
X42522610Y49400000D01*
X41640509Y49034622D01*
X40965378Y48359491D01*
X40600000Y47477390D01*
X36200000Y47477390D01*
X36200000Y49525000D01*
X47192158Y49525000D01*
X49525001Y47192157D01*
X49525000Y2807842D01*
X47192158Y475000D01*
X2807842Y475000D01*
X475000Y2807842D01*
X475000Y3377933D01*
X1100000Y3377933D01*
X1100000Y2622067D01*
X1389258Y1923737D01*
X1923737Y1389258D01*
X2622067Y1100000D01*
X3377933Y1100000D01*
X4076263Y1389258D01*
X4610742Y1923737D01*
X4729402Y2210207D01*
X4965378Y1640509D01*
X5640509Y965378D01*
X6522610Y600000D01*
X7477390Y600000D01*
X8359491Y965378D01*
X9034622Y1640509D01*
X9307431Y2299130D01*
X22930000Y2299130D01*
X22930000Y1980870D01*
X23051793Y1686836D01*
X23276836Y1461793D01*
X23570870Y1340000D01*
X23889130Y1340000D01*
X24183164Y1461793D01*
X24258501Y1537130D01*
X29280000Y1537130D01*
X29280000Y1218870D01*
X29401793Y924836D01*
X29626836Y699793D01*
X29920870Y578000D01*
X30239130Y578000D01*
X30533164Y699793D01*
X30758207Y924836D01*
X30880000Y1218870D01*
X30880000Y1478629D01*
X30896836Y1461793D01*
X31190870Y1340000D01*
X31509130Y1340000D01*
X31803164Y1461793D01*
X32028207Y1686836D01*
X32150000Y1980870D01*
X32150000Y2299130D01*
X32028207Y2593164D01*
X31900000Y2721371D01*
X31900000Y2827733D01*
X31941793Y2726836D01*
X32166836Y2501793D01*
X32460870Y2380000D01*
X32779130Y2380000D01*
X33073164Y2501793D01*
X33298207Y2726836D01*
X33420000Y3020870D01*
X33420000Y3268629D01*
X33436836Y3251793D01*
X33730870Y3130000D01*
X34049130Y3130000D01*
X34343164Y3251793D01*
X34568207Y3476836D01*
X34568436Y3477390D01*
X40600000Y3477390D01*
X40600000Y2522610D01*
X40965378Y1640509D01*
X41640509Y965378D01*
X42522610Y600000D01*
X43477390Y600000D01*
X44359491Y965378D01*
X45034622Y1640509D01*
X45270598Y2210207D01*
X45389258Y1923737D01*
X45923737Y1389258D01*
X46622067Y1100000D01*
X47377933Y1100000D01*
X48076263Y1389258D01*
X48610742Y1923737D01*
X48900000Y2622067D01*
X48900000Y3377933D01*
X48610742Y4076263D01*
X48076263Y4610742D01*
X47377933Y4900000D01*
X46622067Y4900000D01*
X45923737Y4610742D01*
X45389258Y4076263D01*
X45270598Y3789793D01*
X45034622Y4359491D01*
X44359491Y5034622D01*
X43477390Y5400000D01*
X42522610Y5400000D01*
X41640509Y5034622D01*
X40965378Y4359491D01*
X40600000Y3477390D01*
X34568436Y3477390D01*
X34690000Y3770870D01*
X34690000Y4089130D01*
X34568207Y4383164D01*
X34440000Y4511371D01*
X34440000Y7564197D01*
X34548384Y7636616D01*
X34636791Y7768928D01*
X34667836Y7925000D01*
X34667836Y10325000D01*
X34636791Y10481072D01*
X34548384Y10613384D01*
X34416072Y10701791D01*
X34260000Y10732836D01*
X33520000Y10732836D01*
X33363928Y10701791D01*
X33255000Y10629009D01*
X33146072Y10701791D01*
X32990000Y10732836D01*
X32250000Y10732836D01*
X32093928Y10701791D01*
X31985000Y10629009D01*
X31876072Y10701791D01*
X31720000Y10732836D01*
X30980000Y10732836D01*
X30823928Y10701791D01*
X30715000Y10629009D01*
X30606072Y10701791D01*
X30450000Y10732836D01*
X29710000Y10732836D01*
X29553928Y10701791D01*
X29421616Y10613384D01*
X29333209Y10481072D01*
X29302164Y10325000D01*
X29302164Y7925000D01*
X29333209Y7768928D01*
X29421616Y7636616D01*
X29530001Y7564196D01*
X29530000Y1959371D01*
X29401793Y1831164D01*
X29280000Y1537130D01*
X24258501Y1537130D01*
X24408207Y1686836D01*
X24530000Y1980870D01*
X24530000Y2299130D01*
X24408207Y2593164D01*
X24280000Y2721371D01*
X24280000Y4327733D01*
X24321793Y4226836D01*
X24546836Y4001793D01*
X24840870Y3880000D01*
X25159130Y3880000D01*
X25453164Y4001793D01*
X25470000Y4018629D01*
X25470000Y3770870D01*
X25591793Y3476836D01*
X25816836Y3251793D01*
X26110870Y3130000D01*
X26429130Y3130000D01*
X26723164Y3251793D01*
X26948207Y3476836D01*
X27070000Y3770870D01*
X27070000Y4089130D01*
X26948207Y4383164D01*
X26820000Y4511371D01*
X26820000Y5077733D01*
X26861793Y4976836D01*
X27086836Y4751793D01*
X27380870Y4630000D01*
X27699130Y4630000D01*
X27993164Y4751793D01*
X28218207Y4976836D01*
X28340000Y5270870D01*
X28340000Y5589130D01*
X28218207Y5883164D01*
X28090000Y6011371D01*
X28090000Y7564197D01*
X28198384Y7636616D01*
X28286791Y7768928D01*
X28317836Y7925000D01*
X28317836Y10325000D01*
X28286791Y10481072D01*
X28198384Y10613384D01*
X28066072Y10701791D01*
X27910000Y10732836D01*
X27170000Y10732836D01*
X27013928Y10701791D01*
X26905000Y10629009D01*
X26796072Y10701791D01*
X26640000Y10732836D01*
X25900000Y10732836D01*
X25743928Y10701791D01*
X25635000Y10629009D01*
X25526072Y10701791D01*
X25370000Y10732836D01*
X24630000Y10732836D01*
X24473928Y10701791D01*
X24365000Y10629009D01*
X24256072Y10701791D01*
X24100000Y10732836D01*
X23360000Y10732836D01*
X23203928Y10701791D01*
X23071616Y10613384D01*
X22983209Y10481072D01*
X22952164Y10325000D01*
X22952164Y7925000D01*
X22983209Y7768928D01*
X23071616Y7636616D01*
X23180000Y7564197D01*
X23180001Y2721372D01*
X23051793Y2593164D01*
X22930000Y2299130D01*
X9307431Y2299130D01*
X9400000Y2522610D01*
X9400000Y3477390D01*
X9098975Y4204130D01*
X12770000Y4204130D01*
X12770000Y3885870D01*
X12891793Y3591836D01*
X13116836Y3366793D01*
X13410870Y3245000D01*
X13729130Y3245000D01*
X14023164Y3366793D01*
X14248207Y3591836D01*
X14370000Y3885870D01*
X14370000Y4018629D01*
X14386836Y4001793D01*
X14680870Y3880000D01*
X14999130Y3880000D01*
X15293164Y4001793D01*
X15380501Y4089130D01*
X17850000Y4089130D01*
X17850000Y3770870D01*
X17971793Y3476836D01*
X18196836Y3251793D01*
X18490870Y3130000D01*
X18809130Y3130000D01*
X19103164Y3251793D01*
X19328207Y3476836D01*
X19450000Y3770870D01*
X19450000Y4089130D01*
X19328207Y4383164D01*
X19200000Y4511371D01*
X19200000Y5077733D01*
X19241793Y4976836D01*
X19466836Y4751793D01*
X19760870Y4630000D01*
X20079130Y4630000D01*
X20373164Y4751793D01*
X20598207Y4976836D01*
X20720000Y5270870D01*
X20720000Y5518629D01*
X20736836Y5501793D01*
X21030870Y5380000D01*
X21349130Y5380000D01*
X21643164Y5501793D01*
X21868207Y5726836D01*
X21990000Y6020870D01*
X21990000Y6339130D01*
X21868207Y6633164D01*
X21740000Y6761371D01*
X21740000Y7564197D01*
X21848384Y7636616D01*
X21936791Y7768928D01*
X21967836Y7925000D01*
X21967836Y10325000D01*
X21936791Y10481072D01*
X21848384Y10613384D01*
X21716072Y10701791D01*
X21560000Y10732836D01*
X20820000Y10732836D01*
X20663928Y10701791D01*
X20555000Y10629009D01*
X20446072Y10701791D01*
X20290000Y10732836D01*
X19550000Y10732836D01*
X19393928Y10701791D01*
X19285000Y10629009D01*
X19176072Y10701791D01*
X19020000Y10732836D01*
X18280000Y10732836D01*
X18123928Y10701791D01*
X17991616Y10613384D01*
X17903209Y10481072D01*
X17872164Y10325000D01*
X17872164Y7925000D01*
X17903209Y7768928D01*
X17991616Y7636616D01*
X18100001Y7564197D01*
X18100000Y4511371D01*
X17971793Y4383164D01*
X17850000Y4089130D01*
X15380501Y4089130D01*
X15518207Y4226836D01*
X15640000Y4520870D01*
X15640000Y4839130D01*
X15518207Y5133164D01*
X15390000Y5261371D01*
X15390000Y6867733D01*
X15431793Y6766836D01*
X15656836Y6541793D01*
X15950870Y6420000D01*
X16269130Y6420000D01*
X16563164Y6541793D01*
X16788207Y6766836D01*
X16910000Y7060870D01*
X16910000Y7379130D01*
X16788207Y7673164D01*
X16772939Y7688432D01*
X16856791Y7813928D01*
X16887836Y7970000D01*
X16887836Y10370000D01*
X16856791Y10526072D01*
X16768384Y10658384D01*
X16636072Y10746791D01*
X16480000Y10777836D01*
X15740000Y10777836D01*
X15583928Y10746791D01*
X15475000Y10674009D01*
X15366072Y10746791D01*
X15210000Y10777836D01*
X14470000Y10777836D01*
X14313928Y10746791D01*
X14205000Y10674009D01*
X14096072Y10746791D01*
X13940000Y10777836D01*
X13200000Y10777836D01*
X13043928Y10746791D01*
X12911616Y10658384D01*
X12823209Y10526072D01*
X12792164Y10370000D01*
X12792164Y7970000D01*
X12823209Y7813928D01*
X12911616Y7681616D01*
X13020001Y7609197D01*
X13020000Y4626371D01*
X12891793Y4498164D01*
X12770000Y4204130D01*
X9098975Y4204130D01*
X9034622Y4359491D01*
X8359491Y5034622D01*
X7477390Y5400000D01*
X6522610Y5400000D01*
X5640509Y5034622D01*
X4965378Y4359491D01*
X4729402Y3789793D01*
X4610742Y4076263D01*
X4076263Y4610742D01*
X3377933Y4900000D01*
X2622067Y4900000D01*
X1923737Y4610742D01*
X1389258Y4076263D01*
X1100000Y3377933D01*
X475000Y3377933D01*
X475000Y14270000D01*
X12792164Y14270000D01*
X12792164Y11870000D01*
X12823209Y11713928D01*
X12911616Y11581616D01*
X13043928Y11493209D01*
X13200000Y11462164D01*
X13940000Y11462164D01*
X14096072Y11493209D01*
X14205000Y11565991D01*
X14313928Y11493209D01*
X14470000Y11462164D01*
X15210000Y11462164D01*
X15366072Y11493209D01*
X15475000Y11565991D01*
X15583928Y11493209D01*
X15740000Y11462164D01*
X16480000Y11462164D01*
X16636072Y11493209D01*
X16768384Y11581616D01*
X16856791Y11713928D01*
X16887836Y11870000D01*
X16887836Y14270000D01*
X16856791Y14426072D01*
X16768384Y14558384D01*
X16636072Y14646791D01*
X16635000Y14647004D01*
X16635000Y15630000D01*
X18652538Y15630000D01*
X18315333Y15292794D01*
X18271497Y15263504D01*
X18199188Y15155285D01*
X18155461Y15089844D01*
X18114715Y14885000D01*
X18125001Y14833289D01*
X18125001Y14602004D01*
X18123928Y14601791D01*
X17991616Y14513384D01*
X17903209Y14381072D01*
X17872164Y14225000D01*
X17872164Y11825000D01*
X17903209Y11668928D01*
X17991616Y11536616D01*
X18123928Y11448209D01*
X18280000Y11417164D01*
X19020000Y11417164D01*
X19176072Y11448209D01*
X19285000Y11520991D01*
X19393928Y11448209D01*
X19550000Y11417164D01*
X20290000Y11417164D01*
X20446072Y11448209D01*
X20555000Y11520991D01*
X20663928Y11448209D01*
X20820000Y11417164D01*
X21560000Y11417164D01*
X21716072Y11448209D01*
X21848384Y11536616D01*
X21936791Y11668928D01*
X21967836Y11825000D01*
X21967836Y14225000D01*
X21936791Y14381072D01*
X21848384Y14513384D01*
X21716072Y14601791D01*
X21715000Y14602004D01*
X21715000Y14995000D01*
X23216595Y14995000D01*
X23194715Y14885000D01*
X23205000Y14833295D01*
X23205000Y14602004D01*
X23203928Y14601791D01*
X23071616Y14513384D01*
X22983209Y14381072D01*
X22952164Y14225000D01*
X22952164Y11825000D01*
X22983209Y11668928D01*
X23071616Y11536616D01*
X23203928Y11448209D01*
X23360000Y11417164D01*
X24100000Y11417164D01*
X24256072Y11448209D01*
X24365000Y11520991D01*
X24473928Y11448209D01*
X24630000Y11417164D01*
X25370000Y11417164D01*
X25526072Y11448209D01*
X25635000Y11520991D01*
X25743928Y11448209D01*
X25900000Y11417164D01*
X26640000Y11417164D01*
X26796072Y11448209D01*
X26905000Y11520991D01*
X27013928Y11448209D01*
X27170000Y11417164D01*
X27910000Y11417164D01*
X28066072Y11448209D01*
X28198384Y11536616D01*
X28286791Y11668928D01*
X28317836Y11825000D01*
X28317836Y14225000D01*
X28286791Y14381072D01*
X28198384Y14513384D01*
X28069075Y14599784D01*
X28075285Y14631001D01*
X28062356Y14696000D01*
X28034539Y14835845D01*
X27918504Y15009504D01*
X27874665Y15038796D01*
X27693797Y15219664D01*
X27664504Y15263504D01*
X27490845Y15379539D01*
X27337706Y15410000D01*
X27286000Y15420285D01*
X27234294Y15410000D01*
X26487462Y15410000D01*
X25997461Y15900000D01*
X26050000Y15900000D01*
X26071675Y15921675D01*
X26239872Y15991344D01*
X26250000Y16001472D01*
X26260128Y15991344D01*
X26428325Y15921675D01*
X26450000Y15900000D01*
X26550000Y15900000D01*
X26571675Y15921675D01*
X26739872Y15991344D01*
X26750000Y16001472D01*
X26760128Y15991344D01*
X26928325Y15921675D01*
X26950000Y15900000D01*
X27100000Y15900000D01*
X27157030Y15957030D01*
X27239872Y15991344D01*
X27350000Y16101472D01*
X27350000Y16050000D01*
X27500000Y15900000D01*
X27619347Y15900000D01*
X27839872Y15991344D01*
X28008655Y16160127D01*
X28100000Y16380652D01*
X28100000Y16850000D01*
X27950000Y17000000D01*
X26180000Y17000000D01*
X26180000Y17100000D01*
X27950000Y17100000D01*
X28100000Y17250000D01*
X28100000Y17719348D01*
X28008655Y17939873D01*
X27839872Y18108656D01*
X27619347Y18200000D01*
X27500000Y18200000D01*
X27350000Y18050000D01*
X27350000Y17998528D01*
X27239872Y18108656D01*
X27157030Y18142970D01*
X27100000Y18200000D01*
X26950000Y18200000D01*
X26928325Y18178325D01*
X26760128Y18108656D01*
X26750000Y18098528D01*
X26739872Y18108656D01*
X26571675Y18178325D01*
X26550000Y18200000D01*
X26450000Y18200000D01*
X26428325Y18178325D01*
X26260128Y18108656D01*
X26250000Y18098528D01*
X26239872Y18108656D01*
X26071675Y18178325D01*
X26050000Y18200000D01*
X25950000Y18200000D01*
X25928325Y18178325D01*
X25760128Y18108656D01*
X25700000Y18048528D01*
X25700000Y18050000D01*
X25550000Y18200000D01*
X25480653Y18200000D01*
X25260128Y18108656D01*
X25159308Y18007836D01*
X25100000Y18007836D01*
X25000000Y17987945D01*
X24900000Y18007836D01*
X24600000Y18007836D01*
X24500000Y17987945D01*
X24400000Y18007836D01*
X24100000Y18007836D01*
X24000000Y17987945D01*
X23900000Y18007836D01*
X23840692Y18007836D01*
X23739872Y18108656D01*
X23519347Y18200000D01*
X23450000Y18200000D01*
X23300000Y18050000D01*
X23300000Y17870999D01*
X23250000Y17796168D01*
X23200000Y17870999D01*
X23200000Y18050000D01*
X23050000Y18200000D01*
X22980653Y18200000D01*
X22760128Y18108656D01*
X22659308Y18007836D01*
X22500000Y18007836D01*
X22343928Y17976791D01*
X22211616Y17888384D01*
X22170972Y17827555D01*
X21917000Y18081527D01*
X21917000Y18392957D01*
X22020707Y18350000D01*
X22279293Y18350000D01*
X22518195Y18448957D01*
X22701043Y18631805D01*
X22800000Y18870707D01*
X22800000Y19129293D01*
X22701043Y19368195D01*
X22518195Y19551043D01*
X22279293Y19650000D01*
X22020707Y19650000D01*
X21917000Y19607043D01*
X21917000Y19918473D01*
X22170972Y20172445D01*
X22211616Y20111616D01*
X22343928Y20023209D01*
X22500000Y19992164D01*
X22659308Y19992164D01*
X22760128Y19891344D01*
X22980653Y19800000D01*
X23050000Y19800000D01*
X23200000Y19950000D01*
X23200000Y19951472D01*
X23260128Y19891344D01*
X23428325Y19821675D01*
X23450000Y19800000D01*
X23550000Y19800000D01*
X23571675Y19821675D01*
X23739872Y19891344D01*
X23741659Y19893131D01*
X23755461Y19823743D01*
X23871496Y19650083D01*
X23915335Y19620791D01*
X24245804Y19290321D01*
X24275095Y19246484D01*
X24422242Y19148164D01*
X24448754Y19130449D01*
X24653598Y19089703D01*
X24705304Y19099988D01*
X27200000Y19099988D01*
X27200000Y18870707D01*
X27298957Y18631805D01*
X27481805Y18448957D01*
X27720707Y18350000D01*
X27979293Y18350000D01*
X28158001Y18424024D01*
X28158000Y16669706D01*
X28147715Y16618000D01*
X28179023Y16460604D01*
X28188461Y16413156D01*
X28304496Y16239496D01*
X28348336Y16210203D01*
X29555001Y15003537D01*
X29555001Y14602004D01*
X29553928Y14601791D01*
X29421616Y14513384D01*
X29333209Y14381072D01*
X29302164Y14225000D01*
X29302164Y11825000D01*
X29333209Y11668928D01*
X29421616Y11536616D01*
X29553928Y11448209D01*
X29710000Y11417164D01*
X30450000Y11417164D01*
X30606072Y11448209D01*
X30715000Y11520991D01*
X30823928Y11448209D01*
X30980000Y11417164D01*
X31720000Y11417164D01*
X31876072Y11448209D01*
X31985000Y11520991D01*
X32093928Y11448209D01*
X32250000Y11417164D01*
X32990000Y11417164D01*
X33146072Y11448209D01*
X33255000Y11520991D01*
X33363928Y11448209D01*
X33520000Y11417164D01*
X34260000Y11417164D01*
X34416072Y11448209D01*
X34548384Y11536616D01*
X34636791Y11668928D01*
X34667836Y11825000D01*
X34667836Y12800000D01*
X39542164Y12800000D01*
X39542164Y11800000D01*
X39573209Y11643928D01*
X39661616Y11511616D01*
X39793928Y11423209D01*
X39950000Y11392164D01*
X43100000Y11392164D01*
X43256072Y11423209D01*
X43388384Y11511616D01*
X43476791Y11643928D01*
X43493035Y11725594D01*
X43553629Y11665000D01*
X43371793Y11483164D01*
X43250000Y11189130D01*
X43250000Y10870870D01*
X43337345Y10660000D01*
X43139394Y10660000D01*
X43100000Y10667836D01*
X39950000Y10667836D01*
X39793928Y10636791D01*
X39661616Y10548384D01*
X39573209Y10416072D01*
X39542164Y10260000D01*
X39542164Y9260000D01*
X39573209Y9103928D01*
X39661616Y8971616D01*
X39793928Y8883209D01*
X39950000Y8852164D01*
X43100000Y8852164D01*
X43139394Y8860000D01*
X43229106Y8860000D01*
X43150000Y8669021D01*
X43150000Y8310979D01*
X43229106Y8120000D01*
X43139394Y8120000D01*
X43100000Y8127836D01*
X39950000Y8127836D01*
X39793928Y8096791D01*
X39661616Y8008384D01*
X39573209Y7876072D01*
X39542164Y7720000D01*
X39542164Y6720000D01*
X39573209Y6563928D01*
X39661616Y6431616D01*
X39793928Y6343209D01*
X39950000Y6312164D01*
X43100000Y6312164D01*
X43139394Y6320000D01*
X44138642Y6320000D01*
X44401163Y6372219D01*
X44643231Y6533963D01*
X44711616Y6431616D01*
X44843928Y6343209D01*
X45000000Y6312164D01*
X46525753Y6312164D01*
X46575000Y6302368D01*
X46624247Y6312164D01*
X48150000Y6312164D01*
X48306072Y6343209D01*
X48438384Y6431616D01*
X48526791Y6563928D01*
X48557836Y6720000D01*
X48557836Y7720000D01*
X48526791Y7876072D01*
X48438384Y8008384D01*
X48306072Y8096791D01*
X48150000Y8127836D01*
X47490000Y8127836D01*
X47490000Y8852164D01*
X48150000Y8852164D01*
X48306072Y8883209D01*
X48438384Y8971616D01*
X48526791Y9103928D01*
X48557836Y9260000D01*
X48557836Y10260000D01*
X48526791Y10416072D01*
X48438384Y10548384D01*
X48306072Y10636791D01*
X48150000Y10667836D01*
X47475000Y10667836D01*
X47475000Y10865949D01*
X47507632Y11029999D01*
X47492984Y11103642D01*
X47475000Y11194051D01*
X47475000Y11392164D01*
X48150000Y11392164D01*
X48306072Y11423209D01*
X48438384Y11511616D01*
X48526791Y11643928D01*
X48557836Y11800000D01*
X48557836Y12800000D01*
X48526791Y12956072D01*
X48438384Y13088384D01*
X48306072Y13176791D01*
X48150000Y13207836D01*
X47305900Y13207836D01*
X47390000Y13410870D01*
X47390000Y13729130D01*
X47305900Y13932164D01*
X48150000Y13932164D01*
X48306072Y13963209D01*
X48438384Y14051616D01*
X48526791Y14183928D01*
X48557836Y14340000D01*
X48557836Y15340000D01*
X48526791Y15496072D01*
X48438384Y15628384D01*
X48306072Y15716791D01*
X48150000Y15747836D01*
X45000000Y15747836D01*
X44843928Y15716791D01*
X44711616Y15628384D01*
X44623209Y15496072D01*
X44592164Y15340000D01*
X44592164Y14340000D01*
X44623209Y14183928D01*
X44711616Y14051616D01*
X44843928Y13963209D01*
X45000000Y13932164D01*
X45874100Y13932164D01*
X45790000Y13729130D01*
X45790000Y13410870D01*
X45874100Y13207836D01*
X45000000Y13207836D01*
X44843928Y13176791D01*
X44711616Y13088384D01*
X44623209Y12956072D01*
X44606965Y12874406D01*
X44503164Y12978207D01*
X44209130Y13100000D01*
X43890870Y13100000D01*
X43596836Y12978207D01*
X43493035Y12874406D01*
X43476791Y12956072D01*
X43388384Y13088384D01*
X43256072Y13176791D01*
X43100000Y13207836D01*
X39950000Y13207836D01*
X39793928Y13176791D01*
X39661616Y13088384D01*
X39573209Y12956072D01*
X39542164Y12800000D01*
X34667836Y12800000D01*
X34667836Y14225000D01*
X34636791Y14381072D01*
X34548384Y14513384D01*
X34421007Y14598494D01*
X34425285Y14620001D01*
X34412213Y14685715D01*
X34384539Y14824845D01*
X34268504Y14998504D01*
X34267568Y14999130D01*
X38170000Y14999130D01*
X38170000Y14680870D01*
X38291793Y14386836D01*
X38516836Y14161793D01*
X38810870Y14040000D01*
X39129130Y14040000D01*
X39423164Y14161793D01*
X39551371Y14290000D01*
X39552110Y14290000D01*
X39573209Y14183928D01*
X39661616Y14051616D01*
X39793928Y13963209D01*
X39950000Y13932164D01*
X43100000Y13932164D01*
X43256072Y13963209D01*
X43388384Y14051616D01*
X43476791Y14183928D01*
X43507836Y14340000D01*
X43507836Y15340000D01*
X43476791Y15496072D01*
X43388384Y15628384D01*
X43256072Y15716791D01*
X43100000Y15747836D01*
X39950000Y15747836D01*
X39793928Y15716791D01*
X39661616Y15628384D01*
X39573209Y15496072D01*
X39552110Y15390000D01*
X39551371Y15390000D01*
X39423164Y15518207D01*
X39129130Y15640000D01*
X38810870Y15640000D01*
X38516836Y15518207D01*
X38291793Y15293164D01*
X38170000Y14999130D01*
X34267568Y14999130D01*
X34224668Y15027794D01*
X33696796Y15555665D01*
X33667504Y15599504D01*
X33493845Y15715539D01*
X33340706Y15746000D01*
X33289000Y15756285D01*
X33237294Y15746000D01*
X32671706Y15746000D01*
X32620000Y15756285D01*
X32568294Y15746000D01*
X32202462Y15746000D01*
X31848461Y16100000D01*
X32776846Y16100000D01*
X33185161Y16269130D01*
X43250000Y16269130D01*
X43250000Y15950870D01*
X43371793Y15656836D01*
X43596836Y15431793D01*
X43890870Y15310000D01*
X44209130Y15310000D01*
X44503164Y15431793D01*
X44728207Y15656836D01*
X44850000Y15950870D01*
X44850000Y15952184D01*
X45369981Y16472164D01*
X48150000Y16472164D01*
X48306072Y16503209D01*
X48438384Y16591616D01*
X48526791Y16723928D01*
X48557836Y16880000D01*
X48557836Y17880000D01*
X48526791Y18036072D01*
X48438384Y18168384D01*
X48306072Y18256791D01*
X48150000Y18287836D01*
X45000000Y18287836D01*
X44843928Y18256791D01*
X44711616Y18168384D01*
X44623209Y18036072D01*
X44592164Y17880000D01*
X44592164Y17249981D01*
X44239574Y16897390D01*
X44209130Y16910000D01*
X43890870Y16910000D01*
X43596836Y16788207D01*
X43371793Y16563164D01*
X43250000Y16269130D01*
X33185161Y16269130D01*
X33842718Y16541499D01*
X34658501Y17357282D01*
X34733824Y17539130D01*
X38170000Y17539130D01*
X38170000Y17220870D01*
X38291793Y16926836D01*
X38516836Y16701793D01*
X38810870Y16580000D01*
X39129130Y16580000D01*
X39423164Y16701793D01*
X39551371Y16830000D01*
X39552110Y16830000D01*
X39573209Y16723928D01*
X39661616Y16591616D01*
X39793928Y16503209D01*
X39950000Y16472164D01*
X43100000Y16472164D01*
X43256072Y16503209D01*
X43388384Y16591616D01*
X43476791Y16723928D01*
X43507836Y16880000D01*
X43507836Y17880000D01*
X43476791Y18036072D01*
X43388384Y18168384D01*
X43256072Y18256791D01*
X43100000Y18287836D01*
X39950000Y18287836D01*
X39793928Y18256791D01*
X39661616Y18168384D01*
X39573209Y18036072D01*
X39552110Y17930000D01*
X39551371Y17930000D01*
X39423164Y18058207D01*
X39129130Y18180000D01*
X38810870Y18180000D01*
X38516836Y18058207D01*
X38291793Y17833164D01*
X38170000Y17539130D01*
X34733824Y17539130D01*
X35100000Y18423154D01*
X35100000Y19576846D01*
X34891947Y20079130D01*
X38170000Y20079130D01*
X38170000Y19760870D01*
X38291793Y19466836D01*
X38516836Y19241793D01*
X38810870Y19120000D01*
X39129130Y19120000D01*
X39423164Y19241793D01*
X39551371Y19370000D01*
X39552110Y19370000D01*
X39573209Y19263928D01*
X39661616Y19131616D01*
X39793928Y19043209D01*
X39950000Y19012164D01*
X43100000Y19012164D01*
X43256072Y19043209D01*
X43355967Y19109956D01*
X43250000Y18854130D01*
X43250000Y18535870D01*
X43371793Y18241836D01*
X43596836Y18016793D01*
X43890870Y17895000D01*
X44209130Y17895000D01*
X44503164Y18016793D01*
X44728207Y18241836D01*
X44850000Y18535870D01*
X44850000Y18717183D01*
X44877211Y18744394D01*
X44877213Y18744397D01*
X45144980Y19012164D01*
X48150000Y19012164D01*
X48306072Y19043209D01*
X48438384Y19131616D01*
X48526791Y19263928D01*
X48557836Y19420000D01*
X48557836Y20420000D01*
X48526791Y20576072D01*
X48438384Y20708384D01*
X48306072Y20796791D01*
X48150000Y20827836D01*
X45000000Y20827836D01*
X44843928Y20796791D01*
X44711616Y20708384D01*
X44623209Y20576072D01*
X44592164Y20420000D01*
X44592164Y20014981D01*
X44099397Y19522213D01*
X44099394Y19522211D01*
X44072183Y19495000D01*
X43890870Y19495000D01*
X43596836Y19373207D01*
X43455113Y19231484D01*
X43476791Y19263928D01*
X43507836Y19420000D01*
X43507836Y20420000D01*
X43476791Y20576072D01*
X43388384Y20708384D01*
X43256072Y20796791D01*
X43100000Y20827836D01*
X39950000Y20827836D01*
X39793928Y20796791D01*
X39661616Y20708384D01*
X39573209Y20576072D01*
X39552110Y20470000D01*
X39551371Y20470000D01*
X39423164Y20598207D01*
X39129130Y20720000D01*
X38810870Y20720000D01*
X38516836Y20598207D01*
X38291793Y20373164D01*
X38170000Y20079130D01*
X34891947Y20079130D01*
X34658501Y20642718D01*
X33842718Y21458501D01*
X32776846Y21900000D01*
X31623154Y21900000D01*
X30557282Y21458501D01*
X29741499Y20642718D01*
X29400057Y19818405D01*
X28808798Y20409664D01*
X28779505Y20453503D01*
X28605846Y20569538D01*
X28452707Y20599999D01*
X28401001Y20610284D01*
X28349295Y20599999D01*
X28100000Y20599999D01*
X28100000Y20750000D01*
X27950000Y20900000D01*
X27230000Y20900000D01*
X27230000Y21000000D01*
X27950000Y21000000D01*
X28100000Y21150000D01*
X28100000Y21619348D01*
X28008655Y21839873D01*
X27839872Y22008656D01*
X27619347Y22100000D01*
X27500000Y22100000D01*
X27350000Y21950000D01*
X27350000Y21898528D01*
X27239872Y22008656D01*
X27157030Y22042970D01*
X27100000Y22100000D01*
X26950000Y22100000D01*
X26928325Y22078325D01*
X26760128Y22008656D01*
X26700000Y21948528D01*
X26700000Y21950000D01*
X26550000Y22100000D01*
X26480653Y22100000D01*
X26260128Y22008656D01*
X26159308Y21907836D01*
X26100000Y21907836D01*
X26000000Y21887945D01*
X25900000Y21907836D01*
X25600000Y21907836D01*
X25500000Y21887945D01*
X25400000Y21907836D01*
X25100000Y21907836D01*
X25000000Y21887945D01*
X24900000Y21907836D01*
X24600000Y21907836D01*
X24500000Y21887945D01*
X24400000Y21907836D01*
X24340692Y21907836D01*
X24239872Y22008656D01*
X24019347Y22100000D01*
X23950000Y22100000D01*
X23800000Y21950000D01*
X23800000Y21948528D01*
X23739872Y22008656D01*
X23571675Y22078325D01*
X23550000Y22100000D01*
X23450000Y22100000D01*
X23428325Y22078325D01*
X23300002Y22025172D01*
X23300002Y22100000D01*
X23300000Y22100000D01*
X23300000Y22422629D01*
X23392207Y22514836D01*
X23514000Y22808870D01*
X23514000Y23127130D01*
X23392207Y23421164D01*
X23167164Y23646207D01*
X22873130Y23768000D01*
X22554870Y23768000D01*
X22260836Y23646207D01*
X22035793Y23421164D01*
X21914000Y23127130D01*
X21914000Y22808870D01*
X22035793Y22514836D01*
X22100001Y22450628D01*
X22100000Y21561753D01*
X22099999Y21561753D01*
X22040913Y21550000D01*
X22040909Y21550000D01*
X21865892Y21515187D01*
X21667425Y21382575D01*
X21633953Y21332481D01*
X20934519Y20633046D01*
X20884426Y20599575D01*
X20850954Y20549481D01*
X20850953Y20549480D01*
X20751814Y20401108D01*
X20705247Y20167000D01*
X20717001Y20107909D01*
X20717000Y17892087D01*
X20705247Y17833000D01*
X20717000Y17773914D01*
X20717000Y17773910D01*
X20751813Y17598893D01*
X20884425Y17400425D01*
X20934521Y17366952D01*
X21621472Y16680000D01*
X19581219Y16680000D01*
X20258501Y17357282D01*
X20700000Y18423154D01*
X20700000Y19576846D01*
X20258501Y20642718D01*
X19442718Y21458501D01*
X18376846Y21900000D01*
X17223154Y21900000D01*
X16157282Y21458501D01*
X15341499Y20642718D01*
X14900000Y19576846D01*
X14900000Y18423154D01*
X15341499Y17357282D01*
X16018781Y16680000D01*
X14891706Y16680000D01*
X14840000Y16690285D01*
X14788294Y16680000D01*
X14256706Y16680000D01*
X14205000Y16690285D01*
X14072212Y16663872D01*
X14000155Y16649539D01*
X13826496Y16533504D01*
X13797205Y16489667D01*
X13235333Y15927794D01*
X13191497Y15898504D01*
X13161289Y15853294D01*
X13075461Y15724844D01*
X13034715Y15520000D01*
X13045000Y15468294D01*
X13045000Y14833295D01*
X13045001Y14833290D01*
X13045001Y14647004D01*
X13043928Y14646791D01*
X12911616Y14558384D01*
X12823209Y14426072D01*
X12792164Y14270000D01*
X475000Y14270000D01*
X475000Y25159130D01*
X38170000Y25159130D01*
X38170000Y24840870D01*
X38291793Y24546836D01*
X38516836Y24321793D01*
X38810870Y24200000D01*
X39129130Y24200000D01*
X39423164Y24321793D01*
X39551371Y24450000D01*
X39552110Y24450000D01*
X39573209Y24343928D01*
X39661616Y24211616D01*
X39793928Y24123209D01*
X39950000Y24092164D01*
X43100000Y24092164D01*
X43256072Y24123209D01*
X43388384Y24211616D01*
X43476791Y24343928D01*
X43493035Y24425594D01*
X43553629Y24365000D01*
X43371793Y24183164D01*
X43250000Y23889130D01*
X43250000Y23707817D01*
X42910020Y23367836D01*
X39950000Y23367836D01*
X39793928Y23336791D01*
X39661616Y23248384D01*
X39573209Y23116072D01*
X39542164Y22960000D01*
X39542164Y21960000D01*
X39573209Y21803928D01*
X39661616Y21671616D01*
X39793928Y21583209D01*
X39950000Y21552164D01*
X43100000Y21552164D01*
X43256072Y21583209D01*
X43388384Y21671616D01*
X43476791Y21803928D01*
X43493035Y21885594D01*
X43596836Y21781793D01*
X43890870Y21660000D01*
X44209130Y21660000D01*
X44503164Y21781793D01*
X44606965Y21885594D01*
X44623209Y21803928D01*
X44711616Y21671616D01*
X44843928Y21583209D01*
X45000000Y21552164D01*
X48150000Y21552164D01*
X48306072Y21583209D01*
X48438384Y21671616D01*
X48526791Y21803928D01*
X48557836Y21960000D01*
X48557836Y22960000D01*
X48526791Y23116072D01*
X48438384Y23248384D01*
X48306072Y23336791D01*
X48150000Y23367836D01*
X45000000Y23367836D01*
X44843928Y23336791D01*
X44711616Y23248384D01*
X44623209Y23116072D01*
X44606965Y23034406D01*
X44546371Y23095000D01*
X44728207Y23276836D01*
X44850000Y23570870D01*
X44850000Y23889130D01*
X44728207Y24183164D01*
X44546371Y24365000D01*
X44606965Y24425594D01*
X44623209Y24343928D01*
X44711616Y24211616D01*
X44843928Y24123209D01*
X45000000Y24092164D01*
X48150000Y24092164D01*
X48306072Y24123209D01*
X48438384Y24211616D01*
X48526791Y24343928D01*
X48557836Y24500000D01*
X48557836Y25500000D01*
X48526791Y25656072D01*
X48438384Y25788384D01*
X48306072Y25876791D01*
X48150000Y25907836D01*
X45000000Y25907836D01*
X44843928Y25876791D01*
X44711616Y25788384D01*
X44623209Y25656072D01*
X44606965Y25574406D01*
X44503164Y25678207D01*
X44209130Y25800000D01*
X43890870Y25800000D01*
X43596836Y25678207D01*
X43493035Y25574406D01*
X43476791Y25656072D01*
X43388384Y25788384D01*
X43256072Y25876791D01*
X43100000Y25907836D01*
X39950000Y25907836D01*
X39793928Y25876791D01*
X39661616Y25788384D01*
X39573209Y25656072D01*
X39552110Y25550000D01*
X39551371Y25550000D01*
X39423164Y25678207D01*
X39129130Y25800000D01*
X38810870Y25800000D01*
X38516836Y25678207D01*
X38291793Y25453164D01*
X38170000Y25159130D01*
X475000Y25159130D01*
X475000Y30080000D01*
X38154328Y30080000D01*
X38170000Y30001211D01*
X38170000Y29920870D01*
X38200745Y29846645D01*
X38216417Y29767856D01*
X38261048Y29701062D01*
X38291793Y29626836D01*
X38348604Y29570025D01*
X38393233Y29503233D01*
X38460025Y29458604D01*
X38516836Y29401793D01*
X38591062Y29371048D01*
X38657856Y29326417D01*
X38736645Y29310745D01*
X38810870Y29280000D01*
X39679001Y29280000D01*
X39793928Y29203209D01*
X39950000Y29172164D01*
X43100000Y29172164D01*
X43256072Y29203209D01*
X43388384Y29291616D01*
X43476791Y29423928D01*
X43493035Y29505594D01*
X43553629Y29445000D01*
X43371793Y29263164D01*
X43250000Y28969130D01*
X43250000Y28787817D01*
X42910020Y28447836D01*
X39950000Y28447836D01*
X39793928Y28416791D01*
X39661616Y28328384D01*
X39573209Y28196072D01*
X39542164Y28040000D01*
X39542164Y27040000D01*
X39573209Y26883928D01*
X39661616Y26751616D01*
X39793928Y26663209D01*
X39950000Y26632164D01*
X43100000Y26632164D01*
X43256072Y26663209D01*
X43388384Y26751616D01*
X43476791Y26883928D01*
X43493035Y26965594D01*
X43596836Y26861793D01*
X43890870Y26740000D01*
X44209130Y26740000D01*
X44503164Y26861793D01*
X44606965Y26965594D01*
X44623209Y26883928D01*
X44711616Y26751616D01*
X44843928Y26663209D01*
X45000000Y26632164D01*
X48150000Y26632164D01*
X48306072Y26663209D01*
X48438384Y26751616D01*
X48526791Y26883928D01*
X48557836Y27040000D01*
X48557836Y28040000D01*
X48526791Y28196072D01*
X48438384Y28328384D01*
X48306072Y28416791D01*
X48150000Y28447836D01*
X45000000Y28447836D01*
X44843928Y28416791D01*
X44711616Y28328384D01*
X44623209Y28196072D01*
X44606965Y28114406D01*
X44546371Y28175000D01*
X44728207Y28356836D01*
X44850000Y28650870D01*
X44850000Y28969130D01*
X44728207Y29263164D01*
X44546371Y29445000D01*
X44606965Y29505594D01*
X44623209Y29423928D01*
X44711616Y29291616D01*
X44843928Y29203209D01*
X45000000Y29172164D01*
X48150000Y29172164D01*
X48306072Y29203209D01*
X48438384Y29291616D01*
X48526791Y29423928D01*
X48557836Y29580000D01*
X48557836Y30580000D01*
X48526791Y30736072D01*
X48438384Y30868384D01*
X48306072Y30956791D01*
X48150000Y30987836D01*
X45000000Y30987836D01*
X44843928Y30956791D01*
X44711616Y30868384D01*
X44623209Y30736072D01*
X44606965Y30654406D01*
X44503164Y30758207D01*
X44209130Y30880000D01*
X43890870Y30880000D01*
X43596836Y30758207D01*
X43493035Y30654406D01*
X43476791Y30736072D01*
X43388384Y30868384D01*
X43256072Y30956791D01*
X43100000Y30987836D01*
X39950000Y30987836D01*
X39793928Y30956791D01*
X39679001Y30880000D01*
X38810870Y30880000D01*
X38736645Y30849255D01*
X38657856Y30833583D01*
X38591062Y30788952D01*
X38516836Y30758207D01*
X38460025Y30701396D01*
X38393233Y30656767D01*
X38348604Y30589975D01*
X38291793Y30533164D01*
X38261048Y30458938D01*
X38216417Y30392144D01*
X38200745Y30313355D01*
X38170000Y30239130D01*
X38170000Y30158789D01*
X38154328Y30080000D01*
X475000Y30080000D01*
X475000Y47192158D01*
X660775Y47377933D01*
X1100000Y47377933D01*
X1100000Y46622067D01*
X1389258Y45923737D01*
X1923737Y45389258D01*
X2622067Y45100000D01*
X3377933Y45100000D01*
X4076263Y45389258D01*
X4610742Y45923737D01*
X4729402Y46210207D01*
X4965378Y45640509D01*
X5640509Y44965378D01*
X6522610Y44600000D01*
X7477390Y44600000D01*
X8359491Y44965378D01*
X9034622Y45640509D01*
X9400000Y46522610D01*
X9400000Y47477390D01*
X9034622Y48359491D01*
X8359491Y49034622D01*
X7477390Y49400000D01*
X6522610Y49400000D01*
X5640509Y49034622D01*
X4965378Y48359491D01*
X4729402Y47789793D01*
X4610742Y48076263D01*
X4076263Y48610742D01*
X3377933Y48900000D01*
X2622067Y48900000D01*
X1923737Y48610742D01*
X1389258Y48076263D01*
X1100000Y47377933D01*
X660775Y47377933D01*
X2807842Y49525000D01*
X13800000Y49525000D01*
X13800000Y37500000D01*
X13800000Y37500000D01*
G37*
X13800000Y37500000D02*
X13815224Y37423463D01*
X13858579Y37358579D01*
X13923463Y37315224D01*
X14000000Y37300000D01*
X36000000Y37300000D01*
X36076537Y37315224D01*
X36141421Y37358579D01*
X36184776Y37423463D01*
X36200000Y37500000D01*
X36200000Y43280000D01*
X39542164Y43280000D01*
X39542164Y42280000D01*
X39573209Y42123928D01*
X39661616Y41991616D01*
X39793928Y41903209D01*
X39950000Y41872164D01*
X43100000Y41872164D01*
X43237162Y41899447D01*
X43150000Y41689021D01*
X43150000Y41330979D01*
X43237162Y41120553D01*
X43100000Y41147836D01*
X39950000Y41147836D01*
X39793928Y41116791D01*
X39661616Y41028384D01*
X39573209Y40896072D01*
X39542164Y40740000D01*
X39542164Y39740000D01*
X39573209Y39583928D01*
X39661616Y39451616D01*
X39793928Y39363209D01*
X39950000Y39332164D01*
X43100000Y39332164D01*
X43256072Y39363209D01*
X43388384Y39451616D01*
X43476791Y39583928D01*
X43493035Y39665594D01*
X43553629Y39605000D01*
X43371793Y39423164D01*
X43250000Y39129130D01*
X43250000Y38810870D01*
X43371793Y38516836D01*
X43553629Y38335000D01*
X43493035Y38274406D01*
X43476791Y38356072D01*
X43388384Y38488384D01*
X43256072Y38576791D01*
X43100000Y38607836D01*
X39950000Y38607836D01*
X39793928Y38576791D01*
X39661616Y38488384D01*
X39573209Y38356072D01*
X39542164Y38200000D01*
X39542164Y37200000D01*
X39573209Y37043928D01*
X39661616Y36911616D01*
X39793928Y36823209D01*
X39950000Y36792164D01*
X43100000Y36792164D01*
X43256072Y36823209D01*
X43388384Y36911616D01*
X43476791Y37043928D01*
X43493035Y37125594D01*
X43553629Y37065000D01*
X43371793Y36883164D01*
X43250000Y36589130D01*
X43250000Y36407817D01*
X42910020Y36067836D01*
X39950000Y36067836D01*
X39793928Y36036791D01*
X39661616Y35948384D01*
X39573209Y35816072D01*
X39542164Y35660000D01*
X39542164Y34660000D01*
X39573209Y34503928D01*
X39661616Y34371616D01*
X39793928Y34283209D01*
X39950000Y34252164D01*
X43100000Y34252164D01*
X43256072Y34283209D01*
X43388384Y34371616D01*
X43476791Y34503928D01*
X43493035Y34585594D01*
X43553629Y34525000D01*
X43371793Y34343164D01*
X43250000Y34049130D01*
X43250000Y33867817D01*
X42910020Y33527836D01*
X39950000Y33527836D01*
X39793928Y33496791D01*
X39661616Y33408384D01*
X39573209Y33276072D01*
X39542164Y33120000D01*
X39542164Y32120000D01*
X39573209Y31963928D01*
X39661616Y31831616D01*
X39793928Y31743209D01*
X39950000Y31712164D01*
X43100000Y31712164D01*
X43256072Y31743209D01*
X43388384Y31831616D01*
X43476791Y31963928D01*
X43493035Y32045594D01*
X43596836Y31941793D01*
X43890870Y31820000D01*
X44209130Y31820000D01*
X44503164Y31941793D01*
X44606965Y32045594D01*
X44623209Y31963928D01*
X44711616Y31831616D01*
X44843928Y31743209D01*
X45000000Y31712164D01*
X48150000Y31712164D01*
X48306072Y31743209D01*
X48438384Y31831616D01*
X48526791Y31963928D01*
X48557836Y32120000D01*
X48557836Y33120000D01*
X48526791Y33276072D01*
X48438384Y33408384D01*
X48306072Y33496791D01*
X48150000Y33527836D01*
X45000000Y33527836D01*
X44843928Y33496791D01*
X44711616Y33408384D01*
X44623209Y33276072D01*
X44606965Y33194406D01*
X44546371Y33255000D01*
X44728207Y33436836D01*
X44850000Y33730870D01*
X44850000Y34049130D01*
X44728207Y34343164D01*
X44546371Y34525000D01*
X44606965Y34585594D01*
X44623209Y34503928D01*
X44711616Y34371616D01*
X44843928Y34283209D01*
X45000000Y34252164D01*
X48150000Y34252164D01*
X48306072Y34283209D01*
X48438384Y34371616D01*
X48526791Y34503928D01*
X48557836Y34660000D01*
X48557836Y35660000D01*
X48526791Y35816072D01*
X48438384Y35948384D01*
X48306072Y36036791D01*
X48150000Y36067836D01*
X45000000Y36067836D01*
X44843928Y36036791D01*
X44711616Y35948384D01*
X44623209Y35816072D01*
X44606965Y35734406D01*
X44546371Y35795000D01*
X44728207Y35976836D01*
X44850000Y36270870D01*
X44850000Y36589130D01*
X44838217Y36617578D01*
X44880653Y36600000D01*
X46375000Y36600000D01*
X46525000Y36750000D01*
X46525000Y37650000D01*
X46625000Y37650000D01*
X46625000Y36750000D01*
X46775000Y36600000D01*
X48269347Y36600000D01*
X48489872Y36691344D01*
X48658655Y36860127D01*
X48750000Y37080652D01*
X48750000Y37500000D01*
X48600000Y37650000D01*
X46625000Y37650000D01*
X46525000Y37650000D01*
X46505000Y37650000D01*
X46505000Y37750000D01*
X46525000Y37750000D01*
X46525000Y38650000D01*
X46625000Y38650000D01*
X46625000Y37750000D01*
X48600000Y37750000D01*
X48750000Y37900000D01*
X48750000Y38319348D01*
X48658655Y38539873D01*
X48489872Y38708656D01*
X48269347Y38800000D01*
X46775000Y38800000D01*
X46625000Y38650000D01*
X46525000Y38650000D01*
X46375000Y38800000D01*
X44880653Y38800000D01*
X44838217Y38782422D01*
X44850000Y38810870D01*
X44850000Y39129130D01*
X44838217Y39157578D01*
X44880653Y39140000D01*
X46375000Y39140000D01*
X46525000Y39290000D01*
X46525000Y40190000D01*
X46625000Y40190000D01*
X46625000Y39290000D01*
X46775000Y39140000D01*
X48269347Y39140000D01*
X48489872Y39231344D01*
X48658655Y39400127D01*
X48750000Y39620652D01*
X48750000Y40040000D01*
X48600000Y40190000D01*
X46625000Y40190000D01*
X46525000Y40190000D01*
X46505000Y40190000D01*
X46505000Y40290000D01*
X46525000Y40290000D01*
X46525000Y41190000D01*
X46625000Y41190000D01*
X46625000Y40290000D01*
X48600000Y40290000D01*
X48750000Y40440000D01*
X48750000Y40859348D01*
X48658655Y41079873D01*
X48489872Y41248656D01*
X48269347Y41340000D01*
X46775000Y41340000D01*
X46625000Y41190000D01*
X46525000Y41190000D01*
X46375000Y41340000D01*
X44950000Y41340000D01*
X44950000Y41680000D01*
X46375000Y41680000D01*
X46525000Y41830000D01*
X46525000Y42730000D01*
X46625000Y42730000D01*
X46625000Y41830000D01*
X46775000Y41680000D01*
X48269347Y41680000D01*
X48489872Y41771344D01*
X48658655Y41940127D01*
X48750000Y42160652D01*
X48750000Y42580000D01*
X48600000Y42730000D01*
X46625000Y42730000D01*
X46525000Y42730000D01*
X46505000Y42730000D01*
X46505000Y42830000D01*
X46525000Y42830000D01*
X46525000Y43730000D01*
X46625000Y43730000D01*
X46625000Y42830000D01*
X48600000Y42830000D01*
X48750000Y42980000D01*
X48750000Y43399348D01*
X48658655Y43619873D01*
X48489872Y43788656D01*
X48269347Y43880000D01*
X46775000Y43880000D01*
X46625000Y43730000D01*
X46525000Y43730000D01*
X46375000Y43880000D01*
X44880653Y43880000D01*
X44660128Y43788656D01*
X44491345Y43619873D01*
X44435918Y43486061D01*
X44209130Y43580000D01*
X43890870Y43580000D01*
X43596836Y43458207D01*
X43493035Y43354406D01*
X43476791Y43436072D01*
X43388384Y43568384D01*
X43256072Y43656791D01*
X43100000Y43687836D01*
X39950000Y43687836D01*
X39793928Y43656791D01*
X39661616Y43568384D01*
X39573209Y43436072D01*
X39542164Y43280000D01*
X36200000Y43280000D01*
X36200000Y47477390D01*
X40600000Y47477390D01*
X40600000Y46522610D01*
X40965378Y45640509D01*
X41640509Y44965378D01*
X42522610Y44600000D01*
X43477390Y44600000D01*
X44359491Y44965378D01*
X45034622Y45640509D01*
X45270598Y46210207D01*
X45389258Y45923737D01*
X45923737Y45389258D01*
X46622067Y45100000D01*
X47377933Y45100000D01*
X48076263Y45389258D01*
X48610742Y45923737D01*
X48900000Y46622067D01*
X48900000Y47377933D01*
X48610742Y48076263D01*
X48076263Y48610742D01*
X47377933Y48900000D01*
X46622067Y48900000D01*
X45923737Y48610742D01*
X45389258Y48076263D01*
X45270598Y47789793D01*
X45034622Y48359491D01*
X44359491Y49034622D01*
X43477390Y49400000D01*
X42522610Y49400000D01*
X41640509Y49034622D01*
X40965378Y48359491D01*
X40600000Y47477390D01*
X36200000Y47477390D01*
X36200000Y49525000D01*
X47192158Y49525000D01*
X49525001Y47192157D01*
X49525000Y2807842D01*
X47192158Y475000D01*
X2807842Y475000D01*
X475000Y2807842D01*
X475000Y3377933D01*
X1100000Y3377933D01*
X1100000Y2622067D01*
X1389258Y1923737D01*
X1923737Y1389258D01*
X2622067Y1100000D01*
X3377933Y1100000D01*
X4076263Y1389258D01*
X4610742Y1923737D01*
X4729402Y2210207D01*
X4965378Y1640509D01*
X5640509Y965378D01*
X6522610Y600000D01*
X7477390Y600000D01*
X8359491Y965378D01*
X9034622Y1640509D01*
X9307431Y2299130D01*
X22930000Y2299130D01*
X22930000Y1980870D01*
X23051793Y1686836D01*
X23276836Y1461793D01*
X23570870Y1340000D01*
X23889130Y1340000D01*
X24183164Y1461793D01*
X24258501Y1537130D01*
X29280000Y1537130D01*
X29280000Y1218870D01*
X29401793Y924836D01*
X29626836Y699793D01*
X29920870Y578000D01*
X30239130Y578000D01*
X30533164Y699793D01*
X30758207Y924836D01*
X30880000Y1218870D01*
X30880000Y1478629D01*
X30896836Y1461793D01*
X31190870Y1340000D01*
X31509130Y1340000D01*
X31803164Y1461793D01*
X32028207Y1686836D01*
X32150000Y1980870D01*
X32150000Y2299130D01*
X32028207Y2593164D01*
X31900000Y2721371D01*
X31900000Y2827733D01*
X31941793Y2726836D01*
X32166836Y2501793D01*
X32460870Y2380000D01*
X32779130Y2380000D01*
X33073164Y2501793D01*
X33298207Y2726836D01*
X33420000Y3020870D01*
X33420000Y3268629D01*
X33436836Y3251793D01*
X33730870Y3130000D01*
X34049130Y3130000D01*
X34343164Y3251793D01*
X34568207Y3476836D01*
X34568436Y3477390D01*
X40600000Y3477390D01*
X40600000Y2522610D01*
X40965378Y1640509D01*
X41640509Y965378D01*
X42522610Y600000D01*
X43477390Y600000D01*
X44359491Y965378D01*
X45034622Y1640509D01*
X45270598Y2210207D01*
X45389258Y1923737D01*
X45923737Y1389258D01*
X46622067Y1100000D01*
X47377933Y1100000D01*
X48076263Y1389258D01*
X48610742Y1923737D01*
X48900000Y2622067D01*
X48900000Y3377933D01*
X48610742Y4076263D01*
X48076263Y4610742D01*
X47377933Y4900000D01*
X46622067Y4900000D01*
X45923737Y4610742D01*
X45389258Y4076263D01*
X45270598Y3789793D01*
X45034622Y4359491D01*
X44359491Y5034622D01*
X43477390Y5400000D01*
X42522610Y5400000D01*
X41640509Y5034622D01*
X40965378Y4359491D01*
X40600000Y3477390D01*
X34568436Y3477390D01*
X34690000Y3770870D01*
X34690000Y4089130D01*
X34568207Y4383164D01*
X34440000Y4511371D01*
X34440000Y7564197D01*
X34548384Y7636616D01*
X34636791Y7768928D01*
X34667836Y7925000D01*
X34667836Y10325000D01*
X34636791Y10481072D01*
X34548384Y10613384D01*
X34416072Y10701791D01*
X34260000Y10732836D01*
X33520000Y10732836D01*
X33363928Y10701791D01*
X33255000Y10629009D01*
X33146072Y10701791D01*
X32990000Y10732836D01*
X32250000Y10732836D01*
X32093928Y10701791D01*
X31985000Y10629009D01*
X31876072Y10701791D01*
X31720000Y10732836D01*
X30980000Y10732836D01*
X30823928Y10701791D01*
X30715000Y10629009D01*
X30606072Y10701791D01*
X30450000Y10732836D01*
X29710000Y10732836D01*
X29553928Y10701791D01*
X29421616Y10613384D01*
X29333209Y10481072D01*
X29302164Y10325000D01*
X29302164Y7925000D01*
X29333209Y7768928D01*
X29421616Y7636616D01*
X29530001Y7564196D01*
X29530000Y1959371D01*
X29401793Y1831164D01*
X29280000Y1537130D01*
X24258501Y1537130D01*
X24408207Y1686836D01*
X24530000Y1980870D01*
X24530000Y2299130D01*
X24408207Y2593164D01*
X24280000Y2721371D01*
X24280000Y4327733D01*
X24321793Y4226836D01*
X24546836Y4001793D01*
X24840870Y3880000D01*
X25159130Y3880000D01*
X25453164Y4001793D01*
X25470000Y4018629D01*
X25470000Y3770870D01*
X25591793Y3476836D01*
X25816836Y3251793D01*
X26110870Y3130000D01*
X26429130Y3130000D01*
X26723164Y3251793D01*
X26948207Y3476836D01*
X27070000Y3770870D01*
X27070000Y4089130D01*
X26948207Y4383164D01*
X26820000Y4511371D01*
X26820000Y5077733D01*
X26861793Y4976836D01*
X27086836Y4751793D01*
X27380870Y4630000D01*
X27699130Y4630000D01*
X27993164Y4751793D01*
X28218207Y4976836D01*
X28340000Y5270870D01*
X28340000Y5589130D01*
X28218207Y5883164D01*
X28090000Y6011371D01*
X28090000Y7564197D01*
X28198384Y7636616D01*
X28286791Y7768928D01*
X28317836Y7925000D01*
X28317836Y10325000D01*
X28286791Y10481072D01*
X28198384Y10613384D01*
X28066072Y10701791D01*
X27910000Y10732836D01*
X27170000Y10732836D01*
X27013928Y10701791D01*
X26905000Y10629009D01*
X26796072Y10701791D01*
X26640000Y10732836D01*
X25900000Y10732836D01*
X25743928Y10701791D01*
X25635000Y10629009D01*
X25526072Y10701791D01*
X25370000Y10732836D01*
X24630000Y10732836D01*
X24473928Y10701791D01*
X24365000Y10629009D01*
X24256072Y10701791D01*
X24100000Y10732836D01*
X23360000Y10732836D01*
X23203928Y10701791D01*
X23071616Y10613384D01*
X22983209Y10481072D01*
X22952164Y10325000D01*
X22952164Y7925000D01*
X22983209Y7768928D01*
X23071616Y7636616D01*
X23180000Y7564197D01*
X23180001Y2721372D01*
X23051793Y2593164D01*
X22930000Y2299130D01*
X9307431Y2299130D01*
X9400000Y2522610D01*
X9400000Y3477390D01*
X9098975Y4204130D01*
X12770000Y4204130D01*
X12770000Y3885870D01*
X12891793Y3591836D01*
X13116836Y3366793D01*
X13410870Y3245000D01*
X13729130Y3245000D01*
X14023164Y3366793D01*
X14248207Y3591836D01*
X14370000Y3885870D01*
X14370000Y4018629D01*
X14386836Y4001793D01*
X14680870Y3880000D01*
X14999130Y3880000D01*
X15293164Y4001793D01*
X15380501Y4089130D01*
X17850000Y4089130D01*
X17850000Y3770870D01*
X17971793Y3476836D01*
X18196836Y3251793D01*
X18490870Y3130000D01*
X18809130Y3130000D01*
X19103164Y3251793D01*
X19328207Y3476836D01*
X19450000Y3770870D01*
X19450000Y4089130D01*
X19328207Y4383164D01*
X19200000Y4511371D01*
X19200000Y5077733D01*
X19241793Y4976836D01*
X19466836Y4751793D01*
X19760870Y4630000D01*
X20079130Y4630000D01*
X20373164Y4751793D01*
X20598207Y4976836D01*
X20720000Y5270870D01*
X20720000Y5518629D01*
X20736836Y5501793D01*
X21030870Y5380000D01*
X21349130Y5380000D01*
X21643164Y5501793D01*
X21868207Y5726836D01*
X21990000Y6020870D01*
X21990000Y6339130D01*
X21868207Y6633164D01*
X21740000Y6761371D01*
X21740000Y7564197D01*
X21848384Y7636616D01*
X21936791Y7768928D01*
X21967836Y7925000D01*
X21967836Y10325000D01*
X21936791Y10481072D01*
X21848384Y10613384D01*
X21716072Y10701791D01*
X21560000Y10732836D01*
X20820000Y10732836D01*
X20663928Y10701791D01*
X20555000Y10629009D01*
X20446072Y10701791D01*
X20290000Y10732836D01*
X19550000Y10732836D01*
X19393928Y10701791D01*
X19285000Y10629009D01*
X19176072Y10701791D01*
X19020000Y10732836D01*
X18280000Y10732836D01*
X18123928Y10701791D01*
X17991616Y10613384D01*
X17903209Y10481072D01*
X17872164Y10325000D01*
X17872164Y7925000D01*
X17903209Y7768928D01*
X17991616Y7636616D01*
X18100001Y7564197D01*
X18100000Y4511371D01*
X17971793Y4383164D01*
X17850000Y4089130D01*
X15380501Y4089130D01*
X15518207Y4226836D01*
X15640000Y4520870D01*
X15640000Y4839130D01*
X15518207Y5133164D01*
X15390000Y5261371D01*
X15390000Y6867733D01*
X15431793Y6766836D01*
X15656836Y6541793D01*
X15950870Y6420000D01*
X16269130Y6420000D01*
X16563164Y6541793D01*
X16788207Y6766836D01*
X16910000Y7060870D01*
X16910000Y7379130D01*
X16788207Y7673164D01*
X16772939Y7688432D01*
X16856791Y7813928D01*
X16887836Y7970000D01*
X16887836Y10370000D01*
X16856791Y10526072D01*
X16768384Y10658384D01*
X16636072Y10746791D01*
X16480000Y10777836D01*
X15740000Y10777836D01*
X15583928Y10746791D01*
X15475000Y10674009D01*
X15366072Y10746791D01*
X15210000Y10777836D01*
X14470000Y10777836D01*
X14313928Y10746791D01*
X14205000Y10674009D01*
X14096072Y10746791D01*
X13940000Y10777836D01*
X13200000Y10777836D01*
X13043928Y10746791D01*
X12911616Y10658384D01*
X12823209Y10526072D01*
X12792164Y10370000D01*
X12792164Y7970000D01*
X12823209Y7813928D01*
X12911616Y7681616D01*
X13020001Y7609197D01*
X13020000Y4626371D01*
X12891793Y4498164D01*
X12770000Y4204130D01*
X9098975Y4204130D01*
X9034622Y4359491D01*
X8359491Y5034622D01*
X7477390Y5400000D01*
X6522610Y5400000D01*
X5640509Y5034622D01*
X4965378Y4359491D01*
X4729402Y3789793D01*
X4610742Y4076263D01*
X4076263Y4610742D01*
X3377933Y4900000D01*
X2622067Y4900000D01*
X1923737Y4610742D01*
X1389258Y4076263D01*
X1100000Y3377933D01*
X475000Y3377933D01*
X475000Y14270000D01*
X12792164Y14270000D01*
X12792164Y11870000D01*
X12823209Y11713928D01*
X12911616Y11581616D01*
X13043928Y11493209D01*
X13200000Y11462164D01*
X13940000Y11462164D01*
X14096072Y11493209D01*
X14205000Y11565991D01*
X14313928Y11493209D01*
X14470000Y11462164D01*
X15210000Y11462164D01*
X15366072Y11493209D01*
X15475000Y11565991D01*
X15583928Y11493209D01*
X15740000Y11462164D01*
X16480000Y11462164D01*
X16636072Y11493209D01*
X16768384Y11581616D01*
X16856791Y11713928D01*
X16887836Y11870000D01*
X16887836Y14270000D01*
X16856791Y14426072D01*
X16768384Y14558384D01*
X16636072Y14646791D01*
X16635000Y14647004D01*
X16635000Y15630000D01*
X18652538Y15630000D01*
X18315333Y15292794D01*
X18271497Y15263504D01*
X18199188Y15155285D01*
X18155461Y15089844D01*
X18114715Y14885000D01*
X18125001Y14833289D01*
X18125001Y14602004D01*
X18123928Y14601791D01*
X17991616Y14513384D01*
X17903209Y14381072D01*
X17872164Y14225000D01*
X17872164Y11825000D01*
X17903209Y11668928D01*
X17991616Y11536616D01*
X18123928Y11448209D01*
X18280000Y11417164D01*
X19020000Y11417164D01*
X19176072Y11448209D01*
X19285000Y11520991D01*
X19393928Y11448209D01*
X19550000Y11417164D01*
X20290000Y11417164D01*
X20446072Y11448209D01*
X20555000Y11520991D01*
X20663928Y11448209D01*
X20820000Y11417164D01*
X21560000Y11417164D01*
X21716072Y11448209D01*
X21848384Y11536616D01*
X21936791Y11668928D01*
X21967836Y11825000D01*
X21967836Y14225000D01*
X21936791Y14381072D01*
X21848384Y14513384D01*
X21716072Y14601791D01*
X21715000Y14602004D01*
X21715000Y14995000D01*
X23216595Y14995000D01*
X23194715Y14885000D01*
X23205000Y14833295D01*
X23205000Y14602004D01*
X23203928Y14601791D01*
X23071616Y14513384D01*
X22983209Y14381072D01*
X22952164Y14225000D01*
X22952164Y11825000D01*
X22983209Y11668928D01*
X23071616Y11536616D01*
X23203928Y11448209D01*
X23360000Y11417164D01*
X24100000Y11417164D01*
X24256072Y11448209D01*
X24365000Y11520991D01*
X24473928Y11448209D01*
X24630000Y11417164D01*
X25370000Y11417164D01*
X25526072Y11448209D01*
X25635000Y11520991D01*
X25743928Y11448209D01*
X25900000Y11417164D01*
X26640000Y11417164D01*
X26796072Y11448209D01*
X26905000Y11520991D01*
X27013928Y11448209D01*
X27170000Y11417164D01*
X27910000Y11417164D01*
X28066072Y11448209D01*
X28198384Y11536616D01*
X28286791Y11668928D01*
X28317836Y11825000D01*
X28317836Y14225000D01*
X28286791Y14381072D01*
X28198384Y14513384D01*
X28069075Y14599784D01*
X28075285Y14631001D01*
X28062356Y14696000D01*
X28034539Y14835845D01*
X27918504Y15009504D01*
X27874665Y15038796D01*
X27693797Y15219664D01*
X27664504Y15263504D01*
X27490845Y15379539D01*
X27337706Y15410000D01*
X27286000Y15420285D01*
X27234294Y15410000D01*
X26487462Y15410000D01*
X25997461Y15900000D01*
X26050000Y15900000D01*
X26071675Y15921675D01*
X26239872Y15991344D01*
X26250000Y16001472D01*
X26260128Y15991344D01*
X26428325Y15921675D01*
X26450000Y15900000D01*
X26550000Y15900000D01*
X26571675Y15921675D01*
X26739872Y15991344D01*
X26750000Y16001472D01*
X26760128Y15991344D01*
X26928325Y15921675D01*
X26950000Y15900000D01*
X27100000Y15900000D01*
X27157030Y15957030D01*
X27239872Y15991344D01*
X27350000Y16101472D01*
X27350000Y16050000D01*
X27500000Y15900000D01*
X27619347Y15900000D01*
X27839872Y15991344D01*
X28008655Y16160127D01*
X28100000Y16380652D01*
X28100000Y16850000D01*
X27950000Y17000000D01*
X26180000Y17000000D01*
X26180000Y17100000D01*
X27950000Y17100000D01*
X28100000Y17250000D01*
X28100000Y17719348D01*
X28008655Y17939873D01*
X27839872Y18108656D01*
X27619347Y18200000D01*
X27500000Y18200000D01*
X27350000Y18050000D01*
X27350000Y17998528D01*
X27239872Y18108656D01*
X27157030Y18142970D01*
X27100000Y18200000D01*
X26950000Y18200000D01*
X26928325Y18178325D01*
X26760128Y18108656D01*
X26750000Y18098528D01*
X26739872Y18108656D01*
X26571675Y18178325D01*
X26550000Y18200000D01*
X26450000Y18200000D01*
X26428325Y18178325D01*
X26260128Y18108656D01*
X26250000Y18098528D01*
X26239872Y18108656D01*
X26071675Y18178325D01*
X26050000Y18200000D01*
X25950000Y18200000D01*
X25928325Y18178325D01*
X25760128Y18108656D01*
X25700000Y18048528D01*
X25700000Y18050000D01*
X25550000Y18200000D01*
X25480653Y18200000D01*
X25260128Y18108656D01*
X25159308Y18007836D01*
X25100000Y18007836D01*
X25000000Y17987945D01*
X24900000Y18007836D01*
X24600000Y18007836D01*
X24500000Y17987945D01*
X24400000Y18007836D01*
X24100000Y18007836D01*
X24000000Y17987945D01*
X23900000Y18007836D01*
X23840692Y18007836D01*
X23739872Y18108656D01*
X23519347Y18200000D01*
X23450000Y18200000D01*
X23300000Y18050000D01*
X23300000Y17870999D01*
X23250000Y17796168D01*
X23200000Y17870999D01*
X23200000Y18050000D01*
X23050000Y18200000D01*
X22980653Y18200000D01*
X22760128Y18108656D01*
X22659308Y18007836D01*
X22500000Y18007836D01*
X22343928Y17976791D01*
X22211616Y17888384D01*
X22170972Y17827555D01*
X21917000Y18081527D01*
X21917000Y18392957D01*
X22020707Y18350000D01*
X22279293Y18350000D01*
X22518195Y18448957D01*
X22701043Y18631805D01*
X22800000Y18870707D01*
X22800000Y19129293D01*
X22701043Y19368195D01*
X22518195Y19551043D01*
X22279293Y19650000D01*
X22020707Y19650000D01*
X21917000Y19607043D01*
X21917000Y19918473D01*
X22170972Y20172445D01*
X22211616Y20111616D01*
X22343928Y20023209D01*
X22500000Y19992164D01*
X22659308Y19992164D01*
X22760128Y19891344D01*
X22980653Y19800000D01*
X23050000Y19800000D01*
X23200000Y19950000D01*
X23200000Y19951472D01*
X23260128Y19891344D01*
X23428325Y19821675D01*
X23450000Y19800000D01*
X23550000Y19800000D01*
X23571675Y19821675D01*
X23739872Y19891344D01*
X23741659Y19893131D01*
X23755461Y19823743D01*
X23871496Y19650083D01*
X23915335Y19620791D01*
X24245804Y19290321D01*
X24275095Y19246484D01*
X24422242Y19148164D01*
X24448754Y19130449D01*
X24653598Y19089703D01*
X24705304Y19099988D01*
X27200000Y19099988D01*
X27200000Y18870707D01*
X27298957Y18631805D01*
X27481805Y18448957D01*
X27720707Y18350000D01*
X27979293Y18350000D01*
X28158001Y18424024D01*
X28158000Y16669706D01*
X28147715Y16618000D01*
X28179023Y16460604D01*
X28188461Y16413156D01*
X28304496Y16239496D01*
X28348336Y16210203D01*
X29555001Y15003537D01*
X29555001Y14602004D01*
X29553928Y14601791D01*
X29421616Y14513384D01*
X29333209Y14381072D01*
X29302164Y14225000D01*
X29302164Y11825000D01*
X29333209Y11668928D01*
X29421616Y11536616D01*
X29553928Y11448209D01*
X29710000Y11417164D01*
X30450000Y11417164D01*
X30606072Y11448209D01*
X30715000Y11520991D01*
X30823928Y11448209D01*
X30980000Y11417164D01*
X31720000Y11417164D01*
X31876072Y11448209D01*
X31985000Y11520991D01*
X32093928Y11448209D01*
X32250000Y11417164D01*
X32990000Y11417164D01*
X33146072Y11448209D01*
X33255000Y11520991D01*
X33363928Y11448209D01*
X33520000Y11417164D01*
X34260000Y11417164D01*
X34416072Y11448209D01*
X34548384Y11536616D01*
X34636791Y11668928D01*
X34667836Y11825000D01*
X34667836Y12800000D01*
X39542164Y12800000D01*
X39542164Y11800000D01*
X39573209Y11643928D01*
X39661616Y11511616D01*
X39793928Y11423209D01*
X39950000Y11392164D01*
X43100000Y11392164D01*
X43256072Y11423209D01*
X43388384Y11511616D01*
X43476791Y11643928D01*
X43493035Y11725594D01*
X43553629Y11665000D01*
X43371793Y11483164D01*
X43250000Y11189130D01*
X43250000Y10870870D01*
X43337345Y10660000D01*
X43139394Y10660000D01*
X43100000Y10667836D01*
X39950000Y10667836D01*
X39793928Y10636791D01*
X39661616Y10548384D01*
X39573209Y10416072D01*
X39542164Y10260000D01*
X39542164Y9260000D01*
X39573209Y9103928D01*
X39661616Y8971616D01*
X39793928Y8883209D01*
X39950000Y8852164D01*
X43100000Y8852164D01*
X43139394Y8860000D01*
X43229106Y8860000D01*
X43150000Y8669021D01*
X43150000Y8310979D01*
X43229106Y8120000D01*
X43139394Y8120000D01*
X43100000Y8127836D01*
X39950000Y8127836D01*
X39793928Y8096791D01*
X39661616Y8008384D01*
X39573209Y7876072D01*
X39542164Y7720000D01*
X39542164Y6720000D01*
X39573209Y6563928D01*
X39661616Y6431616D01*
X39793928Y6343209D01*
X39950000Y6312164D01*
X43100000Y6312164D01*
X43139394Y6320000D01*
X44138642Y6320000D01*
X44401163Y6372219D01*
X44643231Y6533963D01*
X44711616Y6431616D01*
X44843928Y6343209D01*
X45000000Y6312164D01*
X46525753Y6312164D01*
X46575000Y6302368D01*
X46624247Y6312164D01*
X48150000Y6312164D01*
X48306072Y6343209D01*
X48438384Y6431616D01*
X48526791Y6563928D01*
X48557836Y6720000D01*
X48557836Y7720000D01*
X48526791Y7876072D01*
X48438384Y8008384D01*
X48306072Y8096791D01*
X48150000Y8127836D01*
X47490000Y8127836D01*
X47490000Y8852164D01*
X48150000Y8852164D01*
X48306072Y8883209D01*
X48438384Y8971616D01*
X48526791Y9103928D01*
X48557836Y9260000D01*
X48557836Y10260000D01*
X48526791Y10416072D01*
X48438384Y10548384D01*
X48306072Y10636791D01*
X48150000Y10667836D01*
X47475000Y10667836D01*
X47475000Y10865949D01*
X47507632Y11029999D01*
X47492984Y11103642D01*
X47475000Y11194051D01*
X47475000Y11392164D01*
X48150000Y11392164D01*
X48306072Y11423209D01*
X48438384Y11511616D01*
X48526791Y11643928D01*
X48557836Y11800000D01*
X48557836Y12800000D01*
X48526791Y12956072D01*
X48438384Y13088384D01*
X48306072Y13176791D01*
X48150000Y13207836D01*
X47305900Y13207836D01*
X47390000Y13410870D01*
X47390000Y13729130D01*
X47305900Y13932164D01*
X48150000Y13932164D01*
X48306072Y13963209D01*
X48438384Y14051616D01*
X48526791Y14183928D01*
X48557836Y14340000D01*
X48557836Y15340000D01*
X48526791Y15496072D01*
X48438384Y15628384D01*
X48306072Y15716791D01*
X48150000Y15747836D01*
X45000000Y15747836D01*
X44843928Y15716791D01*
X44711616Y15628384D01*
X44623209Y15496072D01*
X44592164Y15340000D01*
X44592164Y14340000D01*
X44623209Y14183928D01*
X44711616Y14051616D01*
X44843928Y13963209D01*
X45000000Y13932164D01*
X45874100Y13932164D01*
X45790000Y13729130D01*
X45790000Y13410870D01*
X45874100Y13207836D01*
X45000000Y13207836D01*
X44843928Y13176791D01*
X44711616Y13088384D01*
X44623209Y12956072D01*
X44606965Y12874406D01*
X44503164Y12978207D01*
X44209130Y13100000D01*
X43890870Y13100000D01*
X43596836Y12978207D01*
X43493035Y12874406D01*
X43476791Y12956072D01*
X43388384Y13088384D01*
X43256072Y13176791D01*
X43100000Y13207836D01*
X39950000Y13207836D01*
X39793928Y13176791D01*
X39661616Y13088384D01*
X39573209Y12956072D01*
X39542164Y12800000D01*
X34667836Y12800000D01*
X34667836Y14225000D01*
X34636791Y14381072D01*
X34548384Y14513384D01*
X34421007Y14598494D01*
X34425285Y14620001D01*
X34412213Y14685715D01*
X34384539Y14824845D01*
X34268504Y14998504D01*
X34267568Y14999130D01*
X38170000Y14999130D01*
X38170000Y14680870D01*
X38291793Y14386836D01*
X38516836Y14161793D01*
X38810870Y14040000D01*
X39129130Y14040000D01*
X39423164Y14161793D01*
X39551371Y14290000D01*
X39552110Y14290000D01*
X39573209Y14183928D01*
X39661616Y14051616D01*
X39793928Y13963209D01*
X39950000Y13932164D01*
X43100000Y13932164D01*
X43256072Y13963209D01*
X43388384Y14051616D01*
X43476791Y14183928D01*
X43507836Y14340000D01*
X43507836Y15340000D01*
X43476791Y15496072D01*
X43388384Y15628384D01*
X43256072Y15716791D01*
X43100000Y15747836D01*
X39950000Y15747836D01*
X39793928Y15716791D01*
X39661616Y15628384D01*
X39573209Y15496072D01*
X39552110Y15390000D01*
X39551371Y15390000D01*
X39423164Y15518207D01*
X39129130Y15640000D01*
X38810870Y15640000D01*
X38516836Y15518207D01*
X38291793Y15293164D01*
X38170000Y14999130D01*
X34267568Y14999130D01*
X34224668Y15027794D01*
X33696796Y15555665D01*
X33667504Y15599504D01*
X33493845Y15715539D01*
X33340706Y15746000D01*
X33289000Y15756285D01*
X33237294Y15746000D01*
X32671706Y15746000D01*
X32620000Y15756285D01*
X32568294Y15746000D01*
X32202462Y15746000D01*
X31848461Y16100000D01*
X32776846Y16100000D01*
X33185161Y16269130D01*
X43250000Y16269130D01*
X43250000Y15950870D01*
X43371793Y15656836D01*
X43596836Y15431793D01*
X43890870Y15310000D01*
X44209130Y15310000D01*
X44503164Y15431793D01*
X44728207Y15656836D01*
X44850000Y15950870D01*
X44850000Y15952184D01*
X45369981Y16472164D01*
X48150000Y16472164D01*
X48306072Y16503209D01*
X48438384Y16591616D01*
X48526791Y16723928D01*
X48557836Y16880000D01*
X48557836Y17880000D01*
X48526791Y18036072D01*
X48438384Y18168384D01*
X48306072Y18256791D01*
X48150000Y18287836D01*
X45000000Y18287836D01*
X44843928Y18256791D01*
X44711616Y18168384D01*
X44623209Y18036072D01*
X44592164Y17880000D01*
X44592164Y17249981D01*
X44239574Y16897390D01*
X44209130Y16910000D01*
X43890870Y16910000D01*
X43596836Y16788207D01*
X43371793Y16563164D01*
X43250000Y16269130D01*
X33185161Y16269130D01*
X33842718Y16541499D01*
X34658501Y17357282D01*
X34733824Y17539130D01*
X38170000Y17539130D01*
X38170000Y17220870D01*
X38291793Y16926836D01*
X38516836Y16701793D01*
X38810870Y16580000D01*
X39129130Y16580000D01*
X39423164Y16701793D01*
X39551371Y16830000D01*
X39552110Y16830000D01*
X39573209Y16723928D01*
X39661616Y16591616D01*
X39793928Y16503209D01*
X39950000Y16472164D01*
X43100000Y16472164D01*
X43256072Y16503209D01*
X43388384Y16591616D01*
X43476791Y16723928D01*
X43507836Y16880000D01*
X43507836Y17880000D01*
X43476791Y18036072D01*
X43388384Y18168384D01*
X43256072Y18256791D01*
X43100000Y18287836D01*
X39950000Y18287836D01*
X39793928Y18256791D01*
X39661616Y18168384D01*
X39573209Y18036072D01*
X39552110Y17930000D01*
X39551371Y17930000D01*
X39423164Y18058207D01*
X39129130Y18180000D01*
X38810870Y18180000D01*
X38516836Y18058207D01*
X38291793Y17833164D01*
X38170000Y17539130D01*
X34733824Y17539130D01*
X35100000Y18423154D01*
X35100000Y19576846D01*
X34891947Y20079130D01*
X38170000Y20079130D01*
X38170000Y19760870D01*
X38291793Y19466836D01*
X38516836Y19241793D01*
X38810870Y19120000D01*
X39129130Y19120000D01*
X39423164Y19241793D01*
X39551371Y19370000D01*
X39552110Y19370000D01*
X39573209Y19263928D01*
X39661616Y19131616D01*
X39793928Y19043209D01*
X39950000Y19012164D01*
X43100000Y19012164D01*
X43256072Y19043209D01*
X43355967Y19109956D01*
X43250000Y18854130D01*
X43250000Y18535870D01*
X43371793Y18241836D01*
X43596836Y18016793D01*
X43890870Y17895000D01*
X44209130Y17895000D01*
X44503164Y18016793D01*
X44728207Y18241836D01*
X44850000Y18535870D01*
X44850000Y18717183D01*
X44877211Y18744394D01*
X44877213Y18744397D01*
X45144980Y19012164D01*
X48150000Y19012164D01*
X48306072Y19043209D01*
X48438384Y19131616D01*
X48526791Y19263928D01*
X48557836Y19420000D01*
X48557836Y20420000D01*
X48526791Y20576072D01*
X48438384Y20708384D01*
X48306072Y20796791D01*
X48150000Y20827836D01*
X45000000Y20827836D01*
X44843928Y20796791D01*
X44711616Y20708384D01*
X44623209Y20576072D01*
X44592164Y20420000D01*
X44592164Y20014981D01*
X44099397Y19522213D01*
X44099394Y19522211D01*
X44072183Y19495000D01*
X43890870Y19495000D01*
X43596836Y19373207D01*
X43455113Y19231484D01*
X43476791Y19263928D01*
X43507836Y19420000D01*
X43507836Y20420000D01*
X43476791Y20576072D01*
X43388384Y20708384D01*
X43256072Y20796791D01*
X43100000Y20827836D01*
X39950000Y20827836D01*
X39793928Y20796791D01*
X39661616Y20708384D01*
X39573209Y20576072D01*
X39552110Y20470000D01*
X39551371Y20470000D01*
X39423164Y20598207D01*
X39129130Y20720000D01*
X38810870Y20720000D01*
X38516836Y20598207D01*
X38291793Y20373164D01*
X38170000Y20079130D01*
X34891947Y20079130D01*
X34658501Y20642718D01*
X33842718Y21458501D01*
X32776846Y21900000D01*
X31623154Y21900000D01*
X30557282Y21458501D01*
X29741499Y20642718D01*
X29400057Y19818405D01*
X28808798Y20409664D01*
X28779505Y20453503D01*
X28605846Y20569538D01*
X28452707Y20599999D01*
X28401001Y20610284D01*
X28349295Y20599999D01*
X28100000Y20599999D01*
X28100000Y20750000D01*
X27950000Y20900000D01*
X27230000Y20900000D01*
X27230000Y21000000D01*
X27950000Y21000000D01*
X28100000Y21150000D01*
X28100000Y21619348D01*
X28008655Y21839873D01*
X27839872Y22008656D01*
X27619347Y22100000D01*
X27500000Y22100000D01*
X27350000Y21950000D01*
X27350000Y21898528D01*
X27239872Y22008656D01*
X27157030Y22042970D01*
X27100000Y22100000D01*
X26950000Y22100000D01*
X26928325Y22078325D01*
X26760128Y22008656D01*
X26700000Y21948528D01*
X26700000Y21950000D01*
X26550000Y22100000D01*
X26480653Y22100000D01*
X26260128Y22008656D01*
X26159308Y21907836D01*
X26100000Y21907836D01*
X26000000Y21887945D01*
X25900000Y21907836D01*
X25600000Y21907836D01*
X25500000Y21887945D01*
X25400000Y21907836D01*
X25100000Y21907836D01*
X25000000Y21887945D01*
X24900000Y21907836D01*
X24600000Y21907836D01*
X24500000Y21887945D01*
X24400000Y21907836D01*
X24340692Y21907836D01*
X24239872Y22008656D01*
X24019347Y22100000D01*
X23950000Y22100000D01*
X23800000Y21950000D01*
X23800000Y21948528D01*
X23739872Y22008656D01*
X23571675Y22078325D01*
X23550000Y22100000D01*
X23450000Y22100000D01*
X23428325Y22078325D01*
X23300002Y22025172D01*
X23300002Y22100000D01*
X23300000Y22100000D01*
X23300000Y22422629D01*
X23392207Y22514836D01*
X23514000Y22808870D01*
X23514000Y23127130D01*
X23392207Y23421164D01*
X23167164Y23646207D01*
X22873130Y23768000D01*
X22554870Y23768000D01*
X22260836Y23646207D01*
X22035793Y23421164D01*
X21914000Y23127130D01*
X21914000Y22808870D01*
X22035793Y22514836D01*
X22100001Y22450628D01*
X22100000Y21561753D01*
X22099999Y21561753D01*
X22040913Y21550000D01*
X22040909Y21550000D01*
X21865892Y21515187D01*
X21667425Y21382575D01*
X21633953Y21332481D01*
X20934519Y20633046D01*
X20884426Y20599575D01*
X20850954Y20549481D01*
X20850953Y20549480D01*
X20751814Y20401108D01*
X20705247Y20167000D01*
X20717001Y20107909D01*
X20717000Y17892087D01*
X20705247Y17833000D01*
X20717000Y17773914D01*
X20717000Y17773910D01*
X20751813Y17598893D01*
X20884425Y17400425D01*
X20934521Y17366952D01*
X21621472Y16680000D01*
X19581219Y16680000D01*
X20258501Y17357282D01*
X20700000Y18423154D01*
X20700000Y19576846D01*
X20258501Y20642718D01*
X19442718Y21458501D01*
X18376846Y21900000D01*
X17223154Y21900000D01*
X16157282Y21458501D01*
X15341499Y20642718D01*
X14900000Y19576846D01*
X14900000Y18423154D01*
X15341499Y17357282D01*
X16018781Y16680000D01*
X14891706Y16680000D01*
X14840000Y16690285D01*
X14788294Y16680000D01*
X14256706Y16680000D01*
X14205000Y16690285D01*
X14072212Y16663872D01*
X14000155Y16649539D01*
X13826496Y16533504D01*
X13797205Y16489667D01*
X13235333Y15927794D01*
X13191497Y15898504D01*
X13161289Y15853294D01*
X13075461Y15724844D01*
X13034715Y15520000D01*
X13045000Y15468294D01*
X13045000Y14833295D01*
X13045001Y14833290D01*
X13045001Y14647004D01*
X13043928Y14646791D01*
X12911616Y14558384D01*
X12823209Y14426072D01*
X12792164Y14270000D01*
X475000Y14270000D01*
X475000Y25159130D01*
X38170000Y25159130D01*
X38170000Y24840870D01*
X38291793Y24546836D01*
X38516836Y24321793D01*
X38810870Y24200000D01*
X39129130Y24200000D01*
X39423164Y24321793D01*
X39551371Y24450000D01*
X39552110Y24450000D01*
X39573209Y24343928D01*
X39661616Y24211616D01*
X39793928Y24123209D01*
X39950000Y24092164D01*
X43100000Y24092164D01*
X43256072Y24123209D01*
X43388384Y24211616D01*
X43476791Y24343928D01*
X43493035Y24425594D01*
X43553629Y24365000D01*
X43371793Y24183164D01*
X43250000Y23889130D01*
X43250000Y23707817D01*
X42910020Y23367836D01*
X39950000Y23367836D01*
X39793928Y23336791D01*
X39661616Y23248384D01*
X39573209Y23116072D01*
X39542164Y22960000D01*
X39542164Y21960000D01*
X39573209Y21803928D01*
X39661616Y21671616D01*
X39793928Y21583209D01*
X39950000Y21552164D01*
X43100000Y21552164D01*
X43256072Y21583209D01*
X43388384Y21671616D01*
X43476791Y21803928D01*
X43493035Y21885594D01*
X43596836Y21781793D01*
X43890870Y21660000D01*
X44209130Y21660000D01*
X44503164Y21781793D01*
X44606965Y21885594D01*
X44623209Y21803928D01*
X44711616Y21671616D01*
X44843928Y21583209D01*
X45000000Y21552164D01*
X48150000Y21552164D01*
X48306072Y21583209D01*
X48438384Y21671616D01*
X48526791Y21803928D01*
X48557836Y21960000D01*
X48557836Y22960000D01*
X48526791Y23116072D01*
X48438384Y23248384D01*
X48306072Y23336791D01*
X48150000Y23367836D01*
X45000000Y23367836D01*
X44843928Y23336791D01*
X44711616Y23248384D01*
X44623209Y23116072D01*
X44606965Y23034406D01*
X44546371Y23095000D01*
X44728207Y23276836D01*
X44850000Y23570870D01*
X44850000Y23889130D01*
X44728207Y24183164D01*
X44546371Y24365000D01*
X44606965Y24425594D01*
X44623209Y24343928D01*
X44711616Y24211616D01*
X44843928Y24123209D01*
X45000000Y24092164D01*
X48150000Y24092164D01*
X48306072Y24123209D01*
X48438384Y24211616D01*
X48526791Y24343928D01*
X48557836Y24500000D01*
X48557836Y25500000D01*
X48526791Y25656072D01*
X48438384Y25788384D01*
X48306072Y25876791D01*
X48150000Y25907836D01*
X45000000Y25907836D01*
X44843928Y25876791D01*
X44711616Y25788384D01*
X44623209Y25656072D01*
X44606965Y25574406D01*
X44503164Y25678207D01*
X44209130Y25800000D01*
X43890870Y25800000D01*
X43596836Y25678207D01*
X43493035Y25574406D01*
X43476791Y25656072D01*
X43388384Y25788384D01*
X43256072Y25876791D01*
X43100000Y25907836D01*
X39950000Y25907836D01*
X39793928Y25876791D01*
X39661616Y25788384D01*
X39573209Y25656072D01*
X39552110Y25550000D01*
X39551371Y25550000D01*
X39423164Y25678207D01*
X39129130Y25800000D01*
X38810870Y25800000D01*
X38516836Y25678207D01*
X38291793Y25453164D01*
X38170000Y25159130D01*
X475000Y25159130D01*
X475000Y30080000D01*
X38154328Y30080000D01*
X38170000Y30001211D01*
X38170000Y29920870D01*
X38200745Y29846645D01*
X38216417Y29767856D01*
X38261048Y29701062D01*
X38291793Y29626836D01*
X38348604Y29570025D01*
X38393233Y29503233D01*
X38460025Y29458604D01*
X38516836Y29401793D01*
X38591062Y29371048D01*
X38657856Y29326417D01*
X38736645Y29310745D01*
X38810870Y29280000D01*
X39679001Y29280000D01*
X39793928Y29203209D01*
X39950000Y29172164D01*
X43100000Y29172164D01*
X43256072Y29203209D01*
X43388384Y29291616D01*
X43476791Y29423928D01*
X43493035Y29505594D01*
X43553629Y29445000D01*
X43371793Y29263164D01*
X43250000Y28969130D01*
X43250000Y28787817D01*
X42910020Y28447836D01*
X39950000Y28447836D01*
X39793928Y28416791D01*
X39661616Y28328384D01*
X39573209Y28196072D01*
X39542164Y28040000D01*
X39542164Y27040000D01*
X39573209Y26883928D01*
X39661616Y26751616D01*
X39793928Y26663209D01*
X39950000Y26632164D01*
X43100000Y26632164D01*
X43256072Y26663209D01*
X43388384Y26751616D01*
X43476791Y26883928D01*
X43493035Y26965594D01*
X43596836Y26861793D01*
X43890870Y26740000D01*
X44209130Y26740000D01*
X44503164Y26861793D01*
X44606965Y26965594D01*
X44623209Y26883928D01*
X44711616Y26751616D01*
X44843928Y26663209D01*
X45000000Y26632164D01*
X48150000Y26632164D01*
X48306072Y26663209D01*
X48438384Y26751616D01*
X48526791Y26883928D01*
X48557836Y27040000D01*
X48557836Y28040000D01*
X48526791Y28196072D01*
X48438384Y28328384D01*
X48306072Y28416791D01*
X48150000Y28447836D01*
X45000000Y28447836D01*
X44843928Y28416791D01*
X44711616Y28328384D01*
X44623209Y28196072D01*
X44606965Y28114406D01*
X44546371Y28175000D01*
X44728207Y28356836D01*
X44850000Y28650870D01*
X44850000Y28969130D01*
X44728207Y29263164D01*
X44546371Y29445000D01*
X44606965Y29505594D01*
X44623209Y29423928D01*
X44711616Y29291616D01*
X44843928Y29203209D01*
X45000000Y29172164D01*
X48150000Y29172164D01*
X48306072Y29203209D01*
X48438384Y29291616D01*
X48526791Y29423928D01*
X48557836Y29580000D01*
X48557836Y30580000D01*
X48526791Y30736072D01*
X48438384Y30868384D01*
X48306072Y30956791D01*
X48150000Y30987836D01*
X45000000Y30987836D01*
X44843928Y30956791D01*
X44711616Y30868384D01*
X44623209Y30736072D01*
X44606965Y30654406D01*
X44503164Y30758207D01*
X44209130Y30880000D01*
X43890870Y30880000D01*
X43596836Y30758207D01*
X43493035Y30654406D01*
X43476791Y30736072D01*
X43388384Y30868384D01*
X43256072Y30956791D01*
X43100000Y30987836D01*
X39950000Y30987836D01*
X39793928Y30956791D01*
X39679001Y30880000D01*
X38810870Y30880000D01*
X38736645Y30849255D01*
X38657856Y30833583D01*
X38591062Y30788952D01*
X38516836Y30758207D01*
X38460025Y30701396D01*
X38393233Y30656767D01*
X38348604Y30589975D01*
X38291793Y30533164D01*
X38261048Y30458938D01*
X38216417Y30392144D01*
X38200745Y30313355D01*
X38170000Y30239130D01*
X38170000Y30158789D01*
X38154328Y30080000D01*
X475000Y30080000D01*
X475000Y47192158D01*
X660775Y47377933D01*
X1100000Y47377933D01*
X1100000Y46622067D01*
X1389258Y45923737D01*
X1923737Y45389258D01*
X2622067Y45100000D01*
X3377933Y45100000D01*
X4076263Y45389258D01*
X4610742Y45923737D01*
X4729402Y46210207D01*
X4965378Y45640509D01*
X5640509Y44965378D01*
X6522610Y44600000D01*
X7477390Y44600000D01*
X8359491Y44965378D01*
X9034622Y45640509D01*
X9400000Y46522610D01*
X9400000Y47477390D01*
X9034622Y48359491D01*
X8359491Y49034622D01*
X7477390Y49400000D01*
X6522610Y49400000D01*
X5640509Y49034622D01*
X4965378Y48359491D01*
X4729402Y47789793D01*
X4610742Y48076263D01*
X4076263Y48610742D01*
X3377933Y48900000D01*
X2622067Y48900000D01*
X1923737Y48610742D01*
X1389258Y48076263D01*
X1100000Y47377933D01*
X660775Y47377933D01*
X2807842Y49525000D01*
X13800000Y49525000D01*
X13800000Y37500000D01*
D22*
G36*
X27900000Y21758578D02*
X27900000Y20499999D01*
X27840000Y20499999D01*
X27840000Y20845000D01*
X27755000Y20930000D01*
X27320000Y20930000D01*
X27320000Y20910000D01*
X27280000Y20910000D01*
X27280000Y20930000D01*
X26770000Y20930000D01*
X26770000Y20910000D01*
X26730000Y20910000D01*
X26730000Y20930000D01*
X26710000Y20930000D01*
X26710000Y20970000D01*
X26730000Y20970000D01*
X26730000Y21567630D01*
X26760000Y21567630D01*
X26760000Y21055000D01*
X26770000Y21045000D01*
X26770000Y20970000D01*
X27280000Y20970000D01*
X27280000Y21755000D01*
X27320000Y21755000D01*
X27320000Y20970000D01*
X27755000Y20970000D01*
X27840000Y21055000D01*
X27840000Y21567630D01*
X27788238Y21692595D01*
X27692594Y21788238D01*
X27567630Y21840000D01*
X27405000Y21840000D01*
X27320000Y21755000D01*
X27280000Y21755000D01*
X27195000Y21840000D01*
X27032370Y21840000D01*
X27000000Y21826592D01*
X26967630Y21840000D01*
X26855000Y21840000D01*
X26770000Y21755000D01*
X26770000Y21591772D01*
X26760000Y21567630D01*
X26730000Y21567630D01*
X26730000Y21755000D01*
X26645000Y21840000D01*
X26532370Y21840000D01*
X26433772Y21799159D01*
X26400000Y21805877D01*
X26100000Y21805877D01*
X26000000Y21785985D01*
X25900000Y21805877D01*
X25600000Y21805877D01*
X25500000Y21785985D01*
X25400000Y21805877D01*
X25100000Y21805877D01*
X25000000Y21785985D01*
X24900000Y21805877D01*
X24600000Y21805877D01*
X24500000Y21785985D01*
X24400000Y21805877D01*
X24100000Y21805877D01*
X24066228Y21799159D01*
X23967630Y21840000D01*
X23855000Y21840000D01*
X23770000Y21755000D01*
X23770000Y20970000D01*
X23790000Y20970000D01*
X23790000Y20930000D01*
X23770000Y20930000D01*
X23770000Y20145000D01*
X23825000Y20090000D01*
X23825000Y20070445D01*
X23816674Y20028587D01*
X23825000Y19986730D01*
X23849659Y19862761D01*
X23943592Y19722179D01*
X23979080Y19698466D01*
X24323480Y19354066D01*
X24347191Y19318580D01*
X24382676Y19294870D01*
X24487772Y19224647D01*
X24653598Y19191662D01*
X24695456Y19199988D01*
X27337522Y19199988D01*
X27300000Y19109402D01*
X27300000Y18890598D01*
X27383733Y18688450D01*
X27538450Y18533733D01*
X27740598Y18450000D01*
X27900000Y18450000D01*
X27900000Y15241422D01*
X27758578Y15100000D01*
X27672040Y15100000D01*
X27616121Y15155919D01*
X27592408Y15191408D01*
X27451827Y15285341D01*
X27327858Y15310000D01*
X27327857Y15310000D01*
X27286000Y15318326D01*
X27244143Y15310000D01*
X26446041Y15310000D01*
X25675000Y16081040D01*
X25675000Y16190000D01*
X25730000Y16245000D01*
X25730000Y16945000D01*
X25760000Y16945000D01*
X25760000Y16432370D01*
X25770000Y16408228D01*
X25770000Y16245000D01*
X25855000Y16160000D01*
X25967630Y16160000D01*
X26000000Y16173408D01*
X26032370Y16160000D01*
X26145000Y16160000D01*
X26230000Y16245000D01*
X26230000Y16408228D01*
X26240000Y16432370D01*
X26240000Y16945000D01*
X26260000Y16945000D01*
X26260000Y16432370D01*
X26270000Y16408228D01*
X26270000Y16245000D01*
X26355000Y16160000D01*
X26467630Y16160000D01*
X26500000Y16173408D01*
X26532370Y16160000D01*
X26645000Y16160000D01*
X26730000Y16245000D01*
X26730000Y16408228D01*
X26740000Y16432370D01*
X26740000Y16945000D01*
X26760000Y16945000D01*
X26760000Y16432370D01*
X26770000Y16408228D01*
X26770000Y16245000D01*
X26855000Y16160000D01*
X26967630Y16160000D01*
X27000000Y16173408D01*
X27032370Y16160000D01*
X27195000Y16160000D01*
X27280000Y16245000D01*
X27280000Y17030000D01*
X27320000Y17030000D01*
X27320000Y16245000D01*
X27405000Y16160000D01*
X27567630Y16160000D01*
X27692594Y16211762D01*
X27788238Y16307405D01*
X27840000Y16432370D01*
X27840000Y16945000D01*
X27755000Y17030000D01*
X27320000Y17030000D01*
X27280000Y17030000D01*
X26770000Y17030000D01*
X26770000Y16955000D01*
X26760000Y16945000D01*
X26740000Y16945000D01*
X26730000Y16955000D01*
X26730000Y17030000D01*
X26270000Y17030000D01*
X26270000Y16955000D01*
X26260000Y16945000D01*
X26240000Y16945000D01*
X26230000Y16955000D01*
X26230000Y17030000D01*
X25770000Y17030000D01*
X25770000Y16955000D01*
X25760000Y16945000D01*
X25730000Y16945000D01*
X25730000Y17030000D01*
X25710000Y17030000D01*
X25710000Y17070000D01*
X25730000Y17070000D01*
X25730000Y17667630D01*
X25760000Y17667630D01*
X25760000Y17155000D01*
X25770000Y17145000D01*
X25770000Y17070000D01*
X26230000Y17070000D01*
X26230000Y17145000D01*
X26240000Y17155000D01*
X26240000Y17667630D01*
X26260000Y17667630D01*
X26260000Y17155000D01*
X26270000Y17145000D01*
X26270000Y17070000D01*
X26730000Y17070000D01*
X26730000Y17145000D01*
X26740000Y17155000D01*
X26740000Y17667630D01*
X26760000Y17667630D01*
X26760000Y17155000D01*
X26770000Y17145000D01*
X26770000Y17070000D01*
X27280000Y17070000D01*
X27280000Y17855000D01*
X27320000Y17855000D01*
X27320000Y17070000D01*
X27755000Y17070000D01*
X27840000Y17155000D01*
X27840000Y17667630D01*
X27788238Y17792595D01*
X27692594Y17888238D01*
X27567630Y17940000D01*
X27405000Y17940000D01*
X27320000Y17855000D01*
X27280000Y17855000D01*
X27195000Y17940000D01*
X27032370Y17940000D01*
X27000000Y17926592D01*
X26967630Y17940000D01*
X26855000Y17940000D01*
X26770000Y17855000D01*
X26770000Y17691772D01*
X26760000Y17667630D01*
X26740000Y17667630D01*
X26730000Y17691772D01*
X26730000Y17855000D01*
X26645000Y17940000D01*
X26532370Y17940000D01*
X26500000Y17926592D01*
X26467630Y17940000D01*
X26355000Y17940000D01*
X26270000Y17855000D01*
X26270000Y17691772D01*
X26260000Y17667630D01*
X26240000Y17667630D01*
X26230000Y17691772D01*
X26230000Y17855000D01*
X26145000Y17940000D01*
X26032370Y17940000D01*
X26000000Y17926592D01*
X25967630Y17940000D01*
X25855000Y17940000D01*
X25770000Y17855000D01*
X25770000Y17691772D01*
X25760000Y17667630D01*
X25730000Y17667630D01*
X25730000Y17855000D01*
X25645000Y17940000D01*
X25532370Y17940000D01*
X25433772Y17899159D01*
X25400000Y17905877D01*
X25100000Y17905877D01*
X25000000Y17885985D01*
X24900000Y17905877D01*
X24600000Y17905877D01*
X24500000Y17885985D01*
X24400000Y17905877D01*
X24100000Y17905877D01*
X24000000Y17885985D01*
X23900000Y17905877D01*
X23600000Y17905877D01*
X23566228Y17899159D01*
X23467630Y17940000D01*
X23355000Y17940000D01*
X23270000Y17855000D01*
X23270000Y17070000D01*
X23290000Y17070000D01*
X23290000Y17030000D01*
X23270000Y17030000D01*
X23270000Y17010000D01*
X23230000Y17010000D01*
X23230000Y17030000D01*
X23210000Y17030000D01*
X23210000Y17070000D01*
X23230000Y17070000D01*
X23230000Y17855000D01*
X23145000Y17940000D01*
X23032370Y17940000D01*
X22933772Y17899159D01*
X22900000Y17905877D01*
X22500000Y17905877D01*
X22382946Y17882593D01*
X22283712Y17816288D01*
X22217407Y17717054D01*
X22204573Y17652534D01*
X21817000Y18040106D01*
X21817000Y18555183D01*
X21838450Y18533733D01*
X22040598Y18450000D01*
X22259402Y18450000D01*
X22461550Y18533733D01*
X22616267Y18688450D01*
X22700000Y18890598D01*
X22700000Y19109402D01*
X22616267Y19311550D01*
X22461550Y19466267D01*
X22259402Y19550000D01*
X22040598Y19550000D01*
X21838450Y19466267D01*
X21817000Y19444817D01*
X21817000Y19959894D01*
X22204573Y20347466D01*
X22217407Y20282946D01*
X22283712Y20183712D01*
X22382946Y20117407D01*
X22500000Y20094123D01*
X22900000Y20094123D01*
X22933772Y20100841D01*
X23032370Y20060000D01*
X23145000Y20060000D01*
X23230000Y20145000D01*
X23230000Y20845000D01*
X23260000Y20845000D01*
X23260000Y20332370D01*
X23270000Y20308228D01*
X23270000Y20145000D01*
X23355000Y20060000D01*
X23467630Y20060000D01*
X23500000Y20073408D01*
X23532370Y20060000D01*
X23645000Y20060000D01*
X23730000Y20145000D01*
X23730000Y20308228D01*
X23740000Y20332370D01*
X23740000Y20845000D01*
X23730000Y20855000D01*
X23730000Y20930000D01*
X23270000Y20930000D01*
X23270000Y20855000D01*
X23260000Y20845000D01*
X23230000Y20845000D01*
X23230000Y20930000D01*
X23210000Y20930000D01*
X23210000Y20970000D01*
X23230000Y20970000D01*
X23230000Y21567630D01*
X23260000Y21567630D01*
X23260000Y21055000D01*
X23270000Y21045000D01*
X23270000Y20970000D01*
X23730000Y20970000D01*
X23730000Y21045000D01*
X23740000Y21055000D01*
X23740000Y21567630D01*
X23730000Y21591772D01*
X23730000Y21755000D01*
X23645000Y21840000D01*
X23532370Y21840000D01*
X23500000Y21826592D01*
X23467630Y21840000D01*
X23355000Y21840000D01*
X23270000Y21755000D01*
X23270000Y21591772D01*
X23260000Y21567630D01*
X23230000Y21567630D01*
X23230000Y21755000D01*
X23200000Y21785000D01*
X23200000Y21900000D01*
X27758578Y21900000D01*
X27900000Y21758578D01*
X27900000Y21758578D01*
G37*
X27900000Y21758578D02*
X27900000Y20499999D01*
X27840000Y20499999D01*
X27840000Y20845000D01*
X27755000Y20930000D01*
X27320000Y20930000D01*
X27320000Y20910000D01*
X27280000Y20910000D01*
X27280000Y20930000D01*
X26770000Y20930000D01*
X26770000Y20910000D01*
X26730000Y20910000D01*
X26730000Y20930000D01*
X26710000Y20930000D01*
X26710000Y20970000D01*
X26730000Y20970000D01*
X26730000Y21567630D01*
X26760000Y21567630D01*
X26760000Y21055000D01*
X26770000Y21045000D01*
X26770000Y20970000D01*
X27280000Y20970000D01*
X27280000Y21755000D01*
X27320000Y21755000D01*
X27320000Y20970000D01*
X27755000Y20970000D01*
X27840000Y21055000D01*
X27840000Y21567630D01*
X27788238Y21692595D01*
X27692594Y21788238D01*
X27567630Y21840000D01*
X27405000Y21840000D01*
X27320000Y21755000D01*
X27280000Y21755000D01*
X27195000Y21840000D01*
X27032370Y21840000D01*
X27000000Y21826592D01*
X26967630Y21840000D01*
X26855000Y21840000D01*
X26770000Y21755000D01*
X26770000Y21591772D01*
X26760000Y21567630D01*
X26730000Y21567630D01*
X26730000Y21755000D01*
X26645000Y21840000D01*
X26532370Y21840000D01*
X26433772Y21799159D01*
X26400000Y21805877D01*
X26100000Y21805877D01*
X26000000Y21785985D01*
X25900000Y21805877D01*
X25600000Y21805877D01*
X25500000Y21785985D01*
X25400000Y21805877D01*
X25100000Y21805877D01*
X25000000Y21785985D01*
X24900000Y21805877D01*
X24600000Y21805877D01*
X24500000Y21785985D01*
X24400000Y21805877D01*
X24100000Y21805877D01*
X24066228Y21799159D01*
X23967630Y21840000D01*
X23855000Y21840000D01*
X23770000Y21755000D01*
X23770000Y20970000D01*
X23790000Y20970000D01*
X23790000Y20930000D01*
X23770000Y20930000D01*
X23770000Y20145000D01*
X23825000Y20090000D01*
X23825000Y20070445D01*
X23816674Y20028587D01*
X23825000Y19986730D01*
X23849659Y19862761D01*
X23943592Y19722179D01*
X23979080Y19698466D01*
X24323480Y19354066D01*
X24347191Y19318580D01*
X24382676Y19294870D01*
X24487772Y19224647D01*
X24653598Y19191662D01*
X24695456Y19199988D01*
X27337522Y19199988D01*
X27300000Y19109402D01*
X27300000Y18890598D01*
X27383733Y18688450D01*
X27538450Y18533733D01*
X27740598Y18450000D01*
X27900000Y18450000D01*
X27900000Y15241422D01*
X27758578Y15100000D01*
X27672040Y15100000D01*
X27616121Y15155919D01*
X27592408Y15191408D01*
X27451827Y15285341D01*
X27327858Y15310000D01*
X27327857Y15310000D01*
X27286000Y15318326D01*
X27244143Y15310000D01*
X26446041Y15310000D01*
X25675000Y16081040D01*
X25675000Y16190000D01*
X25730000Y16245000D01*
X25730000Y16945000D01*
X25760000Y16945000D01*
X25760000Y16432370D01*
X25770000Y16408228D01*
X25770000Y16245000D01*
X25855000Y16160000D01*
X25967630Y16160000D01*
X26000000Y16173408D01*
X26032370Y16160000D01*
X26145000Y16160000D01*
X26230000Y16245000D01*
X26230000Y16408228D01*
X26240000Y16432370D01*
X26240000Y16945000D01*
X26260000Y16945000D01*
X26260000Y16432370D01*
X26270000Y16408228D01*
X26270000Y16245000D01*
X26355000Y16160000D01*
X26467630Y16160000D01*
X26500000Y16173408D01*
X26532370Y16160000D01*
X26645000Y16160000D01*
X26730000Y16245000D01*
X26730000Y16408228D01*
X26740000Y16432370D01*
X26740000Y16945000D01*
X26760000Y16945000D01*
X26760000Y16432370D01*
X26770000Y16408228D01*
X26770000Y16245000D01*
X26855000Y16160000D01*
X26967630Y16160000D01*
X27000000Y16173408D01*
X27032370Y16160000D01*
X27195000Y16160000D01*
X27280000Y16245000D01*
X27280000Y17030000D01*
X27320000Y17030000D01*
X27320000Y16245000D01*
X27405000Y16160000D01*
X27567630Y16160000D01*
X27692594Y16211762D01*
X27788238Y16307405D01*
X27840000Y16432370D01*
X27840000Y16945000D01*
X27755000Y17030000D01*
X27320000Y17030000D01*
X27280000Y17030000D01*
X26770000Y17030000D01*
X26770000Y16955000D01*
X26760000Y16945000D01*
X26740000Y16945000D01*
X26730000Y16955000D01*
X26730000Y17030000D01*
X26270000Y17030000D01*
X26270000Y16955000D01*
X26260000Y16945000D01*
X26240000Y16945000D01*
X26230000Y16955000D01*
X26230000Y17030000D01*
X25770000Y17030000D01*
X25770000Y16955000D01*
X25760000Y16945000D01*
X25730000Y16945000D01*
X25730000Y17030000D01*
X25710000Y17030000D01*
X25710000Y17070000D01*
X25730000Y17070000D01*
X25730000Y17667630D01*
X25760000Y17667630D01*
X25760000Y17155000D01*
X25770000Y17145000D01*
X25770000Y17070000D01*
X26230000Y17070000D01*
X26230000Y17145000D01*
X26240000Y17155000D01*
X26240000Y17667630D01*
X26260000Y17667630D01*
X26260000Y17155000D01*
X26270000Y17145000D01*
X26270000Y17070000D01*
X26730000Y17070000D01*
X26730000Y17145000D01*
X26740000Y17155000D01*
X26740000Y17667630D01*
X26760000Y17667630D01*
X26760000Y17155000D01*
X26770000Y17145000D01*
X26770000Y17070000D01*
X27280000Y17070000D01*
X27280000Y17855000D01*
X27320000Y17855000D01*
X27320000Y17070000D01*
X27755000Y17070000D01*
X27840000Y17155000D01*
X27840000Y17667630D01*
X27788238Y17792595D01*
X27692594Y17888238D01*
X27567630Y17940000D01*
X27405000Y17940000D01*
X27320000Y17855000D01*
X27280000Y17855000D01*
X27195000Y17940000D01*
X27032370Y17940000D01*
X27000000Y17926592D01*
X26967630Y17940000D01*
X26855000Y17940000D01*
X26770000Y17855000D01*
X26770000Y17691772D01*
X26760000Y17667630D01*
X26740000Y17667630D01*
X26730000Y17691772D01*
X26730000Y17855000D01*
X26645000Y17940000D01*
X26532370Y17940000D01*
X26500000Y17926592D01*
X26467630Y17940000D01*
X26355000Y17940000D01*
X26270000Y17855000D01*
X26270000Y17691772D01*
X26260000Y17667630D01*
X26240000Y17667630D01*
X26230000Y17691772D01*
X26230000Y17855000D01*
X26145000Y17940000D01*
X26032370Y17940000D01*
X26000000Y17926592D01*
X25967630Y17940000D01*
X25855000Y17940000D01*
X25770000Y17855000D01*
X25770000Y17691772D01*
X25760000Y17667630D01*
X25730000Y17667630D01*
X25730000Y17855000D01*
X25645000Y17940000D01*
X25532370Y17940000D01*
X25433772Y17899159D01*
X25400000Y17905877D01*
X25100000Y17905877D01*
X25000000Y17885985D01*
X24900000Y17905877D01*
X24600000Y17905877D01*
X24500000Y17885985D01*
X24400000Y17905877D01*
X24100000Y17905877D01*
X24000000Y17885985D01*
X23900000Y17905877D01*
X23600000Y17905877D01*
X23566228Y17899159D01*
X23467630Y17940000D01*
X23355000Y17940000D01*
X23270000Y17855000D01*
X23270000Y17070000D01*
X23290000Y17070000D01*
X23290000Y17030000D01*
X23270000Y17030000D01*
X23270000Y17010000D01*
X23230000Y17010000D01*
X23230000Y17030000D01*
X23210000Y17030000D01*
X23210000Y17070000D01*
X23230000Y17070000D01*
X23230000Y17855000D01*
X23145000Y17940000D01*
X23032370Y17940000D01*
X22933772Y17899159D01*
X22900000Y17905877D01*
X22500000Y17905877D01*
X22382946Y17882593D01*
X22283712Y17816288D01*
X22217407Y17717054D01*
X22204573Y17652534D01*
X21817000Y18040106D01*
X21817000Y18555183D01*
X21838450Y18533733D01*
X22040598Y18450000D01*
X22259402Y18450000D01*
X22461550Y18533733D01*
X22616267Y18688450D01*
X22700000Y18890598D01*
X22700000Y19109402D01*
X22616267Y19311550D01*
X22461550Y19466267D01*
X22259402Y19550000D01*
X22040598Y19550000D01*
X21838450Y19466267D01*
X21817000Y19444817D01*
X21817000Y19959894D01*
X22204573Y20347466D01*
X22217407Y20282946D01*
X22283712Y20183712D01*
X22382946Y20117407D01*
X22500000Y20094123D01*
X22900000Y20094123D01*
X22933772Y20100841D01*
X23032370Y20060000D01*
X23145000Y20060000D01*
X23230000Y20145000D01*
X23230000Y20845000D01*
X23260000Y20845000D01*
X23260000Y20332370D01*
X23270000Y20308228D01*
X23270000Y20145000D01*
X23355000Y20060000D01*
X23467630Y20060000D01*
X23500000Y20073408D01*
X23532370Y20060000D01*
X23645000Y20060000D01*
X23730000Y20145000D01*
X23730000Y20308228D01*
X23740000Y20332370D01*
X23740000Y20845000D01*
X23730000Y20855000D01*
X23730000Y20930000D01*
X23270000Y20930000D01*
X23270000Y20855000D01*
X23260000Y20845000D01*
X23230000Y20845000D01*
X23230000Y20930000D01*
X23210000Y20930000D01*
X23210000Y20970000D01*
X23230000Y20970000D01*
X23230000Y21567630D01*
X23260000Y21567630D01*
X23260000Y21055000D01*
X23270000Y21045000D01*
X23270000Y20970000D01*
X23730000Y20970000D01*
X23730000Y21045000D01*
X23740000Y21055000D01*
X23740000Y21567630D01*
X23730000Y21591772D01*
X23730000Y21755000D01*
X23645000Y21840000D01*
X23532370Y21840000D01*
X23500000Y21826592D01*
X23467630Y21840000D01*
X23355000Y21840000D01*
X23270000Y21755000D01*
X23270000Y21591772D01*
X23260000Y21567630D01*
X23230000Y21567630D01*
X23230000Y21755000D01*
X23200000Y21785000D01*
X23200000Y21900000D01*
X27758578Y21900000D01*
X27900000Y21758578D01*
G36*
X21711625Y16731268D02*
X21739520Y16689520D01*
X21903430Y16580000D01*
X21100000Y16580000D01*
X21100000Y17342894D01*
X21711625Y16731268D01*
X21711625Y16731268D01*
G37*
X21711625Y16731268D02*
X21739520Y16689520D01*
X21903430Y16580000D01*
X21100000Y16580000D01*
X21100000Y17342894D01*
X21711625Y16731268D01*
G36*
X22200000Y21529547D02*
X22194123Y21500000D01*
X22194123Y21450000D01*
X22149240Y21450000D01*
X22099999Y21459795D01*
X22050758Y21450000D01*
X22050757Y21450000D01*
X21904910Y21420989D01*
X21739520Y21310480D01*
X21711625Y21268732D01*
X21100000Y20657106D01*
X21100000Y21758578D01*
X21241422Y21900000D01*
X22200000Y21900000D01*
X22200000Y21529547D01*
X22200000Y21529547D01*
G37*
X22200000Y21529547D02*
X22194123Y21500000D01*
X22194123Y21450000D01*
X22149240Y21450000D01*
X22099999Y21459795D01*
X22050758Y21450000D01*
X22050757Y21450000D01*
X21904910Y21420989D01*
X21739520Y21310480D01*
X21711625Y21268732D01*
X21100000Y20657106D01*
X21100000Y21758578D01*
X21241422Y21900000D01*
X22200000Y21900000D01*
X22200000Y21529547D01*
G04 #@! TD*
M02*
