G04 #@! TF.GenerationSoftware,KiCad,Pcbnew,(5.0.0)*
G04 #@! TF.CreationDate,2018-10-17T05:01:04+09:00*
G04 #@! TF.ProjectId,M5Stack_WiSUN,4D35537461636B5F576953554E2E6B69,rev?*
G04 #@! TF.SameCoordinates,PX989680PY55d4a80*
G04 #@! TF.FileFunction,Soldermask,Top*
G04 #@! TF.FilePolarity,Negative*
%FSLAX46Y46*%
G04 Gerber Fmt 4.6, Leading zero omitted, Abs format (unit mm)*
G04 Created by KiCad (PCBNEW (5.0.0)) date 10/17/18 05:01:04*
%MOMM*%
%LPD*%
G01*
G04 APERTURE LIST*
%ADD10R,1.140000X2.800000*%
%ADD11C,5.400000*%
%ADD12R,0.800000X1.500000*%
%ADD13R,0.700000X1.500000*%
%ADD14C,0.900000*%
%ADD15C,1.400000*%
%ADD16C,1.200000*%
%ADD17R,3.550000X1.400000*%
%ADD18C,3.400000*%
%ADD19C,4.400000*%
G04 APERTURE END LIST*
D10*
G04 #@! TO.C,J3*
X27540000Y13025000D03*
X27540000Y9125000D03*
X26270000Y13025000D03*
X26270000Y9125000D03*
X25000000Y13025000D03*
X25000000Y9125000D03*
X23730000Y13025000D03*
X23730000Y9125000D03*
G04 #@! TD*
D11*
G04 #@! TO.C,U1*
X17800000Y19000000D03*
X32200000Y19000000D03*
D12*
X22700000Y20950000D03*
D13*
X23250000Y20950000D03*
X23750000Y20950000D03*
X24250000Y20950000D03*
X24750000Y20950000D03*
X25250000Y20950000D03*
X25750000Y20950000D03*
X26250000Y20950000D03*
X26750000Y20950000D03*
D12*
X27300000Y20950000D03*
X22700000Y17050000D03*
D13*
X23250000Y17050000D03*
X23750000Y17050000D03*
X24250000Y17050000D03*
X24750000Y17050000D03*
X25250000Y17050000D03*
X25750000Y17050000D03*
X26250000Y17050000D03*
X26750000Y17050000D03*
D12*
X27300000Y17050000D03*
D14*
X22150000Y19000000D03*
X27850000Y19000000D03*
G04 #@! TD*
D15*
G04 #@! TO.C,J2*
X44050000Y8490000D03*
X44050000Y41510000D03*
G04 #@! TD*
D16*
G04 #@! TO.C,J1*
X44050000Y11030000D03*
X44050000Y38970000D03*
D17*
X41525000Y42780000D03*
X46575000Y42780000D03*
X41525000Y40240000D03*
X46575000Y40240000D03*
X41525000Y37700000D03*
X46575000Y37700000D03*
X41525000Y35160000D03*
X46575000Y35160000D03*
X41525000Y32620000D03*
X46575000Y32620000D03*
X41525000Y30080000D03*
X46575000Y30080000D03*
X41525000Y27540000D03*
X46575000Y27540000D03*
X41525000Y25000000D03*
X46575000Y25000000D03*
X41525000Y22460000D03*
X46575000Y22460000D03*
X41525000Y19920000D03*
X46575000Y19920000D03*
X41525000Y17380000D03*
X46575000Y17380000D03*
X41525000Y14840000D03*
X46575000Y14840000D03*
X41525000Y12300000D03*
X46575000Y12300000D03*
X41525000Y9760000D03*
X46575000Y9760000D03*
X41525000Y7220000D03*
X46575000Y7220000D03*
G04 #@! TD*
D18*
G04 #@! TO.C,MH1*
X3000000Y3000000D03*
G04 #@! TD*
G04 #@! TO.C,MH2*
X47000000Y3000000D03*
G04 #@! TD*
G04 #@! TO.C,MH3*
X3000000Y47000000D03*
G04 #@! TD*
G04 #@! TO.C,MH4*
X47000000Y47000000D03*
G04 #@! TD*
D19*
G04 #@! TO.C,MH5*
X7000000Y3000000D03*
G04 #@! TD*
G04 #@! TO.C,MH6*
X43000000Y3000000D03*
G04 #@! TD*
G04 #@! TO.C,MH7*
X7000000Y47000000D03*
G04 #@! TD*
G04 #@! TO.C,MH8*
X43000000Y47000000D03*
G04 #@! TD*
D10*
G04 #@! TO.C,J4*
X16110000Y13070000D03*
X16110000Y9170000D03*
X14840000Y13070000D03*
X14840000Y9170000D03*
X13570000Y13070000D03*
X13570000Y9170000D03*
G04 #@! TD*
G04 #@! TO.C,J5*
X18650000Y9125000D03*
X18650000Y13025000D03*
X19920000Y9125000D03*
X19920000Y13025000D03*
X21190000Y9125000D03*
X21190000Y13025000D03*
G04 #@! TD*
G04 #@! TO.C,J6*
X30080000Y9125000D03*
X30080000Y13025000D03*
X31350000Y9125000D03*
X31350000Y13025000D03*
X32620000Y9125000D03*
X32620000Y13025000D03*
X33890000Y9125000D03*
X33890000Y13025000D03*
G04 #@! TD*
M02*
